<svg width="157" height="41" viewBox="0 0 157 41" fill="none" xmlns="http://www.w3.org/2000/svg">
<mask id="mask0_7254_287855" style="mask-type:luminance" maskUnits="userSpaceOnUse" x="0" y="0" width="157" height="41">
<path d="M157 0.759766H0V40.7363H157V0.759766Z" fill="white"/>
</mask>
<g mask="url(#mask0_7254_287855)">
<path fill-rule="evenodd" clip-rule="evenodd" d="M9.84998 6.90604C19.4468 2.00569 30.8956 0.587165 40.8712 4.24094C52.2779 9.22726 53.8773 17.0936 49.7103 24.96C47.4795 15.2882 31.4848 11.9353 20.3728 15.89C18.8575 16.6208 17.4685 16.9217 16.5425 16.1479C14.4379 13.1819 11.7862 10.1729 9.63952 7.24993C9.51325 7.16395 9.7237 6.99201 9.84998 6.90604Z" fill="#9EDBF4"/>
</g>
<mask id="mask1_7254_287855" style="mask-type:luminance" maskUnits="userSpaceOnUse" x="0" y="0" width="157" height="41">
<path d="M157 0.759766H0V40.7363H157V0.759766Z" fill="white"/>
</mask>
<g mask="url(#mask1_7254_287855)">
<path d="M10.5222 6.60427C20.119 1.70391 30.8944 0.586289 40.87 4.28305C52.2767 9.26937 53.8761 17.1357 49.7091 25.0021C51.6453 9.57027 29.3791 8.83951 18.267 12.7942C16.6255 13.31 15.6574 13.439 15.1102 12.7512C13.0056 9.7852 11.7429 8.66757 9.68042 7.07711C9.51206 6.94815 10.396 6.64725 10.5222 6.60427Z" stroke="white" stroke-width="0.0168864" stroke-linecap="round" stroke-linejoin="round"/>
</g>
<mask id="mask2_7254_287855" style="mask-type:luminance" maskUnits="userSpaceOnUse" x="0" y="0" width="157" height="41">
<path d="M157 0.759766H0V40.7363H157V0.759766Z" fill="white"/>
</mask>
<g mask="url(#mask2_7254_287855)">
<path fill-rule="evenodd" clip-rule="evenodd" d="M10.5222 6.60427C20.119 1.70391 30.8944 0.586289 40.87 4.28305C52.2767 9.26937 53.8761 17.1357 49.7091 25.0021C51.6453 9.57027 29.3791 8.83951 18.267 12.7942C16.6255 13.31 15.6574 13.439 15.1102 12.7512C13.0056 9.7852 11.7429 8.66757 9.68042 7.07711C9.51206 6.94815 10.396 6.64725 10.5222 6.60427Z" fill="#005DA9"/>
</g>
<mask id="mask3_7254_287855" style="mask-type:luminance" maskUnits="userSpaceOnUse" x="0" y="0" width="157" height="41">
<path d="M157 0.759766H0V40.7363H157V0.759766Z" fill="white"/>
</mask>
<g mask="url(#mask3_7254_287855)">
<path d="M10.5222 6.60427C20.119 1.70391 30.8944 0.586289 40.87 4.28305C52.2767 9.26937 53.8761 17.1357 49.7091 25.0021C51.6453 9.57027 29.3791 8.83951 18.267 12.7942C16.6255 13.31 15.6574 13.439 15.1102 12.7512C13.0056 9.7852 11.7429 8.66757 9.68042 7.07711C9.51206 6.94815 10.396 6.64725 10.5222 6.60427Z" stroke="white" stroke-width="0.0168864" stroke-linecap="round" stroke-linejoin="round"/>
</g>
<path fill-rule="evenodd" clip-rule="evenodd" d="M16.9209 13.2255C17.426 14.515 17.8048 15.4177 18.4362 16.5784C21.5509 15.2888 24.8761 14.601 28.3276 14.3431C27.9909 13.1825 27.6962 12.1508 27.3595 10.9902C23.445 11.4201 20.1619 12.1508 16.9209 13.2255Z" fill="#009EE0"/>
<mask id="mask4_7254_287855" style="mask-type:luminance" maskUnits="userSpaceOnUse" x="0" y="0" width="157" height="41">
<path d="M157 0.759766H0V40.7363H157V0.759766Z" fill="white"/>
</mask>
<g mask="url(#mask4_7254_287855)">
<path fill-rule="evenodd" clip-rule="evenodd" d="M7.36477 10.3027C4.46048 12.538 2.06128 15.2031 0.882731 18.9428C-2.86338 29.6462 5.72321 37.2547 19.6133 38.8451C30.8937 39.6619 38.9331 37.5126 47.2251 30.9788C34.9766 35.1914 26.2216 33.257 20.7498 31.3656C15.0254 29.3883 10.9846 25.9065 11.7422 20.2754C11.9106 19.1578 13.1733 18.8569 12.7945 16.7076C11.2792 14.3434 9.46933 12.1941 7.36477 10.3027Z" fill="#102A83"/>
</g>
<mask id="mask5_7254_287855" style="mask-type:luminance" maskUnits="userSpaceOnUse" x="0" y="0" width="157" height="41">
<path d="M157 0.759766H0V40.7363H157V0.759766Z" fill="white"/>
</mask>
<g mask="url(#mask5_7254_287855)">
<path fill-rule="evenodd" clip-rule="evenodd" d="M7.87011 11.9355C8.3752 12.4084 8.54356 12.6233 9.09075 13.2251C2.06153 18.1685 2.39826 25.605 2.27198 27.1094C-0.295578 22.2091 3.49263 15.8472 7.87011 11.9355Z" fill="#009EE0"/>
</g>
<path fill-rule="evenodd" clip-rule="evenodd" d="M39.4013 1.31836C39.233 1.36134 39.0646 1.40433 38.8962 1.44732C38.7279 1.44732 38.5595 1.4903 38.349 1.4903H18.6504C18.4399 1.4903 18.2716 1.4903 18.1032 1.44732C17.9348 1.40433 17.7665 1.36134 17.5981 1.31836L15.9565 8.325C16.5879 7.68022 17.3035 7.20738 18.0611 6.86349C18.8608 6.51961 19.7868 6.34767 20.797 6.34767H23.6171V26.7228C23.6171 27.3246 23.575 27.8834 23.4909 28.4422C23.4067 29.0011 23.2383 29.5169 22.9858 30.0327C22.7332 30.5485 22.3544 30.9784 21.8493 31.3653H33.2981C32.793 30.9784 32.4142 30.5055 32.1616 30.0327C31.9091 29.5599 31.7407 29.0011 31.6565 28.4422C31.5724 27.8834 31.5303 27.3246 31.5303 26.7228V6.34767H34.3504C34.7713 6.34767 35.1922 6.34767 35.6973 6.43364C36.1603 6.47662 36.6233 6.64857 37.0021 6.90648C37.423 7.12141 37.7177 7.50828 37.9281 8.0241L39.4013 1.31836Z" fill="#E30016"/>
<mask id="mask6_7254_287855" style="mask-type:luminance" maskUnits="userSpaceOnUse" x="0" y="0" width="157" height="41">
<path d="M157 0.759766H0V40.7363H157V0.759766Z" fill="white"/>
</mask>
<g mask="url(#mask6_7254_287855)">
<path d="M39.3901 1.31836C39.2217 1.36134 39.0534 1.40433 38.885 1.44732C38.7166 1.44732 38.5483 1.4903 38.3378 1.4903H18.6391C18.4287 1.4903 18.2603 1.4903 18.092 1.44732C17.9236 1.40433 17.7552 1.36134 17.5869 1.31836L15.9453 8.325C16.5767 7.68022 17.2922 7.20738 18.0499 6.86349C18.8496 6.51961 19.7756 6.34767 20.7858 6.34767H23.6059V26.7228C23.6059 27.3246 23.5638 27.8834 23.4796 28.4422C23.3954 29.0011 23.2271 29.5169 22.9745 30.0327C22.722 30.5485 22.3432 30.9784 21.8381 31.3653H33.2869C32.7818 30.9784 32.403 30.5055 32.1504 30.0327C31.8979 29.5599 31.7295 29.0011 31.6453 28.4422C31.5611 27.8834 31.519 27.3246 31.519 26.7228V6.34767H34.3391C34.7601 6.34767 35.181 6.34767 35.6861 6.43364C36.1491 6.47662 36.6121 6.64857 36.9909 6.90648C37.4118 7.12141 37.7064 7.50828 37.9169 8.0241L39.3901 1.31836Z" stroke="white" stroke-width="0.0208511" stroke-linecap="round" stroke-linejoin="round"/>
</g>
<path d="M95.4629 1.23247C95.9259 1.61934 96.3047 2.0492 96.5573 2.52204C96.8098 2.99488 96.9782 3.51071 97.0624 4.06952C97.1465 4.62833 97.1886 5.18714 97.1886 5.74595V25.6912C97.1886 26.2501 97.1465 26.8089 97.0624 27.3677C96.9782 27.9265 96.8098 28.4423 96.5573 28.9152C96.3047 29.388 95.968 29.8179 95.4629 30.2047H106.575C106.112 29.8179 105.733 29.388 105.481 28.9152C105.228 28.4423 105.06 27.9265 104.975 27.3677C104.891 26.8089 104.849 26.2501 104.849 25.6912V5.96088H110.7C111.247 5.96088 111.794 6.00387 112.257 6.08984C112.72 6.17581 113.183 6.34775 113.562 6.64865C113.941 6.90656 114.32 7.33642 114.614 7.89523L114.193 1.10352C114.067 1.1465 113.899 1.18949 113.73 1.23247C113.562 1.27546 113.352 1.27546 113.141 1.27546H95.4629V1.23247Z" fill="#E30016"/>
<mask id="mask7_7254_287855" style="mask-type:luminance" maskUnits="userSpaceOnUse" x="0" y="0" width="157" height="41">
<path d="M157 0.759766H0V40.7363H157V0.759766Z" fill="white"/>
</mask>
<g mask="url(#mask7_7254_287855)">
<path d="M95.4629 1.23247C95.9259 1.61934 96.3047 2.0492 96.5573 2.52204C96.8098 2.99488 96.9782 3.51071 97.0624 4.06952C97.1465 4.62833 97.1886 5.18714 97.1886 5.74595V25.6912C97.1886 26.2501 97.1465 26.8089 97.0624 27.3677C96.9782 27.9265 96.8098 28.4423 96.5573 28.9152C96.3047 29.388 95.968 29.8179 95.4629 30.2047H106.575C106.112 29.8179 105.733 29.388 105.481 28.9152C105.228 28.4423 105.06 27.9265 104.975 27.3677C104.891 26.8089 104.849 26.2501 104.849 25.6912V5.96088H110.7C111.247 5.96088 111.794 6.00387 112.257 6.08984C112.72 6.17581 113.183 6.34775 113.562 6.64865C113.941 6.90656 114.32 7.33642 114.614 7.89523L114.193 1.10352C114.067 1.1465 113.899 1.18949 113.73 1.23247C113.562 1.27546 113.352 1.27546 113.141 1.27546H95.4629V1.23247Z" stroke="white" stroke-width="0.0208511" stroke-linecap="round" stroke-linejoin="round"/>
</g>
<path d="M116.257 11.9453C117.056 11.9883 117.77 12.0737 118.442 12.3311C119.031 12.5564 119.554 12.8477 119.985 13.2041L120.165 13.3613C120.627 13.7903 121.005 14.3049 121.257 14.9053C121.509 15.5058 121.635 16.1493 121.635 16.8789C121.635 17.5923 121.507 18.2073 121.306 18.7812L121.215 19.0244C120.921 19.6676 120.543 20.1824 120.081 20.6543C119.64 21.0674 119.166 21.4152 118.633 21.668L118.4 21.7705C117.77 22.0282 117.054 22.2423 116.34 22.3281V22.3291C115.635 22.4562 114.888 22.4566 114.101 22.374C114.825 21.9997 115.425 21.5297 115.843 20.9619L116.013 20.71C116.435 20.0204 116.646 19.158 116.646 18.168C116.645 17.6039 116.613 17.1044 116.492 16.6992L116.435 16.5312C116.308 16.0576 116.096 15.713 115.843 15.4541H115.844C115.653 15.2272 115.439 15.0734 115.219 14.9561L114.998 14.8496C114.702 14.72 114.364 14.6768 114.068 14.6768H113.815V14.6865H113.806V27.2812C113.806 27.4534 113.816 27.6258 113.832 27.7979L113.891 28.3145C113.933 28.6586 114.017 28.9601 114.186 29.2617V29.2627C114.31 29.5589 114.556 29.8132 114.842 30.0654H107.947C108.16 29.8769 108.329 29.6887 108.47 29.4824L108.604 29.2637L108.605 29.2627C108.7 29.037 108.795 28.8104 108.854 28.5654L108.9 28.3145C108.942 27.9707 108.984 27.6258 108.984 27.2812V14.8154C108.984 14.6432 108.974 14.471 108.958 14.2988L108.9 13.7832V13.7822C108.858 13.4813 108.774 13.1368 108.605 12.835C108.479 12.5331 108.226 12.2745 107.933 12.0176V11.9453H116.257Z" fill="#E30016" stroke="white" stroke-width="0.0191057"/>
<path d="M131.571 12.0742L136.83 27.0264L136.831 27.0273C137.052 27.5427 137.249 28.0104 137.44 28.3936L137.631 28.748C137.778 28.9627 137.905 29.1565 138.026 29.3232C138.148 29.49 138.263 29.6311 138.391 29.7393C138.454 29.7929 138.512 29.844 138.565 29.8916C138.619 29.9392 138.669 29.9831 138.717 30.0234C138.8 30.0944 138.877 30.1516 138.952 30.1943H130.94C131.305 29.9825 131.589 29.7282 131.754 29.3916L131.755 29.3926C131.966 29.0472 132.051 28.7017 132.051 28.3135C132.051 28.2281 132.051 28.0985 132.009 27.9688C132.009 27.9035 131.998 27.8276 131.982 27.752L131.924 27.5361C131.903 27.4724 131.892 27.4086 131.882 27.3545C131.877 27.3277 131.871 27.3029 131.864 27.2822C131.858 27.2629 131.85 27.2465 131.839 27.2344L130.956 24.6992L130.946 24.7021L130.975 24.6924H125.602V24.6729L125.592 24.6992L124.708 27.2783C124.666 27.386 124.635 27.4832 124.608 27.5801L124.539 27.8809C124.497 28.0957 124.455 28.3123 124.455 28.5713C124.455 28.6359 124.455 28.7493 124.473 28.875L124.497 29.0029C124.529 29.1329 124.585 29.2627 124.664 29.4102L124.751 29.5645C124.875 29.7754 125.08 29.9445 125.323 30.1514H119.981C120.271 29.8129 120.561 29.4745 120.769 29.1777C120.926 28.952 121.084 28.7023 121.225 28.4463L121.358 28.1885C121.485 27.9304 121.611 27.6478 121.737 27.3232L121.864 26.9834L125.947 14.9043V14.9033C125.958 14.85 125.971 14.7966 125.985 14.7432L126.077 14.4209L126.115 14.2588C126.157 14.0438 126.2 13.7851 126.2 13.5264C126.2 13.3314 126.152 13.1604 126.075 12.9785L125.988 12.791V12.79L125.845 12.5957C125.7 12.4209 125.511 12.2487 125.268 12.0742H131.571ZM128.202 16.5752L126.308 22.0771L126.304 22.0898H130.034L130.03 22.0771L128.22 16.5752L128.211 16.5479L128.202 16.5752ZM125.209 12.0547H125.189V12.04C125.196 12.0447 125.202 12.0501 125.209 12.0547Z" fill="#E30016" stroke="white" stroke-width="0.0191057"/>
<path d="M141.719 12.0215C142.139 12.2364 142.434 12.4943 142.645 12.8382C142.855 13.1391 143.023 13.483 143.15 13.8269C143.234 14.1708 143.318 14.5576 143.318 14.9445C143.36 15.3314 143.36 15.6753 143.36 16.0621C143.36 17.0078 143.318 17.9535 143.276 18.8992C143.192 19.8449 143.108 20.7906 142.897 21.7362C142.729 22.6819 142.476 23.6276 142.139 24.6163C141.803 25.6049 141.382 26.5936 140.877 27.6253H138.688V34.331L140.961 34.9328C140.961 34.503 140.961 34.0731 141.003 33.6432C141.045 33.2134 141.129 32.7835 141.213 32.3537C141.34 31.9238 141.508 31.5799 141.719 31.236C141.929 30.8922 142.224 30.6342 142.602 30.4623C142.939 30.2904 143.402 30.1614 143.907 30.1614H151.273C151.526 30.1614 151.778 30.2044 152.073 30.2474C152.368 30.2904 152.62 30.4193 152.873 30.5913C153.125 30.7632 153.378 31.0211 153.588 31.365C153.799 31.7089 153.967 32.1817 154.051 32.7405C154.178 33.2994 154.22 34.0301 154.22 34.8468L156.493 34.245V27.4963H154.051V14.7726C154.051 14.4287 154.093 14.0848 154.135 13.7409C154.178 13.397 154.304 13.0961 154.43 12.7952C154.598 12.4943 154.809 12.2364 155.104 11.9785H141.719V12.0215ZM149.295 14.6436V27.5823H144.202C144.497 26.8515 144.749 26.1208 144.96 25.2611C145.212 24.4443 145.38 23.4986 145.549 22.467C145.717 21.4353 145.843 20.2747 145.928 18.9852C146.012 17.6956 146.054 16.2341 146.054 14.6006H149.295V14.6436Z" fill="#E30016"/>
<mask id="mask8_7254_287855" style="mask-type:luminance" maskUnits="userSpaceOnUse" x="0" y="0" width="157" height="41">
<path d="M157 0.759766H0V40.7363H157V0.759766Z" fill="white"/>
</mask>
<g mask="url(#mask8_7254_287855)">
<path d="M141.719 12.0254C142.139 12.2403 142.434 12.4982 142.645 12.8421C142.855 13.143 143.023 13.4869 143.15 13.8308C143.234 14.1747 143.318 14.5616 143.318 14.9484C143.36 15.3353 143.36 15.6792 143.36 16.066C143.36 17.0117 143.318 17.9574 143.276 18.9031C143.192 19.8488 143.108 20.7945 142.897 21.7401C142.729 22.6858 142.476 23.6315 142.139 24.6202C141.803 25.6088 141.382 26.5975 140.877 27.6292H138.688V34.3349L140.961 34.9367C140.961 34.5069 140.961 34.077 141.003 33.6471C141.045 33.2173 141.129 32.7874 141.213 32.3576C141.34 31.9277 141.508 31.5838 141.719 31.24C141.929 30.8961 142.224 30.6382 142.602 30.4662C142.939 30.2943 143.402 30.1653 143.907 30.1653H151.273C151.526 30.1653 151.778 30.2083 152.073 30.2513C152.368 30.2943 152.62 30.4232 152.873 30.5952C153.125 30.7671 153.378 31.025 153.588 31.3689C153.799 31.7128 153.967 32.1856 154.051 32.7444C154.178 33.3033 154.22 34.034 154.22 34.8507L156.493 34.2489V27.5002H154.051V14.7765C154.051 14.4326 154.093 14.0887 154.135 13.7448C154.178 13.4009 154.304 13.1 154.43 12.7991C154.598 12.4982 154.809 12.2403 155.104 11.9824H141.719V12.0254ZM149.295 14.6475V27.5862H144.202C144.497 26.8554 144.749 26.1247 144.96 25.265C145.212 24.4482 145.38 23.5026 145.549 22.4709C145.717 21.4392 145.843 20.2786 145.928 18.9891C146.012 17.6995 146.054 16.238 146.054 14.6045H149.295V14.6475Z" stroke="white" stroke-width="0.0208511" stroke-linecap="round" stroke-linejoin="round"/>
</g>
<path fill-rule="evenodd" clip-rule="evenodd" d="M34.0093 21.9081C34.0093 22.8108 34.1355 23.7135 34.3881 24.6162C34.6406 25.5189 34.9774 26.3786 35.4825 27.1524C35.9876 27.9691 36.6189 28.6569 37.3766 29.2587C38.1342 29.8605 39.0602 30.3763 40.0704 30.7202C41.1227 31.0641 42.3012 31.236 43.6481 31.279C44.9109 31.279 46.0473 31.1071 47.0996 30.7632C48.1519 30.4193 49.0779 29.9894 49.8776 29.3876C50.6774 28.7858 51.3508 28.0981 51.9401 27.2813C52.4873 26.4646 52.9082 25.6049 53.2028 24.6162C53.4975 23.6706 53.6238 22.6389 53.6238 21.5643C53.6238 20.1887 53.4133 18.9421 52.9503 17.7815C52.5294 16.6209 51.8559 15.6323 51.0562 14.7725C50.2144 13.9128 49.2042 13.268 48.0256 12.7952C46.8471 12.3224 45.5002 12.1074 43.9849 12.0645C42.6801 12.0645 41.5015 12.2364 40.4492 12.6233C39.3969 12.9672 38.4709 13.483 37.6712 14.0848C36.8715 14.7296 36.198 15.4603 35.6508 16.277C35.1036 17.0938 34.7248 17.9965 34.4302 18.9421C34.1356 19.9308 34.0093 20.8765 34.0093 21.9081ZM39.0602 21.1774C39.0602 20.0598 39.1865 19.0711 39.4811 18.2974C39.7337 17.5236 40.1125 16.8788 40.5755 16.363C41.0385 15.8902 41.5436 15.5033 42.0908 15.2884C42.638 15.0734 43.2272 14.9445 43.7744 14.9445C44.4058 14.9445 44.9951 15.0734 45.5002 15.3743C46.0053 15.6323 46.4683 16.0191 46.8471 16.535C47.2259 17.0078 47.5626 17.6096 47.8152 18.2114C48.0677 18.8562 48.2361 19.5439 48.3624 20.2747C48.4886 21.0054 48.5307 21.7362 48.5307 22.5099C48.5307 23.4556 48.4465 24.2294 48.2361 24.9171C48.0677 25.6049 47.8152 26.1637 47.4784 26.5936C47.1838 27.0664 46.805 27.4103 46.4262 27.6682C46.0473 27.9261 45.6264 28.1411 45.2476 28.227C44.8267 28.356 44.4479 28.399 44.0691 28.399C43.564 28.399 43.101 28.313 42.5959 28.141C42.1329 27.9691 41.6699 27.6682 41.249 27.3243C40.828 26.9375 40.4492 26.4646 40.1125 25.9058C39.7758 25.347 39.5232 24.6592 39.3549 23.8425C39.1865 23.0688 39.1023 22.1661 39.0602 21.1774Z" fill="#E30016"/>
<path d="M34.0093 21.9081C34.0093 22.8108 34.1355 23.7135 34.3881 24.6162C34.6406 25.5189 34.9774 26.3786 35.4825 27.1524C35.9876 27.9691 36.6189 28.6569 37.3766 29.2587C38.1342 29.8605 39.0602 30.3763 40.0704 30.7202C41.1227 31.0641 42.3012 31.236 43.6481 31.279C44.9109 31.279 46.0473 31.1071 47.0996 30.7632C48.1519 30.4193 49.0779 29.9894 49.8776 29.3876C50.6774 28.7858 51.3508 28.0981 51.9401 27.2813C52.4873 26.4646 52.9082 25.6049 53.2028 24.6162C53.4975 23.6706 53.6238 22.6389 53.6238 21.5643C53.6238 20.1887 53.4133 18.9421 52.9503 17.7815C52.5294 16.6209 51.8559 15.6323 51.0562 14.7725C50.2144 13.9128 49.2042 13.268 48.0256 12.7952C46.8471 12.3224 45.5002 12.1074 43.9849 12.0645C42.6801 12.0645 41.5015 12.2364 40.4492 12.6233C39.3969 12.9672 38.4709 13.483 37.6712 14.0848C36.8715 14.7296 36.198 15.4603 35.6508 16.277C35.1036 17.0938 34.7248 17.9965 34.4302 18.9421C34.1356 19.9308 34.0093 20.8765 34.0093 21.9081ZM39.0602 21.1774C39.0602 20.0598 39.1865 19.0711 39.4811 18.2974C39.7337 17.5236 40.1125 16.8788 40.5755 16.363C41.0385 15.8902 41.5436 15.5033 42.0908 15.2884C42.638 15.0734 43.2272 14.9445 43.7744 14.9445C44.4058 14.9445 44.9951 15.0734 45.5002 15.3743C46.0053 15.6323 46.4683 16.0191 46.8471 16.535C47.2259 17.0078 47.5626 17.6096 47.8152 18.2114C48.0677 18.8562 48.2361 19.5439 48.3624 20.2747C48.4886 21.0054 48.5307 21.7362 48.5307 22.5099C48.5307 23.4556 48.4465 24.2294 48.2361 24.9171C48.0677 25.6049 47.8152 26.1637 47.4784 26.5936C47.1838 27.0664 46.805 27.4103 46.4262 27.6682C46.0473 27.9261 45.6264 28.141 45.2476 28.227C44.8267 28.356 44.4479 28.399 44.0691 28.399C43.564 28.399 43.101 28.313 42.5959 28.141C42.1329 27.9691 41.6699 27.6682 41.249 27.3243C40.828 26.9375 40.4492 26.4646 40.1125 25.9058C39.7758 25.347 39.5232 24.6592 39.3549 23.8425C39.1865 23.0688 39.1023 22.1661 39.0602 21.1774Z" stroke="white" stroke-width="0.0208511" stroke-linecap="round" stroke-linejoin="round"/>
<path fill-rule="evenodd" clip-rule="evenodd" d="M75.3862 21.9081C75.3862 22.8108 75.5125 23.7135 75.765 24.6162C76.0176 25.5189 76.3543 26.3786 76.8594 27.1524C77.3645 27.9691 77.9959 28.6569 78.7535 29.2587C79.5112 29.8605 80.4372 30.3763 81.4474 30.7202C82.4996 31.0641 83.6782 31.236 85.0251 31.279C86.2878 31.279 87.4243 31.1071 88.4766 30.7632C89.5289 30.4193 90.4549 29.9894 91.2546 29.3876C92.0543 28.7858 92.7278 28.0981 93.3171 27.2813C93.8642 26.4646 94.2852 25.6049 94.5798 24.6162C94.8744 23.6706 95.0007 22.6389 95.0007 21.5643C95.0007 20.1887 94.7903 18.9421 94.3273 17.7815C93.9063 16.6209 93.2329 15.6323 92.4331 14.7725C91.5913 13.9128 90.5811 13.268 89.4026 12.7952C88.224 12.3224 86.8771 12.1074 85.3618 12.0645C84.057 12.0645 82.8785 12.2364 81.8262 12.6233C80.7739 12.9672 79.8479 13.483 79.0482 14.0848C78.2484 14.7296 77.575 15.4603 77.0278 16.277C76.4806 17.0938 76.1018 17.9965 75.8071 18.9421C75.5546 19.9308 75.3862 20.8765 75.3862 21.9081ZM80.4793 21.1774C80.4793 20.0598 80.6055 19.0711 80.9002 18.2974C81.1527 17.5236 81.5315 16.8788 81.9945 16.363C82.4575 15.8902 82.9626 15.5033 83.5098 15.2884C84.057 15.0734 84.6463 14.9445 85.1935 14.9445C85.8248 14.9445 86.4141 15.0734 86.9192 15.3743C87.4243 15.6323 87.8873 16.0191 88.2661 16.535C88.6449 17.0078 88.9817 17.6096 89.2342 18.2114C89.4868 18.8562 89.6551 19.5439 89.7814 20.2747C89.9077 21.0054 89.9498 21.7362 89.9498 22.5099C89.9498 23.4556 89.8656 24.2294 89.6551 24.9171C89.4868 25.6049 89.2342 26.1637 88.8975 26.5936C88.6028 27.0664 88.224 27.4103 87.8452 27.6682C87.4664 27.9261 87.0455 28.1411 86.6667 28.227C86.2457 28.356 85.8669 28.399 85.4881 28.399C84.983 28.399 84.52 28.313 84.0149 28.141C83.5519 27.9691 83.0889 27.6682 82.668 27.3243C82.2471 26.9375 81.8683 26.4646 81.5315 25.9058C81.1948 25.347 80.9423 24.6592 80.7739 23.8425C80.5634 23.0688 80.4793 22.1661 80.4793 21.1774Z" fill="#E30016"/>
<path d="M75.3862 21.9081C75.3862 22.8108 75.5125 23.7135 75.765 24.6162C76.0176 25.5189 76.3543 26.3786 76.8594 27.1524C77.3645 27.9691 77.9959 28.6569 78.7535 29.2587C79.5112 29.8605 80.4372 30.3763 81.4474 30.7202C82.4996 31.0641 83.6782 31.236 85.0251 31.279C86.2878 31.279 87.4243 31.1071 88.4766 30.7632C89.5289 30.4193 90.4549 29.9894 91.2546 29.3876C92.0543 28.7858 92.7278 28.0981 93.3171 27.2813C93.8642 26.4646 94.2852 25.6049 94.5798 24.6162C94.8744 23.6706 95.0007 22.6389 95.0007 21.5643C95.0007 20.1887 94.7903 18.9421 94.3273 17.7815C93.9063 16.6209 93.2329 15.6323 92.4331 14.7725C91.5913 13.9128 90.5811 13.268 89.4026 12.7952C88.224 12.3224 86.8771 12.1074 85.3618 12.0645C84.057 12.0645 82.8785 12.2364 81.8262 12.6233C80.7739 12.9672 79.8479 13.483 79.0482 14.0848C78.2484 14.7296 77.575 15.4603 77.0278 16.277C76.4806 17.0938 76.1018 17.9965 75.8071 18.9421C75.5546 19.9308 75.3862 20.8765 75.3862 21.9081ZM80.4793 21.1774C80.4793 20.0598 80.6055 19.0711 80.9002 18.2974C81.1527 17.5236 81.5315 16.8788 81.9945 16.363C82.4575 15.8902 82.9626 15.5033 83.5098 15.2884C84.057 15.0734 84.6463 14.9445 85.1935 14.9445C85.8248 14.9445 86.4141 15.0734 86.9192 15.3743C87.4243 15.6323 87.8873 16.0191 88.2661 16.535C88.6449 17.0078 88.9817 17.6096 89.2342 18.2114C89.4868 18.8562 89.6551 19.5439 89.7814 20.2747C89.9077 21.0054 89.9498 21.7362 89.9498 22.5099C89.9498 23.4556 89.8656 24.2294 89.6551 24.9171C89.4868 25.6049 89.2342 26.1637 88.8975 26.5936C88.6029 27.0664 88.224 27.4103 87.8452 27.6682C87.4664 27.9261 87.0455 28.141 86.6667 28.227C86.2457 28.356 85.8669 28.399 85.4881 28.399C84.983 28.399 84.52 28.313 84.0149 28.141C83.5519 27.9691 83.0889 27.6682 82.668 27.3243C82.2471 26.9375 81.8683 26.4646 81.5315 25.9058C81.1948 25.347 80.9423 24.6592 80.7739 23.8425C80.5634 23.0688 80.4793 22.1661 80.4793 21.1774Z" stroke="white" stroke-width="0.0208511" stroke-linecap="round" stroke-linejoin="round"/>
<path fill-rule="evenodd" clip-rule="evenodd" d="M54.5093 12.623C54.8461 12.9239 55.0565 13.2248 55.2249 13.5257C55.3932 13.8266 55.4774 14.1705 55.5195 14.4714C55.5616 14.7723 55.5616 15.0302 55.5616 15.2882C55.5616 15.5461 55.5195 15.761 55.5195 15.9329L54.0463 27.668C53.9621 28.2698 53.878 28.7426 53.7517 29.1295C53.6254 29.5164 53.4991 29.8603 53.3308 30.1182C53.1624 30.3761 52.994 30.591 52.8257 30.7629H57.9187C57.5399 30.505 57.2873 30.2471 57.119 29.9462C56.9506 29.6453 56.8664 29.3014 56.8243 28.9146C56.7823 28.5277 56.8243 28.0978 56.8664 27.582L57.7924 18.8989L60.9493 27.582C61.0756 27.9259 61.2018 28.1838 61.286 28.3987C61.4123 28.6137 61.4965 28.7856 61.6227 28.9576C61.7069 29.0865 61.8332 29.2155 61.9595 29.3444C62.0857 29.4304 62.212 29.5594 62.3383 29.6453C62.5487 29.8173 62.7592 29.9462 62.9697 30.1182C63.2222 30.2471 63.4748 30.4191 63.8115 30.591C64.1482 30.7629 64.527 30.9349 65.0321 31.1068L68.7361 18.856L69.5359 27.2811C69.5359 27.4531 69.578 27.625 69.578 27.7969C69.578 27.9689 69.6201 28.0978 69.6201 28.2698V28.7856C69.6201 29.0865 69.578 29.4304 69.4517 29.7313C69.3254 30.0752 69.115 30.4191 68.7782 30.7629H75.7654C75.4707 30.3761 75.2182 30.0322 75.0498 29.6453C74.8815 29.3014 74.7552 28.8716 74.671 28.4417C74.5868 28.0119 74.5026 27.496 74.4605 26.9372L73.282 15.2022C73.2399 14.8153 73.2399 14.4284 73.282 14.1275C73.3241 13.7837 73.4083 13.5257 73.5766 13.2678C73.745 13.0099 73.9975 12.795 74.2922 12.623H67.768L64.527 23.3694L60.6125 12.623H54.5093Z" fill="#E30016"/>
<path d="M54.5093 12.623C54.8461 12.9239 55.0565 13.2248 55.2249 13.5257C55.3932 13.8266 55.4774 14.1705 55.5195 14.4714C55.5616 14.7723 55.5616 15.0302 55.5616 15.2882C55.5616 15.5461 55.5195 15.761 55.5195 15.9329L54.0463 27.668C53.9621 28.2698 53.878 28.7426 53.7517 29.1295C53.6254 29.5164 53.4991 29.8603 53.3308 30.1182C53.1624 30.3761 52.994 30.591 52.8257 30.7629H57.9187C57.5399 30.505 57.2873 30.2471 57.119 29.9462C56.9506 29.6453 56.8664 29.3014 56.8243 28.9146C56.7823 28.5277 56.8243 28.0978 56.8664 27.582L57.7924 18.8989L60.9493 27.582C61.0756 27.9259 61.2018 28.1838 61.286 28.3987C61.4123 28.6137 61.4965 28.7856 61.6227 28.9576C61.7069 29.0865 61.8332 29.2155 61.9595 29.3444C62.0857 29.4304 62.212 29.5594 62.3383 29.6453C62.5487 29.8173 62.7592 29.9462 62.9697 30.1182C63.2222 30.2471 63.4748 30.4191 63.8115 30.591C64.1482 30.7629 64.527 30.9349 65.0321 31.1068L68.7361 18.856L69.5359 27.2811C69.5359 27.4531 69.578 27.625 69.578 27.7969C69.578 27.9689 69.6201 28.0978 69.6201 28.2698V28.7856C69.6201 29.0865 69.578 29.4304 69.4517 29.7313C69.3254 30.0752 69.115 30.4191 68.7782 30.7629H75.7654C75.4707 30.3761 75.2182 30.0322 75.0498 29.6453C74.8815 29.3014 74.7552 28.8716 74.671 28.4417C74.5868 28.0119 74.5026 27.496 74.4605 26.9372L73.282 15.2022C73.2399 14.8153 73.2399 14.4284 73.282 14.1275C73.3241 13.7837 73.4083 13.5257 73.5766 13.2678C73.745 13.0099 73.9975 12.795 74.2922 12.623H67.768L64.527 23.3694L60.6125 12.623H54.5093Z" stroke="white" stroke-width="0.0208511" stroke-linecap="round" stroke-linejoin="round"/>
</svg>
