<svg width="54" height="40" viewBox="0 0 54 40" fill="none" xmlns="http://www.w3.org/2000/svg">
<mask id="mask0_6202_11797" style="mask-type:luminance" maskUnits="userSpaceOnUse" x="0" y="0" width="158" height="40">
<path d="M157.5 0H0V40H157.5V0Z" fill="white"/>
</mask>
<g mask="url(#mask0_6202_11797)">
<path fill-rule="evenodd" clip-rule="evenodd" d="M9.883 6.15121C19.5103 1.24798 30.9956 -0.171371 41.003 3.48454C52.446 8.47379 54.0506 16.3448 49.8703 24.2157C47.6323 14.5383 31.5868 11.1835 20.4393 15.1405C18.9192 15.8716 17.5258 16.1727 16.5968 15.3985C14.4855 12.4308 11.8254 9.42003 9.67187 6.4953C9.5452 6.40927 9.75632 6.23723 9.883 6.15121Z" fill="#9EDBF4"/>
</g>
<mask id="mask1_6202_11797" style="mask-type:luminance" maskUnits="userSpaceOnUse" x="0" y="0" width="158" height="40">
<path d="M157.5 0H0V40H157.5V0Z" fill="white"/>
</mask>
<g mask="url(#mask1_6202_11797)">
<path d="M10.5553 5.84959C20.1826 0.946362 30.9923 -0.171918 40.9996 3.52701C52.4427 8.51625 54.0472 16.3872 49.8669 24.2582C51.8093 8.81733 29.4722 8.08615 18.3247 12.0431C16.6779 12.5593 15.7067 12.6883 15.1578 12.0001C13.0466 9.03238 11.7798 7.9141 9.71076 6.32271C9.54186 6.19367 10.4286 5.8926 10.5553 5.84959Z" stroke="white" stroke-width="0.530306" stroke-linecap="round" stroke-linejoin="round"/>
</g>
<mask id="mask2_6202_11797" style="mask-type:luminance" maskUnits="userSpaceOnUse" x="0" y="0" width="158" height="40">
<path d="M157.5 0H0V40H157.5V0Z" fill="white"/>
</mask>
<g mask="url(#mask2_6202_11797)">
<path fill-rule="evenodd" clip-rule="evenodd" d="M10.5553 5.84959C20.1826 0.946362 30.9923 -0.171918 40.9996 3.52701C52.4427 8.51625 54.0472 16.3872 49.8669 24.2582C51.8093 8.81733 29.4722 8.08615 18.3247 12.0431C16.6779 12.5593 15.7067 12.6883 15.1578 12.0001C13.0466 9.03238 11.7798 7.9141 9.71076 6.32271C9.54186 6.19367 10.4286 5.8926 10.5553 5.84959Z" fill="#005DA9"/>
</g>
<mask id="mask3_6202_11797" style="mask-type:luminance" maskUnits="userSpaceOnUse" x="0" y="0" width="158" height="40">
<path d="M157.5 0H0V40H157.5V0Z" fill="white"/>
</mask>
<g mask="url(#mask3_6202_11797)">
<path d="M10.5553 5.84959C20.1826 0.946362 30.9923 -0.171918 40.9996 3.52701C52.4427 8.51625 54.0472 16.3872 49.8669 24.2582C51.8093 8.81733 29.4722 8.08615 18.3247 12.0431C16.6779 12.5593 15.7067 12.6883 15.1578 12.0001C13.0466 9.03238 11.7798 7.9141 9.71076 6.32271C9.54186 6.19367 10.4286 5.8926 10.5553 5.84959Z" stroke="white" stroke-width="0.530306" stroke-linecap="round" stroke-linejoin="round"/>
</g>
<path fill-rule="evenodd" clip-rule="evenodd" d="M16.9766 12.4744C17.4833 13.7647 17.8633 14.6679 18.4967 15.8292C21.6213 14.5389 24.9571 13.8507 28.4196 13.5926C28.0818 12.4313 27.7862 11.3991 27.4484 10.2378C23.5215 10.6679 20.2279 11.3991 16.9766 12.4744Z" fill="#009EE0"/>
<mask id="mask4_6202_11797" style="mask-type:luminance" maskUnits="userSpaceOnUse" x="0" y="0" width="158" height="40">
<path d="M157.5 0H0V40H157.5V0Z" fill="white"/>
</mask>
<g mask="url(#mask4_6202_11797)">
<path fill-rule="evenodd" clip-rule="evenodd" d="M7.38919 9.54736C4.47565 11.7839 2.06882 14.4506 0.88651 18.1925C-2.87153 28.9022 5.74241 36.5151 19.6767 38.1065C30.9931 38.9237 39.0581 36.7732 47.3764 30.2355C35.0889 34.4506 26.3061 32.5151 20.8168 30.6226C15.0742 28.6441 11.0206 25.1603 11.7806 19.5259C11.9495 18.4076 13.2163 18.1065 12.8362 15.956C11.3161 13.5904 9.50045 11.4398 7.38919 9.54736Z" fill="#102A83"/>
</g>
<mask id="mask5_6202_11797" style="mask-type:luminance" maskUnits="userSpaceOnUse" x="0" y="0" width="158" height="40">
<path d="M157.5 0H0V40H157.5V0Z" fill="white"/>
</mask>
<g mask="url(#mask5_6202_11797)">
<path fill-rule="evenodd" clip-rule="evenodd" d="M7.89352 11.1816C8.40022 11.6548 8.56912 11.8698 9.11805 12.472C2.06644 17.4182 2.40424 24.8591 2.27757 26.3644C-0.298171 21.4612 3.5021 15.0956 7.89352 11.1816Z" fill="#009EE0"/>
</g>
<path fill-rule="evenodd" clip-rule="evenodd" d="M39.5292 0.558594C39.3603 0.601605 39.1914 0.644615 39.0225 0.687626C38.8536 0.687626 38.6847 0.730637 38.4736 0.730637H18.7122C18.5011 0.730637 18.3322 0.730637 18.1632 0.687626C17.9943 0.644615 17.8254 0.601605 17.6565 0.558594L16.0098 7.56935C16.6431 6.92419 17.361 6.45107 18.121 6.10698C18.9233 5.7629 19.8523 5.59085 20.8657 5.59085H23.6948V25.978C23.6948 26.5801 23.6525 27.1392 23.5681 27.6984C23.4836 28.2575 23.3147 28.7736 23.0614 29.2898C22.808 29.8059 22.428 30.236 21.9213 30.6231H33.4065C32.8998 30.236 32.5198 29.7629 32.2665 29.2898C32.0131 28.8167 31.8442 28.2575 31.7598 27.6984C31.6753 27.1392 31.6331 26.5801 31.6331 25.978V5.59085H34.4622C34.8844 5.59085 35.3067 5.59085 35.8134 5.67687C36.2779 5.71988 36.7423 5.89193 37.1224 6.14999C37.5446 6.36505 37.8402 6.75214 38.0513 7.26827L39.5292 0.558594Z" fill="#E30016"/>
<mask id="mask6_6202_11797" style="mask-type:luminance" maskUnits="userSpaceOnUse" x="0" y="0" width="158" height="40">
<path d="M157.5 0H0V40H157.5V0Z" fill="white"/>
</mask>
<g mask="url(#mask6_6202_11797)">
<path d="M39.5155 0.558746C39.3466 0.601757 39.1777 0.644768 39.0088 0.687779C38.8399 0.687779 38.671 0.730789 38.4599 0.730789H18.6985C18.4874 0.730789 18.3185 0.730789 18.1496 0.687779C17.9807 0.644768 17.8118 0.601757 17.6429 0.558746L15.9961 7.5695C16.6295 6.92434 17.3473 6.45122 18.1074 6.10713C18.9096 5.76305 19.8386 5.59101 20.852 5.59101H23.6811V25.9781C23.6811 26.5803 23.6389 27.1394 23.5544 27.6985C23.47 28.2577 23.3011 28.7738 23.0477 29.2899C22.7943 29.8061 22.4143 30.2362 21.9076 30.6233H33.3929C32.8862 30.2362 32.5061 29.763 32.2528 29.2899C31.9994 28.8168 31.8305 28.2577 31.7461 27.6985C31.6616 27.1394 31.6194 26.5803 31.6194 25.9781V5.59101H34.4485C34.8708 5.59101 35.293 5.59101 35.7997 5.67703C36.2642 5.72004 36.7287 5.89208 37.1087 6.15015C37.5309 6.3652 37.8265 6.7523 38.0376 7.26842L39.5155 0.558746Z" stroke="white" stroke-width="0.654813" stroke-linecap="round" stroke-linejoin="round"/>
</g>
</svg>
