<svg width="157" height="41" viewBox="0 0 157 41" fill="none" xmlns="http://www.w3.org/2000/svg">
<path d="M50.981 33.6507H51.9141L53.2882 37.5782L54.6623 33.6507H55.5955L53.663 39H52.9135L50.981 33.6507ZM50.4776 33.6507H51.4071L51.5761 37.479V39H50.4776V33.6507ZM55.1693 33.6507H56.1025V39H55.0003V37.479L55.1693 33.6507ZM60.7753 38.1403V39H57.9279V38.1403H60.7753ZM58.288 33.6507V39H57.1858V33.6507H58.288ZM60.4042 35.8293V36.667H57.9279V35.8293H60.4042ZM60.7716 33.6507V34.5141H57.9279V33.6507H60.7716ZM65.7787 38.1403V39H61.9247V38.1403H65.7787ZM62.2517 38.1403V40.3116H61.2156L61.1568 38.1403H62.2517ZM66.5723 38.1403L66.4768 40.3153H65.4664V38.1403H66.5723ZM65.1725 33.6507V34.5141H62.5971V33.6507H65.1725ZM65.9587 33.6507V39H64.8602V33.6507H65.9587ZM62.4611 33.6507H63.5633L63.42 35.8293C63.398 36.1894 63.3588 36.5078 63.3025 36.7846C63.2486 37.0589 63.1824 37.3002 63.1041 37.5084C63.0281 37.7166 62.9436 37.899 62.8506 38.0558C62.7575 38.2101 62.6595 38.3448 62.5566 38.4599C62.4538 38.5726 62.3497 38.673 62.2443 38.7612C62.139 38.8469 62.0362 38.9265 61.9357 39H61.3038V38.1403H61.55C61.621 38.0815 61.6957 38.0007 61.7741 37.8978C61.8549 37.7949 61.9308 37.6565 62.0019 37.4826C62.0753 37.3063 62.139 37.0834 62.1929 36.814C62.2492 36.5446 62.2909 36.2163 62.3178 35.8293L62.4611 33.6507ZM68.3206 37.2659L70.4699 33.6507H71.5721V39H70.4699V35.3848L68.3206 39H67.2184V33.6507H68.3206V37.2659ZM77.6777 38.144L77.6079 40.2896H76.5792V39H76.142V38.144H77.6777ZM72.5892 39V33.6507H73.6878V38.1403H75.8407V33.6507H76.9466V39H72.5892ZM79.5326 37.2659L81.6818 33.6507H82.784V39H81.6818V35.3848L79.5326 39H78.4304V33.6507H79.5326V37.2659ZM87.4238 35.8293V36.6891H84.6315V35.8293H87.4238ZM84.9585 33.6507V39H83.8563V33.6507H84.9585ZM88.21 33.6507V39H87.1115V33.6507H88.21ZM92.3868 37.2255H93.4853C93.4633 37.5855 93.3641 37.9052 93.1877 38.1844C93.0138 38.4636 92.7701 38.6816 92.4566 38.8383C92.1455 38.9951 91.7708 39.0735 91.3324 39.0735C90.9894 39.0735 90.6821 39.0147 90.4102 38.8971C90.1383 38.7771 89.9056 38.6057 89.7121 38.3828C89.5211 38.1599 89.3753 37.8905 89.2749 37.5745C89.1745 37.2585 89.1243 36.9046 89.1243 36.5127V36.1416C89.1243 35.7497 89.1757 35.3958 89.2786 35.0799C89.3839 34.7614 89.5333 34.4908 89.7268 34.2679C89.9228 34.045 90.1567 33.8736 90.4286 33.7535C90.7004 33.6335 91.0041 33.5735 91.3397 33.5735C91.7855 33.5735 92.1615 33.6543 92.4676 33.816C92.7762 33.9777 93.015 34.2005 93.184 34.4847C93.3555 34.7688 93.4584 35.0921 93.4927 35.4546H92.3905C92.3782 35.2391 92.3354 35.0566 92.2619 34.9072C92.1884 34.7553 92.0769 34.6414 91.9275 34.5655C91.7806 34.4871 91.5846 34.4479 91.3397 34.4479C91.156 34.4479 90.9956 34.4822 90.8584 34.5508C90.7212 34.6194 90.6061 34.7235 90.5131 34.8631C90.42 35.0027 90.3502 35.1791 90.3036 35.3921C90.2596 35.6028 90.2375 35.8502 90.2375 36.1343V36.5127C90.2375 36.7895 90.2583 37.0332 90.3 37.2438C90.3416 37.452 90.4053 37.6284 90.491 37.7729C90.5792 37.9149 90.6919 38.0227 90.829 38.0962C90.9686 38.1672 91.1364 38.2027 91.3324 38.2027C91.5626 38.2027 91.7524 38.166 91.9018 38.0925C92.0512 38.019 92.1651 37.9101 92.2435 37.7655C92.3243 37.621 92.3721 37.441 92.3868 37.2255ZM95.432 33.6507V39H94.3298V33.6507H95.432ZM98.5843 33.6507L96.5342 36.7919H95.1858L95.0462 35.811H95.9464L97.2469 33.6507H98.5843ZM97.449 39L95.95 36.6082L96.7142 35.822L98.757 39H97.449ZM100.369 37.2659L102.519 33.6507H103.621V39H102.519V35.3848L100.369 39H99.2671V33.6507H100.369V37.2659ZM105.755 37.2659L107.904 33.6507H109.006V39H107.904V35.3848L105.755 39H104.653V33.6507H105.755V37.2659ZM107.364 32.2472H108.117C108.117 32.4579 108.065 32.6452 107.959 32.8093C107.856 32.971 107.709 33.0984 107.518 33.1914C107.327 33.2821 107.102 33.3274 106.842 33.3274C106.448 33.3274 106.136 33.2269 105.905 33.0261C105.678 32.8253 105.564 32.5656 105.564 32.2472H106.313C106.313 32.3746 106.352 32.4885 106.431 32.5889C106.512 32.6893 106.649 32.7395 106.842 32.7395C107.033 32.7395 107.168 32.6893 107.246 32.5889C107.325 32.4885 107.364 32.3746 107.364 32.2472ZM117.103 38.144L117.033 40.2896H116.004V39H115.567V38.144H117.103ZM112.014 39V33.6507H113.113V38.1403H115.266V33.6507H116.372V39H112.014ZM121.485 38.1403V39H118.638V38.1403H121.485ZM118.998 33.6507V39H117.896V33.6507H118.998ZM121.114 35.8293V36.667H118.638V35.8293H121.114ZM121.482 33.6507V34.5141H118.638V33.6507H121.482ZM125.813 35.8293V36.6891H123.02V35.8293H125.813ZM123.347 33.6507V39H122.245V33.6507H123.347ZM126.599 33.6507V39H125.5V33.6507H126.599ZM129.956 33.6507V39H128.858V33.6507H129.956ZM131.602 33.6507V34.5141H127.238V33.6507H131.602ZM134.431 37.0932H133.068V36.2335H134.431C134.641 36.2335 134.813 36.1992 134.945 36.1306C135.077 36.0596 135.174 35.9616 135.235 35.8367C135.297 35.7118 135.327 35.5709 135.327 35.4142C135.327 35.255 135.297 35.1068 135.235 34.9696C135.174 34.8325 135.077 34.7223 134.945 34.639C134.813 34.5557 134.641 34.5141 134.431 34.5141H133.45V39H132.348V33.6507H134.431C134.85 33.6507 135.209 33.7266 135.507 33.8785C135.809 34.0279 136.039 34.2348 136.198 34.4994C136.357 34.7639 136.437 35.0664 136.437 35.4068C136.437 35.7522 136.357 36.051 136.198 36.3033C136.039 36.5556 135.809 36.7503 135.507 36.8875C135.209 37.0246 134.85 37.0932 134.431 37.0932Z" fill="#00ABEF"/>
<mask id="mask0_7103_442370" style="mask-type:luminance" maskUnits="userSpaceOnUse" x="0" y="0" width="157" height="40">
<path d="M157 0H0V39.9766H157V0Z" fill="white"/>
</mask>
<g mask="url(#mask0_7103_442370)">
<path fill-rule="evenodd" clip-rule="evenodd" d="M9.84998 6.14627C19.4468 1.24592 30.8956 -0.1726 40.8712 3.48117C52.2779 8.46749 53.8773 16.3338 49.7103 24.2002C47.4795 14.5285 31.4848 11.1756 20.3728 15.1303C18.8575 15.861 17.4685 16.1619 16.5425 15.3882C14.4379 12.4222 11.7862 9.41318 9.63952 6.49016C9.51325 6.40419 9.7237 6.23225 9.84998 6.14627Z" fill="#9EDBF4"/>
</g>
<mask id="mask1_7103_442370" style="mask-type:luminance" maskUnits="userSpaceOnUse" x="0" y="0" width="157" height="40">
<path d="M156.992 0.0078125V39.9688H0.0078125V0.0078125H156.992Z" fill="white" stroke="white" stroke-width="0.0146839"/>
</mask>
<g mask="url(#mask1_7103_442370)">
<path d="M10.5222 5.8445C20.119 0.944148 30.8944 -0.173477 40.87 3.52328C52.2767 8.5096 53.8761 16.376 49.7091 24.2423C51.6453 8.8105 29.3791 8.07975 18.267 12.0344C16.6255 12.5502 15.6574 12.6792 15.1102 11.9914C13.0056 9.02543 11.7429 7.90781 9.68042 6.31734C9.51206 6.18838 10.396 5.88749 10.5222 5.8445Z" stroke="white" stroke-width="0.0168864" stroke-linecap="round" stroke-linejoin="round"/>
</g>
<mask id="mask2_7103_442370" style="mask-type:luminance" maskUnits="userSpaceOnUse" x="0" y="0" width="157" height="40">
<path d="M156.992 0.0078125V39.9688H0.0078125V0.0078125H156.992Z" fill="white" stroke="white" stroke-width="0.0146839"/>
</mask>
<g mask="url(#mask2_7103_442370)">
<path d="M10.5254 5.85059C19.8206 1.10425 30.2215 -0.0925081 39.9297 3.19727L40.8672 3.53027C46.5693 6.02294 49.8192 9.23507 51.123 12.8057C52.4227 16.365 51.788 20.2816 49.7207 24.2012C50.1923 20.3621 49.1646 17.4343 47.1816 15.2637C45.1915 13.0854 42.2404 11.6702 38.8828 10.8613C32.3777 9.29423 24.3422 10.0019 18.7939 11.8457L18.2646 12.0273C17.4441 12.2852 16.7927 12.4463 16.2783 12.457C15.8285 12.4664 15.4838 12.3609 15.2227 12.1055L15.1162 11.9873C13.2742 9.39136 12.0765 8.21099 10.4238 6.89062L9.68457 6.31152C9.67505 6.30418 9.67015 6.29644 9.66797 6.28906C9.66582 6.28172 9.6663 6.27373 9.66992 6.26465C9.67743 6.24596 9.69726 6.22448 9.72754 6.20117C9.78797 6.15472 9.88633 6.104 9.99414 6.05566C10.1019 6.00737 10.2185 5.96103 10.3164 5.9248L10.5244 5.85156L10.5254 5.85059Z" fill="url(#paint0_linear_7103_442370)" stroke="white" stroke-width="0.0146839"/>
</g>
<mask id="mask3_7103_442370" style="mask-type:luminance" maskUnits="userSpaceOnUse" x="0" y="0" width="157" height="40">
<path d="M156.992 0.0078125V39.9688H0.0078125V0.0078125H156.992Z" fill="white" stroke="white" stroke-width="0.0146839"/>
</mask>
<g mask="url(#mask3_7103_442370)">
<path d="M10.5222 5.8445C20.119 0.944148 30.8944 -0.173477 40.87 3.52328C52.2767 8.5096 53.8761 16.376 49.7091 24.2423C51.6453 8.8105 29.3791 8.07975 18.267 12.0344C16.6255 12.5502 15.6574 12.6792 15.1102 11.9914C13.0056 9.02543 11.7429 7.90781 9.68042 6.31734C9.51206 6.18838 10.396 5.88749 10.5222 5.8445Z" stroke="white" stroke-width="0.0168864" stroke-linecap="round" stroke-linejoin="round"/>
</g>
<path fill-rule="evenodd" clip-rule="evenodd" d="M16.9209 12.4657C17.426 13.7553 17.8048 14.658 18.4362 15.8186C21.5509 14.529 24.8761 13.8413 28.3276 13.5833C27.9909 12.4227 27.6962 11.3911 27.3595 10.2305C23.445 10.6603 20.1619 11.3911 16.9209 12.4657Z" fill="#009EE0"/>
<mask id="mask4_7103_442370" style="mask-type:luminance" maskUnits="userSpaceOnUse" x="0" y="0" width="157" height="40">
<path d="M157 0H0V39.9766H157V0Z" fill="white"/>
</mask>
<g mask="url(#mask4_7103_442370)">
<path fill-rule="evenodd" clip-rule="evenodd" d="M7.36477 9.54297C4.46048 11.7782 2.06128 14.4433 0.882731 18.1831C-2.86338 28.8865 5.72321 36.4949 19.6133 38.0854C30.8937 38.9021 38.9331 36.7528 47.2251 30.219C34.9766 34.4316 26.2216 32.4972 20.7498 30.6059C15.0254 28.6285 10.9846 25.1467 11.7422 19.5156C11.9106 18.398 13.1733 18.0971 12.7945 15.9478C11.2792 13.5836 9.46933 11.4343 7.36477 9.54297Z" fill="url(#paint1_linear_7103_442370)"/>
</g>
<path fill-rule="evenodd" clip-rule="evenodd" d="M7.87011 11.1758C8.3752 11.6486 8.54356 11.8636 9.09075 12.4653C2.06153 17.4087 2.39826 24.8452 2.27198 26.3497C-0.295578 21.4493 3.49263 15.0875 7.87011 11.1758Z" fill="url(#paint2_linear_7103_442370)"/>
<path fill-rule="evenodd" clip-rule="evenodd" d="M39.4013 0.558594C39.233 0.601579 39.0646 0.644565 38.8962 0.68755C38.7279 0.68755 38.5595 0.730536 38.349 0.730536H18.6504C18.4399 0.730536 18.2716 0.730536 18.1032 0.68755C17.9348 0.644565 17.7665 0.601579 17.5981 0.558594L15.9565 7.56524C16.5879 6.92046 17.3035 6.44761 18.0611 6.10373C18.8608 5.75984 19.7868 5.5879 20.797 5.5879H23.6171V25.9631C23.6171 26.5649 23.575 27.1237 23.4909 27.6825C23.4067 28.2413 23.2383 28.7571 22.9858 29.2729C22.7332 29.7888 22.3544 30.2186 21.8493 30.6055H33.2981C32.793 30.2186 32.4142 29.7458 32.1616 29.2729C31.9091 28.8001 31.7407 28.2413 31.6565 27.6825C31.5724 27.1237 31.5303 26.5649 31.5303 25.9631V5.5879H34.3504C34.7713 5.5879 35.1922 5.5879 35.6973 5.67387C36.1603 5.71686 36.6233 5.8888 37.0021 6.14671C37.423 6.36164 37.7177 6.74851 37.9281 7.26434L39.4013 0.558594Z" fill="#FF1820"/>
<mask id="mask5_7103_442370" style="mask-type:luminance" maskUnits="userSpaceOnUse" x="0" y="0" width="157" height="40">
<path d="M157 0H0V39.9766H157V0Z" fill="white"/>
</mask>
<g mask="url(#mask5_7103_442370)">
<path d="M39.3901 0.558594C39.2217 0.601579 39.0534 0.644565 38.885 0.68755C38.7166 0.68755 38.5483 0.730536 38.3378 0.730536H18.6391C18.4287 0.730536 18.2603 0.730536 18.092 0.68755C17.9236 0.644565 17.7552 0.601579 17.5869 0.558594L15.9453 7.56524C16.5767 6.92046 17.2922 6.44761 18.0499 6.10373C18.8496 5.75984 19.7756 5.5879 20.7858 5.5879H23.6059V25.9631C23.6059 26.5649 23.5638 27.1237 23.4796 27.6825C23.3954 28.2413 23.2271 28.7571 22.9745 29.2729C22.722 29.7888 22.3432 30.2186 21.8381 30.6055H33.2869C32.7818 30.2186 32.403 29.7458 32.1504 29.2729C31.8979 28.8001 31.7295 28.2413 31.6453 27.6825C31.5611 27.1237 31.519 26.5649 31.519 25.9631V5.5879H34.3391C34.7601 5.5879 35.181 5.5879 35.6861 5.67387C36.1491 5.71686 36.6121 5.8888 36.9909 6.14671C37.4118 6.36164 37.7064 6.74851 37.9169 7.26434L39.3901 0.558594Z" stroke="white" stroke-width="0.2" stroke-linecap="round" stroke-linejoin="round"/>
</g>
<path d="M114.488 6.72754C114.229 6.33239 113.928 6.0194 113.623 5.81055H113.624C113.229 5.49676 112.749 5.31943 112.275 5.23145C111.805 5.14416 111.252 5.10158 110.7 5.10156H104.749V24.9316C104.749 25.4954 104.792 26.0594 104.877 26.623C104.963 27.1923 105.134 27.7189 105.393 28.2021C105.614 28.6176 105.93 28.998 106.31 29.3447H95.7422C96.1412 28.9958 96.4252 28.6146 96.6455 28.2021C96.9036 27.7189 97.0754 27.1923 97.1611 26.623C97.246 26.0594 97.2891 25.4954 97.2891 24.9316V4.98633C97.2891 4.42249 97.246 3.85859 97.1611 3.29492C97.0753 2.72546 96.9037 2.19827 96.6455 1.71484C96.4326 1.3162 96.1326 0.950561 95.7734 0.615234H113.142C113.348 0.615235 113.572 0.61599 113.755 0.569336C113.873 0.539189 113.994 0.506803 114.101 0.475586L114.488 6.72754Z" fill="url(#paint3_linear_7103_442370)" stroke="white" stroke-width="0.2"/>
<path d="M116.252 11.2754L116.832 11.3174C117.397 11.3713 117.916 11.4671 118.41 11.6562C119.075 11.9106 119.652 12.2487 120.104 12.668C120.557 13.0891 120.928 13.5934 121.174 14.1807C121.421 14.7691 121.545 15.4006 121.545 16.1191C121.545 16.9188 121.381 17.5926 121.133 18.2266C120.844 18.8581 120.474 19.3641 120.019 19.8291C119.52 20.2957 118.983 20.6746 118.366 20.9268C117.819 21.1504 117.209 21.3407 116.593 21.4414L116.329 21.4785L116.323 21.4795C115.717 21.5888 115.078 21.6042 114.406 21.5518C115.124 21.1392 115.708 20.6222 116.09 19.9971C116.523 19.2901 116.736 18.4106 116.736 17.4082C116.736 16.8435 116.704 16.3326 116.578 15.9131L116.519 15.7383C116.404 15.3161 116.224 14.9908 116.005 14.7363L115.907 14.6309C115.643 14.3175 115.335 14.1385 115.034 14.0068C114.723 13.8706 114.371 13.8272 114.069 13.8271H113.716V26.5215C113.716 26.8725 113.759 27.2226 113.801 27.5654C113.844 27.9154 113.931 28.2259 114.103 28.5371V28.5381C114.208 28.7897 114.394 29.009 114.611 29.2158H108.174C108.383 29.0066 108.547 28.7916 108.684 28.5479L108.597 28.499L108.685 28.5479L108.689 28.5381C108.814 28.2389 108.946 27.9252 108.99 27.5654C109.032 27.2226 109.075 26.8725 109.075 26.5215V14.0557C109.075 13.8804 109.065 13.7053 109.049 13.5312L108.99 13.0117V13.0107L108.949 12.7715C108.907 12.5673 108.843 12.3524 108.746 12.1494L108.684 12.0293C108.562 11.7464 108.339 11.505 108.086 11.2754H116.252Z" fill="url(#paint4_linear_7103_442370)" stroke="white" stroke-width="0.2"/>
<path d="M131.507 11.4043L136.745 26.2969L136.748 26.3027C136.968 26.8164 137.166 27.288 137.36 27.6758L137.552 28.0342L137.556 28.04C137.702 28.2521 137.831 28.4493 137.953 28.6172C138.075 28.7858 138.197 28.9328 138.332 29.0479C138.394 29.1009 138.452 29.1516 138.506 29.1992C138.559 29.2466 138.61 29.292 138.658 29.333C138.663 29.3371 138.668 29.3407 138.673 29.3447H131.246C131.497 29.1625 131.699 28.9469 131.832 28.6797C132.053 28.3188 132.14 27.9567 132.14 27.5537C132.14 27.4713 132.139 27.3343 132.096 27.1934C132.095 27.1248 132.086 27.0485 132.07 26.9736L132.01 26.748C131.991 26.6912 131.982 26.6347 131.97 26.5771C131.965 26.5502 131.96 26.5205 131.951 26.4941C131.945 26.4762 131.935 26.4547 131.921 26.4336L131.041 23.9092L131.017 23.8428H125.529L125.507 23.9102L124.624 26.4854C124.537 26.7078 124.494 26.8863 124.451 27.1045C124.409 27.3189 124.364 27.5428 124.364 27.8115C124.364 27.8975 124.364 28.0801 124.409 28.2646C124.455 28.4511 124.545 28.6335 124.673 28.8506C124.771 29.0179 124.918 29.157 125.084 29.3018H120.177C120.423 29.0135 120.663 28.7276 120.843 28.4707C121.002 28.2425 121.162 27.9892 121.304 27.7295L121.439 27.4678C121.567 27.2076 121.695 26.9236 121.822 26.5967L121.949 26.2539L121.95 26.2529L126.032 14.1738L125.937 14.1416L126.033 14.1738L126.036 14.1611C126.056 14.059 126.086 13.9559 126.118 13.8477C126.149 13.7412 126.182 13.6292 126.204 13.5166C126.246 13.3001 126.29 13.0343 126.29 12.7666C126.29 12.4849 126.197 12.2522 126.069 11.9912H126.07L126.063 11.9805L125.914 11.7783C125.81 11.6524 125.684 11.5286 125.534 11.4043H131.507ZM128.116 15.7852L126.221 21.2881L126.177 21.4199H130.159L130.115 21.2891L128.305 15.7871L128.213 15.5049L128.116 15.7852Z" fill="url(#paint5_linear_7103_442370)" stroke="white" stroke-width="0.2"/>
<path d="M154.852 11.3184C154.643 11.5275 154.48 11.7428 154.343 11.9863L154.43 12.0352L154.342 11.9863L154.337 11.9971C154.212 12.2961 154.081 12.6093 154.037 12.9688C153.995 13.3115 153.952 13.6617 153.952 14.0127V26.8369H156.392V33.4082L154.318 33.957C154.314 33.2918 154.281 32.6828 154.193 32.1807L154.149 31.959C154.063 31.3928 153.891 30.9088 153.673 30.5527C153.456 30.1979 153.194 29.9295 152.929 29.749C152.671 29.5729 152.403 29.4347 152.087 29.3887C151.797 29.3463 151.535 29.3018 151.273 29.3018H143.908C143.388 29.3018 142.911 29.4334 142.561 29.6113C142.165 29.7912 141.855 30.0624 141.633 30.4238C141.419 30.7734 141.247 31.1255 141.118 31.5654L141.213 31.5938L141.117 31.5654L141.116 31.5742C141.032 32.0032 140.946 32.4386 140.904 32.874C140.865 33.2655 140.862 33.6563 140.862 34.043L138.788 33.4941V26.9658H140.939L140.966 26.9092C141.473 25.8746 141.896 24.8821 142.234 23.8887C142.572 22.896 142.826 21.9455 142.996 20.9941L142.995 20.9932C143.153 20.2801 143.241 19.5677 143.31 18.8584L143.375 18.1484V18.1436C143.418 17.1985 143.46 16.2508 143.46 15.3027C143.46 14.9199 143.46 14.5733 143.418 14.1846C143.418 13.7847 143.331 13.3874 143.247 13.043H143.248L143.244 13.0322L143.139 12.7705C143.027 12.511 142.89 12.2572 142.729 12.0264H142.73C142.554 11.7392 142.322 11.5113 142.018 11.3184H154.852ZM145.954 13.8408C145.954 15.4726 145.912 16.9319 145.828 18.2188C145.744 19.5058 145.617 20.6636 145.45 21.6914C145.302 22.5943 145.157 23.4262 144.955 24.1621L144.864 24.4717L144.863 24.4775C144.654 25.3316 144.402 26.0578 144.109 26.7852L144.054 26.9229H149.395V13.7412H145.954V13.8408Z" fill="url(#paint6_linear_7103_442370)" stroke="white" stroke-width="0.2"/>
<path fill-rule="evenodd" clip-rule="evenodd" d="M34.0093 21.1484C34.0093 22.0511 34.1355 22.9538 34.3881 23.8565C34.6406 24.7592 34.9774 25.6189 35.4825 26.3926C35.9876 27.2093 36.6189 27.8971 37.3766 28.4989C38.1342 29.1007 39.0602 29.6165 40.0704 29.9604C41.1227 30.3043 42.3012 30.4762 43.6481 30.5192C44.9109 30.5192 46.0473 30.3473 47.0996 30.0034C48.1519 29.6595 49.0779 29.2297 49.8776 28.6279C50.6774 28.0261 51.3508 27.3383 51.9401 26.5216C52.4873 25.7048 52.9082 24.8451 53.2028 23.8565C53.4975 22.9108 53.6238 21.8791 53.6238 20.8045C53.6238 19.429 53.4133 18.1824 52.9503 17.0218C52.5294 15.8612 51.8559 14.8725 51.0562 14.0128C50.2144 13.1531 49.2042 12.5083 48.0256 12.0354C46.8471 11.5626 45.5002 11.3477 43.9849 11.3047C42.6801 11.3047 41.5015 11.4766 40.4492 11.8635C39.3969 12.2074 38.4709 12.7232 37.6712 13.325C36.8715 13.9698 36.198 14.7005 35.6508 15.5173C35.1036 16.334 34.7248 17.2367 34.4302 18.1824C34.1356 19.171 34.0093 20.1167 34.0093 21.1484ZM39.0602 20.4176C39.0602 19.3 39.1865 18.3113 39.4811 17.5376C39.7337 16.7639 40.1125 16.1191 40.5755 15.6032C41.0385 15.1304 41.5436 14.7435 42.0908 14.5286C42.638 14.3137 43.2272 14.1847 43.7744 14.1847C44.4058 14.1847 44.9951 14.3137 45.5002 14.6146C46.0053 14.8725 46.4683 15.2594 46.8471 15.7752C47.2259 16.248 47.5626 16.8498 47.8152 17.4516C48.0677 18.0964 48.2361 18.7842 48.3624 19.5149C48.4886 20.2457 48.5307 20.9764 48.5307 21.7502C48.5307 22.6959 48.4465 23.4696 48.2361 24.1574C48.0677 24.8451 47.8152 25.4039 47.4784 25.8338C47.1838 26.3066 46.805 26.6505 46.4262 26.9084C46.0473 27.1664 45.6264 27.3813 45.2476 27.4673C44.8267 27.5962 44.4479 27.6392 44.0691 27.6392C43.564 27.6392 43.101 27.5532 42.5959 27.3813C42.1329 27.2093 41.6699 26.9084 41.249 26.5646C40.828 26.1777 40.4492 25.7048 40.1125 25.146C39.7758 24.5872 39.5232 23.8995 39.3549 23.0827C39.1865 22.309 39.1023 21.4063 39.0602 20.4176Z" fill="#FF1820"/>
<path d="M34.0093 21.1484C34.0093 22.0511 34.1355 22.9538 34.3881 23.8565C34.6406 24.7592 34.9774 25.6189 35.4825 26.3926C35.9876 27.2093 36.6189 27.8971 37.3766 28.4989C38.1342 29.1007 39.0602 29.6165 40.0704 29.9604C41.1227 30.3043 42.3012 30.4762 43.6481 30.5192C44.9109 30.5192 46.0473 30.3473 47.0996 30.0034C48.1519 29.6595 49.0779 29.2297 49.8776 28.6279C50.6774 28.0261 51.3508 27.3383 51.9401 26.5216C52.4873 25.7048 52.9082 24.8451 53.2028 23.8565C53.4975 22.9108 53.6238 21.8791 53.6238 20.8045C53.6238 19.429 53.4133 18.1824 52.9503 17.0218C52.5294 15.8612 51.8559 14.8725 51.0562 14.0128C50.2144 13.1531 49.2042 12.5083 48.0256 12.0354C46.8471 11.5626 45.5002 11.3477 43.9849 11.3047C42.6801 11.3047 41.5015 11.4766 40.4492 11.8635C39.3969 12.2074 38.4709 12.7232 37.6712 13.325C36.8715 13.9698 36.198 14.7005 35.6508 15.5173C35.1036 16.334 34.7248 17.2367 34.4302 18.1824C34.1356 19.171 34.0093 20.1167 34.0093 21.1484ZM39.0602 20.4176C39.0602 19.3 39.1865 18.3113 39.4811 17.5376C39.7337 16.7639 40.1125 16.1191 40.5755 15.6032C41.0385 15.1304 41.5436 14.7435 42.0908 14.5286C42.638 14.3137 43.2272 14.1847 43.7744 14.1847C44.4058 14.1847 44.9951 14.3137 45.5002 14.6146C46.0053 14.8725 46.4683 15.2594 46.8471 15.7752C47.2259 16.248 47.5626 16.8498 47.8152 17.4516C48.0677 18.0964 48.2361 18.7842 48.3624 19.5149C48.4886 20.2457 48.5307 20.9764 48.5307 21.7502C48.5307 22.6959 48.4465 23.4696 48.2361 24.1574C48.0677 24.8451 47.8152 25.4039 47.4784 25.8338C47.1838 26.3066 46.805 26.6505 46.4262 26.9084C46.0473 27.1664 45.6264 27.3813 45.2476 27.4673C44.8267 27.5962 44.4479 27.6392 44.0691 27.6392C43.564 27.6392 43.101 27.5532 42.5959 27.3813C42.1329 27.2093 41.6699 26.9084 41.249 26.5646C40.828 26.1777 40.4492 25.7048 40.1125 25.146C39.7758 24.5872 39.5232 23.8995 39.3549 23.0827C39.1865 22.309 39.1023 21.4063 39.0602 20.4176Z" stroke="white" stroke-width="0.2" stroke-linecap="round" stroke-linejoin="round"/>
<path d="M85.3589 11.4043C86.867 11.4471 88.2017 11.6609 89.3657 12.1279C90.3872 12.5378 91.2789 13.0775 92.0425 13.7744L92.3618 14.083C93.0546 14.8281 93.6499 15.6688 94.0659 16.6338L94.2329 17.0557L94.2339 17.0586C94.6914 18.2055 94.9009 19.4396 94.9009 20.8047C94.9009 21.7384 94.8044 22.637 94.5854 23.4727L94.4839 23.8271V23.8281C94.1927 24.8052 93.7769 25.6548 93.2358 26.4629C92.6525 27.2714 91.9864 27.9522 91.1948 28.5479C90.4066 29.141 89.4912 29.5665 88.4458 29.9082C87.4052 30.2483 86.2796 30.4178 85.0269 30.418C83.6869 30.3751 82.5184 30.2052 81.478 29.8652H81.4771C80.4788 29.5251 79.564 29.015 78.8159 28.4209C78.1602 27.9 77.6007 27.3147 77.1372 26.6367L76.9448 26.3398L76.9429 26.3379L76.7642 26.0479C76.3635 25.3623 76.0813 24.6136 75.8618 23.8291C75.6117 22.9349 75.4858 22.0416 75.4858 21.1484C75.4858 20.1298 75.6521 19.1942 75.9028 18.2119C76.1956 17.2722 76.5708 16.3793 77.1108 15.5732C77.6521 14.7654 78.3187 14.042 79.1108 13.4033L79.1099 13.4023C79.8024 12.8815 80.5906 12.427 81.4731 12.0938L81.8569 11.959L81.8608 11.957C82.8986 11.5756 84.0639 11.4046 85.3589 11.4043ZM85.1938 14.085C84.6318 14.085 84.0296 14.217 83.4731 14.4355C82.9789 14.6297 82.5215 14.9579 82.1011 15.3574L81.9233 15.5332L81.9204 15.5361C81.4487 16.0617 81.0638 16.7177 80.8071 17.502C80.5064 18.2917 80.3794 19.2944 80.3794 20.418C80.3794 21.4114 80.4636 22.324 80.6772 23.1094V23.1084C80.8473 23.9307 81.1027 24.6278 81.4458 25.1973C81.7867 25.7629 82.1714 26.2436 82.6001 26.6377L82.6685 26.5645L82.6001 26.6387L82.605 26.6416C82.9773 26.9458 83.3855 27.2199 83.8013 27.4023L83.98 27.4746L83.9829 27.4756C84.4967 27.6505 84.9704 27.7392 85.4878 27.7393C85.8727 27.7393 86.2591 27.694 86.688 27.5635L86.689 27.5645C87.0847 27.4746 87.5177 27.2527 87.9019 26.9912C88.2867 26.7291 88.6733 26.378 88.9761 25.8955C89.3238 25.4517 89.5817 24.8783 89.7524 24.1807L89.7515 24.1797C89.9644 23.4806 90.0493 22.6982 90.0493 21.75C90.0493 20.9728 90.0079 20.2361 89.8804 19.498C89.7693 18.8551 89.625 18.2426 89.4194 17.6621L89.3276 17.415L89.3267 17.4131L89.1196 16.958C88.8985 16.5085 88.6347 16.0764 88.3462 15.7158H88.3472C88.0079 15.2538 87.6017 14.8917 87.1577 14.6309L86.9644 14.5254C86.4417 14.2157 85.836 14.085 85.1938 14.085Z" fill="#FF1820" stroke="white" stroke-width="0.2"/>
<path d="M75.3862 21.1484C75.3862 22.0511 75.5125 22.9538 75.765 23.8565C76.0176 24.7592 76.3543 25.6189 76.8594 26.3926C77.3645 27.2093 77.9959 27.8971 78.7535 28.4989C79.5112 29.1007 80.4372 29.6165 81.4474 29.9604C82.4996 30.3043 83.6782 30.4762 85.0251 30.5192C86.2878 30.5192 87.4243 30.3473 88.4766 30.0034C89.5289 29.6595 90.4549 29.2297 91.2546 28.6279C92.0543 28.0261 92.7278 27.3383 93.3171 26.5216C93.8642 25.7048 94.2852 24.8451 94.5798 23.8565C94.8744 22.9108 95.0007 21.8791 95.0007 20.8045C95.0007 19.429 94.7903 18.1824 94.3273 17.0218C93.9063 15.8612 93.2329 14.8725 92.4331 14.0128C91.5913 13.1531 90.5811 12.5083 89.4026 12.0354C88.224 11.5626 86.8771 11.3477 85.3618 11.3047C84.057 11.3047 82.8785 11.4766 81.8262 11.8635C80.7739 12.2074 79.8479 12.7232 79.0482 13.325C78.2484 13.9698 77.575 14.7005 77.0278 15.5173C76.4806 16.334 76.1018 17.2367 75.8071 18.1824C75.5546 19.171 75.3862 20.1167 75.3862 21.1484ZM80.4793 20.4176C80.4793 19.3 80.6055 18.3113 80.9002 17.5376C81.1527 16.7639 81.5315 16.1191 81.9945 15.6032C82.4575 15.1304 82.9626 14.7435 83.5098 14.5286C84.057 14.3137 84.6463 14.1847 85.1935 14.1847C85.8248 14.1847 86.4141 14.3137 86.9192 14.6146C87.4243 14.8725 87.8873 15.2594 88.2661 15.7752C88.6449 16.248 88.9817 16.8498 89.2342 17.4516C89.4868 18.0964 89.6551 18.7842 89.7814 19.5149C89.9077 20.2457 89.9498 20.9764 89.9498 21.7502C89.9498 22.6959 89.8656 23.4696 89.6551 24.1574C89.4868 24.8451 89.2342 25.4039 88.8975 25.8338C88.6029 26.3066 88.224 26.6505 87.8452 26.9084C87.4664 27.1664 87.0455 27.3813 86.6667 27.4673C86.2457 27.5962 85.8669 27.6392 85.4881 27.6392C84.983 27.6392 84.52 27.5532 84.0149 27.3813C83.5519 27.2093 83.0889 26.9084 82.668 26.5646C82.2471 26.1777 81.8683 25.7048 81.5315 25.146C81.1948 24.5872 80.9423 23.8995 80.7739 23.0827C80.5634 22.309 80.4793 21.4063 80.4793 20.4176Z" stroke="white" stroke-width="0.0208511" stroke-linecap="round" stroke-linejoin="round"/>
<path fill-rule="evenodd" clip-rule="evenodd" d="M54.5093 11.8633C54.8461 12.1642 55.0565 12.4651 55.2249 12.766C55.3932 13.0669 55.4774 13.4108 55.5195 13.7117C55.5616 14.0126 55.5616 14.2705 55.5616 14.5284C55.5616 14.7863 55.5195 15.0012 55.5195 15.1732L54.0463 26.9082C53.9621 27.51 53.878 27.9829 53.7517 28.3697C53.6254 28.7566 53.4991 29.1005 53.3308 29.3584C53.1624 29.6163 52.994 29.8312 52.8257 30.0032H57.9187C57.5399 29.7453 57.2873 29.4874 57.119 29.1865C56.9506 28.8856 56.8664 28.5417 56.8243 28.1548C56.7823 27.7679 56.8243 27.3381 56.8664 26.8223L57.7924 18.1392L60.9493 26.8223C61.0756 27.1661 61.2018 27.4241 61.286 27.639C61.4123 27.8539 61.4965 28.0258 61.6227 28.1978C61.7069 28.3267 61.8332 28.4557 61.9595 28.5847C62.0857 28.6706 62.212 28.7996 62.3383 28.8856C62.5487 29.0575 62.7592 29.1865 62.9697 29.3584C63.2222 29.4874 63.4748 29.6593 63.8115 29.8312C64.1482 30.0032 64.527 30.1751 65.0321 30.3471L68.7361 18.0962L69.5359 26.5214C69.5359 26.6933 69.578 26.8652 69.578 27.0372C69.578 27.2091 69.6201 27.3381 69.6201 27.51V28.0258C69.6201 28.3267 69.578 28.6706 69.4517 28.9715C69.3254 29.3154 69.115 29.6593 68.7782 30.0032H75.7654C75.4707 29.6163 75.2182 29.2724 75.0498 28.8856C74.8815 28.5417 74.7552 28.1118 74.671 27.682C74.5868 27.2521 74.5026 26.7363 74.4605 26.1775L73.282 14.4424C73.2399 14.0555 73.2399 13.6687 73.282 13.3678C73.3241 13.0239 73.4083 12.766 73.5766 12.5081C73.745 12.2502 73.9975 12.0352 74.2922 11.8633H67.768L64.527 22.6097L60.6125 11.8633H54.5093Z" fill="#FF1820"/>
<path d="M54.5093 11.8633C54.8461 12.1642 55.0565 12.4651 55.2249 12.766C55.3932 13.0669 55.4774 13.4108 55.5195 13.7117C55.5616 14.0126 55.5616 14.2705 55.5616 14.5284C55.5616 14.7863 55.5195 15.0012 55.5195 15.1732L54.0463 26.9082C53.9621 27.51 53.878 27.9829 53.7517 28.3697C53.6254 28.7566 53.4991 29.1005 53.3308 29.3584C53.1624 29.6163 52.994 29.8312 52.8257 30.0032H57.9187C57.5399 29.7453 57.2873 29.4874 57.119 29.1865C56.9506 28.8856 56.8664 28.5417 56.8243 28.1548C56.7823 27.7679 56.8243 27.3381 56.8664 26.8223L57.7924 18.1392L60.9493 26.8223C61.0756 27.1661 61.2018 27.4241 61.286 27.639C61.4123 27.8539 61.4965 28.0258 61.6227 28.1978C61.7069 28.3267 61.8332 28.4557 61.9595 28.5847C62.0857 28.6706 62.212 28.7996 62.3383 28.8856C62.5487 29.0575 62.7592 29.1865 62.9697 29.3584C63.2222 29.4874 63.4748 29.6593 63.8115 29.8312C64.1482 30.0032 64.527 30.1751 65.0321 30.3471L68.7361 18.0962L69.5359 26.5214C69.5359 26.6933 69.578 26.8652 69.578 27.0372C69.578 27.2091 69.6201 27.3381 69.6201 27.51V28.0258C69.6201 28.3267 69.578 28.6706 69.4517 28.9715C69.3254 29.3154 69.115 29.6593 68.7782 30.0032H75.7654C75.4707 29.6163 75.2182 29.2724 75.0498 28.8856C74.8815 28.5417 74.7552 28.1118 74.671 27.682C74.5868 27.2521 74.5026 26.7363 74.4605 26.1775L73.282 14.4424C73.2399 14.0555 73.2399 13.6687 73.282 13.3678C73.3241 13.0239 73.4083 12.766 73.5766 12.5081C73.745 12.2502 73.9975 12.0352 74.2922 11.8633H67.768L64.527 22.6097L60.6125 11.8633H54.5093Z" stroke="white" stroke-width="0.2" stroke-linecap="round" stroke-linejoin="round"/>
<defs>
<linearGradient id="paint0_linear_7103_442370" x1="14" y1="5.5" x2="53.5" y2="20.5" gradientUnits="userSpaceOnUse">
<stop stop-color="#FCFEFE"/>
<stop offset="1" stop-color="#1B89BC"/>
</linearGradient>
<linearGradient id="paint1_linear_7103_442370" x1="21.9597" y1="17.0831" x2="6.14454" y2="31.2446" gradientUnits="userSpaceOnUse">
<stop offset="0.251838" stop-color="#392D89"/>
<stop offset="1" stop-color="#008CD4"/>
</linearGradient>
<linearGradient id="paint2_linear_7103_442370" x1="5.26461" y1="11.1758" x2="2" y2="26" gradientUnits="userSpaceOnUse">
<stop stop-color="#00A1E4"/>
<stop offset="1" stop-color="#00A0E5"/>
</linearGradient>
<linearGradient id="paint3_linear_7103_442370" x1="95.4629" y1="14.8944" x2="114.614" y2="14.8944" gradientUnits="userSpaceOnUse">
<stop stop-color="#283894"/>
<stop offset="1" stop-color="#009AD7"/>
</linearGradient>
<linearGradient id="paint4_linear_7103_442370" x1="107.923" y1="20.2457" x2="121.645" y2="20.2457" gradientUnits="userSpaceOnUse">
<stop stop-color="#283894"/>
<stop offset="1" stop-color="#009AD7"/>
</linearGradient>
<linearGradient id="paint5_linear_7103_442370" x1="119.961" y1="20.3532" x2="138.986" y2="20.3532" gradientUnits="userSpaceOnUse">
<stop stop-color="#283894"/>
<stop offset="1" stop-color="#009AD7"/>
</linearGradient>
<linearGradient id="paint6_linear_7103_442370" x1="138.688" y1="22.6959" x2="156.493" y2="22.6959" gradientUnits="userSpaceOnUse">
<stop stop-color="#283894"/>
<stop offset="1" stop-color="#009AD7"/>
</linearGradient>
</defs>
</svg>
