<svg width="437" height="151" viewBox="0 0 437 151" fill="none" xmlns="http://www.w3.org/2000/svg">
<path d="M419.059 148.042H367.06V121.533H297.117V100.733L355.029 2.24219H419.059V85.2358H437.003V121.533H419.059V148.042ZM368.488 85.2358V43.0253L345.241 85.2358H368.488Z" fill="url(#paint0_linear_6986_440530)"/>
<path d="M238.985 72.7979C238.985 61.1067 237.626 52.8821 234.907 48.1241C232.188 43.2301 227.362 40.7831 220.429 40.7831C213.496 40.7831 208.67 43.2301 205.951 48.1241C203.232 52.8821 201.873 61.0387 201.873 72.594V77.4879C201.873 89.0432 203.232 97.2677 205.951 102.162C208.67 106.92 213.632 109.299 220.837 109.299C227.634 109.299 232.324 106.852 234.907 101.958C237.626 96.9279 238.985 88.7713 238.985 77.4879V72.7979ZM292.819 76.2644C292.819 99.9186 286.158 118.271 272.835 131.322C259.513 144.372 241.568 150.898 219.002 150.898C196.707 150.898 179.306 144.644 166.799 132.137C154.292 119.495 148.039 101.346 148.039 77.6918V72.7979C148.039 49.8234 154.836 31.9468 168.431 19.1681C182.025 6.38936 199.29 0 220.225 0C233.956 0 246.122 2.44698 256.726 7.34095C267.33 12.099 275.962 19.9837 282.623 30.9952C289.421 42.0066 292.819 55.533 292.819 71.5744V76.2644Z" fill="url(#paint1_linear_6986_440530)"/>
<path d="M121.942 148.042H69.9431V121.533H0V100.733L57.912 2.24219H121.942V85.2358H139.886V121.533H121.942V148.042ZM71.3705 85.2358V43.0253L48.1241 85.2358H71.3705Z" fill="url(#paint2_linear_6986_440530)"/>
<mask id="mask0_6986_440530" style="mask-type:alpha" maskUnits="userSpaceOnUse" x="0" y="0" width="437" height="151">
<path d="M419.059 148.042H367.06V121.533H297.117V100.733L355.029 2.24219H419.059V85.2358H437.003V121.533H419.059V148.042ZM368.488 85.2358V43.0253L345.241 85.2358H368.488Z" fill="#008AC7"/>
<path d="M238.985 72.7979C238.985 61.1067 237.626 52.8821 234.907 48.1241C232.188 43.2301 227.362 40.7831 220.429 40.7831C213.496 40.7831 208.67 43.2301 205.951 48.1241C203.232 52.8821 201.873 61.0387 201.873 72.594V77.4879C201.873 89.0432 203.232 97.2677 205.951 102.162C208.67 106.92 213.632 109.299 220.837 109.299C227.634 109.299 232.324 106.852 234.907 101.958C237.626 96.9279 238.985 88.7713 238.985 77.4879V72.7979ZM292.819 76.2644C292.819 99.9186 286.158 118.271 272.835 131.322C259.513 144.372 241.568 150.898 219.002 150.898C196.707 150.898 179.306 144.644 166.799 132.137C154.292 119.495 148.039 101.346 148.039 77.6918V72.7979C148.039 49.8234 154.836 31.9468 168.431 19.1681C182.025 6.38936 199.29 0 220.225 0C233.956 0 246.122 2.44698 256.726 7.34095C267.33 12.099 275.962 19.9837 282.623 30.9952C289.421 42.0066 292.819 55.533 292.819 71.5744V76.2644Z" fill="#008AC7"/>
<path d="M121.942 148.042H69.9431V121.533H0V100.733L57.912 2.24219H121.942V85.2358H139.886V121.533H121.942V148.042ZM71.3705 85.2358V43.0253L48.1241 85.2358H71.3705Z" fill="#008AC7"/>
</mask>
<g mask="url(#mask0_6986_440530)">
<circle cx="72.5037" cy="75.0388" r="104.871" fill="#004CA2"/>
<circle cx="148.246" cy="164.375" r="104.871" fill="#BB0415"/>
</g>
<defs>
<linearGradient id="paint0_linear_6986_440530" x1="367.06" y1="2.24219" x2="367.06" y2="148.042" gradientUnits="userSpaceOnUse">
<stop stop-color="#008AD2"/>
<stop offset="1" stop-color="#004B9F"/>
</linearGradient>
<linearGradient id="paint1_linear_6986_440530" x1="220.429" y1="0" x2="220.429" y2="150.898" gradientUnits="userSpaceOnUse">
<stop stop-color="#008AD2"/>
<stop offset="1" stop-color="#004B9F"/>
</linearGradient>
<linearGradient id="paint2_linear_6986_440530" x1="69.9431" y1="2.24219" x2="69.9431" y2="148.042" gradientUnits="userSpaceOnUse">
<stop stop-color="#008AD2"/>
<stop offset="1" stop-color="#004B9F"/>
</linearGradient>
</defs>
</svg>
