<svg width="24" height="24" viewBox="0 0 24 24" fill="none" xmlns="http://www.w3.org/2000/svg">
<path d="M7.01139 10.0315C7.07819 10.3122 7.34955 10.4829 7.61759 10.4129C7.88545 10.3428 8.04851 10.0585 7.98154 9.77784L5.98503 1.39688C5.92945 1.16363 5.7294 1 5.4999 1H3.50005C3.22383 1 3 1.23448 3 1.52368C3 1.81306 3.22383 2.04754 3.50005 2.04754H5.10935L7.01139 10.0315Z" fill="#fff"/>
<path d="M12.8008 13.5712H16.5014C16.7774 13.5712 17.0014 13.3365 17.0014 13.0473C17.0014 12.7581 16.7774 12.5234 16.5014 12.5234H12.8008C12.5248 12.5234 12.3008 12.7581 12.3008 13.0473C12.3008 13.3365 12.5248 13.5712 12.8008 13.5712Z" fill="#fff"/>
<path d="M7.28894 8.3327H13.5014C14.882 8.3327 16.0013 9.50528 16.0013 10.9516V18.2851C16.0013 18.5743 16.2253 18.8088 16.5013 18.8088C16.7774 18.8088 17.0014 18.5743 17.0014 18.2851V10.9516C17.0014 8.92669 15.4343 7.28516 13.5014 7.28516H7.28894C7.01288 7.28516 6.78906 7.51964 6.78906 7.80884C6.78906 8.09821 7.01289 8.3327 7.28894 8.3327Z" fill="#fff"/>
<path d="M16.8904 13.7669C16.718 13.5411 16.4033 13.5044 16.1877 13.685C15.972 13.8659 15.937 14.1954 16.1096 14.4213L20.1095 19.6594C20.2568 19.8522 20.5126 19.9111 20.7236 19.8006L22.7236 18.7531C22.9705 18.6236 23.0706 18.309 22.9471 18.0503C22.8237 17.7916 22.5234 17.6868 22.2763 17.816L20.6379 18.6743L16.8904 13.7669Z" fill="#fff"/>
<path d="M16.4999 22.9998C15.1193 22.9998 14 21.8272 14 20.3807C14 18.9343 15.1193 17.7617 16.4999 17.7617C17.8805 17.7617 18.9998 18.9343 18.9998 20.3807C18.9998 21.8272 17.8805 22.9998 16.4999 22.9998ZM16.4999 21.9521C17.3282 21.9521 17.9999 21.2486 17.9999 20.3807C17.9999 19.5129 17.3282 18.8093 16.4999 18.8093C15.6716 18.8093 14.9999 19.5129 14.9999 20.3807C14.9999 21.2486 15.6716 21.9521 16.4999 21.9521Z" fill="#fff"/>
<path fill-rule="evenodd" clip-rule="evenodd" d="M17.0001 20.3791C17.0001 20.6685 16.7761 20.903 16.5 20.903C16.224 20.903 16 20.6685 16 20.3791C16 20.0899 16.224 19.8555 16.5 19.8555C16.7761 19.8555 17.0001 20.09 17.0001 20.3791Z" fill="#fff"/>
<path d="M7.50002 23.0019C3.91029 23.0019 1 19.9531 1 16.1924C1 12.4316 3.9102 9.38281 7.50002 9.38281C11.0898 9.38281 14.0001 12.4316 14.0001 16.1924C14.0001 19.9531 11.0898 23.0019 7.50002 23.0019V23.0019ZM7.50002 21.9542C10.5375 21.9542 12.9998 19.3745 12.9998 16.1925C12.9998 13.0105 10.5374 10.4309 7.50002 10.4309C4.46267 10.4309 2.00027 13.0105 2.00027 16.1925C2.00027 19.3745 4.46267 21.9542 7.50002 21.9542V21.9542Z" fill="#fff"/>
<path d="M5.56305 16.714H1.50005C1.22399 16.714 1 16.4793 1 16.1901C1 15.9009 1.22399 15.6662 1.50005 15.6662H5.56305C5.52186 15.8337 5.49993 16.0093 5.49993 16.1901C5.49993 16.3709 5.52186 16.5465 5.56305 16.714ZM6.09875 14.6952L4.06693 11.0085C3.92898 10.7579 4.01085 10.4377 4.25007 10.293C4.48913 10.1483 4.79499 10.2342 4.93312 10.4846L6.96442 14.1708C6.63346 14.2671 6.33696 14.45 6.09877 14.6952L6.09875 14.6952ZM8.03547 14.1708L10.0668 10.4846C10.2049 10.2342 10.5107 10.1482 10.7498 10.2929C10.989 10.4376 11.0709 10.7578 10.933 11.0085L8.90115 14.6951C8.66292 14.45 8.36643 14.267 8.03549 14.1707L8.03547 14.1708ZM9.43683 15.6662H13.4998C13.7759 15.6662 13.9999 15.9009 13.9999 16.1901C13.9999 16.4793 13.7759 16.714 13.4998 16.714H9.43683C9.47802 16.5465 9.49995 16.3709 9.49995 16.1901C9.49995 16.0093 9.47802 15.8337 9.43683 15.6662ZM8.90113 17.685L10.9329 21.3717C11.0709 21.6223 10.989 21.9426 10.7498 22.0873C10.5107 22.2319 10.2049 22.146 10.0668 21.8956L8.03546 18.2094C8.36642 18.1131 8.66292 17.9302 8.90111 17.685L8.90113 17.685ZM6.96441 18.2094L4.9331 21.8956C4.79499 22.146 4.48915 22.232 4.25005 22.0873C4.01083 21.9426 3.92897 21.6224 4.06691 21.3717L6.09873 17.6851C6.33695 17.9302 6.63345 18.1132 6.96439 18.2095L6.96441 18.2094Z" fill="#fff"/>
<path d="M7.49997 17.76C6.67164 17.76 6 17.0564 6 16.1886C6 15.3208 6.67164 14.6172 7.49997 14.6172C8.3283 14.6172 8.99995 15.3208 8.99995 16.1886C8.99995 17.0564 8.3283 17.76 7.49997 17.76ZM7.49997 16.7124C7.77603 16.7124 8.00002 16.4778 8.00002 16.1886C8.00002 15.8994 7.77603 15.6647 7.49997 15.6647C7.22392 15.6647 6.99992 15.8994 6.99992 16.1886C6.99992 16.4778 7.22392 16.7124 7.49997 16.7124Z" fill="#fff"/>
</svg>
