<svg width="21" height="18" viewBox="0 0 21 18" fill="none" xmlns="http://www.w3.org/2000/svg">
<path d="M13.7409 9.1878H16.0506C16.2856 9.1878 16.502 9.02693 16.6103 8.7664C16.7185 8.50587 16.7 8.19558 16.5639 7.95801L15.6177 6.31811C15.5003 6.11508 15.3086 5.99249 15.1076 5.99249H13.7409C13.3946 5.99249 13.1133 6.34122 13.1133 6.77022V8.40624C13.1102 8.8354 13.3947 9.18785 13.7409 9.18785L13.7409 9.1878ZM13.71 6.77017C13.71 6.75094 13.7224 6.73578 13.7378 6.73578L15.1292 6.75112L16.0723 8.38714C16.0754 8.39472 16.0815 8.40636 16.0754 8.42541C16.0662 8.44464 16.0569 8.44464 16.0506 8.44464H13.7409C13.7254 8.44464 13.7132 8.42929 13.7132 8.41024V6.77016L13.71 6.77017Z" fill="#102A83" stroke="#102A83" stroke-width="0.329808"/>
<path d="M19.5091 11.7467V9.2255C19.5091 8.75416 19.271 8.33276 18.9185 8.16803L17.722 7.41324L16.3213 4.98026C16.1512 4.68516 15.8729 4.50522 15.5792 4.50522H15.3165V3.83085C15.3165 3.22548 14.9176 2.7312 14.4291 2.7312C13.9405 2.7312 13.5417 3.22544 13.5417 3.83085V4.50522H12.5121V2.24085C12.5121 1.42099 11.9742 0.754211 11.3124 0.754211H2.45411C1.7925 0.754211 1.25442 1.42081 1.25442 2.24085V11.7503C0.833939 11.781 0.5 12.21 0.5 12.735V14.2867C0.5 14.8346 0.858711 15.2791 1.30085 15.2791H2.59634C2.72317 16.3863 3.49296 17.2446 4.42062 17.2446C5.34813 17.2446 6.11495 16.3901 6.2418 15.2791H13.9901C14.1169 16.3863 14.8867 17.2446 15.8144 17.2446C16.7419 17.2446 17.5087 16.3901 17.6356 15.2791H19.4876C19.9297 15.2791 20.2885 14.8346 20.2885 14.2867V12.735C20.2883 12.1986 19.942 11.762 19.5091 11.7467ZM18.9093 10.4938H18.4547C18.3651 10.4938 18.2878 10.4019 18.2878 10.2869C18.2878 10.1757 18.3619 10.08 18.4547 10.08H18.9093V10.4938ZM14.1414 3.83094C14.1414 3.6355 14.2712 3.47463 14.4289 3.47463C14.5867 3.47463 14.7165 3.6355 14.7165 3.83094V4.50531H14.1414L14.1414 3.83094ZM13.8384 5.24863H15.0164H15.0195H15.5792C15.6813 5.24863 15.7739 5.31001 15.8327 5.40949L17.2767 7.91531C17.3044 7.96506 17.3416 8.00351 17.3849 8.03032L18.665 8.83871C18.6774 8.8463 18.6897 8.85406 18.7021 8.85794C18.829 8.91156 18.9124 9.06096 18.9124 9.22571V9.34072H18.4579C18.0374 9.34072 17.6942 9.76601 17.6942 10.2871C17.6942 10.8081 18.0374 11.2334 18.4579 11.2334H18.9124V11.7391H12.512L12.5118 5.24879L13.8384 5.24863ZM1.85421 2.24099C1.85421 1.83105 2.12325 1.49767 2.45406 1.49767H11.3094C11.6402 1.49767 11.9093 1.83105 11.9093 2.24099V11.7428H1.85429L1.85421 2.24099ZM4.42056 16.5014C3.73417 16.5014 3.17448 15.8078 3.17448 14.9572C3.17448 14.1067 3.73417 13.4131 4.42056 13.4131C5.10382 13.4131 5.66351 14.1067 5.66351 14.9572C5.66351 15.808 5.10382 16.5014 4.42056 16.5014ZM15.814 16.5014C15.1276 16.5014 14.5679 15.8078 14.5679 14.9572C14.5679 14.1067 15.1276 13.4131 15.814 13.4131C16.4973 13.4131 17.0569 14.1067 17.0569 14.9572C17.0538 15.808 16.4974 16.5014 15.814 16.5014ZM19.6883 14.2868C19.6883 14.4247 19.5987 14.5358 19.4874 14.5358H17.6229C17.4621 13.4784 16.7139 12.6737 15.8141 12.6737C14.9144 12.6737 14.1631 13.4782 14.0022 14.5358H6.22948C6.06863 13.4784 5.32047 12.6737 4.42069 12.6737C3.52094 12.6737 2.76961 13.4782 2.60876 14.5358H1.30088C1.18957 14.5358 1.09989 14.4247 1.09989 14.2868V12.7351C1.09989 12.5971 1.18957 12.486 1.30088 12.486H19.4875C19.5988 12.486 19.6885 12.5971 19.6885 12.7351L19.6883 14.2868Z" fill="#102A83" stroke="#102A83" stroke-width="0.329808"/>
<path d="M4.42016 14.2151C4.08935 14.2151 3.82031 14.5485 3.82031 14.9585C3.82031 15.3684 4.08934 15.7018 4.42016 15.7018C4.75097 15.7018 5.02 15.3684 5.02 14.9585C5.02 14.5484 4.75097 14.2151 4.42016 14.2151Z" fill="#102A83" stroke="#102A83" stroke-width="0.329808"/>
<path d="M15.8108 14.215C15.48 14.215 15.2109 14.5484 15.2109 14.9583C15.2109 15.3683 15.48 15.7017 15.8108 15.7017C16.1416 15.7017 16.4106 15.3683 16.4106 14.9583C16.4105 14.5482 16.1446 14.215 15.8108 14.215Z" fill="#102A83" stroke="#102A83" stroke-width="0.329808"/>
<path d="M14.0192 9.75031H13.6359C13.4689 9.75031 13.3359 9.91505 13.3359 10.122C13.3359 10.3289 13.4689 10.4936 13.6359 10.4936H14.0192C14.1862 10.4936 14.3191 10.3289 14.3191 10.122C14.3191 9.91505 14.1862 9.75031 14.0192 9.75031Z" fill="#102A83" stroke="#102A83" stroke-width="0.329808"/>
</svg>
