<svg width="25" height="24" viewBox="0 0 25 24" fill="none" xmlns="http://www.w3.org/2000/svg">
<path d="M7.66706 19.1351C10.0985 20.9897 12.3007 21.9388 12.3932 21.9779C12.4272 21.9927 12.4638 22 12.4999 22C12.5362 22 12.5727 21.9927 12.6067 21.9779C12.6992 21.9383 14.9013 20.9895 17.3326 19.1351C19.5888 17.4137 22.4533 14.562 23.285 10.7515C24.2198 6.46679 21.9528 3.42383 19.4507 2.40979C16.8761 1.36586 14.1902 2.35582 12.5001 4.93081C10.8087 2.35564 8.12301 1.36661 5.54856 2.40979C3.047 3.42378 0.780177 6.46699 1.71506 10.7515C2.54645 14.5619 5.41054 17.4136 7.66689 19.1351H7.66706ZM5.75313 2.93421C6.32064 2.70415 6.95575 2.56626 7.6173 2.56626C9.21141 2.56626 10.956 3.36675 12.2621 5.60317C12.3621 5.77395 12.6376 5.77395 12.7378 5.60317C14.5854 2.43864 17.3114 2.14971 19.2465 2.93381C21.5373 3.86252 23.6094 6.66657 22.7448 10.6281C21.3124 17.1913 13.5091 20.9479 12.5005 21.4088C11.4915 20.9491 3.68842 17.1964 2.2563 10.6281C1.3915 6.66678 3.46298 3.86263 5.75357 2.93381L5.75313 2.93421Z" fill="currentColor" stroke="currentColor" stroke-width="0.4"/>
<path d="M8.63839 11.5346L8.95092 10.0591L9.83445 13.7098C9.86495 13.8362 9.97634 13.9245 10.1032 13.9245C10.107 13.9245 10.1109 13.9245 10.1151 13.9243C10.2468 13.9183 10.3558 13.8189 10.3763 13.6861L11.0842 9.11383L12.1345 13.7064C12.1632 13.8321 12.2715 13.9219 12.398 13.9246C12.5252 13.9229 12.6362 13.8421 12.6703 13.7182L13.408 11.0252L13.6095 11.5742C13.6508 11.6871 13.751 11.7682 13.8765 11.7574C13.9946 11.754 14.0975 11.6745 14.133 11.5592L14.9837 8.77586L15.9636 13.6985C15.9887 13.8242 16.0937 13.9168 16.219 13.9241C16.3521 13.9312 16.4591 13.8512 16.4983 13.7295L17.1276 11.7574H19.2523C19.4054 11.7574 19.5291 11.631 19.5291 11.475C19.5291 11.3192 19.4054 11.1925 19.2523 11.1925L16.9264 11.1927C16.8066 11.1927 16.7006 11.2715 16.6633 11.3875L16.2969 12.5357L15.3115 7.58561C15.286 7.45935 15.1802 7.36657 15.0542 7.36007C14.9312 7.35101 14.8135 7.43492 14.7758 7.55803L13.8446 10.605L13.6288 10.0168C13.5871 9.90239 13.4838 9.82596 13.358 9.83384C13.2381 9.83916 13.1354 9.92228 13.1033 10.0401L12.4283 12.5052L11.3011 7.57774C11.2712 7.44616 11.1498 7.3532 11.0216 7.3597C10.889 7.36482 10.779 7.46448 10.7585 7.59803L10.0435 12.2178L9.20167 8.74004C9.17098 8.61241 9.06578 8.51648 8.92911 8.52535C8.80035 8.52732 8.68994 8.6197 8.66252 8.74812L8.14478 11.1929H5.50826C5.35518 11.1929 5.23145 11.3194 5.23145 11.4754C5.23145 11.6312 5.35518 11.7578 5.50826 11.7578H8.3677C8.498 11.757 8.61074 11.6644 8.63834 11.5346L8.63839 11.5346Z" fill="currentColor" stroke="currentColor" stroke-width="0.4"/>
</svg>
