<svg width="25" height="24" viewBox="0 0 25 24" fill="none" xmlns="http://www.w3.org/2000/svg">
<path d="M10.6187 7.07262C11.028 7.072 11.4204 6.8753 11.7098 6.5251C11.9992 6.17513 12.1618 5.70078 12.1624 5.20577V4.44561C12.1613 3.7795 11.867 3.16437 11.3898 2.8316C10.9127 2.49884 10.3249 2.49884 9.84777 2.8316C9.37049 3.16436 9.07602 3.77944 9.0752 4.44561V5.20577C9.07553 5.70081 9.23836 6.17513 9.52776 6.5251C9.81715 6.87527 10.2096 7.07199 10.6187 7.07262H10.6187ZM9.69172 4.44561H9.69188C9.69256 4.04585 9.86945 3.67663 10.1559 3.47705C10.4423 3.27727 10.795 3.27727 11.0815 3.47705C11.3681 3.67662 11.545 4.04586 11.5456 4.44561V5.20577C11.5461 5.50349 11.4487 5.78933 11.2749 6.00019C11.101 6.21083 10.8648 6.32926 10.6187 6.32926C10.3725 6.32926 10.1365 6.21083 9.96262 6.00019C9.78861 5.78935 9.69119 5.50351 9.69187 5.20577L9.69172 4.44561Z" fill="currentColor" stroke="currentColor" stroke-width="0.2"/>
<path d="M12.7267 13.5138C12.54 12.5874 12.5105 11.625 12.6401 10.6847L12.6698 10.4684C12.7333 10.0079 12.9944 9.62337 13.3553 9.45798L15.7885 8.34926V8.34947C15.9969 8.25358 16.1348 8.01241 16.1355 7.74299V6.949C16.1355 6.74717 16.0579 6.55682 15.9252 6.43429C15.7927 6.31156 15.6206 6.27058 15.4596 6.32344L12.7 7.22722C12.69 7.22927 12.6801 7.23173 12.6703 7.23501L11.1361 7.73455V7.73435C10.7974 7.84438 10.4408 7.84438 10.1021 7.73435L8.56789 7.2348C8.55823 7.23173 8.54841 7.22907 8.53841 7.22702L5.77856 6.32339C5.61743 6.27053 5.44529 6.31151 5.3128 6.43424C5.18031 6.55677 5.10254 6.74712 5.10254 6.94895V7.74295C5.10339 8.01239 5.2413 8.25355 5.44953 8.34942L7.88274 9.45814V9.45794C8.24362 9.62329 8.50472 10.0079 8.56844 10.4683L8.59809 10.6847C8.72753 11.625 8.69822 12.5873 8.51151 13.5137L7.24212 19.8434C7.21196 19.994 7.2406 20.153 7.31989 20.2749C7.39901 20.3966 7.52016 20.4677 7.64825 20.4677H8.20075C8.44337 20.4681 8.67973 20.3757 8.87643 20.204C9.07297 20.0321 9.2197 19.7897 9.29543 19.511L10.6155 14.6805C10.6158 14.6793 10.6162 14.6783 10.6163 14.6777C10.6187 14.677 10.6214 14.6766 10.6207 14.675C10.6216 14.6766 10.6221 14.6785 10.6226 14.6805L11.9426 19.511C12.0185 19.7895 12.1653 20.0321 12.3618 20.204C12.5584 20.3757 12.7949 20.4681 13.0373 20.4677H13.59C13.7181 20.4677 13.8392 20.3966 13.9184 20.2749C13.9976 20.153 14.0263 19.994 13.996 19.8434L12.7267 13.5138ZM13.0374 19.7222L13.0372 19.722C12.806 19.7225 12.6005 19.543 12.5283 19.277L11.2082 14.4465H11.2081C11.1242 14.1392 10.8867 13.9318 10.619 13.9318C10.3514 13.9318 10.1139 14.1392 10.0299 14.4465L8.70981 19.277C8.63747 19.543 8.43212 19.7224 8.20069 19.722H7.90114L9.11089 13.6893V13.6895C9.31708 12.6658 9.34961 11.6022 9.20644 10.5628L9.17679 10.3464C9.07683 9.62374 8.6668 9.01947 8.10025 8.76008L5.7194 7.67533L5.71923 7.07662L8.40725 7.95685C8.41725 7.96013 8.42742 7.9628 8.43758 7.96484L9.94162 8.45455C10.3853 8.5988 10.8527 8.5988 11.2964 8.45455L12.8002 7.96505C12.8104 7.963 12.8207 7.96034 12.8307 7.95706L15.5188 7.07683V7.67554L13.1379 8.76029V8.76008C12.5712 9.01948 12.1613 9.62374 12.0614 10.3464L12.0317 10.5628C11.8885 11.6022 11.9211 12.6659 12.1273 13.6893L13.337 19.722L13.0374 19.7222Z" fill="currentColor" stroke="currentColor" stroke-width="0.2"/>
<path d="M15.2727 2.54401C14.7236 2.14918 14.1415 1.82545 13.5361 1.57812L13.3389 2.28484C13.9031 2.51535 14.4456 2.81698 14.9576 3.18516L15.2727 2.54401Z" fill="currentColor" stroke="currentColor" stroke-width="0.2"/>
<path d="M2.87781 7.77013L2.31663 7.46094H2.31646C2.05164 8.16414 1.84902 8.89933 1.71191 9.65399L2.31425 9.81381V9.81402C2.442 9.11061 2.63092 8.4254 2.87777 7.77014L2.87781 7.77013Z" fill="currentColor" stroke="currentColor" stroke-width="0.2"/>
<path d="M2.11674 12.0273L2.11691 11.9541L1.50017 11.9492L1.5 12.0273C1.49983 12.7733 1.56184 13.5175 1.68519 14.2486L2.28939 14.099C2.17452 13.4173 2.11657 12.7232 2.11674 12.0273V12.0273Z" fill="currentColor" stroke="currentColor" stroke-width="0.2"/>
<path d="M19.3854 9.92661L19.5655 9.88358V9.88378C19.4418 9.12587 19.2523 8.38575 19.0001 7.67578L18.4336 7.97043C18.651 8.58288 18.8182 9.21946 18.9331 9.87126C19.0846 9.88027 19.2355 9.89871 19.3855 9.92658L19.3854 9.92661Z" fill="currentColor" stroke="currentColor" stroke-width="0.2"/>
<path d="M17.5619 6.0889L18.0651 5.65779C17.6959 5.02771 17.2734 4.44584 16.8042 3.92188L16.3857 4.46976H16.3859C16.8234 4.95844 17.2175 5.50121 17.5619 6.08886L17.5619 6.0889Z" fill="currentColor" stroke="currentColor" stroke-width="0.2"/>
<path d="M2.26318 16.4517C2.51987 17.159 2.8372 17.8317 3.20996 18.4587L3.71062 18.0233C3.36312 17.4387 3.0673 16.8115 2.82805 16.1523L2.26318 16.4517Z" fill="currentColor" stroke="currentColor" stroke-width="0.2"/>
<path d="M14.8525 20.9437L15.1602 21.5902H15.1601C15.7134 21.2048 16.2321 20.7505 16.7073 20.2348L16.2954 19.6797C15.8522 20.1606 15.3686 20.5843 14.8525 20.9437H14.8525Z" fill="currentColor" stroke="currentColor" stroke-width="0.2"/>
<path d="M10.6172 1.74583H10.6186C10.9464 1.74583 11.2741 1.76837 11.5998 1.81345L11.6701 1.07253C11.321 1.02418 10.97 1 10.6188 1H10.6172C10.3318 1 10.0434 1.01619 9.76025 1.04815L9.81769 1.79069C10.0818 1.76098 10.3507 1.74582 10.6172 1.74582L10.6172 1.74583Z" fill="currentColor" stroke="currentColor" stroke-width="0.2"/>
<path d="M11.48 22.2596L11.5417 23.0018H11.5418C12.1773 22.9245 12.8044 22.7665 13.4127 22.5305L13.2239 21.8203C12.657 22.0404 12.0725 22.1877 11.48 22.2596L11.48 22.2596Z" fill="currentColor" stroke="currentColor" stroke-width="0.2"/>
<path d="M4.98703 4.32436L4.57836 3.76583V3.76562C4.10007 4.27767 3.66733 4.84833 3.28711 5.46897L3.7827 5.91298L3.78253 5.91277C4.13732 5.33415 4.54089 4.8018 4.98703 4.32441L4.98703 4.32436Z" fill="currentColor" stroke="currentColor" stroke-width="0.2"/>
<path d="M7.76318 22.5052C8.37007 22.7468 8.99631 22.9103 9.63166 22.9931L9.69773 22.2515L9.69756 22.2513C9.10559 22.1743 8.52191 22.0219 7.95618 21.7969L7.76318 22.5052Z" fill="currentColor" stroke="currentColor" stroke-width="0.2"/>
<path d="M4.48145 20.1844C4.95383 20.7044 5.46972 21.1632 6.02088 21.5535L6.33229 20.9098C5.81822 20.5459 5.33707 20.1178 4.89652 19.6328L4.48145 20.1844Z" fill="currentColor" stroke="currentColor" stroke-width="0.2"/>
<path d="M8.07157 2.2157L7.88706 1.50411V1.50391C7.27744 1.73544 6.68985 2.04403 6.13379 2.42432L6.43758 3.07344V3.07364C6.95568 2.71896 7.50345 2.43129 8.07157 2.21576V2.2157Z" fill="currentColor" stroke="currentColor" stroke-width="0.2"/>
<path d="M22.4999 15.1286C22.5003 13.7967 22.0209 12.5307 21.1867 11.6609C20.3524 10.7913 19.2464 10.4043 18.1571 10.601C17.0677 10.7979 16.1032 11.5587 15.5157 12.6852C14.9281 13.8117 14.7755 15.1921 15.0977 16.4658C15.4198 17.7394 16.1849 18.7801 17.1932 19.3161C18.2015 19.8521 19.3529 19.8302 20.3468 19.2561L21.8387 22.0296L22.3556 21.6229L20.8795 18.8787V18.8789C21.8943 18.0245 22.4995 16.624 22.4999 15.1286L22.4999 15.1286ZM15.5518 15.1286C15.5518 14.1134 15.8854 13.1397 16.4791 12.4217C17.0728 11.7038 17.8779 11.3003 18.7176 11.3003C19.5571 11.3003 20.3623 11.7037 20.9559 12.4217C21.5496 13.1397 21.8832 14.1134 21.8832 15.1288C21.8832 16.1441 21.5496 17.1178 20.9559 17.8357C20.3623 18.5536 19.5571 18.9571 18.7176 18.9571C17.8782 18.9559 17.0737 18.5522 16.4801 17.8345C15.8866 17.1167 15.5528 16.1437 15.5518 15.1286Z" fill="currentColor" stroke="currentColor" stroke-width="0.2"/>
<path d="M20.4599 15.1328C20.4594 15.6916 20.2755 16.2272 19.9489 16.6222C19.6222 17.0173 19.1793 17.2396 18.7173 17.2402V17.9861C19.3428 17.9852 19.9424 17.6842 20.3848 17.1495C20.827 16.6145 21.0759 15.8894 21.0766 15.1329L20.4599 15.1328Z" fill="currentColor" stroke="currentColor" stroke-width="0.2"/>
</svg>
