<svg width="22" height="20" viewBox="0 0 22 20" fill="none" xmlns="http://www.w3.org/2000/svg">
<g clip-path="url(#clip0_5587_327546)">
<path d="M8.84684 5.93725C9.18435 5.93675 9.50788 5.77456 9.74649 5.48582C9.98509 5.19726 10.1192 4.80615 10.1196 4.39801V3.77124C10.1188 3.22201 9.87614 2.71483 9.48263 2.44045C9.08924 2.16609 8.60462 2.16609 8.21123 2.44045C7.81769 2.71482 7.5749 3.22197 7.57422 3.77124V4.39801C7.5745 4.80617 7.70875 5.19726 7.94737 5.48582C8.18597 5.77454 8.50952 5.93673 8.84687 5.93725H8.84684ZM8.08255 3.77124H8.08269C8.08325 3.44163 8.2291 3.1372 8.46532 2.97264C8.70141 2.80792 8.99225 2.80792 9.2285 2.97264C9.46473 3.13719 9.61059 3.44163 9.61112 3.77124V4.39801C9.61154 4.64348 9.53121 4.87916 9.38788 5.05302C9.24455 5.22669 9.04981 5.32434 8.84683 5.32434C8.64384 5.32434 8.44925 5.22669 8.30591 5.05302C8.16245 4.87918 8.08212 4.6435 8.08268 4.39801L8.08255 3.77124Z" fill="#102A83" stroke="#102A83" stroke-width="0.164904"/>
<path d="M10.5831 11.2523C10.4292 10.4885 10.4049 9.69493 10.5117 8.91964L10.5362 8.74124C10.5886 8.36162 10.8039 8.04453 11.1014 7.90817L13.1076 6.99401V6.99417C13.2795 6.91511 13.3932 6.71626 13.3937 6.49412V5.83946C13.3937 5.67305 13.3298 5.5161 13.2204 5.41507C13.1111 5.31388 12.9692 5.28009 12.8365 5.32368L10.5611 6.06886C10.5528 6.07055 10.5447 6.07258 10.5366 6.07528L9.27168 6.48716V6.48699C8.99242 6.57772 8.69836 6.57772 8.41909 6.48699L7.15412 6.07511C7.14616 6.07258 7.13806 6.07038 7.12982 6.06869L4.85426 5.32364C4.72141 5.28005 4.57948 5.31384 4.47024 5.41504C4.361 5.51606 4.29688 5.67301 4.29688 5.83942V6.49409C4.29757 6.71624 4.41129 6.91509 4.58298 6.99413L6.5892 7.9083V7.90813C6.88676 8.04446 7.10204 8.36155 7.15457 8.7412L7.17902 8.9196C7.28575 9.69489 7.26158 10.4884 7.10764 11.2522L6.061 16.4711C6.03613 16.5953 6.05974 16.7264 6.12512 16.8269C6.19036 16.9273 6.29025 16.9859 6.39586 16.9859H6.85141C7.05146 16.9862 7.24633 16.91 7.40852 16.7685C7.57057 16.6267 7.69155 16.4269 7.754 16.1971L8.8424 12.2143C8.84268 12.2132 8.84296 12.2124 8.8431 12.2119C8.84506 12.2114 8.84729 12.211 8.84673 12.2097C8.84743 12.211 8.84785 12.2126 8.84827 12.2143L9.93667 16.1971C9.99926 16.4267 10.1202 16.6267 10.2823 16.7685C10.4443 16.91 10.6394 16.9862 10.8393 16.9859H11.2949C11.4006 16.9859 11.5004 16.9273 11.5657 16.8269C11.6311 16.7264 11.6547 16.5953 11.6297 16.4711L10.5831 11.2523ZM10.8393 16.3712L10.8392 16.3711C10.6485 16.3714 10.4791 16.2234 10.4196 16.0041L9.33115 12.0213H9.33101C9.26186 11.7679 9.066 11.5969 8.84528 11.5969C8.62469 11.5969 8.42882 11.7679 8.35955 12.0213L7.27114 16.0041C7.21149 16.2234 7.04218 16.3714 6.85136 16.3711H6.60437L7.60183 11.397V11.3971C7.77185 10.5531 7.79867 9.67611 7.68062 8.81908L7.65618 8.64068C7.57375 8.04483 7.23568 7.5466 6.76854 7.33273L4.80549 6.43834L4.80535 5.94469L7.02168 6.67046C7.02992 6.67316 7.0383 6.67536 7.04668 6.67705L8.28679 7.08082C8.65265 7.19975 9.03796 7.19975 9.40381 7.08082L10.6438 6.67721C10.6522 6.67552 10.6607 6.67333 10.6689 6.67063L12.8853 5.94486V6.43851L10.9222 7.3329V7.33273C10.4549 7.54661 10.117 8.04483 10.0346 8.64068L10.0101 8.81908C9.89207 9.67611 9.91889 10.5531 10.0889 11.397L11.0864 16.3711L10.8393 16.3712Z" fill="#102A83" stroke="#102A83" stroke-width="0.164904"/>
<rect x="1.42398" y="0.518034" width="14.8413" height="18.9639" rx="2.0613" stroke="#102A83" stroke-width="0.824519"/>
<path fill-rule="evenodd" clip-rule="evenodd" d="M21.0477 13.5027L19.6226 14.8836C19.5351 14.9683 19.3933 14.9683 19.3059 14.8836L17.8808 13.5027C17.7933 13.418 17.7933 13.2806 17.8808 13.1959C17.9682 13.1111 18.11 13.1111 18.1975 13.1959L19.2403 14.2063L19.2403 10.8245L19.6882 10.8245L19.6882 14.2063L20.731 13.1959C20.8185 13.1111 20.9602 13.1111 21.0477 13.1959C21.1351 13.2806 21.1351 13.418 21.0477 13.5027Z" fill="#102A83"/>
<path fill-rule="evenodd" clip-rule="evenodd" d="M17.882 5.67367L19.3071 4.29282C19.3946 4.20809 19.5363 4.20809 19.6238 4.29282L21.0489 5.67367C21.1363 5.7584 21.1363 5.89579 21.0489 5.98052C20.9614 6.06526 20.8197 6.06526 20.7322 5.98052L19.6894 4.97008L19.6894 8.35187L19.2415 8.35187L19.2415 4.97008L18.1987 5.98052C18.1112 6.06526 17.9694 6.06526 17.882 5.98052C17.7945 5.89579 17.7945 5.7584 17.882 5.67367Z" fill="#102A83"/>
</g>
<defs>
<clipPath id="clip0_5587_327546">
<rect width="21.4375" height="19.7885" fill="white" transform="translate(0.5 0.105774)"/>
</clipPath>
</defs>
</svg>
