<svg width="108" height="127" viewBox="0 0 108 127" fill="none" xmlns="http://www.w3.org/2000/svg">
<path d="M54.1698 42.9462C56.0817 42.9434 57.9143 42.0247 59.266 40.389C60.6176 38.7545 61.3773 36.539 61.3797 34.227V30.6766C61.375 27.5655 60.0004 24.6925 57.7713 23.1383C55.5429 21.5841 52.7977 21.5841 50.5693 23.1383C48.3401 24.6925 46.9648 27.5653 46.9609 30.6766V34.227C46.9625 36.5391 47.723 38.7545 49.0747 40.389C50.4263 42.0245 52.2591 42.9433 54.17 42.9462H54.1698ZM49.8404 30.6766H49.8412C49.8444 28.8095 50.6706 27.0851 52.0087 26.1529C53.346 25.2198 54.9935 25.2198 56.3318 26.1529C57.6699 27.085 58.4961 28.8096 58.4992 30.6766V34.227C58.5016 35.6175 58.0465 36.9525 57.2346 37.9374C56.4227 38.9212 55.3196 39.4743 54.1698 39.4743C53.0199 39.4743 51.9176 38.9212 51.1057 37.9374C50.293 36.9527 49.838 35.6176 49.8411 34.227L49.8404 30.6766Z" fill="currentColor" stroke="currentColor" stroke-width="0.934114"/>
<path d="M64.0153 73.0287C63.1433 68.7021 63.0056 64.2071 63.611 59.8154L63.7494 58.8048C64.0462 56.6544 65.2656 54.8582 66.9513 54.0858L78.3157 48.9074V48.9084C79.289 48.4605 79.9332 47.3341 79.9363 46.0758V42.3674C79.9363 41.4247 79.5739 40.5357 78.9543 39.9634C78.3355 39.3902 77.5315 39.1988 76.7798 39.4457L63.8905 43.6669C63.8438 43.6764 63.7979 43.6879 63.752 43.7032L56.5865 46.0364V46.0354C55.0046 46.5493 53.3389 46.5493 51.7569 46.0354L44.5914 43.7023C44.5463 43.6879 44.5004 43.6755 44.4537 43.6659L31.5636 39.4455C30.8111 39.1986 30.0071 39.3899 29.3883 39.9632C28.7695 40.5355 28.4062 41.4245 28.4062 42.3672V46.0756C28.4102 47.334 29.0544 48.4604 30.0269 48.9081L41.3913 54.0865V54.0856C43.0769 54.8578 44.2964 56.654 44.594 58.8046L44.7324 59.8151C45.337 64.2068 45.2001 68.7017 44.3281 73.0284L38.3993 102.591C38.2585 103.295 38.3922 104.037 38.7625 104.607C39.1321 105.175 39.6979 105.507 40.2961 105.507H42.8766C44.0098 105.509 45.1137 105.078 46.0325 104.276C46.9504 103.473 47.6357 102.341 47.9894 101.039L54.1548 78.478C54.1564 78.4723 54.158 78.4675 54.1588 78.4646C54.1699 78.4618 54.1825 78.4598 54.1794 78.4522C54.1833 78.4598 54.1857 78.4685 54.1881 78.478L60.3534 101.039C60.708 102.34 61.3932 103.473 62.3112 104.276C63.2291 105.078 64.3339 105.509 65.4662 105.507H68.0475C68.6458 105.507 69.2116 105.175 69.5811 104.607C69.9515 104.037 70.0852 103.295 69.9436 102.591L64.0153 73.0287ZM65.4666 102.026L65.4659 102.025C64.3857 102.027 63.4259 101.188 63.0888 99.9462L56.9234 77.385H56.9226C56.5309 75.9495 55.4214 74.981 54.1711 74.981C52.9216 74.981 51.8121 75.9495 51.4197 77.385L45.2543 99.9462C44.9164 101.188 43.9573 102.027 42.8764 102.025H41.4773L47.1275 73.8484V73.8494C48.0906 69.0682 48.2425 64.1005 47.5738 59.2458L47.4353 58.2352C46.9684 54.8599 45.0534 52.0377 42.4073 50.8262L31.2873 45.7598L31.2865 42.9635L43.8411 47.0746C43.8878 47.09 43.9353 47.1024 43.9828 47.112L51.0075 49.3992C53.0799 50.0729 55.2626 50.0729 57.335 49.3992L64.3589 47.1129C64.4064 47.1034 64.4546 47.0909 64.5013 47.0756L77.0559 42.9644V45.7607L65.936 50.8271V50.8262C63.2891 52.0377 61.3747 54.8599 60.9079 58.2352L60.7695 59.2458C60.1008 64.1005 60.2527 69.0684 61.2158 73.8484L66.866 102.025L65.4666 102.026Z" fill="currentColor" stroke="currentColor" stroke-width="0.934114"/>
<path fill-rule="evenodd" clip-rule="evenodd" d="M107.744 67.8271L103.082 67.5411C103.169 66.1189 103.213 64.6821 103.213 63.2324C103.213 61.7826 103.169 60.3458 103.082 58.9237L107.744 58.6377C107.837 60.155 107.884 61.6872 107.884 63.2324C107.884 64.7775 107.837 66.3097 107.744 67.8271ZM106.612 49.5283L102.022 50.3947C101.483 47.5392 100.768 44.7649 99.8929 42.0883L104.332 40.6363C105.27 43.5052 106.035 46.4751 106.612 49.5283ZM100.902 32.1219L96.6977 34.1572C95.4399 31.5592 94.0207 29.0907 92.4581 26.7703L96.3321 24.1615C98.0199 26.6679 99.549 29.3283 100.902 32.1219ZM90.6528 16.9536L87.2158 20.1161C85.2858 18.0186 83.2201 16.1072 81.0396 14.4017L83.9171 10.7228C86.3037 12.5896 88.5559 14.6746 90.6528 16.9536ZM76.2249 5.72209L74.0401 9.85016C71.5818 8.5491 69.0235 7.48511 66.3853 6.67835L67.7512 2.21196C70.6805 3.10778 73.5126 4.28661 76.2249 5.72209ZM58.7611 0.406556L58.2995 5.05426C56.94 4.91923 55.5636 4.85026 54.1725 4.85026C52.7814 4.85026 51.405 4.91923 50.0455 5.05426L49.5839 0.406555C51.0964 0.25633 52.6268 0.179688 54.1725 0.179688C55.7181 0.179688 57.2486 0.25633 58.7611 0.406556ZM40.5938 2.21195L41.9597 6.67835C39.3215 7.48511 36.7631 8.5491 34.3048 9.85016L32.12 5.72209C34.8323 4.28661 37.6644 3.10778 40.5938 2.21195ZM24.4279 10.7228L27.3054 14.4017C25.1249 16.1072 23.0591 18.0186 21.1292 20.1161L17.6922 16.9536C19.7891 14.6746 22.0412 12.5896 24.4279 10.7228ZM12.0128 24.1615L15.8869 26.7703C14.3243 29.0907 12.905 31.5592 11.6473 34.1572L7.44346 32.1219C8.79599 29.3283 10.3251 26.6679 12.0128 24.1615ZM4.01294 40.6363L8.45206 42.0883C7.57654 44.7649 6.86173 47.5392 6.32262 50.3947L1.73312 49.5283C2.30954 46.4751 3.0745 43.5052 4.01294 40.6363ZM0.601368 58.6377C0.508284 60.155 0.460938 61.6872 0.460938 63.2324C0.460938 64.7775 0.508284 66.3097 0.601368 67.827L5.26317 67.5411C5.17593 66.1189 5.13151 64.6821 5.13151 63.2324C5.13151 61.7826 5.17593 60.3458 5.26317 58.9237L0.601368 58.6377ZM1.73312 76.9365L6.32262 76.07C6.86173 78.9255 7.57654 81.6998 8.45206 84.3764L4.01294 85.8285C3.0745 82.9595 2.30954 79.9896 1.73312 76.9365ZM7.44346 94.3428L11.6473 92.3076C12.905 94.9055 14.3243 97.374 15.8869 99.6944L12.0128 102.303C10.3251 99.7969 8.79599 97.1364 7.44346 94.3428ZM17.6922 109.511L21.1292 106.349C23.0591 108.446 25.1249 110.357 27.3054 112.063L24.4279 115.742C22.0412 113.875 19.7891 111.79 17.6922 109.511ZM32.12 120.743L34.3048 116.615C36.7631 117.916 39.3215 118.98 41.9597 119.786L40.5938 124.253C37.6644 123.357 34.8323 122.178 32.12 120.743ZM49.5839 126.058L50.0455 121.41C51.405 121.546 52.7814 121.614 54.1725 121.614C55.5636 121.614 56.9399 121.546 58.2995 121.41L58.7611 126.058C57.2485 126.208 55.7181 126.285 54.1725 126.285C52.6268 126.285 51.0964 126.208 49.5839 126.058ZM67.7511 124.253L66.3853 119.786C69.0235 118.98 71.5818 117.916 74.0401 116.615L76.2249 120.743C73.5126 122.178 70.6805 123.357 67.7511 124.253ZM83.9171 115.742L81.0396 112.063C83.2201 110.357 85.2858 108.446 87.2158 106.349L90.6528 109.511C88.5559 111.79 86.3037 113.875 83.9171 115.742ZM96.3321 102.303L92.4581 99.6944C94.0206 97.374 95.4399 94.9055 96.6977 92.3076L100.902 94.3429C99.549 97.1364 98.0199 99.7969 96.3321 102.303ZM104.332 85.8285L99.8929 84.3764C100.768 81.6998 101.483 78.9255 102.022 76.07L106.612 76.9365C106.035 79.9896 105.27 82.9595 104.332 85.8285Z" fill="currentColor"/>
</svg>
