<svg width="123" height="152" viewBox="0 0 123 152" fill="none" xmlns="http://www.w3.org/2000/svg">
<path d="M3.07397 66.6338H15.3728V54.1259C15.3728 53.2967 15.6971 52.5021 16.2736 51.9148C16.8501 51.3285 17.6324 50.9997 18.4478 50.9997H43.0444C44.7419 50.9997 46.1193 52.3995 46.1193 54.1259V66.6338H58.4171C60.1157 66.6338 61.4921 68.0335 61.4921 69.761V94.7757C61.4921 95.6049 61.1678 96.4005 60.5913 96.9868C60.0148 97.5731 59.2324 97.9029 58.4171 97.9029H46.1183V110.411L46.1193 110.41C46.1193 111.239 45.795 112.035 45.2185 112.621C44.642 113.207 43.8597 113.537 43.0443 113.537H18.4477C17.6324 113.537 16.85 113.207 16.2735 112.621C15.697 112.035 15.3728 111.239 15.3728 110.41V97.9029H3.07394C2.2586 97.9029 1.47726 97.5731 0.899742 96.9868C0.32325 96.4005 0 95.6049 0 94.7757V69.761C0 68.9318 0.32325 68.1362 0.899742 67.5499C1.47726 66.9636 2.2586 66.6338 3.07394 66.6338H3.07397ZM6.14893 91.6485H18.4478C20.1453 91.6485 21.5217 93.0493 21.5217 94.7757V107.284H39.9694V94.7757C39.9694 93.9465 40.2937 93.1508 40.8702 92.5645C41.4467 91.9782 42.229 91.6485 43.0444 91.6485H55.3432V72.8872H43.0444C42.229 72.8872 41.4467 72.5584 40.8702 71.9721C40.2937 71.3848 39.9694 70.5902 39.9694 69.761V57.2531H21.5217V69.761C21.5217 70.5902 21.1984 71.3848 20.6219 71.9721C20.0444 72.5584 19.2631 72.8872 18.4477 72.8872H6.14891L6.14893 91.6485ZM73.7914 80.8294C73.7914 90.21 79.9403 98.0275 87.6272 98.0275C91.5608 97.9448 95.2327 96.0028 97.5584 92.7749C99.6544 94.093 102.073 94.7861 104.537 94.7756C113.023 94.7756 119.91 86.3331 119.91 76.0144C119.91 66.6337 114.098 58.6288 106.597 57.4091L82.0001 2.65566V2.6567C81.6573 1.90186 81.0345 1.31661 80.2676 1.02871C79.5006 0.741848 78.6534 0.776393 77.9112 1.12398C76.366 1.84951 75.6917 3.71202 76.4041 5.28362L101.892 61.5674H101.893C102.337 62.674 103.363 63.4268 104.537 63.5053C109.61 63.5053 113.761 69.1024 113.761 76.0132C113.761 82.9241 109.61 88.5211 104.537 88.5211C100.202 88.5211 96.4195 84.3311 95.528 78.6087C95.2655 76.8812 93.675 75.6994 91.9773 75.9662C90.2787 76.2342 89.1156 77.8507 89.379 79.5783C89.8618 82.8133 91.1064 85.881 93.0069 88.5212C91.8086 90.3785 89.8083 91.5418 87.627 91.6474C83.4454 91.6474 79.9401 86.6127 79.9401 80.7037C79.7239 76.6437 81.6129 72.7636 84.9204 70.4793C86.2587 69.7255 86.8476 68.086 86.304 66.6327L85.8737 65.5073C85.8861 65.4141 85.8861 65.3188 85.8737 65.2256L59.6166 13.4767C58.8352 11.9398 56.977 11.3378 55.4658 12.1314C53.9546 12.926 53.3626 14.8158 54.144 16.3527L79.5713 66.7883C75.7798 70.4275 73.6807 75.5281 73.7908 80.8279L73.7914 80.8294ZM79.1713 125.827L73.7914 147.184C73.5701 148.014 73.6957 148.901 74.1373 149.635C74.58 150.367 75.2996 150.884 76.1283 151.061C76.9446 151.286 77.8166 151.158 78.5382 150.709C79.2588 150.259 79.7664 149.527 79.9403 148.684L85.7825 125.17C86.1273 123.765 85.4777 122.303 84.2136 121.636C82.9453 121.005 81.8736 120.028 81.1191 118.813C80.3645 117.598 79.9558 116.194 79.9404 114.758C79.9445 112.705 80.7413 110.736 82.1599 109.277C83.5795 107.818 85.5055 106.983 87.5234 106.956C89.5411 106.929 91.4889 107.709 92.9465 109.129C93.5982 109.777 94.4989 110.098 95.4059 110.005C96.3015 109.908 97.1106 109.416 97.6192 108.66C99.466 105.711 102.638 103.893 106.075 103.813C109.126 104.038 111.968 105.478 113.982 107.818C115.997 110.16 117.022 113.216 116.836 116.321C117.008 119.393 116.002 122.413 114.03 124.746C112.057 127.078 109.272 128.542 106.26 128.829C104.933 128.848 103.767 129.73 103.369 131.017L98.5418 146.651V146.652C98.1959 148.235 99.0967 149.825 100.617 150.313C102.139 150.802 103.774 150.026 104.384 148.528L108.627 134.832C112.771 133.941 116.477 131.601 119.101 128.219C121.724 124.838 123.098 120.627 122.985 116.32C123.178 111.556 121.506 106.906 118.337 103.391C115.168 99.8752 110.759 97.7782 106.075 97.5592C101.726 97.5676 97.5701 99.3861 94.5763 102.594C92.4701 101.336 90.0693 100.677 87.6276 100.686C83.8042 100.729 80.1713 102.382 77.5915 105.251C75.0117 108.121 73.7178 111.949 74.0174 115.825C74.317 119.701 76.1834 123.277 79.172 125.701L79.1713 125.827Z" fill="currentColor"/>
</svg>
