<svg width="123" height="130" viewBox="0 0 123 130" fill="none" xmlns="http://www.w3.org/2000/svg">
<path d="M122.576 30.147C122.196 29.4596 121.468 29.046 120.679 29.0764C120.428 29.0863 120.153 29.0916 119.884 29.0916C105.703 29.0916 93.7881 17.4885 88.0525 11.9036C86.8966 10.7722 86.1162 10.0256 85.5302 9.53961C83.7704 8.11093 82.3363 7.47359 80.878 7.47359C77.6102 7.47359 75.2545 10.9477 73.3815 14.3512C72.5155 15.872 71.4006 16.9982 70.0484 17.7242C71.4193 15.9187 72.2095 13.679 72.2095 11.3434C72.2095 5.55001 67.5082 0.835938 61.7297 0.835938C55.9635 0.835938 51.272 5.54978 51.272 11.3434C51.272 13.8204 52.1746 16.1925 53.7275 18.0501C52.0926 17.3635 50.7957 16.1416 49.8075 14.37C48.0424 11.159 45.5906 7.47359 42.2638 7.47359C40.8109 7.47359 39.3392 8.13332 37.6438 9.5414C37.0525 10.0257 36.2703 10.7875 35.2802 11.7507L35.1321 11.8948C29.4187 17.4572 17.5294 29.0335 3.38312 29.0335C3.08611 29.0335 2.77931 29.029 2.4823 29.0192C1.70187 28.9896 0.974077 29.4059 0.59592 30.0907C0.217763 30.7755 0.254319 31.6151 0.691354 32.2641C2.18172 34.4797 5.60657 38.1983 11.7975 38.1983C12.5806 38.1983 13.3868 38.1374 14.1995 38.0166C15.5025 39.1266 18.4404 40.9957 22.5184 40.9957C24.4449 40.9957 26.4134 40.5884 28.3791 39.7827C29.3762 40.4487 31.4446 41.5345 34.3245 41.5345C36.2296 41.5345 38.1919 41.0672 40.1674 40.1434C41.2404 40.8041 43.5316 41.9687 46.3375 41.9687C48.1097 41.9687 49.8125 41.5184 51.3893 40.6385C54.4199 41.394 57.0137 41.8523 59.5118 42.017L59.5127 113.032C59.5127 114.181 60.4412 115.114 61.5873 115.114C62.7325 115.114 63.6618 114.182 63.6618 113.032L63.661 42.017C66.1477 41.8523 68.7253 41.3949 71.7282 40.642C73.3221 41.5238 75.0203 41.9705 76.7846 41.9705C79.5245 41.9705 81.8087 40.89 83.0083 40.1461C84.983 41.0681 86.9408 41.5354 88.8396 41.5354C91.7017 41.5354 93.7505 40.4523 94.7414 39.7845C96.7232 40.5883 98.7024 40.9957 100.635 40.9957C104.937 40.9957 107.836 38.9878 108.986 38.0166C109.813 38.1401 110.625 38.2019 111.407 38.2019C117.567 38.2019 120.986 34.5218 122.475 32.3287C122.917 31.6788 122.956 30.8347 122.576 30.1472L122.576 30.147ZM13.7005 37.5625L13.7058 37.5571C13.738 37.5902 13.7727 37.6251 13.8102 37.6627C13.7718 37.6314 13.7353 37.5983 13.7005 37.5625ZM16.7089 34.6961C16.7321 34.7212 16.7651 34.7579 16.8026 34.8044C16.7732 34.7677 16.741 34.731 16.7089 34.6961ZM111.406 34.0382C110.682 34.0382 109.913 33.9648 109.121 33.8189C108.176 33.6461 107.212 33.9504 106.533 34.6344C106.387 34.7767 104.21 36.832 100.634 36.832C99.0723 36.832 97.4347 36.4506 95.7759 35.7014C94.7377 35.2269 93.5185 35.4087 92.6561 36.1615C92.5464 36.2528 91.155 37.3717 88.8386 37.3717C87.3964 37.3717 85.8517 36.9501 84.2515 36.1212C83.2437 35.5966 82.0565 35.6996 81.1522 36.3897C81.1469 36.3933 81.1433 36.3969 81.1379 36.4005C81.0042 36.4972 79.1436 37.8059 76.7846 37.8059C75.6287 37.8059 74.504 37.4765 73.4426 36.8275C72.7683 36.4041 71.9424 36.2805 71.1923 36.4829C67.5685 37.4165 64.685 37.8936 61.8131 37.9187C61.7381 37.9106 61.6632 37.9053 61.5865 37.9053C61.5098 37.9053 61.434 37.9106 61.3591 37.9187C58.4863 37.8954 55.5876 37.4183 51.9353 36.4846C51.1834 36.2868 50.3673 36.4059 49.6743 36.8248C48.6201 37.4765 47.4972 37.8068 46.3378 37.8068C44.0082 37.8068 42.1386 36.4739 42.0235 36.3898C41.1343 35.7104 39.9222 35.6038 38.9251 36.1203C37.3215 36.951 35.774 37.3726 34.3255 37.3726C32.0084 37.3726 30.5927 36.2698 30.45 36.1534C29.5911 35.406 28.3755 35.2278 27.3363 35.7023C25.689 36.4524 24.0685 36.8328 22.5182 36.8328C19.022 36.8328 16.8385 34.8169 16.6841 34.6701C16.6815 34.6675 16.6788 34.6648 16.6761 34.6621C15.9974 33.9612 15.0207 33.6452 14.062 33.8206C13.2869 33.963 12.5252 34.0355 11.7983 34.0355C10.0002 34.0355 8.5394 33.5807 7.37448 32.9389C21.3381 31.1298 32.4403 20.3208 38.0229 14.8853L38.171 14.7412C39.054 13.8819 39.8174 13.1389 40.2812 12.7585C41.4987 11.7478 42.0749 11.6386 42.2657 11.6386C42.3995 11.6386 43.6428 11.772 46.1829 16.3937C48.5491 20.6369 52.4067 22.8801 57.3379 22.8801C57.4101 22.8801 57.4824 22.8792 57.5528 22.8774L57.6688 22.8756C57.6857 22.8756 57.7027 22.8756 57.7196 22.8747C59.3126 22.8353 60.5596 21.5526 60.5596 19.9529V19.5975C60.5596 18.4643 59.9308 17.4581 58.9354 16.9782C56.8019 15.9255 55.423 13.7145 55.423 11.345C55.423 7.84754 58.2532 5.00182 61.7324 5.00182C65.2233 5.00182 68.0633 7.84754 68.0633 11.345C68.0633 13.7466 66.6808 15.9802 64.5564 17.0275C63.553 17.5127 62.9046 18.5439 62.9046 19.6567V19.953C62.9046 21.5643 64.2112 22.8757 65.8176 22.8757C70.6545 22.8757 74.6242 20.577 76.9949 16.4037C77.0003 16.3957 77.0047 16.3867 77.0092 16.3787C79.4904 11.8679 80.6695 11.6387 80.8809 11.6387C81.12 11.6387 81.7033 11.7864 82.9065 12.7639C83.4122 13.1837 84.2969 14.0431 85.1755 14.9016C90.7544 20.3343 101.831 31.1218 115.767 32.9812C114.611 33.5998 113.171 34.0384 111.405 34.0384L111.406 34.0382Z" fill="currentColor" stroke="currentColor" stroke-width="0.2"/>
<path d="M57.9031 125.211C50.5521 121.633 46.4466 117.259 46.0301 112.562C45.6109 107.833 49.018 102.571 55.6235 97.7466C56.1863 97.3357 56.5065 96.6679 56.4753 95.9697C56.4441 95.2714 56.0659 94.635 55.4683 94.2769C48.5498 90.1225 44.5558 85.4293 44.2213 81.0626C43.9734 77.822 45.7608 74.586 49.5352 71.444C50.1506 70.932 50.4173 70.1111 50.222 69.3332C50.0267 68.5553 49.4041 67.96 48.621 67.8007C30.6945 64.1717 21.2376 57.0006 21.555 53.4298C21.7726 50.9725 27.4176 47.9872 42.6023 47.6604C44.1533 47.6327 45.3797 47.5987 46.3243 47.5244C47.4668 47.4348 48.3195 46.4323 48.2303 45.2865C48.1411 44.1398 47.1439 43.2849 46.0005 43.3735C45.1603 43.4397 44.0053 43.4711 42.5213 43.4979C34.7314 43.6662 28.6611 44.5247 24.4788 46.0519C18.9829 48.0589 17.6084 50.9709 17.423 53.0611C16.7567 60.5688 29.7491 67.4936 43.9958 71.0261C41.1221 74.2926 39.8083 77.7639 40.0848 81.3815C40.5682 87.6933 45.7359 92.7456 50.8116 96.2295C44.4666 101.531 41.3949 107.263 41.897 112.932C42.2823 117.279 45.058 123.588 56.0926 128.959C56.3843 129.101 56.692 129.168 56.9961 129.168C57.7658 129.168 58.5061 128.736 58.8638 127.994C59.365 126.958 58.9342 125.713 57.9032 125.211L57.9031 125.211Z" fill="currentColor" stroke="currentColor" stroke-width="0.2"/>
<path d="M99.1736 46.0538C94.9931 44.5284 88.9237 43.6691 81.1348 43.5025C79.7978 43.4739 78.5241 43.4434 77.6439 43.3736C76.5005 43.2841 75.5033 44.1399 75.4141 45.2866C75.3249 46.4333 76.1776 47.435 77.3201 47.5245C78.3093 47.6024 79.6479 47.6355 81.0474 47.665C96.2357 47.9909 101.879 50.9736 102.097 53.4298C102.414 56.9997 92.9595 64.1708 75.0357 67.8007C74.2526 67.9592 73.6292 68.5553 73.4348 69.3332C73.2394 70.1111 73.507 70.932 74.1215 71.444C77.8951 74.586 79.6824 77.822 79.4347 81.0626C79.1011 85.4293 75.1063 90.1225 68.1877 94.2769C67.5902 94.6359 67.212 95.2715 67.1808 95.9706C67.1495 96.6688 67.4697 97.3366 68.0334 97.7475C74.638 102.567 78.0433 107.829 77.6232 112.562C77.2067 117.263 73.1021 121.634 65.7563 125.206C64.7253 125.707 64.2945 126.952 64.794 127.987C65.1525 128.729 65.8919 129.162 66.6625 129.162C66.9657 129.162 67.2744 129.095 67.5651 128.954C78.5945 123.592 81.37 117.282 81.7552 112.932C82.2583 107.259 79.1884 101.526 72.8452 96.2283C77.9209 92.7444 83.0887 87.6921 83.5714 81.3803C83.8478 77.763 82.5341 74.2914 79.6603 71.0249C93.9068 67.4917 106.898 60.5667 106.231 53.0592C106.044 50.9716 104.67 48.0598 99.1751 46.0537L99.1736 46.0538Z" fill="currentColor" stroke="currentColor" stroke-width="0.2"/>
</svg>
