<svg width="131" height="132" viewBox="0 0 131 132" fill="none" xmlns="http://www.w3.org/2000/svg">
<path d="M65.4969 113.917C56.387 113.887 47.7251 109.761 41.7067 102.587C35.6883 95.4126 32.889 85.8748 34.0195 76.3917C35.1995 62.9758 49.8321 39.0808 62.449 19.7622C63.1743 18.765 64.3016 18.1808 65.4961 18.1797C66.6916 18.1797 67.8188 18.7639 68.5451 19.7601C81.1641 39.0812 95.7976 62.9758 96.9773 76.3923H96.9762C98.1056 85.8757 95.3065 95.4121 89.288 102.586C83.2695 109.761 74.6088 113.887 65.4985 113.917L65.4969 113.917ZM65.4969 23.687C54.2521 40.9661 39.6991 64.6773 38.6307 76.8396C37.5902 84.9691 39.946 93.1733 45.0937 99.3473C50.2414 105.521 57.6786 109.063 65.4972 109.063C73.3158 109.063 80.7541 105.521 85.9017 99.3484C91.0493 93.1744 93.4061 84.9702 92.3658 76.8407C91.2964 64.679 76.7452 40.97 65.4996 23.6881L65.4969 23.687Z" fill="currentColor" stroke="currentColor" stroke-width="0.2"/>
<path d="M62.1627 102.312C57.5142 101.517 53.2582 99.0946 50.0891 95.4384C46.9203 91.7823 45.0243 87.1083 44.709 82.1788C44.6191 80.8488 45.5676 79.6911 46.8344 79.586C48.1012 79.4797 49.2129 80.464 49.3245 81.7918C49.5663 85.6419 51.0428 89.2914 53.5144 92.1487C55.9859 95.0048 59.3066 96.8995 62.9354 97.5239C64.1877 97.7569 65.0256 99.0056 64.8128 100.32C64.601 101.635 63.4179 102.524 62.1624 102.312L62.1627 102.312Z" fill="currentColor" stroke="currentColor" stroke-width="0.2"/>
<path d="M121.241 74.9165C119.896 88.7107 113.814 101.519 104.13 110.957C94.4463 120.393 81.821 125.812 68.6088 126.203C55.3978 126.594 42.5009 121.931 32.3233 113.083C22.1479 104.236 15.3865 91.8077 13.3004 78.1143L19.4534 82.8044C20.4887 83.5783 21.9238 83.3333 22.6709 82.2548C23.4179 81.1774 23.1968 79.6686 22.1749 78.8761L11.6916 70.8865H11.6926C11.1957 70.5071 10.5767 70.351 9.97024 70.4518C9.36372 70.5526 8.82023 70.9016 8.45965 71.423L0.844684 82.4195H0.845717C0.106942 83.5034 0.33942 85.0101 1.36752 85.7938C2.39558 86.5774 3.83282 86.3455 4.58818 85.2735L8.74177 79.2773V79.2784C11.0975 94.0859 18.4945 107.493 29.5584 117.014C40.6223 126.535 54.6043 131.521 68.9068 131.048C83.2094 130.576 96.8655 124.676 107.335 114.444C117.806 104.211 124.383 90.3415 125.846 75.4069C125.961 74.0812 125.037 72.9041 123.775 72.7697C122.511 72.6353 121.381 73.5924 121.239 74.9159L121.241 74.9165Z" fill="currentColor" stroke="currentColor" stroke-width="0.2"/>
<path d="M126.409 46.7198L122.256 52.716V52.7149C119.9 37.9074 112.503 24.5001 101.439 14.9795C90.3753 5.45842 76.3933 0.47226 62.0908 0.94482C47.7882 1.41738 34.1321 7.3173 23.6628 17.5496C13.192 27.7819 6.61442 41.6518 5.15247 56.5864C5.02435 57.9197 5.95013 59.1099 7.22102 59.2453C8.49294 59.3808 9.62744 58.4107 9.75867 57.0775C11.1039 43.2833 17.1866 30.4745 26.87 21.0375C36.5545 11.6018 49.1788 6.18224 62.391 5.79099C75.602 5.39967 88.4989 10.0629 98.6764 18.9108C108.852 27.7579 115.613 40.1863 117.699 53.8797L111.546 49.1896C110.511 48.4157 109.076 48.6607 108.329 49.7392C107.582 50.8166 107.803 52.3254 108.825 53.1179L119.308 61.1075H119.307C120.341 61.8945 121.788 61.6549 122.54 60.571L130.155 49.5745H130.154C130.89 48.4905 130.656 46.986 129.63 46.2036C128.603 45.421 127.168 45.6518 126.412 46.7206L126.409 46.7198Z" fill="currentColor" stroke="currentColor" stroke-width="0.2"/>
</svg>
