<svg width="17" height="22" viewBox="0 0 17 22" fill="none" xmlns="http://www.w3.org/2000/svg">
<path d="M3.51998 5.28072C3.51998 5.4813 3.68403 5.64372 3.88662 5.64372C4.08922 5.64372 4.25327 5.4813 4.25327 5.28072V4.58729H4.95365C5.15624 4.58729 5.3203 4.42487 5.3203 4.22429C5.3203 4.02371 5.15624 3.86129 4.95365 3.86129L4.25344 3.86112V3.16769C4.25344 2.96711 4.08939 2.80469 3.8868 2.80469C3.68421 2.80469 3.52015 2.96711 3.52015 3.16769V3.86112H2.81977C2.61718 3.86112 2.45312 4.02354 2.45312 4.22412C2.45312 4.4247 2.61718 4.58713 2.81977 4.58713H3.52015L3.51998 5.28072Z" fill="currentColor" stroke="currentColor" stroke-width="0.267943"/>
<path d="M16.3136 3.86404C16.3136 3.86353 16.3136 3.86303 16.3135 3.86286C16.3073 3.83213 16.2955 3.80309 16.2819 3.77506C16.2782 3.7678 16.2746 3.76105 16.2705 3.75396C16.2546 3.72644 16.2362 3.69993 16.213 3.67731L13.6166 1.10671C13.5936 1.08391 13.5672 1.06602 13.5395 1.05015C13.5322 1.04609 13.5249 1.04221 13.5174 1.0385C13.4897 1.02516 13.4609 1.01401 13.4306 1.00777C13.4294 1.0076 13.4278 1.00726 13.4266 1.00709C13.404 1.0027 13.3806 1.00034 13.3574 1.00034L0.686958 1C0.484366 1 0.320312 1.16242 0.320312 1.363V20.637C0.320312 20.8376 0.484366 21 0.686958 21H15.9537C16.1563 21 16.3203 20.8376 16.3203 20.637V3.93347C16.3201 3.91001 16.3176 3.88654 16.3133 3.86391L16.3136 3.86404ZM15.0684 3.5706H13.7241V2.23963L15.0684 3.5706ZM1.05377 20.2741V1.72627H12.9908V3.93367C12.9908 4.13425 13.1548 4.29667 13.3574 4.29667H15.587V20.2736L1.05377 20.2741Z" fill="currentColor" stroke="currentColor" stroke-width="0.267943"/>
<path d="M13.1876 7.88672H3.44477C3.24218 7.88672 3.07812 8.04914 3.07812 8.24972C3.07812 8.4503 3.24218 8.61273 3.44477 8.61273H13.1876C13.3902 8.61273 13.5543 8.4503 13.5543 8.24972C13.5544 8.04914 13.3904 7.88672 13.1876 7.88672Z" fill="currentColor" stroke="currentColor" stroke-width="0.267943"/>
<path d="M13.1876 10.2383H3.44477C3.24218 10.2383 3.07812 10.4007 3.07812 10.6013C3.07812 10.8019 3.24218 10.9643 3.44477 10.9643H13.1876C13.3902 10.9643 13.5543 10.8019 13.5543 10.6013C13.5544 10.4007 13.3904 10.2383 13.1876 10.2383Z" fill="currentColor" stroke="currentColor" stroke-width="0.267943"/>
<path d="M13.1876 12.5938H3.44477C3.24218 12.5938 3.07812 12.7562 3.07812 12.9568C3.07812 13.1573 3.24218 13.3198 3.44477 13.3198H13.1876C13.3902 13.3198 13.5543 13.1573 13.5543 12.9568C13.5544 12.7562 13.3904 12.5938 13.1876 12.5938Z" fill="currentColor" stroke="currentColor" stroke-width="0.267943"/>
<path d="M8.52945 14.9453H3.44477C3.24218 14.9453 3.07812 15.1077 3.07812 15.3083C3.07812 15.5089 3.24218 15.6713 3.44477 15.6713H8.52945C8.73205 15.6713 8.8961 15.5089 8.8961 15.3083C8.89627 15.1077 8.73222 14.9453 8.52945 14.9453Z" fill="currentColor" stroke="currentColor" stroke-width="0.267943"/>
</svg>
