<svg width="22" height="21" viewBox="0 0 22 21" fill="none" xmlns="http://www.w3.org/2000/svg">
<path fill-rule="evenodd" clip-rule="evenodd" d="M11.63 9.97815L15.7155 14.0637L14.8251 14.9551L10.37 10.5V4.2H11.63V9.97815ZM11 21C5.20085 21 0.5 16.2991 0.5 10.5C0.5 4.70085 5.20085 0 11 0C16.7991 0 21.5 4.70085 21.5 10.5C21.5 16.2991 16.7991 21 11 21ZM11 19.74C13.4506 19.74 15.8008 18.7665 17.5337 17.0337C19.2665 15.3008 20.24 12.9506 20.24 10.5C20.24 8.0494 19.2665 5.69917 17.5337 3.96633C15.8008 2.2335 13.4506 1.26 11 1.26C8.5494 1.26 6.19917 2.2335 4.46633 3.96633C2.7335 5.69917 1.76 8.0494 1.76 10.5C1.76 12.9506 2.7335 15.3008 4.46633 17.0337C6.19917 18.7665 8.5494 19.74 11 19.74Z" fill="currentColor"/>
</svg>
