<svg width="16" height="19" viewBox="0 0 16 19" fill="none" xmlns="http://www.w3.org/2000/svg">
<path d="M0.5 1H15.5M0.5 18H15.5M2.58333 18V13.5652L4.96333 12.2983C5.5082 12.0084 5.95912 11.5983 6.27219 11.1079C6.58527 10.6175 6.74982 10.0636 6.74982 9.5C6.74982 8.93644 6.58527 8.38249 6.27219 7.89209C5.95912 7.40169 5.5082 6.99156 4.96333 6.70165L2.58333 5.43478V1M13.4167 1V5.43478L11.0367 6.70165C10.492 6.99171 10.0413 7.40188 9.72836 7.89226C9.41543 8.38264 9.25097 8.93652 9.25097 9.5C9.25097 10.0635 9.41543 10.6174 9.72836 11.1077C10.0413 11.5981 10.492 12.0083 11.0367 12.2983L13.4167 13.5652V18" stroke="currentColor" stroke-width="1.16599"/>
</svg>
