<svg width="13" height="14" viewBox="0 0 13 14" fill="none" xmlns="http://www.w3.org/2000/svg">
<rect x="0.246826" y="0.974609" width="12.4418" height="12.4418" rx="6.2209" fill="#E30016"/>
<path d="M6.46782 9.96035C6.27033 9.96035 6.10829 9.8967 5.9817 9.76941C5.84497 9.64211 5.77661 9.48681 5.77661 9.30351C5.77661 9.11511 5.84244 8.95727 5.9741 8.82997C6.11082 8.70268 6.2754 8.63903 6.46782 8.63903C6.66025 8.63903 6.82229 8.70268 6.95395 8.82997C7.09067 8.95727 7.15903 9.11511 7.15903 9.30351C7.15903 9.48172 7.0932 9.63702 6.96154 9.76941C6.82482 9.8967 6.66025 9.96035 6.46782 9.96035ZM5.86016 4.43066H7.09067L6.92357 8.18841H6.02727L5.86016 4.43066Z" fill="white"/>
</svg>
