<svg width="18" height="16" viewBox="0 0 18 16" fill="none" xmlns="http://www.w3.org/2000/svg">
<path d="M6.46803 11.4869C6.54322 11.4869 6.6055 11.4189 6.6055 11.3368V8.28831H9.39571C9.4709 8.28831 9.53317 8.22031 9.53317 8.13822L9.5333 5.24194C9.5333 5.15984 9.47103 5.09185 9.39583 5.09185L6.60549 5.09171V2.04338C6.60549 1.96129 6.54322 1.89329 6.46802 1.89329H3.81528C3.74009 1.89329 3.67781 1.96129 3.67781 2.04338V5.09185L0.887471 5.09171C0.812276 5.09171 0.75 5.15985 0.75 5.24194V8.13822C0.75 8.22032 0.812276 8.28831 0.887471 8.28831H3.67768V11.3368C3.67768 11.4189 3.73995 11.4869 3.81515 11.4869L6.46803 11.4869ZM1.02478 7.98811V5.392H3.81499C3.89018 5.392 3.95246 5.32401 3.95246 5.24191L3.95259 2.19344H6.3304V5.24191C6.3304 5.32401 6.39268 5.392 6.46787 5.392H9.25808V7.98811H6.46787C6.39268 7.98811 6.3304 8.0561 6.3304 8.1382V11.1867H3.95259V8.1382C3.95259 8.0561 3.89031 7.98811 3.81512 7.98811H1.02478ZM15.0459 12.1593V13.5565C15.0459 14.6274 14.2466 15.5 13.2658 15.5H6.78509C5.80424 15.5 5.00499 14.6274 5.00499 13.5565V12.4757L3.99665 13.5925C3.94345 13.6526 3.85547 13.6526 3.80227 13.5945C3.74907 13.5364 3.74728 13.4403 3.80048 13.3822L5.04349 12.0052C5.09477 11.9471 5.18837 11.9471 5.23965 12.0052L6.48266 13.3822C6.53586 13.4403 6.53586 13.5364 6.48087 13.5945C6.45338 13.6225 6.41859 13.6384 6.38368 13.6384C6.3489 13.6384 6.31219 13.6245 6.28649 13.5945L5.27814 12.4776V13.5584C5.27814 14.4651 5.95283 15.2018 6.78331 15.2018H13.266C14.0964 15.2018 14.7711 14.4652 14.7711 13.5584V12.1613C14.7711 12.0792 14.8334 12.0112 14.9086 12.0112C14.9838 12.0112 15.0461 12.0772 15.0461 12.1593H15.0459ZM17.0094 2.95802C17.0606 3.02002 17.1468 3.02407 17.2037 2.97003C17.2605 2.91404 17.266 2.81994 17.2147 2.75781C16.6684 2.08931 15.9919 1.76302 15.046 1.70297V0.650091C15.046 0.567993 14.9837 0.5 14.9085 0.5C14.8334 0.5 14.7711 0.567993 14.7711 0.650091V1.69696C14.0854 1.71902 13.4309 2.12337 13.0607 2.75781C12.7068 3.36433 12.6701 4.07486 12.9654 4.70944C13.3357 5.44399 14.2267 5.78033 14.7712 5.98042L14.7709 9.86352C13.8836 9.85556 13.2236 9.58134 12.8112 9.04686C12.7617 8.98278 12.6755 8.97482 12.6168 9.02885C12.5581 9.08289 12.5508 9.17699 12.6003 9.24108C13.0678 9.84352 13.7974 10.1538 14.771 10.1638V11.4568C14.771 11.5389 14.8332 11.6069 14.9084 11.6069C14.9836 11.6069 15.0459 11.5389 15.0459 11.4568V10.1478C15.8306 10.0678 16.5236 9.66942 16.8939 9.06697C17.1341 8.67659 17.3504 8.02221 17.0149 7.11341C16.6226 6.31478 15.6839 5.98848 15.1211 5.79443C15.0954 5.78438 15.0698 5.77642 15.0459 5.76846V2.0051C15.9058 2.06318 16.5181 2.35946 17.0094 2.95786L17.0094 2.95802ZM13.2089 4.56938C12.9614 4.03699 12.9925 3.43441 13.2932 2.92003C13.614 2.37159 14.1805 2.02324 14.7708 1.99922V5.66429C14.2612 5.47427 13.5077 5.16404 13.2089 4.56953L13.2089 4.56938ZM16.7674 7.23948C16.9929 7.852 16.9581 8.42639 16.6667 8.89887C16.3458 9.42133 15.739 9.76953 15.046 9.8476L15.0459 6.08066C15.5684 6.26287 16.4356 6.56708 16.7674 7.23966L16.7674 7.23948Z" fill="currentColor" stroke="currentColor" stroke-width="0.5"/>
</svg>
