<svg width="18" height="18" viewBox="0 0 18 18" fill="none" xmlns="http://www.w3.org/2000/svg">
<path d="M16.4801 11.1562C16.0035 10.9124 15.4535 10.9686 15.0501 11.2875L12.465 12.8062C12.3183 12.8812 12.1717 12.9375 12.0067 12.9563C12.08 12.7875 12.1351 12.6 12.1351 12.3937C12.1351 11.6625 11.5668 11.0812 10.8518 11.0812H7.47841L7.05677 10.7438C6.21336 10.1062 5.24171 9.74993 4.23334 9.74993H1.85008C1.24507 9.74993 0.75 10.2562 0.75 10.875V15.375C0.75 15.9938 1.24504 16.5001 1.85008 16.5001H2.21672C2.73005 16.5001 3.17009 16.1251 3.28006 15.6375L5.53505 16.9875C5.81 17.1562 6.14006 17.25 6.47003 17.25H10.7601C11.1267 17.25 11.4751 17.1375 11.7867 16.9313L16.7001 13.5563L16.7184 13.5376C17.0668 13.2751 17.25 12.8626 17.25 12.4125C17.2503 11.8875 16.9569 11.4001 16.4803 11.1562L16.4801 11.1562ZM2.58329 15.375C2.58329 15.5812 2.41832 15.7499 2.21665 15.7499H1.85002C1.64834 15.7499 1.48338 15.5812 1.48338 15.375L1.48325 10.875C1.48325 10.6687 1.64822 10.5 1.84989 10.5H2.58316L2.58329 15.375ZM16.2784 12.9563L11.3651 16.3125C11.1817 16.4438 10.98 16.5001 10.76 16.5001H6.47C6.26832 16.5001 6.08493 16.4438 5.91996 16.3501L3.3166 14.7938V10.5001H4.25158C5.07655 10.5001 5.90153 10.8001 6.59827 11.3251L7.12988 11.7376C7.20315 11.7938 7.27656 11.8125 7.34984 11.8125H10.8332C11.1449 11.8125 11.3832 12.0563 11.3832 12.3751C11.3832 12.6751 11.1449 12.9376 10.8332 12.9376H6.25015C6.14017 12.9376 6.04848 12.9751 5.9752 13.0501C5.92021 13.125 5.88351 13.2188 5.88351 13.3126C5.88351 13.5188 6.04848 13.6875 6.25015 13.6875H11.9152C12.2269 13.6875 12.5569 13.5938 12.8319 13.4438L15.4169 11.925L15.4536 11.8875C15.6553 11.7375 15.912 11.6999 16.1504 11.8126C16.3703 11.925 16.517 12.15 16.517 12.4126C16.517 12.6376 16.4253 12.825 16.2786 12.9563L16.2784 12.9563ZM10.65 9.00001C12.8685 9.00001 14.6834 7.14373 14.6834 4.87501C14.6835 2.60619 12.8685 0.75 10.65 0.75C8.43162 0.75 6.61667 2.60629 6.61667 4.87501C6.61667 7.14369 8.43172 9.00001 10.65 9.00001ZM10.65 1.5C12.4651 1.5 13.9501 3.01872 13.9501 4.87501C13.9501 6.73129 12.4651 8.25001 10.65 8.25001C8.83499 8.25001 7.35001 6.73129 7.35001 4.87501C7.35014 3.01872 8.83512 1.5 10.65 1.5ZM9.36673 3.93754C9.36673 3.20629 9.93504 2.62507 10.65 2.62507H11.3833C11.585 2.62507 11.75 2.79379 11.75 3.00004C11.75 3.20629 11.585 3.375 11.3833 3.375H10.65C10.3384 3.375 10.1 3.61879 10.1 3.93754C10.1 4.23757 10.3384 4.50007 10.65 4.50007C11.3651 4.50007 11.9334 5.08129 11.9334 5.81254C11.9334 6.54379 11.3651 7.12501 10.65 7.12501H9.91677C9.71509 7.12501 9.55013 6.95629 9.55013 6.75004C9.55013 6.54379 9.7151 6.37508 9.91677 6.37508H10.65C10.9617 6.37508 11.2001 6.11258 11.2001 5.81254C11.2001 5.49381 10.9617 5.25001 10.65 5.25001C9.93504 5.25001 9.36673 4.66879 9.36673 3.93754Z" fill="currentColor"/>
</svg>
