<svg width="18" height="18" viewBox="0 0 18 18" fill="none" xmlns="http://www.w3.org/2000/svg">
<path d="M17.7263 16.3951L13.289 11.9396C14.4299 10.6302 15.055 8.98262 15.055 7.26749C15.055 3.26026 11.6781 0 7.52752 0C3.37691 0 0 3.26026 0 7.26749C0 11.2747 3.37691 14.535 7.52752 14.535C9.08568 14.535 10.5706 14.0812 11.8401 13.2199L16.3112 17.7093C16.498 17.8967 16.7494 18 17.0187 18C17.2737 18 17.5155 17.9061 17.6991 17.7355C18.0893 17.3731 18.1017 16.7721 17.7263 16.3951ZM7.52752 1.89587C10.5954 1.89587 13.0913 4.30552 13.0913 7.26749C13.0913 10.2295 10.5954 12.6391 7.52752 12.6391C4.45957 12.6391 1.9637 10.2295 1.9637 7.26749C1.9637 4.30552 4.45957 1.89587 7.52752 1.89587Z" fill="#4F4F4F"/>
</svg>
