<svg width="16" height="16" viewBox="0 0 16 16" fill="none" xmlns="http://www.w3.org/2000/svg">
<path d="M13.884 10.9507L13.5384 10.6051L12.805 11.3384L12.8049 11.3383C12.7096 11.4338 12.7096 11.5886 12.8049 11.684L13.5383 12.4174L13.8839 12.0718L13.5678 11.7556H14.9334V11.2668H13.5678L13.884 10.9507Z" fill="currentColor" stroke="currentColor" stroke-width="0.2"/>
<path d="M1.7334 14.2H3.0989L2.78289 14.516L3.12849 14.8616L3.86182 14.1283V14.1284C3.95719 14.0329 3.95719 13.8781 3.86182 13.7826L3.12849 13.0493L2.78289 13.3949L3.0989 13.711H1.7334V14.2Z" fill="currentColor" stroke="currentColor" stroke-width="0.2"/>
<path d="M6.13328 7.35547C6.13328 7.61748 5.99349 7.85953 5.76662 7.99058C5.53974 8.12153 5.26016 8.12153 5.03329 7.99058C4.80641 7.85951 4.66662 7.61748 4.66662 7.35547H4.17773C4.17773 7.79209 4.41072 8.19563 4.78884 8.4139C5.16696 8.63226 5.63294 8.63226 6.01106 8.4139C6.38918 8.19564 6.62217 7.79209 6.62217 7.35547H6.13328Z" fill="currentColor" stroke="currentColor" stroke-width="0.2"/>
<path d="M9.79984 8.08891C9.60538 8.08891 9.41876 8.01165 9.28128 7.87415C9.14381 7.73665 9.06652 7.55003 9.06652 7.35559H8.57764C8.57764 7.79221 8.81062 8.19575 9.18875 8.41402C9.56686 8.63238 10.0328 8.63238 10.411 8.41402C10.7891 8.19576 11.0221 7.79221 11.0221 7.35559H10.5332C10.5332 7.55005 10.4559 7.73667 10.3184 7.87415C10.1809 8.01162 9.99431 8.08891 9.79987 8.08891H9.79984Z" fill="currentColor" stroke="currentColor" stroke-width="0.2"/>
<path d="M6.62207 12H8.57762V12.4889H6.62207V12Z" fill="currentColor" stroke="currentColor" stroke-width="0.2"/>
<path d="M7.11114 11.0222H8.33336V10.5333H7.35559V8.57776H6.8667V10.7778C6.8667 10.8426 6.89245 10.9048 6.93829 10.9506C6.98412 10.9964 7.04632 11.0222 7.11114 11.0222Z" fill="currentColor" stroke="currentColor" stroke-width="0.2"/>
<path d="M4.66675 6.1333H6.37785V6.62219H4.66675V6.1333Z" fill="currentColor" stroke="currentColor" stroke-width="0.2"/>
<path d="M8.82227 6.1333H10.5334V6.62219H8.82227V6.1333Z" fill="currentColor" stroke="currentColor" stroke-width="0.2"/>
<path d="M14.4444 13.2222H12.2444C12.0282 13.2229 11.8185 13.2954 11.6478 13.4281C11.4772 13.5608 11.3553 13.7462 11.3013 13.9555H10.3884C11.4747 12.8174 12.5979 11.214 12.7181 9.79996H12.7333C13.1221 9.79953 13.495 9.64489 13.77 9.36999C14.0449 9.09499 14.1995 8.72212 14.2 8.3333V7.35553C14.1994 6.9964 14.0674 6.64991 13.8286 6.38158C13.5898 6.11335 13.261 5.9418 12.9044 5.89968L13.6793 4.54345C13.7003 4.50656 13.7113 4.46466 13.7111 4.42221C13.7111 2.34444 12.2718 1 10.0444 1H4.91109C2.73554 1 1.48888 2.24666 1.48888 4.42221C1.48866 4.4651 1.49979 4.50722 1.52118 4.54443L2.29608 5.90066H2.29597C1.93945 5.94267 1.61066 6.114 1.37189 6.38212C1.13301 6.65013 1.00075 6.99649 1 7.35553V8.33331C1.00044 8.72213 1.15507 9.09502 1.42997 9.37C1.70497 9.64489 2.07784 9.79952 2.46666 9.79997H2.48183C2.63755 11.6299 4.47624 13.782 5.73307 14.8238C5.73962 14.8293 5.7466 14.8345 5.7538 14.8393C6.55731 15.3719 7.13688 15.6667 7.70443 15.6667C8.24221 15.6667 8.77015 15.4017 9.46717 14.8241C9.60357 14.7109 9.74784 14.5821 9.89515 14.4448H11.3015V14.4447C11.3556 14.654 11.4774 14.8394 11.648 14.972C11.8187 15.1047 12.0285 15.177 12.2445 15.1778H14.4445V15.6667H14.9334V12.7333H14.4445L14.4444 13.2222ZM13.711 7.35552V8.3333C13.711 8.59258 13.608 8.84129 13.4247 9.02472C13.2412 9.20806 12.9925 9.31107 12.7333 9.31107V6.37775C12.9925 6.37775 13.2413 6.48076 13.4247 6.6641C13.608 6.84754 13.711 7.09625 13.711 7.35552ZM2.46663 9.31107C2.20735 9.31107 1.95864 9.20806 1.77521 9.02472C1.59188 8.84128 1.48886 8.59258 1.48886 8.3333V7.35552C1.48886 7.09624 1.59188 6.84753 1.77521 6.6641C1.95865 6.48076 2.20736 6.37775 2.46663 6.37775V9.31107ZM1.97775 4.35795C2.00219 2.50705 3.04106 1.48888 4.91107 1.48888H10.0444C11.9814 1.48888 13.1934 2.58647 13.2221 4.35823L12.391 5.81092L11.3798 5.30348L12.2028 4.06903L11.7961 3.79774L10.9405 5.08282L10.6384 4.93124C10.3067 4.77442 9.96418 4.64173 9.61344 4.53423L10.0324 3.27732L9.56793 3.1228L9.13994 4.40438C8.71467 4.30442 8.2809 4.24484 7.84439 4.22672V2.95562H7.3555V4.22477C6.91757 4.23786 6.48205 4.29428 6.05526 4.39315L5.63186 3.12204L5.16741 3.27656L5.58297 4.52322H5.58308C5.23038 4.63257 4.88707 4.77007 4.55641 4.9342L4.09002 5.16816L3.41823 3.82373L2.98063 4.04231L3.65284 5.38674L2.80885 5.81093L1.97775 4.35795ZM9.70384 13.9555H8.57767V14.4444H9.15821L9.15505 14.4473C7.91274 15.4772 7.42224 15.3579 6.03455 14.439C4.53984 13.1963 2.9554 11.066 2.9554 9.55548V6.28412L4.77532 5.37085C5.65291 4.93521 6.61946 4.70845 7.59941 4.70845C8.57925 4.70845 9.5458 4.93522 10.4235 5.37085L12.2444 6.28412V9.55548C12.2444 10.8847 11.017 12.6933 9.70392 13.9555L9.70384 13.9555ZM14.4444 14.6888H12.2444C12.0697 14.6888 11.9083 14.5956 11.821 14.4444C11.7337 14.2931 11.7337 14.1067 11.821 13.9555C11.9083 13.8043 12.0697 13.7111 12.2444 13.7111H12.4888V14.1999H12.9777V13.7111H13.4666V14.1999H13.9555V13.7111H14.4444V14.6888Z" fill="currentColor" stroke="currentColor" stroke-width="0.2"/>
</svg>
