<svg width="40" height="25" viewBox="0 0 40 25" fill="none" xmlns="http://www.w3.org/2000/svg">
<g clip-path="url(#clip0_7103_442240)">
<path d="M25.1624 2.66797H14.4375V22.2855H25.1624V2.66797Z" fill="#FF5A00"/>
<path d="M15.1513 12.478C15.1513 8.49233 16.9917 4.95487 19.8157 2.66925C17.7373 1.00551 15.1156 0 12.2559 0C5.48144 0 0 5.58079 0 12.478C0 19.3753 5.48144 24.9561 12.2559 24.9561C15.1156 24.9561 17.7373 23.9505 19.8157 22.2868C16.9877 20.0335 15.1513 16.4637 15.1513 12.478Z" fill="#EB001B"/>
<path d="M39.6301 12.478C39.6301 19.3753 34.1487 24.9561 27.3742 24.9561C24.5145 24.9561 21.8928 23.9505 19.8145 22.2868C22.6742 19.9971 24.4788 16.4637 24.4788 12.478C24.4788 8.49233 22.6385 4.95487 19.8145 2.66925C21.8888 1.00551 24.5106 0 27.3703 0C34.1487 0 39.6301 5.61713 39.6301 12.478Z" fill="#F79E1B"/>
</g>
<defs>
<clipPath id="clip0_7103_442240">
<rect width="40" height="25" fill="white"/>
</clipPath>
</defs>
</svg>
