<svg width="12" height="18" viewBox="0 0 12 18" fill="none" xmlns="http://www.w3.org/2000/svg">
<path d="M0.0750773 17.25L2.07172 14.0117C2.5788 13.5921 3.21285 13.1194 3.38993 12.8322L3.40462 12.6045C3.6292 12.7259 3.81937 12.8333 4.2049 13.044C4.39053 13.1444 4.6572 13.0772 4.76462 12.9031L8.65863 6.58747L9.36788 6.97088C9.55365 7.0746 9.82431 7.00836 9.9326 6.83263C10.041 6.65691 9.96699 6.40423 9.77808 6.30546C9.37703 6.07072 8.89233 5.82649 8.54662 5.61877L10.2805 2.8067L10.635 2.99835C10.8208 3.1022 11.0914 3.03596 11.1997 2.8601C11.3082 2.68438 11.2341 2.43184 11.0452 2.33293L8.20834 0.799345C8.02257 0.695627 7.75191 0.761871 7.64361 0.937595C7.53518 1.11345 7.60923 1.36599 7.79813 1.46477L8.15269 1.65655L6.41556 4.47382C6.04987 4.28994 5.57905 4.03539 5.16814 3.81324C4.98237 3.70939 4.71171 3.77563 4.60342 3.95149C4.49498 4.12721 4.56903 4.37975 4.75794 4.47866L5.46719 4.86207L1.5699 11.1829C1.46247 11.3571 1.53381 11.6068 1.71943 11.7072C2.13506 11.9279 2.29128 12.0113 2.52599 12.1364L2.32596 12.257C2.15075 12.5426 2.03418 13.2867 1.90061 13.9053L0 16.9877L0.0747646 17.2498L0.0750773 17.25ZM2.48435 11.2334L6.17271 5.24327C6.70562 5.53141 7.41615 5.9155 7.94307 6.21409L7.53928 6.86905L6.65269 6.38981L6.24251 7.05523L7.12899 7.53447L6.71881 8.19975L5.83233 7.7205L5.42214 8.38592L6.30873 8.86516L5.89855 9.53058L5.01207 9.05133L4.60189 9.71675L5.48837 10.196L5.07818 10.8614L4.1916 10.3822L3.78141 11.0476L4.66789 11.5268L4.26081 12.187C3.6821 11.8709 3.24251 11.6365 2.4846 11.2336L2.48435 11.2334ZM7.82805 5.25081L7.1188 4.86739L8.86232 2.03967L9.57157 2.42309L7.82805 5.25081Z" fill="currentColor"/>
</svg>
