<svg width="18" height="18" viewBox="0 0 18 18" fill="none" xmlns="http://www.w3.org/2000/svg">
<path d="M16.9857 3.3701L16.7547 2.4117C16.7299 2.30461 16.6447 2.22281 16.5374 2.20305L9.0522 0.754247C9.01917 0.748584 8.98345 0.748584 8.95042 0.754247L1.45959 2.20028C1.35512 2.22281 1.26992 2.30461 1.24512 2.4117L1.01408 3.37009C0.238689 6.60062 0.761181 13.5968 8.28774 16.9597L8.89003 17.2275C8.92575 17.2443 8.96148 17.25 9.00002 17.25C9.03857 17.25 9.0743 17.2416 9.11002 17.2275L9.71231 16.9597C17.2386 13.5968 17.7613 6.60062 16.986 3.37009L16.9857 3.3701ZM9.49205 16.441L8.99977 16.6609L8.50748 16.441C1.31647 13.2303 0.810482 6.57517 1.54747 3.5054L1.73444 2.7218L8.99993 1.31806L16.2626 2.7218L16.4496 3.5054C17.1893 6.57514 16.6834 13.2305 9.49238 16.441H9.49205Z" fill="currentColor" stroke="currentColor" stroke-width="0.2"/>
<path d="M15.3108 3.52496L9.05197 2.31577C9.01895 2.31011 8.98322 2.31011 8.9502 2.31577L2.68851 3.52496C2.58404 3.54472 2.49871 3.62639 2.47121 3.73361C2.45476 3.81528 0.626053 11.8631 8.88973 15.5501C8.92545 15.5669 8.96117 15.5726 8.99972 15.5726C9.03827 15.5726 9.074 15.5642 9.10972 15.5501C17.3734 11.8602 15.5446 3.81543 15.5254 3.73361C15.5007 3.62928 15.4154 3.54472 15.3109 3.52496H15.3108ZM8.9998 14.9835C1.85813 11.725 2.74377 5.22463 2.97194 4.04362L8.9998 2.87947L15.0277 4.04652C15.2559 5.22463 16.1414 11.725 8.9998 14.9835Z" fill="currentColor" stroke="currentColor" stroke-width="0.2"/>
<path d="M12.2115 7.19547H10.2151V5.14907C10.2151 4.99403 10.0913 4.86719 9.9401 4.86719H8.05908C7.90783 4.86719 7.78408 4.99403 7.78408 5.14907V7.19547H5.78769C5.63644 7.19547 5.5127 7.32231 5.5127 7.47735V9.40548C5.5127 9.56052 5.63644 9.68736 5.78769 9.68736H7.78408V11.7338C7.78408 11.8888 7.90783 12.0156 8.05908 12.0156H9.9401C10.0913 12.0156 10.2151 11.8888 10.2151 11.7338V9.68736H12.2115C12.3627 9.68736 12.4865 9.56052 12.4865 9.40548V7.47735C12.4865 7.31954 12.3627 7.19547 12.2115 7.19547ZM11.9365 9.1207H9.9401C9.78885 9.1207 9.6651 9.24755 9.6651 9.40258V11.449H8.33407V9.40258C8.33407 9.24755 8.21032 9.1207 8.05908 9.1207H6.06268V7.75923H8.05908C8.21032 7.75923 8.33407 7.63238 8.33407 7.47735V5.43095H9.6651V7.47735C9.6651 7.63238 9.78885 7.75923 9.9401 7.75923H11.9365V9.1207Z" fill="currentColor" stroke="currentColor" stroke-width="0.2"/>
</svg>
