<svg width="506" height="143" viewBox="0 0 506 143" fill="none" xmlns="http://www.w3.org/2000/svg">
<path fill-rule="evenodd" clip-rule="evenodd" d="M0.450012 0.860016C15.9 0.900016 31.36 0.880016 46.82 0.860016C54.1 0.770016 61.38 4.52002 65.36 10.65C69.06 15.9 70.46 22.25 72.28 28.29C77.88 47.14 83.39 66.01 89 84.86C89.09 86.56 91.62 87.22 92.11 85.4C97.84 66.37 103.36 47.29 109.04 28.24C110.99 21.53 112.67 14.4 117.22 8.89005C120.14 5.32005 124.23 2.77002 128.67 1.58002C132.45 0.530017 136.42 0.930016 140.3 0.860016C153.87 0.910016 167.45 0.740043 181.02 0.950043C180.93 48.29 181.07 95.63 180.94 142.97C166.26 142.88 151.58 143.1 136.9 142.85C136.9 115.08 136.97 87.31 136.87 59.54C136.78 57.07 132.69 57.28 132.41 59.61C123.67 87.35 114.87 115.08 106.26 142.86C95.89 143.1 85.51 142.91 75.14 142.95C66.41 115.21 57.75 87.45 48.94 59.73C48.57 57.44 45.87 57.36 44.41 58.7C44.44 86.76 44.37 114.82 44.44 142.88C29.78 143.06 15.13 142.88 0.470013 142.97C0.470013 95.59 0.470013 48.22 0.470013 0.840027L0.450012 0.860016ZM201.06 0.950043C215.71 0.730043 230.37 1.07002 245.02 0.77002C245.25 28.87 245.05 56.98 245.12 85.09C246.37 86.21 248.68 86.56 249.45 84.7C259.21 64.25 268.92 43.78 278.67 23.32C281.76 16.97 284.27 10.08 289.3 4.95004C291.55 2.82004 294.36 0.750024 297.62 0.900024C312.56 0.900024 327.5 0.810043 342.45 0.950043C342.47 48.27 342.47 95.59 342.45 142.91C327.79 143.03 313.13 143.02 298.46 142.91C298.46 114.88 298.52 86.84 298.43 58.81C298.39 56.4 294.32 56.6 293.9 58.76C284.71 79.04 275.55 99.34 266.37 119.62C263.54 125.77 260.86 132.12 256.64 137.48C254.29 140.47 250.86 143.15 246.87 142.97C231.6 142.97 216.33 142.99 201.06 142.96C201.06 95.63 201.08 48.28 201.05 0.950043H201.06ZM363.89 65.8C409.93 65.49 455.99 65.8 502.04 65.65C500.49 71.99 496.39 77.45 492.04 82.21C483.47 91.51 471.16 97.19 458.5 97.52C441.68 97.61 424.86 97.51 408.03 97.57C407.93 112.71 408.03 127.85 407.99 142.99C393.32 142.92 378.64 143.03 363.96 142.92C363.89 117.22 364.03 91.5 363.89 65.79V65.8Z" fill="#327351"/>
<path fill-rule="evenodd" clip-rule="evenodd" d="M358.29 0.939889C392.69 0.899889 427.1 0.869881 461.5 0.899881C470.52 1.53988 479.24 5.2099 486.39 10.6999C496.77 18.7799 503.77 31.1899 504.93 44.3299C505.2 49.0599 505.1 53.8299 504.4 58.5199C483.32 58.6399 462.24 58.5199 441.16 58.5599C433.93 58.4899 426.65 58.8599 419.46 57.7899C403.27 55.7399 387.31 48.9999 375.84 37.1699C366.17 27.4799 360.21 14.4199 358.29 0.92988V0.939889Z" fill="url(#paint0_linear_76_191)"/>
<defs>
<linearGradient id="paint0_linear_76_191" x1="358.29" y1="29.7299" x2="505.06" y2="29.7299" gradientUnits="userSpaceOnUse">
<stop stop-color="#5B9FD7"/>
<stop offset="1" stop-color="#3C509E"/>
</linearGradient>
</defs>
</svg>
