<svg width="37" height="36" viewBox="0 0 37 36" fill="none" xmlns="http://www.w3.org/2000/svg">
<path fill-rule="evenodd" clip-rule="evenodd" d="M25.53 19.4735H3.40988C3.00168 19.4735 2.6958 19.1366 2.6958 18.7101V1.3494C2.6958 0.922594 3.00195 0.585938 3.40988 0.585938H25.53C25.9178 0.585938 26.2441 0.922889 26.2441 1.3494V18.6649C26.2645 19.1141 25.9175 19.4733 25.53 19.4733V19.4735ZM3.65495 18.3956H25.2445V1.64145H3.65495V18.3956Z" fill="#102A83" stroke="#102A83" stroke-width="0.4"/>
<path fill-rule="evenodd" clip-rule="evenodd" d="M14.4698 13.3411C12.0823 13.3411 9.81733 12.2632 8.24593 10.3316C8.10306 10.1294 8.06224 9.85986 8.20511 9.63549L9.91932 6.89554C10.001 6.76075 10.1438 6.67091 10.2867 6.64844C10.4092 6.64844 10.5928 6.71583 10.6745 6.82814C11.6335 8.01845 12.9599 8.64739 14.4292 8.64739C15.8576 8.64739 17.2452 7.99595 18.1634 6.82814C18.2859 6.71583 18.4288 6.64844 18.5716 6.64844C18.7145 6.64844 18.8574 6.73829 18.939 6.87307L20.6532 9.61302C20.7961 9.81519 20.7757 10.1072 20.6328 10.2869C19.1023 12.2634 16.8373 13.3414 14.4703 13.3414L14.4698 13.3411ZM9.26629 9.92727C10.6131 11.4096 12.5107 12.2854 14.4698 12.2854C16.4083 12.2854 18.2858 11.432 19.6734 9.92727L18.5103 8.08557C17.4083 9.16353 15.9595 9.77002 14.4698 9.77002C12.9394 9.77002 11.5313 9.16351 10.3886 8.08557L9.26629 9.92727Z" fill="#102A83" stroke="#102A83" stroke-width="0.4"/>
<path fill-rule="evenodd" clip-rule="evenodd" d="M6.67528 23.8093C6.40996 23.8093 6.16504 23.5622 6.16504 23.2477V18.9131C6.16504 18.5987 6.40996 18.3516 6.67528 18.3516C6.96103 18.3516 7.18553 18.5987 7.18553 18.9131V23.2477C7.16512 23.5622 6.94061 23.8093 6.67528 23.8093Z" fill="#102A83" stroke="#102A83" stroke-width="0.4"/>
<path fill-rule="evenodd" clip-rule="evenodd" d="M22.2446 23.8093C21.9589 23.8093 21.7344 23.5622 21.7344 23.2477V18.9131C21.7344 18.5987 21.9589 18.3516 22.2446 18.3516C22.5304 18.3516 22.7549 18.5987 22.7549 18.9131V23.2477C22.7549 23.5622 22.5304 23.8093 22.2446 23.8093Z" fill="#102A83" stroke="#102A83" stroke-width="0.4"/>
<path fill-rule="evenodd" clip-rule="evenodd" d="M27.1624 32.5662H1.75677C1.38939 32.5662 1.0835 32.2068 1.0835 31.8027V23.4705C1.0835 23.0662 1.38965 22.707 1.75677 22.707H27.1624C27.5298 22.707 27.8561 23.0664 27.8561 23.4705V31.8479C27.8561 32.2073 27.5295 32.5664 27.1624 32.5664V32.5662ZM2.0628 31.4658H26.8557V23.8072H2.0628V31.4658Z" fill="#102A83" stroke="#102A83" stroke-width="0.4"/>
<path fill-rule="evenodd" clip-rule="evenodd" d="M16.266 29.2205C15.4906 29.2205 14.8579 28.5466 14.8579 27.6708C14.8579 26.795 15.4904 26.1211 16.266 26.1211C17.0617 26.1211 17.6944 26.795 17.6944 27.6708C17.6944 28.5466 17.062 29.2205 16.266 29.2205ZM16.266 27.1991C16.0415 27.1991 15.8578 27.4238 15.8578 27.6709C15.8578 27.918 16.0415 28.1426 16.266 28.1426C16.5109 28.1426 16.6946 27.918 16.6946 27.6709C16.6946 27.4238 16.5313 27.1991 16.266 27.1991Z" fill="#102A83" stroke="#102A83" stroke-width="0.4"/>
<path fill-rule="evenodd" clip-rule="evenodd" d="M20.204 29.2205C19.4082 29.2205 18.7959 28.5466 18.7959 27.6708C18.7959 26.795 19.4082 26.1211 20.204 26.1211C20.9997 26.1211 21.6324 26.795 21.6324 27.6708C21.6324 28.5466 20.9795 29.2205 20.204 29.2205ZM20.204 27.1991C19.9794 27.1991 19.7753 27.4238 19.7753 27.6709C19.7753 27.918 19.9794 28.1426 20.204 28.1426C20.4285 28.1426 20.6326 27.918 20.6326 27.6709C20.6326 27.4238 20.4285 27.1991 20.204 27.1991Z" fill="#102A83" stroke="#102A83" stroke-width="0.4"/>
<path fill-rule="evenodd" clip-rule="evenodd" d="M24.1218 29.2205C23.3261 29.2205 22.6934 28.5466 22.6934 27.6708C22.6934 26.795 23.3258 26.1211 24.1218 26.1211C24.8972 26.1211 25.5299 26.795 25.5299 27.6708C25.5299 28.5466 24.877 29.2205 24.1218 29.2205ZM24.1218 27.1991C23.8769 27.1991 23.6932 27.4238 23.6932 27.6709C23.6932 27.918 23.8769 28.1426 24.1218 28.1426C24.3463 28.1426 24.53 27.918 24.53 27.6709C24.53 27.4238 24.3463 27.1991 24.1218 27.1991Z" fill="#102A83" stroke="#102A83" stroke-width="0.4"/>
<path fill-rule="evenodd" clip-rule="evenodd" d="M12.6747 28.2325H3.9204C3.63466 28.2325 3.41016 27.9854 3.41016 27.671C3.41016 27.3565 3.63467 27.1094 3.9204 27.1094H12.6747C12.9604 27.1094 13.1849 27.3565 13.1849 27.671C13.1849 27.9854 12.9604 28.2325 12.6747 28.2325Z" fill="#102A83" stroke="#102A83" stroke-width="0.4"/>
<path fill-rule="evenodd" clip-rule="evenodd" d="M28.7744 35.4192H17.9183C15.7349 35.4192 13.98 33.8919 13.98 32.0053C13.98 31.6908 14.2045 31.4437 14.4902 31.4437C14.776 31.4437 15.0005 31.6908 15.0005 32.0053C15.0005 33.2405 16.3677 34.3409 17.939 34.3409H28.8156C30.3869 34.3409 31.7541 33.263 31.7541 32.0053V18.2607C31.7541 17.9462 31.9786 17.6991 32.2643 17.6991C32.5501 17.6991 32.7746 17.9462 32.7746 18.2607V32.0279C32.7134 33.8921 30.938 35.4193 28.775 35.4193L28.7744 35.4192Z" fill="#102A83" stroke="#102A83" stroke-width="0.4"/>
<path fill-rule="evenodd" clip-rule="evenodd" d="M32.2025 18.7975C30.8557 18.7975 29.7538 17.5847 29.7538 16.0799L29.7334 12.9131C29.7334 12.5987 29.9783 12.3516 30.2436 12.3516C30.5294 12.3516 30.7539 12.5987 30.7539 12.9131V16.0799C30.7539 16.9558 31.4476 17.697 32.2436 17.697C33.0189 17.697 33.7128 16.956 33.7128 16.0799V12.9131C33.7128 12.5987 33.9373 12.3516 34.2231 12.3516C34.4884 12.3516 34.7333 12.5987 34.7333 12.9131V16.0799C34.6925 17.5847 33.5702 18.7975 32.203 18.7975H32.2025Z" fill="#102A83" stroke="#102A83" stroke-width="0.4"/>
<path fill-rule="evenodd" clip-rule="evenodd" d="M35.4065 13.432H29.0395C28.7538 13.432 28.5293 13.1849 28.5293 12.8704C28.5293 12.5559 28.7538 12.3088 29.0395 12.3088H35.4065C35.6922 12.3088 35.9167 12.5559 35.9167 12.8704C35.9167 13.1849 35.6514 13.432 35.4065 13.432Z" fill="#102A83" stroke="#102A83" stroke-width="0.4"/>
</svg>
