<svg width="40" height="33" viewBox="0 0 40 33" fill="none" xmlns="http://www.w3.org/2000/svg">
<path d="M39.0535 0.375H0.946197C0.584441 0.375 0.291504 0.731295 0.291504 1.17129V31.8287C0.291504 32.2687 0.584441 32.625 0.946197 32.625H39.0535C39.4149 32.625 39.7082 32.2687 39.7082 31.8287V1.17129C39.7082 0.731665 39.4152 0.375 39.0535 0.375ZM38.3988 25.2449H11.9675C11.6058 25.2449 11.3128 25.6012 11.3128 26.0412C11.3128 26.4808 11.6058 26.8375 11.9675 26.8375H38.3988V31.0319L1.60114 31.0323V26.8379H7.60847C7.97022 26.8379 8.26316 26.4812 8.26316 26.0416C8.26316 25.6016 7.97022 25.2453 7.60847 25.2453L1.60114 25.2449V1.96789H38.3988V25.2449ZM23.1704 15.6023H33.9476C34.3093 15.6023 34.6023 15.246 34.6023 14.806C34.6023 14.366 34.3093 14.0097 33.9476 14.0097H23.1704C22.8089 14.0097 22.5157 14.366 22.5157 14.806C22.5154 15.246 22.8089 15.6023 23.1704 15.6023ZM23.1704 12.0063H33.9476C34.3093 12.0063 34.6023 11.65 34.6023 11.21C34.6023 10.77 34.3093 10.4137 33.9476 10.4137L23.1704 10.4134C22.8089 10.4134 22.5157 10.7696 22.5157 11.2096C22.5154 11.65 22.8089 12.0063 23.1704 12.0063V12.0063ZM23.1704 19.1992H28.5587C28.9204 19.1992 29.2134 18.843 29.2134 18.403C29.2134 17.9633 28.9204 17.6067 28.5587 17.6067L23.1704 17.6063C22.8089 17.6063 22.5157 17.963 22.5157 18.4026C22.5154 18.8429 22.8089 19.1992 23.1704 19.1992V19.1992ZM6.0539 16.7974H9.34233V20.8004C9.34233 21.24 9.63527 21.5967 9.99703 21.5967H13.9383C14.3001 21.5967 14.593 21.24 14.593 20.8004V16.7974H17.8815C18.2432 16.7974 18.5361 16.4411 18.5361 16.0011V11.2096C18.5361 10.7696 18.2432 10.4133 17.8815 10.4133H14.593V6.41368C14.593 5.97368 14.3001 5.61739 13.9383 5.61739H9.99703C9.63527 5.61739 9.34233 5.97368 9.34233 6.41368V10.4133H6.0539C5.69214 10.4133 5.39921 10.7696 5.39921 11.2096V16.0011C5.3989 16.4411 5.69184 16.7974 6.0539 16.7974ZM6.70859 12.0063H9.99703C10.3588 12.0063 10.6517 11.65 10.6517 11.21V7.21035H13.2833V11.21C13.2833 11.65 13.5762 12.0063 13.938 12.0063H17.2264V15.2048H13.938C13.5762 15.2048 13.2833 15.5611 13.2833 16.0011V20.0041H10.6517V16.0011C10.6517 15.5611 10.3588 15.2048 9.99703 15.2048H6.70859V12.0063Z" fill="#102A83" stroke="#102A83" stroke-width="0.475"/>
</svg>
