<svg width="53" height="45" viewBox="0 0 53 45" fill="none" xmlns="http://www.w3.org/2000/svg">
<path d="M49.3201 7.46672C49.1112 5.47407 47.5093 3.97147 45.5943 3.97147H34.1573C32.0016 2.13895 29.2978 1.125 26.4958 1.125C23.7002 1.125 20.9988 2.1389 18.8423 3.97147H8.23111C6.36313 3.97147 4.76574 5.42842 4.51542 7.3609L0.408559 39.372C0.264119 40.4884 0.590328 41.6166 1.3024 42.4675C2.01528 43.3188 3.04386 43.8071 4.12513 43.8071C50.4619 43.3395 49.6268 44.8807 51.6658 42.5102C52.3762 41.6848 52.7174 40.5773 52.6034 39.472L49.3201 7.46672ZM36.6856 12.6493C36.5277 12.8433 36.2989 12.9543 36.0563 12.9543C17.282 12.848 15.8777 13.4997 16.1229 11.9615C16.4515 9.90285 17.4127 7.81316 18.9837 6.13102L20.0179 7.21014L21.1726 6.00483L20.2179 5.00871C21.806 3.77207 23.6988 3.02787 25.6791 2.86741V4.05668H27.3123V2.86741C29.2955 3.02751 31.1895 3.77035 32.7767 5.00535L31.8179 6.0057L32.9726 7.21101L34.0113 6.12723C35.9844 8.2397 37.3168 11.8697 36.6859 12.6494L36.6856 12.6493ZM50.4502 41.371C49.2574 42.7567 50.4401 41.8402 4.12383 42.102C3.51401 42.102 2.9334 41.8262 2.53091 41.3451C2.12922 40.8653 1.94502 40.2292 2.02617 39.599L6.13344 7.5879C6.27464 6.49774 7.17576 5.6757 8.23034 5.6757H17.1768C15.6464 7.5904 13.5346 11.8717 15.0597 13.7508C15.5279 14.3277 16.2112 14.6584 16.9342 14.6584H36.0564C36.7794 14.6584 37.4631 14.3277 37.9309 13.7513C39.4459 11.8861 37.341 7.58193 35.8203 5.67568H45.5933C46.6737 5.67568 47.5777 6.52483 47.6958 7.64969L50.9786 39.6532C51.0443 40.2889 50.8568 40.8983 50.4503 41.371L50.4502 41.371Z" fill="#102A83" stroke="#102A83" stroke-width="0.35625"/>
<path d="M27.213 9.94589L26.4981 5.38757L25.7828 9.94839C24.504 10.7268 25.0427 12.7576 26.4981 12.7576C27.2954 12.7576 27.9438 12.0808 27.9438 11.249C27.9434 10.6895 27.6472 10.2063 27.213 9.94578V9.94589ZM26.3103 11.2491C26.3103 11.1411 26.3938 11.053 26.4977 11.053C26.6077 11.053 26.6937 11.139 26.6937 11.2491C26.6941 11.4554 26.3103 11.4651 26.3103 11.2491Z" fill="#102A83" stroke="#102A83" stroke-width="0.35625"/>
<path d="M38.9509 15.1995C36.1563 15.1995 33.9669 18.8536 33.9669 23.5182C33.9669 27.4316 36.2756 28.9968 33.3895 34.7332C32.288 37.1405 33.5551 39.9759 36.0893 40.7028C39.0215 41.5439 41.2519 38.6385 41.1708 35.4363C41.0791 31.8064 42.8395 28.7567 42.8578 28.7265L42.9353 28.5533C45.5426 20.4696 42.1457 15.2003 38.951 15.2003L38.9509 15.1995ZM39.538 35.4817C39.562 36.3977 39.3688 37.213 38.9814 37.8398C37.136 40.8243 33.7023 38.0101 34.8469 35.5012C34.9467 35.3047 37.2899 30.6511 36.211 27.2777C36.0402 26.6098 35.5995 24.6328 35.5995 23.5181C35.5995 19.9945 37.1657 16.904 38.951 16.904C40.7682 16.904 42.3031 19.9331 42.3031 23.5181C42.3031 27.7685 39.4016 30.0754 39.538 35.4812L39.538 35.4817Z" fill="#102A83" stroke="#102A83" stroke-width="0.35625"/>
<path d="M18.366 27.7155C20.3732 19.8279 16.9921 15.1995 14.0465 15.1995C11.2518 15.1995 9.0625 18.8536 9.0625 23.5182C9.0625 25.0699 9.63865 27.1965 10.1406 28.7262C12.7783 33.2943 10.9971 36.0979 12.6451 38.764C15.6192 43.5696 21.6436 39.1748 19.5934 34.6995C19.0014 33.5416 17.626 30.0379 18.3661 27.7153L18.366 27.7155ZM16.4768 39.0595C14.647 39.5834 13.4091 37.493 13.4598 35.4821C13.5965 30.0593 10.6955 27.7893 10.6955 23.519C10.6955 19.934 12.2304 16.9049 14.0469 16.9049C15.8322 16.9049 17.3984 19.9958 17.3984 23.519C17.3984 27.0986 14.977 29.3135 18.136 35.468C18.8213 36.9664 17.9688 38.6308 16.4769 39.059L16.4768 39.0595Z" fill="#102A83" stroke="#102A83" stroke-width="0.35625"/>
</svg>
