<svg width="15" height="14" viewBox="0 0 15 14" fill="none" xmlns="http://www.w3.org/2000/svg">
<path d="M6.62885 0.545576C7.01136 -0.133069 7.98864 -0.13307 8.37115 0.545574L9.97321 3.3879C10.1159 3.64108 10.3617 3.81965 10.6466 3.87713L13.8448 4.52245C14.6085 4.67653 14.9105 5.60597 14.3833 6.17948L12.1751 8.58145C11.9784 8.7954 11.8845 9.08434 11.9179 9.37304L12.2925 12.6142C12.3819 13.3881 11.5913 13.9625 10.8829 13.6383L7.91616 12.2805C7.6519 12.1595 7.3481 12.1595 7.08384 12.2805L4.11707 13.6383C3.40871 13.9625 2.61808 13.3881 2.70752 12.6142L3.08211 9.37304C3.11547 9.08434 3.02159 8.7954 2.8249 8.58145L0.616749 6.17948C0.0895224 5.60598 0.391516 4.67653 1.15515 4.52245L4.35343 3.87713C4.63831 3.81965 4.88409 3.64108 5.02679 3.38791L6.62885 0.545576Z" fill="currentColor"/>
</svg>
