<svg width="17" height="20" viewBox="0 0 17 20" fill="none" xmlns="http://www.w3.org/2000/svg">
<path d="M9.59319 0.835568C6.79415 0.791054 4.24419 2.37872 3.08982 4.88642C2.67488 5.78412 2.46363 6.74118 2.46363 7.73531V8.29915C2.41082 8.53656 2.20711 8.75911 1.99588 8.96687C1.92798 9.03365 1.81481 9.14493 1.68655 9.26363C1.24143 9.6791 1.04525 9.87201 0.977376 9.95361C0.841573 10.1168 0.75858 10.2652 0.70577 10.421C0.532245 10.9477 0.947197 11.2074 1.09054 11.2964C1.24897 11.3929 1.41495 11.4671 1.53566 11.5264C1.66392 11.5858 1.79218 11.6377 1.92043 11.6896L1.94306 11.697C1.95815 11.7045 1.97324 11.7119 1.99587 11.7193C2.10149 12.4167 2.5089 15.043 2.5089 15.0579C2.56171 15.4956 2.71261 15.8369 2.96158 16.0668C3.39918 16.4674 4.00275 16.4452 4.47806 16.4378C4.83264 16.4304 5.14198 16.4304 5.46639 16.4304C5.48903 16.7197 5.5192 17.1575 5.54184 17.5358C5.56447 17.9142 5.59465 18.3 5.61728 18.5967C5.63237 18.7748 5.71536 18.9306 5.85871 19.0419C5.97188 19.1235 6.10014 19.168 6.23596 19.168C6.27368 19.168 6.31895 19.1606 6.35667 19.1532L14.1275 17.6323C14.55 17.5506 14.8594 17.1797 14.8594 16.7568V15.3695C14.8594 13.7299 15.2215 12.0829 15.9232 10.4657C16.323 9.56054 16.5116 8.59608 16.4966 7.60192C16.4211 3.87022 13.3882 0.895166 9.59311 0.835814L9.59319 0.835568ZM15.2291 10.1687C14.4822 11.8751 14.0975 13.6261 14.0975 15.3693V16.7566C14.0975 16.8308 14.0447 16.8902 13.9768 16.905L6.35662 18.3963C6.34153 18.1217 6.31889 17.8027 6.29626 17.4837C6.20572 16.089 6.19818 16.0222 6.17554 15.9628L6.1001 15.6883H5.73796C5.31546 15.6883 4.90807 15.6809 4.45536 15.6957C4.07811 15.7032 3.68582 15.718 3.46702 15.5251C3.35385 15.4212 3.2784 15.2432 3.24823 14.9687C3.24068 14.9316 2.70501 11.4445 2.70501 11.4445L2.69747 11.3333L2.62957 11.2517L2.54658 11.1626C2.46359 11.0959 2.36551 11.0588 2.2976 11.0365L2.22216 11.0068L1.86002 10.851C1.74685 10.7991 1.61859 10.7397 1.49787 10.6656C1.47524 10.6507 1.45261 10.6359 1.43752 10.6285C1.46015 10.5691 1.50542 10.4949 1.57332 10.4207C1.63368 10.354 1.99582 10.0053 2.21462 9.79753C2.34288 9.67883 2.45605 9.56755 2.53149 9.49335C2.83328 9.20401 3.15017 8.84791 3.21805 8.38792L3.22559 8.35824V8.32856V7.73505C3.22559 6.84477 3.41421 5.99159 3.78391 5.19034C4.81753 2.95722 7.08091 1.52545 9.59334 1.57734C12.9809 1.62927 15.6894 4.28528 15.7497 7.61631C15.7573 8.50659 15.5838 9.35976 15.2292 10.1684L15.2291 10.1687Z" fill="currentColor" stroke="currentColor" stroke-width="0.222222"/>
<path d="M12.5501 5.80577V3.98072C12.5501 3.94362 12.535 3.90653 12.5048 3.87685C12.4746 3.84717 12.4369 3.83234 12.3992 3.83234L10.2489 3.83976C10.1886 3.83976 10.1358 3.87685 10.1131 3.92878C10.0905 3.98071 10.0981 4.04749 10.1433 4.092C10.2942 4.2478 10.3772 4.46297 10.3772 4.67809C10.3772 5.15291 9.98488 5.53869 9.50203 5.53869C9.01917 5.53869 8.62685 5.15291 8.62685 4.67809C8.62685 4.46294 8.70984 4.24777 8.86073 4.092C8.906 4.04749 8.91354 3.98814 8.89091 3.92878C8.86828 3.87685 8.81546 3.83976 8.75511 3.83976H6.58981C6.55209 3.83976 6.51437 3.85459 6.48419 3.88427C6.45401 3.91395 6.43892 3.95104 6.43892 3.98814V5.80579C6.27294 5.72419 6.08433 5.67225 5.89571 5.67225C5.24689 5.67225 4.71875 6.19156 4.71875 6.82961C4.71875 7.46766 5.24686 7.98697 5.89571 7.98697C6.08433 7.98697 6.27296 7.94246 6.43892 7.85343V9.70077C6.43892 9.73786 6.45401 9.77496 6.48419 9.80463C6.51437 9.83431 6.55209 9.83431 6.58981 9.84915H8.44577C8.36278 10.0049 8.32506 10.183 8.32506 10.3685C8.32506 11.0065 8.85316 11.5258 9.50202 11.5258C10.1509 11.5258 10.679 11.0065 10.679 10.3685C10.679 10.1904 10.6337 10.0123 10.5507 9.84915H12.3992C12.4821 9.84915 12.55 9.78237 12.55 9.70077V7.86086C12.716 7.94247 12.8971 7.98698 13.0933 7.98698C13.7421 7.97957 14.2702 7.46024 14.2702 6.82962C14.2702 6.19161 13.7421 5.67226 13.0933 5.67226C12.9046 5.67226 12.716 5.71678 12.55 5.8058L12.5501 5.80577ZM13.9684 6.8296C13.9684 7.30442 13.5761 7.69021 13.0933 7.69021C12.8745 7.69021 12.6632 7.6086 12.5048 7.46022C12.4595 7.42312 12.3992 7.40829 12.3388 7.43054C12.286 7.4528 12.2483 7.50473 12.2483 7.56409V9.55237H10.2716C10.2113 9.55237 10.1585 9.58947 10.1358 9.6414C10.1132 9.69333 10.1207 9.7601 10.1585 9.7972C10.3018 9.953 10.3772 10.1607 10.3772 10.3685C10.3772 10.8433 9.98493 11.2291 9.50207 11.2291C9.01922 11.2291 8.6269 10.8433 8.6269 10.3685C8.6269 10.1607 8.70234 9.95301 8.84569 9.7972C8.88342 9.75269 8.89096 9.69333 8.86833 9.6414C8.84569 9.58947 8.79288 9.55237 8.73252 9.55237H6.74075V7.57891C6.74075 7.51955 6.70302 7.46762 6.65021 7.44536C6.5974 7.42311 6.5295 7.43053 6.49177 7.46762C6.32579 7.616 6.11453 7.69019 5.89576 7.69019C5.4129 7.69019 5.02058 7.3044 5.02058 6.82959C5.02058 6.35477 5.4129 5.96899 5.89576 5.96899C6.11455 5.96899 6.32581 6.05059 6.49177 6.19156C6.53704 6.22865 6.5974 6.24349 6.65021 6.21381C6.70302 6.19156 6.74075 6.13962 6.74075 6.08027V4.12909H8.46092C8.37038 4.29231 8.32511 4.47777 8.32511 4.66326C8.32511 5.30127 8.85322 5.82062 9.50207 5.82062C10.1509 5.82062 10.679 5.3013 10.679 4.66326C10.679 4.47778 10.6338 4.29229 10.5432 4.12166H12.2483V6.07284C12.2483 6.1322 12.2861 6.18413 12.3389 6.20639C12.3917 6.22865 12.4596 6.22122 12.4973 6.18413C12.6633 6.03575 12.8746 5.96156 13.0933 5.96156C13.5762 5.96898 13.9685 6.35477 13.9685 6.82959L13.9684 6.8296Z" fill="currentColor" stroke="currentColor" stroke-width="0.222222"/>
</svg>
