<svg width="14" height="18" viewBox="0 0 14 18" fill="none" xmlns="http://www.w3.org/2000/svg">
<path d="M9.14243 17.2515C8.8707 17.2515 8.58593 17.2265 8.28858 17.1762C7.72739 17.0798 7.17331 16.8891 6.59434 16.593C5.43025 15.9966 3.25886 14.7763 1.7913 13.303C0.460161 11.9843 -0.0124465 10.7389 0.387849 9.60251C0.397012 9.55824 0.783711 7.96096 1.76711 6.65086C2.47549 5.68964 3.31604 5.12671 4.26378 4.9796C4.28167 4.97679 4.29957 4.97544 4.31775 4.97544H4.53851C4.87982 4.97887 5.58261 4.98572 6.02271 5.00712C6.1026 5.01286 6.17862 4.96896 6.21026 4.89913C6.54025 4.15766 7.63977 2.4375 10.7172 2.4375C10.7371 2.4375 10.7565 2.43762 10.7766 2.43774C10.9909 2.44141 11.2052 2.45205 11.4351 2.4704C11.6555 2.48911 11.8579 2.5845 11.9931 2.73211C12.1275 2.87898 12.1868 3.0689 12.1554 3.25283C12.1474 3.30077 12.1382 3.38149 12.1272 3.47455C12.0894 3.79607 12.0565 4.05238 12.0035 4.18531C11.9095 4.4151 11.6754 4.58153 11.3915 4.62189C11.3016 4.63473 11.1912 4.6428 11.0664 4.6516C10.5176 4.68988 9.76642 4.74234 9.30656 5.38218C9.26476 5.4432 9.2702 5.52404 9.32303 5.57442C9.70426 5.95205 10.2764 6.57405 10.8576 7.41299C11.1364 7.80958 11.3959 8.23151 11.6284 8.66576C11.8681 9.10932 12.0772 9.5639 12.2497 10.0159L12.2861 10.1125C12.4548 10.5784 12.5777 11.0315 12.6535 11.4644C12.8245 12.4045 12.8059 13.3239 12.5979 14.1958C12.1293 16.1906 10.9158 17.2515 9.14233 17.2515L9.14243 17.2515ZM4.34598 5.49132C3.58175 5.61838 2.88583 6.10143 2.27667 6.92765C1.35223 8.15927 0.976419 9.71275 0.972717 9.72828C0.628976 10.708 1.06105 11.7901 2.24991 12.9679C3.66267 14.386 5.77249 15.5708 6.90451 16.1509C7.42348 16.416 7.91482 16.5862 8.40659 16.6707C10.3177 16.9948 11.5288 16.1267 12.0067 14.0942C12.0068 14.0939 12.0068 14.0937 12.0068 14.0935C12.2008 13.2814 12.2177 12.4232 12.0573 11.5422C11.9858 11.1335 11.8696 10.7059 11.7117 10.2698L11.6772 10.178C11.5112 9.74277 11.3106 9.30717 11.0804 8.88108C10.8568 8.46332 10.6078 8.05865 10.3396 7.67711C9.77987 6.86936 9.2317 6.27318 8.87018 5.915C8.64426 5.69988 8.61033 5.37752 8.78957 5.11705C9.41234 4.25 10.4172 4.17991 11.0177 4.13786C11.1232 4.13052 11.2167 4.12441 11.2927 4.11352C11.3581 4.10423 11.4134 4.06644 11.4334 4.01752C11.4675 3.93204 11.5063 3.60124 11.527 3.42341C11.5389 3.32191 11.5494 3.2341 11.5583 3.18017C11.5663 3.13285 11.5518 3.08711 11.5177 3.04993C11.4832 3.01214 11.4334 2.98878 11.3776 2.98401C11.1643 2.96701 10.9644 2.95711 10.7683 2.95381C10.7505 2.95369 10.7329 2.95356 10.7154 2.95356C8.01503 2.95356 7.05985 4.44149 6.77369 5.0845C6.64684 5.36382 6.33201 5.53895 5.98812 5.52242C5.56177 5.50163 4.86827 5.49478 4.53486 5.49148L4.34598 5.49132Z" fill="currentColor" stroke="currentColor" stroke-width="0.2"/>
<path d="M3.26596 12.4875C3.18121 12.4875 3.09688 12.4572 3.03718 12.398C2.08885 11.4583 1.72407 10.6528 1.95299 10.0035C2.0011 9.86716 2.17003 9.79073 2.3291 9.83109C2.48873 9.87218 2.57906 10.016 2.53096 10.1524C2.37019 10.6085 2.71221 11.2865 3.49432 12.0615C3.60327 12.1692 3.58909 12.3321 3.46282 12.425C3.40584 12.467 3.33569 12.4875 3.26597 12.4875L3.26596 12.4875Z" fill="currentColor" stroke="currentColor" stroke-width="0.2"/>
<path d="M4.62263 5.31673C4.45885 5.31673 4.32442 5.20495 4.32098 5.06444C4.28648 3.68449 5.59385 2.55512 6.15764 2.13345C6.19788 2.10324 6.2215 2.06313 6.22551 2.01764L6.27905 1.38587C6.31112 1.0109 6.6928 0.723788 7.13344 0.751901L7.95636 0.810968C8.2792 0.834204 8.52257 1.06045 8.52257 1.33721C8.52257 1.46928 8.64827 1.57665 8.80289 1.57665C8.8905 1.57665 8.97168 1.54254 9.02508 1.4831L9.17168 1.32033C9.34319 1.13004 9.60203 1.0075 9.88208 0.98428C10.162 0.960922 10.4433 1.03907 10.6543 1.19768C10.9381 1.41108 11.0085 1.76975 10.8214 2.05042C10.7862 2.10349 10.7896 2.171 10.8307 2.2308C10.9382 2.38721 11.0218 2.57627 11.0252 2.58435C11.0839 2.71753 11.0049 2.86611 10.8489 2.91614C10.6935 2.96677 10.519 2.89902 10.4602 2.76572C10.4595 2.76413 10.3909 2.60931 10.3103 2.49215C10.1607 2.27496 10.1554 2.00811 10.2965 1.7957C10.3428 1.72623 10.3255 1.63757 10.2553 1.58474C10.1678 1.51907 10.0567 1.48862 9.94006 1.49767C9.8241 1.50721 9.72102 1.556 9.65001 1.63488L9.50341 1.79765C9.33719 1.98219 9.07533 2.09238 8.80276 2.09238C8.31542 2.09238 7.91886 1.75364 7.91886 1.33735L7.08749 1.26618C6.98383 1.25982 6.88877 1.33063 6.88104 1.42344L6.82736 2.05534C6.81175 2.23621 6.71526 2.40179 6.55548 2.52153C6.05513 2.8955 4.89547 3.89071 4.92469 5.05361C4.92826 5.19596 4.79598 5.31385 4.62933 5.31703C4.62704 5.31678 4.62475 5.31678 4.62261 5.31678L4.62263 5.31673Z" fill="currentColor" stroke="currentColor" stroke-width="0.2"/>
<path d="M2.59706 16.333H2.51989C2.07822 16.3326 1.71875 16.0251 1.71875 15.6477V13.1367C1.71875 12.9944 1.8539 12.8789 2.02054 12.8789C2.18719 12.8789 2.32234 12.9944 2.32234 13.1367V15.6477C2.32234 15.7412 2.41125 15.8172 2.52048 15.8174C2.85735 15.8183 3.29758 15.8161 3.6326 15.8147C3.74069 15.8142 3.82874 15.7381 3.82874 15.645V14.8818C3.82874 14.7395 3.96389 14.624 4.13053 14.624C4.29718 14.624 4.43233 14.7395 4.43233 14.8818V15.645C4.43233 16.0209 4.07498 16.3283 3.63562 16.3303C3.32452 16.3316 2.92236 16.333 2.59709 16.333H2.59706Z" fill="currentColor" stroke="currentColor" stroke-width="0.2"/>
<path d="M2.0196 7.04461C1.85295 7.04461 1.7178 6.92916 1.7178 6.78681V4.6977C1.7178 4.67092 1.71007 4.64402 1.6959 4.62029L0.866974 3.24401C0.751869 3.05323 0.747431 2.83238 0.854805 2.63806C0.962036 2.44386 1.16461 2.30627 1.41028 2.26078L2.11965 2.12944C2.43848 2.07098 2.7636 2.18031 2.94872 2.40851L3.09789 2.59244C3.15588 2.66374 3.23934 2.66679 3.27499 2.66484C3.30892 2.66288 3.39267 2.64955 3.43848 2.57177L3.79554 1.96373C3.89819 1.78885 4.08416 1.65959 4.30535 1.60896C4.52697 1.55882 4.76318 1.59135 4.95446 1.69909L6.12398 2.35826C6.26314 2.43652 6.30136 2.5966 6.20959 2.71534C6.11811 2.83421 5.9307 2.86747 5.79155 2.78847L4.62204 2.1293C4.55704 2.09262 4.49319 2.09971 4.46141 2.10705C4.42934 2.11451 4.37021 2.13566 4.33542 2.19473L3.97837 2.80277C3.84995 3.02119 3.60314 3.16183 3.31782 3.17908C3.03306 3.19816 2.76491 3.08675 2.602 2.88607L2.45296 2.70226C2.40701 2.64576 2.32669 2.61874 2.24766 2.63317L1.53829 2.76463C1.45497 2.78016 1.41646 2.82981 1.40085 2.85807C1.38525 2.88632 1.36492 2.94331 1.404 3.00788L2.23278 4.38391C2.29104 4.4804 2.32183 4.58887 2.32183 4.69748V6.78659C2.32154 6.92918 2.18639 7.04463 2.0196 7.04463L2.0196 7.04461Z" fill="currentColor" stroke="currentColor" stroke-width="0.2"/>
<path d="M11.3546 9.02993C11.2387 9.02993 11.1302 8.97258 11.0803 8.87939C10.857 8.4625 10.608 8.05771 10.3399 7.67614C10.2901 7.60521 10.2832 7.51826 10.321 7.44219C10.3591 7.36612 10.4374 7.31024 10.5317 7.29201L11.9968 7.00781C12.2799 6.95278 12.5716 6.99546 12.8173 7.12765C13.0629 7.25997 13.2337 7.46614 13.2978 7.70818C13.3621 7.9502 13.3122 8.19894 13.1573 8.40879C13.0024 8.61865 12.7611 8.76441 12.4778 8.8192L11.4214 9.02367C11.3992 9.02783 11.3769 9.02991 11.3547 9.02991L11.3546 9.02993ZM11.0659 7.71711C11.2274 7.96292 11.3811 8.21629 11.5254 8.4747L12.3445 8.31621H12.3446C12.4706 8.29175 12.578 8.22694 12.6467 8.13363C12.7157 8.0402 12.7379 7.92952 12.7093 7.82203C12.6807 7.71429 12.6048 7.62257 12.4954 7.56387C12.386 7.50505 12.2563 7.48621 12.1306 7.51055L11.0659 7.71711Z" fill="currentColor" stroke="currentColor" stroke-width="0.2"/>
<path d="M12.3566 11.7607C12.2963 11.7607 12.2368 11.7451 12.1863 11.7156C12.117 11.6752 12.0706 11.6119 12.0581 11.5409C11.9867 11.1337 11.8706 10.7062 11.7127 10.27C11.6879 10.2014 11.6976 10.1272 11.7396 10.065C11.7815 10.0028 11.852 9.95845 11.934 9.94243L12.4213 9.84753C12.7048 9.79299 12.9963 9.83469 13.2424 9.96713C13.4885 10.0995 13.6593 10.3057 13.7236 10.5482C13.7881 10.7929 13.738 11.0416 13.5831 11.2513C13.4281 11.4611 13.1869 11.6067 12.9035 11.6615L12.4232 11.7543C12.4012 11.7585 12.379 11.7607 12.3566 11.7607L12.3566 11.7607ZM12.3814 10.3843C12.4709 10.6578 12.5446 10.9276 12.6016 11.1913L12.7705 11.1585C12.8965 11.1342 13.0039 11.0695 13.0727 10.9762C13.1417 10.8828 13.1639 10.7722 13.1353 10.6646C13.1062 10.5541 13.0302 10.4624 12.9207 10.4035C12.8113 10.3444 12.681 10.3258 12.5556 10.3504L12.3814 10.3843Z" fill="currentColor" stroke="currentColor" stroke-width="0.2"/>
<path d="M7.18086 12.9679H7.17799C7.01135 12.9665 6.87735 12.85 6.87892 12.7076C6.90369 10.4691 8.55538 9.94125 8.83715 9.86736C10.5135 9.1226 10.492 8.08556 10.4903 8.04154C10.4847 7.90005 10.6135 7.78008 10.7792 7.77421C10.9391 7.76296 11.085 7.8762 11.0933 8.01757C11.0969 8.07493 11.1531 9.43249 9.0874 10.3375C9.06707 10.3464 9.04589 10.3533 9.0237 10.358C8.96371 10.3718 7.50472 10.73 7.48266 12.7124C7.48108 12.854 7.34622 12.9679 7.18086 12.9679L7.18086 12.9679ZM8.94953 10.1082H8.95254H8.94953Z" fill="currentColor" stroke="currentColor" stroke-width="0.2"/>
<path d="M8.94741 10.3634C8.90302 10.3634 8.85793 10.3551 8.81555 10.3374C8.72765 10.3008 6.66776 9.42105 6.87839 7.47635C6.89371 7.3345 7.03874 7.22908 7.20681 7.24351C7.37274 7.25659 7.49472 7.38207 7.4794 7.52405C7.30688 9.11751 9.06196 9.86656 9.07956 9.87401C9.22945 9.93638 9.29173 10.0906 9.21886 10.2186C9.16674 10.3101 9.05923 10.3634 8.94742 10.3634L8.94741 10.3634Z" fill="currentColor" stroke="currentColor" stroke-width="0.2"/>
</svg>
