<svg width="20" height="20" viewBox="0 0 20 20" fill="none" xmlns="http://www.w3.org/2000/svg">
<path d="M12.5726 19.1652C11.3434 19.1652 11.0177 18.0166 11.0177 17.4081V13.8939C11.0177 13.3335 10.5659 12.8766 10.0118 12.8766C9.45748 12.8766 9.00567 13.3335 9.00567 13.8939V17.4081C9.00567 18.0166 8.71845 19.1652 7.63377 19.1652C6.44842 19.1652 4.84238 17.6596 4.11812 14.3527C3.96998 13.6776 3.89317 12.9619 3.88028 12.1647C3.85476 10.5592 3.69195 9.91001 2.02557 6.67709C1.9249 6.48292 1.85728 6.29793 1.81517 6.11109C1.19876 3.29611 2.62181 1.68137 4.16023 1.108C4.94493 0.815782 5.82291 0.789981 6.69913 1.03408C7.22048 1.17832 7.66681 1.31894 8.04728 1.44653C8.12588 1.40022 8.22655 1.3966 8.31242 1.44279C8.34534 1.45943 8.57399 1.57413 8.78262 1.67773C8.8357 1.70366 8.88866 1.7314 8.93625 1.75359C9.26913 1.87009 9.54537 1.9644 9.64594 1.9644H9.98075C10.1728 1.92002 11.3123 1.64444 12.6678 1.15056C13.5203 0.83989 14.4019 0.754751 15.2159 0.902719C17.1969 1.26527 18.3346 2.83189 18.3346 5.20099C18.3346 6.13314 17.9249 6.95626 17.4512 7.90876C16.8348 9.14242 16.1396 10.5407 16.1396 12.5994C16.1396 16.5462 13.9922 19.1654 12.5727 19.1654L12.5726 19.1652ZM10.0118 12.3218C10.8696 12.3218 11.5665 13.0265 11.5665 13.8938V17.408C11.5665 17.5301 11.6014 18.6102 12.5726 18.6102C13.6097 18.6102 15.5908 16.2687 15.5908 12.5991C15.5908 10.4092 16.3499 8.88508 16.9609 7.65908C17.4035 6.76937 17.7859 5.99995 17.7859 5.20094C17.7859 3.98214 17.4383 1.87369 15.117 1.44829C14.3981 1.31695 13.6152 1.39462 12.8543 1.67213C11.786 2.06239 10.8659 2.31387 10.3996 2.43231C12.6549 3.29982 13.5877 2.6746 13.5987 2.66724C13.7196 2.57474 13.8914 2.60067 13.9829 2.72272C14.0744 2.84477 14.0488 3.01855 13.9281 3.11106C13.8677 3.15738 12.4171 4.20601 8.90494 2.35644C8.8904 2.34909 8.82086 2.31386 8.72758 2.26768C8.69824 2.25658 8.66902 2.24729 8.63789 2.2362C8.14217 2.06241 7.46364 1.82193 6.55629 1.57035C5.79162 1.35774 5.02884 1.37799 4.35211 1.63138C2.33636 2.37864 1.99607 4.37439 2.3509 5.9891C2.38203 6.12779 2.43332 6.26841 2.51192 6.4182C4.13263 9.55883 4.40148 10.3634 4.42892 12.1538C4.4399 12.914 4.51492 13.5947 4.65387 14.2309C5.35818 17.4436 6.82157 18.6087 7.63373 18.6087C8.44217 18.6087 8.45684 17.4546 8.45684 17.4065V13.8923C8.45684 13.0267 9.15376 12.322 10.0117 12.322L10.0118 12.3218ZM4.06494 6.68059C3.98443 6.68059 3.90583 6.64537 3.85096 6.57699C3.81804 6.53442 3.03142 5.52086 3.43933 4.28168C3.92776 2.63556 5.41486 2.47273 6.13197 2.61713C6.28011 2.64668 6.37708 2.79272 6.34786 2.94264C6.31852 3.09243 6.17217 3.19048 6.02581 3.16081C5.96189 3.1479 4.43268 2.86858 3.9644 4.44814C3.64976 5.4044 4.27535 6.22184 4.28263 6.23112C4.3759 6.35136 4.35587 6.52528 4.23873 6.62138C4.18565 6.66022 4.1253 6.6806 4.06495 6.6806L4.06494 6.68059Z" fill="currentColor" stroke="currentColor" stroke-width="0.2"/>
</svg>
