<svg width="20" height="22" viewBox="0 0 20 22" fill="none" xmlns="http://www.w3.org/2000/svg">
<path d="M18.7621 4.69953H16.1544C16.3559 2.83893 17.0893 1.53572 17.097 1.5221C17.2077 1.32864 17.1408 1.08236 16.9476 0.971725C16.7543 0.861492 16.5083 0.927311 16.3968 1.12037C16.3603 1.18379 15.5474 2.61887 15.3427 4.69955H4.65359C4.4489 2.61887 3.63595 1.18362 3.59949 1.12037C3.48793 0.92731 3.24179 0.860488 3.04791 0.971925C2.85464 1.08296 2.78815 1.32964 2.89931 1.5225C2.90732 1.53631 3.64075 2.83053 3.84204 4.69953H1.2358C1.01268 4.69953 0.832031 4.88018 0.832031 5.10286V8.47998C0.832031 8.70266 1.01268 8.88332 1.2358 8.88332H3.21093C3.19231 8.92553 3.17809 8.96955 3.15866 9.01176C0.393017 15.0379 2.77653 20.6072 2.87947 20.8418C2.94617 20.993 3.09397 21.0833 3.24979 21.0833C3.30387 21.0833 3.35895 21.0723 3.41142 21.0491C3.6157 20.9596 3.70863 20.7218 3.61911 20.5177C3.60248 20.4797 2.45088 17.7846 2.68099 14.2047C9.38066 15.7136 9.45962 20.4736 9.45911 20.6785V20.6841C9.46071 20.9058 9.64096 21.0846 9.86287 21.0846C10.0848 21.0846 10.265 20.9058 10.2666 20.6841V20.6785C10.2662 20.6269 10.3183 15.5977 17.3114 14.1473C17.5549 17.7523 16.3933 20.4798 16.3765 20.5182C16.2873 20.7223 16.3805 20.9599 16.5842 21.0494C16.637 21.0724 16.6921 21.0834 16.7462 21.0834C16.9016 21.0834 17.0494 20.9933 17.1161 20.8423C17.2191 20.6082 19.606 15.0384 16.8401 9.01175C16.8207 8.96974 16.8067 8.92592 16.7881 8.88391H18.7614C18.9845 8.88391 19.1652 8.70325 19.1652 8.48058L19.1654 5.10366C19.1654 4.88098 18.9849 4.70033 18.7616 4.70033L18.7621 4.69953ZM9.86336 18.7944C9.19765 16.9954 7.42636 14.4195 2.75556 13.3972C2.83007 12.783 2.94703 12.1483 3.11948 11.5008C5.40327 12.4213 7.70106 12.8874 9.99911 12.8874C12.2973 12.8874 14.5955 12.4212 16.8798 11.5005C17.0468 12.1291 17.161 12.7452 17.2353 13.3428C12.3687 14.3257 10.5417 16.9623 9.86336 18.7944ZM16.1067 9.34745C16.3186 9.8092 16.4951 10.2689 16.6459 10.7245C12.2347 12.5217 7.76563 12.5223 3.35267 10.7249C3.50369 10.2694 3.68013 9.80982 3.89221 9.34785C3.96251 9.1952 4.02039 9.03835 4.08147 8.8829H4.39251C4.39451 8.8829 4.39631 8.8841 4.39851 8.8841C4.40052 8.8841 4.40232 8.8829 4.40452 8.8829H7.19283C7.19483 8.8829 7.19664 8.8841 7.19884 8.8841C7.20084 8.8841 7.20264 8.8829 7.20485 8.8829H9.99295C9.99475 8.8831 9.99656 8.8843 9.99856 8.8843C10.0006 8.8843 10.0024 8.8831 10.0046 8.8831H12.7929C12.7949 8.8831 12.7967 8.8843 12.7989 8.8843C12.8009 8.8843 12.8027 8.8831 12.8049 8.8831H15.593C15.595 8.8831 15.5968 8.8843 15.599 8.8843C15.601 8.8843 15.6028 8.8831 15.605 8.8831H15.9178C15.9785 9.03834 16.0366 9.1952 16.1067 9.34745ZM18.3581 8.07645H16.0026V7.13576C16.0026 6.91308 15.8219 6.73242 15.5988 6.73242C15.3757 6.73242 15.195 6.91308 15.195 7.13576V8.07645H13.2027V7.50529C13.2027 7.28261 13.022 7.10195 12.7989 7.10195C12.5758 7.10195 12.3952 7.28261 12.3952 7.50529V8.07645H10.4026V7.13576C10.4026 6.91308 10.2219 6.73242 9.99882 6.73242C9.7757 6.73242 9.59505 6.91308 9.59505 7.13576V8.07645H7.60269V7.50529C7.60269 7.28261 7.42204 7.10195 7.19892 7.10195C6.97581 7.10195 6.79516 7.28261 6.79516 7.50529V8.07645H4.80238V7.13576C4.80238 6.91308 4.62173 6.73242 4.39862 6.73242C4.1755 6.73242 3.99485 6.91308 3.99485 7.13576V8.07645H1.63938L1.63958 5.50599H18.3583L18.3581 8.07645Z" fill="currentColor" stroke="currentColor" stroke-width="0.3"/>
</svg>
