<svg width="45" height="62" viewBox="0 0 45 62" fill="none" xmlns="http://www.w3.org/2000/svg">
<path d="M29.9706 31.0117H15.6819V38.4759C15.6819 41.4933 18.8798 43.242 22.8262 43.242C26.7726 43.242 29.9314 40.2752 29.9706 38.4759V31.0117Z" fill="#FFE0BF"/>
<path d="M12.547 16.5069L12.5572 9.76172C18.0975 12.7111 25.3048 11.2888 30.2701 9.77568C31.2907 10.4301 31.6921 10.5732 32.1718 12.5924C32.6039 14.4127 32.461 15.8978 33.1925 16.6448C33.7708 17.2294 36.0842 16.636 36.0842 16.9118C36.0842 17.6378 36.2815 17.7617 36.7459 18.0444C39.2975 19.5994 38.3772 24.0391 34.657 23.2241C34.1467 30.903 28.2561 34.9448 22.8162 34.7424C16.883 34.5347 14.8298 31.8838 13.1424 29.7651C11.7118 27.9693 10.96 24.4126 10.8205 23.17C7.05269 23.917 6.16815 18.821 8.93743 18.0671C9.27764 17.9728 9.13475 17.4912 9.14496 16.9327C9.14496 16.9327 12.0605 17.3079 12.547 16.5069Z" fill="#FFE0BF"/>
<path d="M19.7635 15.4805H16.5315C16.351 15.4805 16.178 15.554 16.0504 15.6849C15.9228 15.8158 15.8511 15.9934 15.8511 16.1785C15.8511 16.3637 15.9228 16.5412 16.0504 16.6722C16.178 16.8031 16.351 16.8766 16.5315 16.8766H19.7635C19.9439 16.8766 20.117 16.8031 20.2446 16.6722C20.3722 16.5412 20.4439 16.3637 20.4439 16.1785C20.4439 15.9934 20.3722 15.8158 20.2446 15.6849C20.117 15.554 19.9439 15.4805 19.7635 15.4805Z" fill="#D89B61"/>
<path d="M28.9507 15.4805H25.7187C25.5383 15.4805 25.3652 15.554 25.2376 15.6849C25.11 15.8158 25.0383 15.9934 25.0383 16.1785C25.0383 16.3637 25.11 16.5412 25.2376 16.6722C25.3652 16.8031 25.5383 16.8766 25.7187 16.8766H28.9507C29.1312 16.8766 29.3042 16.8031 29.4318 16.6722C29.5594 16.5412 29.6311 16.3637 29.6311 16.1785C29.6311 15.9934 29.5594 15.8158 29.4318 15.6849C29.3042 15.554 29.1312 15.4805 28.9507 15.4805Z" fill="#D89B61"/>
<path d="M35.9092 17.3998C35.8124 17.3848 35.7135 17.3914 35.6193 17.4192C35.5252 17.4469 35.438 17.4953 35.3637 17.5608C35.2895 17.6263 35.2299 17.7075 35.189 17.7989C35.1482 17.8902 35.127 17.9895 35.127 18.09C35.127 18.1905 35.1482 18.2898 35.189 18.3812C35.2299 18.4725 35.2895 18.5537 35.3637 18.6193C35.438 18.6848 35.5252 18.7331 35.6193 18.7609C35.7135 18.7887 35.8124 18.7953 35.9092 18.7803C36.1101 18.7777 36.3094 18.816 36.4957 18.893C36.6821 18.9699 36.8517 19.084 36.9948 19.2285C37.138 19.3731 37.2518 19.5454 37.3297 19.7353C37.4075 19.9252 37.448 20.1291 37.4486 20.3352V20.6843C37.4437 21.1919 37.243 21.6768 36.8904 22.033C36.5378 22.3892 36.0621 22.5876 35.5673 22.5848H35.2271V21.7122C35.2271 21.527 35.1554 21.3495 35.0278 21.2186C34.9002 21.0876 34.7271 21.0141 34.5467 21.0141C34.3662 21.0141 34.1932 21.0876 34.0656 21.2186C33.938 21.3495 33.8663 21.527 33.8663 21.7122V22.7471C33.8663 28.9285 28.872 33.9686 22.75 33.9686C16.628 33.9686 11.6338 28.9285 11.6338 22.7471V21.7122C11.6338 21.527 11.5621 21.3495 11.4345 21.2186C11.3069 21.0876 11.1338 21.0141 10.9534 21.0141C10.7729 21.0141 10.5998 21.0876 10.4722 21.2186C10.3446 21.3495 10.2729 21.527 10.2729 21.7122V22.5848H9.93273C9.6853 22.5894 9.43944 22.5436 9.20937 22.4501C8.97931 22.3566 8.76961 22.2171 8.59242 22.0399C8.41524 21.8626 8.27408 21.6511 8.17712 21.4175C8.08016 21.1839 8.02933 20.9329 8.02757 20.679V20.33C8.02823 20.1239 8.06868 19.92 8.14657 19.7301C8.22446 19.5401 8.33826 19.3679 8.48139 19.2233C8.62452 19.0787 8.79415 18.9647 8.98049 18.8877C9.16682 18.8108 9.36616 18.7725 9.56701 18.775C9.66386 18.79 9.76274 18.7834 9.85688 18.7557C9.95102 18.7279 10.0382 18.6796 10.1125 18.614C10.1867 18.5485 10.2463 18.4673 10.2872 18.376C10.328 18.2846 10.3492 18.1853 10.3492 18.0848C10.3492 17.9843 10.328 17.885 10.2872 17.7936C10.2463 17.7023 10.1867 17.6211 10.1125 17.5556C10.0382 17.49 9.95102 17.4417 9.85688 17.4139C9.76274 17.3861 9.66386 17.3795 9.56701 17.3946C9.18831 17.392 8.81284 17.4661 8.46207 17.6126C8.1113 17.759 7.79211 17.975 7.52275 18.2481C7.25339 18.5212 7.03914 18.8461 6.89226 19.2042C6.74539 19.5624 6.66875 19.9467 6.66675 20.3352V20.6843C6.67573 21.5606 7.02253 22.3977 7.63135 23.0126C8.24017 23.6274 9.06147 23.9699 9.91572 23.9652H10.3087C10.4731 25.6612 10.9743 27.3046 11.7815 28.7942C12.5886 30.2839 13.6846 31.5881 15.0018 32.6266V40.2618H16.3626V33.576C18.2972 34.7393 20.4991 35.3526 22.7415 35.3526C24.9839 35.3526 27.1858 34.7393 29.1204 33.576V39.5096H30.4812V32.6266C31.7924 31.5816 32.8836 30.2749 33.689 28.7854C34.4945 27.2959 34.9974 25.6544 35.1676 23.96H35.5605C36.4147 23.9646 37.2361 23.6221 37.8449 23.0073C38.4537 22.3925 38.8005 21.5554 38.8095 20.679V20.33C38.8027 19.5471 38.4936 18.799 37.9499 18.2496C37.4062 17.7003 36.6723 17.3947 35.9092 17.3998Z" fill="#F2D0AC"/>
<path d="M27.3338 18.9727C27.5188 18.9727 27.6997 19.029 27.8535 19.1344C28.0074 19.2399 28.1273 19.3898 28.1981 19.5652C28.2689 19.7406 28.2875 19.9336 28.2514 20.1198C28.2153 20.306 28.1261 20.477 27.9953 20.6112C27.8645 20.7455 27.6978 20.8369 27.5163 20.8739C27.3348 20.911 27.1467 20.892 26.9757 20.8193C26.8048 20.7467 26.6587 20.6236 26.5559 20.4658C26.4531 20.3079 26.3982 20.1224 26.3982 19.9325C26.4004 19.6786 26.4997 19.4358 26.6747 19.2563C26.8496 19.0768 27.0863 18.9749 27.3338 18.9727Z" fill="#B69169"/>
<path d="M18.148 18.9727C18.333 18.9727 18.5139 19.029 18.6677 19.1344C18.8216 19.2399 18.9415 19.3898 19.0123 19.5652C19.0831 19.7406 19.1017 19.9336 19.0656 20.1198C19.0295 20.306 18.9404 20.477 18.8095 20.6112C18.6787 20.7455 18.512 20.8369 18.3305 20.8739C18.149 20.911 17.9609 20.892 17.7899 20.8193C17.619 20.7467 17.4729 20.6236 17.3701 20.4658C17.2673 20.3079 17.2124 20.1224 17.2124 19.9325C17.2146 19.6786 17.3139 19.4358 17.4889 19.2563C17.6639 19.0768 17.9005 18.9749 18.148 18.9727Z" fill="#B69169"/>
<path d="M22.6555 28.9203C21.751 28.9244 20.8611 28.6871 20.0731 28.2314C19.2851 27.7758 18.6263 27.1177 18.1614 26.3217C18.0738 26.1643 18.0492 25.9782 18.0929 25.8026C18.1367 25.6271 18.2452 25.4758 18.3956 25.3809C18.5461 25.2859 18.7266 25.2547 18.8991 25.2938C19.0715 25.3329 19.2224 25.4393 19.3198 25.5905C19.6696 26.176 20.1599 26.6596 20.7439 26.9952C21.328 27.3307 21.9861 27.5069 22.6555 27.5069C23.3249 27.5069 23.9831 27.3307 24.5671 26.9952C25.1511 26.6596 25.6415 26.176 25.9912 25.5905C26.0906 25.4442 26.2408 25.3424 26.411 25.3061C26.5812 25.2699 26.7584 25.3018 26.9064 25.3953C27.0544 25.4888 27.1618 25.6369 27.2067 25.8092C27.2517 25.9815 27.2306 26.1648 27.1479 26.3217C26.6833 27.1175 26.0248 27.7756 25.2371 28.2312C24.4494 28.6869 23.5597 28.9243 22.6555 28.9203Z" fill="#DCBC99"/>
<path d="M21.0109 57.0155L15.2495 39.9772L18.211 42.3559C22.5912 44.4414 25.6547 43.0418 27.2265 41.8428L29.7576 39.9336L24.4844 57.0208C24.2633 57.7101 23.9741 58.8741 22.5589 58.8741C21.3086 58.6979 21.1793 57.567 21.0109 57.0155Z" fill="#FF624E"/>
<path d="M22.4528 44.1043C18.8705 44.1043 15.6113 41.9978 13.9817 38.6279L15.203 37.9961C16.6132 40.8914 19.3978 42.7081 22.4698 42.7081C23.9465 42.6979 25.3925 42.2741 26.6515 41.4824C27.9106 40.6908 28.935 39.5613 29.6142 38.216L30.8219 38.8687C29.1413 42.0851 25.9331 44.1043 22.4528 44.1043Z" fill="#CF422F"/>
<path d="M12.2589 37.3278L14.4907 37.0172L21.5176 57.9595C21.6724 58.4272 22.1198 59.0171 22.7526 58.9525C23.2629 58.97 23.7732 58.5022 23.9331 58.0014L30.8206 36.9648C30.8206 36.9648 33.088 37.1725 33.1051 37.19C34.0151 37.3959 34.2482 38.265 34.1257 38.6106L33.4623 39.5582C33.4623 39.5582 39.8871 40.7327 41.8433 43.6001C43.0111 45.3265 43.6329 47.3799 43.6242 49.4814V58.6331C43.6242 60.7692 42.4795 61.0624 41.3364 61.052L3.49177 61.1741C2.33167 61.1741 1.69038 60.8373 1.36548 59.7134V49.6454C1.36548 47.4308 2.11393 45.3226 3.30125 43.4727C5.13497 40.6228 11.9391 39.3139 11.9391 39.3139L11.5377 38.3558C11.3318 37.9753 11.8489 37.4308 12.2589 37.3278Z" fill="white"/>
<path d="M39.8365 51.6061H37.9654V49.6864C37.9654 49.5012 37.8937 49.3237 37.7661 49.1927C37.6385 49.0618 37.4654 48.9883 37.2849 48.9883C37.1045 48.9883 36.9314 49.0618 36.8038 49.1927C36.6762 49.3237 36.6045 49.5012 36.6045 49.6864V51.6061H34.7334C34.5529 51.6061 34.3799 51.6796 34.2523 51.8105C34.1247 51.9414 34.053 52.119 34.053 52.3041C34.053 52.4893 34.1247 52.6668 34.2523 52.7978C34.3799 52.9287 34.5529 53.0022 34.7334 53.0022H36.6045V54.9219C36.6045 55.1071 36.6762 55.2846 36.8038 55.4155C36.9314 55.5465 37.1045 55.62 37.2849 55.62C37.4654 55.62 37.6385 55.5465 37.7661 55.4155C37.8937 55.2846 37.9654 55.1071 37.9654 54.9219V53.0022H39.8365C40.0169 53.0022 40.19 52.9287 40.3176 52.7978C40.4452 52.6668 40.5169 52.4893 40.5169 52.3041C40.5169 52.119 40.4452 51.9414 40.3176 51.8105C40.19 51.6796 40.0169 51.6061 39.8365 51.6061Z" fill="#CFD1E2"/>
<path d="M9.89819 53.8761C9.71773 53.8761 9.54466 53.8025 9.41706 53.6716C9.28946 53.5407 9.21777 53.3631 9.21777 53.178V49.8621C9.21777 49.677 9.28946 49.4994 9.41706 49.3685C9.54466 49.2376 9.71773 49.1641 9.89819 49.1641C10.0786 49.1641 10.2517 49.2376 10.3793 49.3685C10.5069 49.4994 10.5786 49.677 10.5786 49.8621V53.178C10.5786 53.3631 10.5069 53.5407 10.3793 53.6716C10.2517 53.8025 10.0786 53.8761 9.89819 53.8761Z" fill="#CFD1E2"/>
<path d="M5.81591 51.6055H13.8108C13.9912 51.6055 14.1643 51.679 14.2919 51.8099C14.4195 51.9408 14.4912 52.1184 14.4912 52.3035V57.0156C14.4912 57.2007 14.4195 57.3783 14.2919 57.5092C14.1643 57.6401 13.9912 57.7136 13.8108 57.7136H5.81591C5.63545 57.7136 5.46239 57.6401 5.33479 57.5092C5.20718 57.3783 5.1355 57.2007 5.1355 57.0156V52.3035C5.1355 52.1184 5.20718 51.9408 5.33479 51.8099C5.46239 51.679 5.63545 51.6055 5.81591 51.6055Z" fill="#E2E4F1"/>
<path d="M13.8108 58.4145H5.8159C5.45499 58.4145 5.10886 58.2674 4.85365 58.0056C4.59845 57.7437 4.45508 57.3886 4.45508 57.0183V52.3063C4.45508 51.936 4.59845 51.5809 4.85365 51.3191C5.10886 51.0572 5.45499 50.9102 5.8159 50.9102H13.8108C14.1717 50.9102 14.5178 51.0572 14.773 51.3191C15.0282 51.5809 15.1716 51.936 15.1716 52.3063V57.0183C15.1716 57.3886 15.0282 57.7437 14.773 58.0056C14.5178 58.2674 14.1717 58.4145 13.8108 58.4145ZM5.8159 52.3063V57.0183H13.8108V52.3063H5.8159Z" fill="#CFD1E2"/>
<path d="M37.3937 39.8158L34.6278 39.0427C34.6845 38.6947 34.6552 38.3377 34.5428 38.0043C34.4152 37.6203 34.1805 37.2833 33.8678 37.0351C33.5551 36.7869 33.1782 36.6384 32.7839 36.6081L30.8362 36.4336V36.451C30.6721 36.416 30.5011 36.4443 30.3561 36.5306C30.211 36.6169 30.1022 36.7552 30.0504 36.9188L23.3908 57.6481C23.3465 57.7887 23.2599 57.9112 23.1435 57.9981C23.027 58.085 22.8867 58.1317 22.7427 58.1315C22.5997 58.1371 22.4588 58.0946 22.3415 58.0105C22.2242 57.9264 22.1369 57.8053 22.0929 57.6656L15.1085 36.91C15.0507 36.7439 14.9347 36.6059 14.7832 36.5226C14.6317 36.4394 14.4553 36.417 14.2886 36.4598L12.7015 36.65C12.3259 36.6918 11.969 36.8397 11.6705 37.0772C11.372 37.3148 11.1436 37.6327 11.0107 37.9955C10.9033 38.2876 10.862 38.6009 10.8899 38.9118L7.59503 39.828C5.62704 40.3721 3.88767 41.5641 2.64426 43.221C1.40084 44.8779 0.722204 46.9079 0.712646 48.999V59.5853C0.717588 60.1389 0.935994 60.668 1.3201 61.0568C1.70422 61.4457 2.22278 61.6627 2.76239 61.6603H42.2178C42.756 61.6603 43.2724 61.4423 43.6546 61.0537C44.0369 60.6651 44.2542 60.1374 44.2591 59.5853V48.9902C44.2493 46.9014 43.5727 44.8733 42.3328 43.2164C41.093 41.5595 39.3581 40.3651 37.3937 39.8158ZM12.2916 38.4667C12.3366 38.3462 12.4128 38.2405 12.512 38.1612C12.6112 38.0818 12.7297 38.0318 12.8546 38.0165L13.9824 37.8786L20.7848 58.0984C20.9216 58.5137 21.1842 58.8732 21.5343 59.1244C21.8844 59.3756 22.3037 59.5053 22.7308 59.4945H22.7495C23.1769 59.4989 23.5943 59.3624 23.9403 59.1051C24.2864 58.8478 24.5427 58.4833 24.6717 58.0652L31.1611 37.821L32.6461 37.9414C32.7777 37.9505 32.9035 37.9999 33.0072 38.0833C33.111 38.1668 33.1879 38.2803 33.2279 38.4091C33.2722 38.5355 33.2778 38.6727 33.2441 38.8024C33.2103 38.9322 33.1388 39.0482 33.0391 39.1351L31.7582 40.3289C31.5558 40.5182 31.3925 40.7475 31.2783 41.0029C31.164 41.2584 31.101 41.5348 31.0931 41.8158C31.0856 42.0955 31.1349 42.3738 31.2376 42.6331C31.3404 42.8923 31.4945 43.1269 31.6902 43.3219L32.5407 44.1857C32.641 44.2875 32.708 44.4188 32.7323 44.5614C32.7567 44.704 32.7373 44.8508 32.6768 44.9815L25.2483 60.2205H20.249L12.5127 45.074C12.4461 44.943 12.4217 44.7937 12.4431 44.6475C12.4645 44.5014 12.5306 44.3659 12.6318 44.2608L13.5537 43.3271C13.9296 42.952 14.146 42.4398 14.1559 41.9019C14.1657 41.364 13.9683 40.8439 13.6065 40.4545L12.4158 39.1404C12.336 39.0511 12.2822 38.9407 12.2602 38.8217C12.2383 38.7027 12.2491 38.5798 12.2916 38.4667ZM2.08538 59.5835V48.999C2.09609 47.2114 2.67837 45.4768 3.74283 44.0616C4.80728 42.6464 6.29506 41.6287 7.97776 41.1648L11.4955 40.1788L12.6386 41.4405C12.6986 41.504 12.7459 41.579 12.7775 41.6612C12.8092 41.7435 12.8247 41.8313 12.8231 41.9197C12.8215 42.0082 12.8029 42.0954 12.7683 42.1764C12.7337 42.2574 12.6839 42.3305 12.6216 42.3917L11.6996 43.3271C11.3917 43.6355 11.1889 44.0376 11.1212 44.4736C11.0535 44.9096 11.1245 45.3563 11.3237 45.7477L18.7351 60.2764H2.76239C2.67289 60.2775 2.58406 60.2606 2.50096 60.2264C2.41787 60.1923 2.34216 60.1417 2.27816 60.0775C2.21417 60.0133 2.16315 59.9368 2.12802 59.8523C2.0929 59.7679 2.07436 59.6771 2.07347 59.5853L2.08538 59.5835ZM42.9 59.5835C42.9 59.7687 42.8283 59.9462 42.7007 60.0772C42.5731 60.2081 42.4 60.2816 42.2196 60.2816H26.8065L33.9508 45.6499C34.1435 45.2614 34.2093 44.8196 34.1385 44.3897C34.0678 43.9598 33.8642 43.5647 33.5579 43.2625L32.7074 42.3899C32.6414 42.3254 32.5892 42.2476 32.5538 42.1614C32.5183 42.0753 32.5006 41.9826 32.5016 41.8891C32.5039 41.7942 32.5249 41.7009 32.5632 41.6145C32.6014 41.5282 32.6563 41.4506 32.7244 41.3864L33.9151 40.28L37.0399 41.1631C38.7179 41.633 40.2001 42.6528 41.2608 44.0672C42.3215 45.4815 42.9025 47.2127 42.9153 48.9972L42.9 59.5835Z" fill="#F0F0F0"/>
<path d="M8.96846 16.7027C10.297 16.6643 11.9027 17.2018 12.5764 15.6556V11.4357C12.5764 10.8145 12.6002 9.49683 14.4781 10.53C15.0429 10.8406 19.1202 11.9506 21.7517 11.5858C26.945 10.8651 26.6643 10.9628 30.2705 9.77781C30.6107 10.3258 32.2505 11.79 32.4512 13.0692C32.6043 14.0308 32.72 15.6015 32.72 15.6015C32.6639 16.1251 33.2745 16.8109 33.7032 16.8109H36.2411C36.2411 16.9191 36.2615 7.48288 36.2105 7.29266C35.9128 6.1513 34.7204 4.51431 33.7389 3.76214C33.0211 3.1234 31.2146 2.79879 30.3096 2.48815C29.567 2.23402 28.8631 1.87326 28.2191 1.4166C28.2191 1.4166 25.9703 0.402644 22.0069 0.920966C19.6373 1.22986 15.8611 2.59111 15.8611 2.59111C15.8611 2.59111 12.6444 3.83194 10.729 4.71326C9.77135 5.14433 8.07712 4.90175 7.90532 5.44974C7.64676 6.26648 10.2051 7.90871 10.2051 7.90871L9.5162 8.87903C9.16038 9.45809 8.97057 10.1282 8.96846 10.8127V16.7027Z" fill="#F2B983"/>
<path d="M30.4007 2.04228C29.5995 1.31454 28.6708 0.967246 27.7641 0.764804C26.8545 0.500259 25.9161 0.353685 24.971 0.328507C23.6357 0.241247 22.8481 0.345958 21.5808 0.503026C18.5904 0.893948 16.8452 1.6374 14.1303 2.80144C13.1199 3.24996 12.0738 3.70021 11.0685 4.07892C10.2483 4.39117 9.38933 4.58329 8.51691 4.6496C8.03722 4.70195 7.69531 4.73686 7.47247 5.08241C7.41264 5.17556 7.37381 5.28123 7.35881 5.39173C7.3438 5.50222 7.35299 5.61476 7.38572 5.72115C7.50649 6.1016 8.15799 7.06843 9.40825 8.10508C8.86407 8.72028 8.5611 9.52037 8.55773 10.3511V16.763C8.55751 16.8487 8.57381 16.9337 8.6057 17.013C8.63759 17.0923 8.68445 17.1644 8.74357 17.225C8.80269 17.2857 8.87291 17.3337 8.95019 17.3665C9.02748 17.3992 9.11031 17.4159 9.19392 17.4157H11.458C11.9982 17.4194 12.5178 17.2033 12.903 16.8146C13.2881 16.426 13.5075 15.8966 13.5128 15.3424V10.7124C13.5996 10.7647 13.7017 10.7997 13.8037 10.8695C16.1409 12.0911 18.3047 12.2516 20.8103 12.2848C23.5591 12.3581 27.827 11.1731 30.0928 10.5239C30.5045 11.0073 31.258 11.9567 31.685 13.0632C31.9226 13.726 32.0502 14.4251 32.0626 15.1312C32.0726 15.7309 32.3084 16.3033 32.7206 16.7285C33.1329 17.1537 33.6895 17.3987 34.274 17.4122H36.3152C36.4823 17.4099 36.6419 17.3404 36.7596 17.2187C36.8773 17.0969 36.9437 16.9327 36.9446 16.7612V9.10682C36.9956 5.33895 34.0664 2.26392 30.4007 2.04228ZM12.1605 15.3598C12.1605 15.545 12.0888 15.7225 11.9612 15.8534C11.8336 15.9844 11.6606 16.0579 11.4801 16.0579H9.93387V10.3668C9.9341 10.1031 9.98568 9.842 10.0856 9.59896C10.1855 9.35591 10.3317 9.13579 10.5156 8.95149C10.6024 9.0021 10.6704 9.05446 10.7555 9.10682C11.1127 9.33195 11.885 9.83282 12.1605 10.0038V15.3598ZM34.3233 16.0579C33.8436 16.0579 33.5017 15.5745 33.4847 15.1085C33.4723 14.2397 33.3099 13.3799 33.005 12.5693C32.5205 11.4333 31.8547 10.3881 31.0352 9.4768C30.6831 9.10682 30.416 9.01781 30.0724 9.12776C30.0384 9.14521 27.0446 10.0178 24.8689 10.4506C22.9162 10.8485 21.5979 11.0038 19.3882 10.866C17.3844 10.7438 16.2498 10.5309 14.4212 9.64433C13.6519 9.27985 12.9029 8.87202 12.1775 8.4227C11.691 8.09111 10.5326 7.27786 10.5326 7.27786C10.0295 6.88835 9.56511 6.44875 9.14629 5.96547C11.6859 5.67752 14.9298 3.78049 17.3334 2.95851C19.6161 2.1278 22.3038 1.58155 24.8519 1.69674C25.8453 1.74037 26.4237 1.76131 27.349 2.03181C28.7779 2.35642 29.6199 3.01959 30.4347 4.27089L30.7647 4.80492C30.9652 5.1502 31.1305 5.5157 31.258 5.89567C31.571 6.74732 32.8247 6.33371 32.5593 5.44715C32.3441 4.82745 32.0586 4.23585 31.7088 3.68451C32.8307 4.04964 33.8111 4.76971 34.5096 5.74155C35.2081 6.71339 35.5889 7.88713 35.5974 9.0946V16.0335L34.3233 16.0579Z" fill="#D89B61"/>
</svg>
