<svg width="57" height="57" viewBox="0 0 57 57" fill="none" xmlns="http://www.w3.org/2000/svg">
<path d="M7.23083 48.3175C7.59325 48.0317 8.03517 47.8648 8.49607 47.8398H48.4424C48.8252 47.8398 49.4597 48.0313 49.7332 48.2883L55.1022 53.0467C55.8114 53.8051 55.4669 55.4659 54.3055 55.4386L2.68215 55.4623C2.11152 55.548 0.784288 54.2153 1.95291 53.0649L7.23083 48.3175Z" fill="#E2E4F1"/>
<path d="M55.467 52.4186L50.18 47.6785C49.7819 47.3137 49.2613 47.112 48.7215 47.1133H8.2483C7.7091 47.1155 7.18971 47.3168 6.7898 47.6785L1.50276 52.4186C1.17548 52.7146 0.94535 53.1026 0.842601 53.5318C0.739853 53.9609 0.769286 54.4111 0.927037 54.8232C1.08479 55.2353 1.36348 55.5901 1.72652 55.841C2.08956 56.0919 2.51998 56.2271 2.96126 56.2289H54.0268C54.468 56.2336 54.8998 56.1011 55.2624 55.8496C55.6249 55.598 55.9003 55.24 56.0504 54.8251C56.2103 54.4123 56.24 53.9606 56.1358 53.5304C56.0315 53.1002 55.7981 52.7123 55.467 52.4186ZM54.7013 54.2964C54.655 54.4375 54.5643 54.56 54.4427 54.6454C54.3212 54.7308 54.1753 54.7746 54.0268 54.7704H2.96126C2.81137 54.7708 2.66488 54.7257 2.54117 54.6411C2.41747 54.5564 2.32237 54.4362 2.26847 54.2964C2.21677 54.1581 2.20826 54.0073 2.24407 53.8641C2.27987 53.7209 2.35831 53.5919 2.46902 53.4942L7.75605 48.7541C7.89567 48.6409 8.06865 48.5769 8.2483 48.5718H48.7215C48.9032 48.5652 49.0801 48.6308 49.2137 48.7541L54.5008 53.4942C54.6115 53.5919 54.6899 53.7209 54.7257 53.8641C54.7615 54.0073 54.753 54.1581 54.7013 54.2964Z" fill="#CFD1E2"/>
<path d="M45.3645 26.7956C40.2744 34.5986 30.1105 49.7669 29.5636 50.5417C28.9911 51.5007 27.9647 51.466 27.3758 50.7113C27.1935 50.456 13.1263 30.657 11.6296 26.3708C5.87945 8.90538 21.1736 0.805273 28.9929 1.67672C48.2961 2.67214 47.6288 22.9233 45.3645 26.7956Z" fill="#FF624E"/>
<path d="M44.7666 29.2107C46.4103 26.3392 47.2715 23.0865 47.2643 19.7779C47.2643 9.32411 38.805 0.804688 28.395 0.804688C17.985 0.804688 9.52574 9.30588 9.52574 19.7779C9.51277 23.7269 10.7368 27.5808 13.0261 30.7986L26.6813 50.8857C26.8794 51.1828 27.1478 51.4263 27.4627 51.5948C27.7775 51.7633 28.1291 51.8514 28.4862 51.8514C28.8432 51.8514 29.1948 51.7633 29.5096 51.5948C29.8245 51.4263 30.0929 51.1828 30.291 50.8857L44.7666 29.2107ZM29.0878 50.0452C29.0206 50.1436 28.9311 50.2247 28.8265 50.2817C28.7219 50.3388 28.6052 50.3702 28.4862 50.3734C28.3659 50.3763 28.247 50.3475 28.1414 50.2899C28.0358 50.2323 27.9472 50.1479 27.8845 50.0452L13.8465 29.4112C11.9703 26.5494 10.9751 23.1999 10.9842 19.7779C10.9842 10.1281 18.7872 2.26318 28.395 2.26318C38.0028 2.26318 45.8058 10.1026 45.8058 19.7779C45.8108 22.9097 44.9733 25.9851 43.381 28.682L29.0878 50.0452Z" fill="#CF422F"/>
<path d="M28.2501 31.4721C30.5911 31.4725 32.8797 30.7786 34.8263 29.4782C36.773 28.1778 38.2903 26.3294 39.1863 24.1666C40.0824 22.0039 40.3169 19.6239 39.8603 17.3279C39.4037 15.0318 38.2764 12.9227 36.621 11.2674C34.9657 9.61202 32.8566 8.48474 30.5605 8.02812C28.2644 7.57149 25.8845 7.80603 23.7218 8.70207C21.559 9.59811 19.7106 11.1154 18.4102 13.0621C17.1098 15.0087 16.4159 17.2973 16.4163 19.6383C16.4167 22.7767 17.6637 25.7864 19.8828 28.0056C22.102 30.2247 25.1117 31.4717 28.2501 31.4721Z" fill="white"/>
<path d="M28.3034 32.1629C25.8154 32.1629 23.3833 31.4251 21.3146 30.0429C19.2459 28.6606 17.6336 26.696 16.6814 24.3974C15.7293 22.0988 15.4802 19.5695 15.9656 17.1293C16.451 14.6891 17.6491 12.4476 19.4083 10.6884C21.1676 8.92909 23.4091 7.73101 25.8493 7.24562C28.2894 6.76024 30.8188 7.00936 33.1174 7.96147C35.416 8.91358 37.3806 10.5259 38.7629 12.5946C40.1451 14.6633 40.8829 17.0954 40.8829 19.5834C40.8762 22.9176 39.5486 26.1134 37.191 28.471C34.8333 30.8287 31.6376 32.1562 28.3034 32.1629ZM28.3034 8.46241C26.1039 8.46241 23.9537 9.11464 22.1249 10.3366C20.296 11.5586 18.8706 13.2955 18.0289 15.3276C17.1872 17.3597 16.967 19.5958 17.3961 21.753C17.8252 23.9103 18.8843 25.8919 20.4396 27.4472C21.9949 29.0025 23.9765 30.0616 26.1338 30.4907C28.2911 30.9198 30.5271 30.6996 32.5592 29.8579C34.5913 29.0162 36.3282 27.5908 37.5502 25.7619C38.7722 23.9331 39.4244 21.7829 39.4244 19.5834C39.4191 16.6356 38.2457 13.81 36.1613 11.7255C34.0768 9.64108 31.2512 8.46771 28.3034 8.46241Z" fill="#F0F0F0"/>
<path fill-rule="evenodd" clip-rule="evenodd" d="M28.0297 12.2228C27.755 12.2192 27.4824 12.2706 27.2279 12.374C26.9734 12.4774 26.7423 12.6307 26.548 12.825C26.3538 13.0192 26.2004 13.2504 26.097 13.5049C25.9936 13.7594 25.9422 14.032 25.9459 14.3067V17.2546C25.9436 17.3421 25.908 17.4254 25.8463 17.4874C25.7846 17.5494 25.7015 17.5855 25.6141 17.5883H22.6789C21.6196 17.5883 20.7773 18.6129 20.7773 19.6721C20.7773 20.7313 21.6196 21.7559 22.6789 21.7559H25.6141C25.7012 21.7587 25.784 21.7945 25.8457 21.8561C25.9073 21.9178 25.9431 22.0006 25.9459 22.0877V25.0229C25.9459 26.0804 26.9723 26.9245 28.0297 26.9245C29.0871 26.9245 30.1135 26.0804 30.1135 25.0229V22.0877C30.1163 22.0003 30.1524 21.9172 30.2144 21.8555C30.2764 21.7938 30.3597 21.7582 30.4472 21.7559H33.5774C34.6367 21.7559 35.479 20.7295 35.479 19.6721C35.479 18.6147 34.6367 17.5883 33.5774 17.5883H30.4472C30.3594 17.586 30.2759 17.5501 30.2138 17.488C30.1517 17.4259 30.1158 17.3424 30.1135 17.2546V14.3067C30.1135 13.2474 29.3788 12.2228 28.0297 12.2228Z" fill="#FF624E"/>
<path d="M33.2849 16.8076H30.8984V14.4211C30.8984 13.663 30.5972 12.9359 30.0611 12.3998C29.525 11.8637 28.7979 11.5625 28.0398 11.5625C27.2816 11.5625 26.5545 11.8637 26.0184 12.3998C25.4823 12.9359 25.1811 13.663 25.1811 14.4211V16.8076H22.9587C22.2006 16.8076 21.4735 17.1088 20.9374 17.6449C20.4013 18.181 20.1001 18.9081 20.1001 19.6663C20.1001 20.4244 20.4013 21.1515 20.9374 21.6876C21.4735 22.2237 22.2006 22.5249 22.9587 22.5249H25.1811V24.7473C25.1811 25.5054 25.4823 26.2325 26.0184 26.7687C26.5545 27.3047 27.2816 27.6059 28.0398 27.6059C28.7979 27.6059 29.525 27.3047 30.0611 26.7687C30.5972 26.2325 30.8984 25.5054 30.8984 24.7473V22.5249H33.2849C34.043 22.5249 34.7701 22.2237 35.3062 21.6876C35.8423 21.1515 36.1435 20.4244 36.1435 19.6663C36.1435 18.9081 35.8423 18.181 35.3062 17.6449C34.7701 17.1088 34.043 16.8076 33.2849 16.8076ZM33.2849 21.0682H30.171C29.9776 21.0682 29.7921 21.1451 29.6553 21.2818C29.5186 21.4186 29.4417 21.6041 29.4417 21.7975V24.7473C29.4417 25.1191 29.294 25.4757 29.0311 25.7386C28.7682 26.0015 28.4116 26.1493 28.0398 26.1493C27.6679 26.1493 27.3113 26.0015 27.0484 25.7386C26.7855 25.4757 26.6378 25.1191 26.6378 24.7473V21.7975C26.6378 21.6041 26.561 21.4186 26.4242 21.2818C26.2874 21.1451 26.102 21.0682 25.9085 21.0682H22.9587C22.5869 21.0682 22.2303 20.9205 21.9674 20.6576C21.7045 20.3947 21.5568 20.0381 21.5568 19.6663C21.5568 19.2944 21.7045 18.9378 21.9674 18.6749C22.2303 18.412 22.5869 18.2643 22.9587 18.2643H25.9085C26.102 18.2643 26.2874 18.1874 26.4242 18.0507C26.561 17.9139 26.6378 17.7284 26.6378 17.535V14.4211C26.6378 14.0493 26.7855 13.6927 27.0484 13.4298C27.3113 13.1669 27.6679 13.0192 28.0398 13.0192C28.4116 13.0192 28.7682 13.1669 29.0311 13.4298C29.294 13.6927 29.4417 14.0493 29.4417 14.4211V17.535C29.4465 17.7253 29.5254 17.9061 29.6617 18.0389C29.7979 18.1718 29.9807 18.2461 30.171 18.246C30.2694 18.246 33.2703 18.246 33.2703 18.246C33.635 18.2592 33.9805 18.4133 34.2339 18.676C34.4873 18.9387 34.6289 19.2894 34.6289 19.6544C34.6289 20.0194 34.4873 20.3701 34.2339 20.6328C33.9805 20.8955 33.635 21.0496 33.2703 21.0628L33.2849 21.0682Z" fill="#CF422F"/>
</svg>
