<svg width="56" height="56" viewBox="0 0 56 56" fill="none" xmlns="http://www.w3.org/2000/svg">
<path d="M18.2131 35.2852C16.0176 35.2852 12.1697 36.5751 11.189 36.9759C11.1691 37.3403 11.1473 49.427 11.1509 49.7896C12.6926 49.9882 18.6144 51.0303 24.4073 53.9709C26.7299 55.1515 30.9156 54.6286 33.8193 53.9017C36.5595 53.213 51.9514 47.6014 53.6566 46.931C55.3581 46.02 55.5906 43.7389 54.955 42.3415C54.1741 40.6161 52.3945 39.8527 51.1742 40.177C51.1016 40.1588 40.1388 44.1707 40.1388 44.1707C39.7029 44.3347 39.0728 44.3802 39.9753 43.7316C42.5648 42.0263 40.827 38.5282 39.4432 38.0581C38.0468 37.3512 36.9481 37.6136 35.3883 37.6136C35.3883 37.6136 29.9404 37.6846 29.521 37.5771C27.4163 37.2073 21.0986 35.2852 18.2131 35.2852Z" fill="#FFE0BF"/>
<path d="M55.6299 42.3142C55.2319 41.227 54.4202 40.3426 53.3729 39.8552C52.3257 39.3677 51.1285 39.3171 50.0441 39.7143L41.5727 42.8244C41.7778 42.3099 41.882 41.7606 41.8796 41.2065C41.8796 40.0468 41.4204 38.9346 40.6031 38.1146C39.7858 37.2945 38.6772 36.8339 37.5213 36.8339C37.5213 36.8339 30.0469 36.8339 29.9925 36.8156C29.4132 36.7081 24.2614 35.7808 21.8661 35.0338C16.9322 33.4888 11.1521 36.3255 10.8924 36.4349C10.8068 36.4778 10.7305 36.5372 10.6677 36.6098C10.605 36.6823 10.5572 36.7666 10.5269 36.8577C10.4966 36.9488 10.4846 37.045 10.4913 37.1408C10.4981 37.2366 10.5236 37.3301 10.5665 37.416C10.6093 37.5019 10.6685 37.5785 10.7408 37.6414C10.8131 37.7043 10.8971 37.7523 10.9879 37.7827C11.0787 37.813 11.1746 37.8252 11.27 37.8184C11.3655 37.8116 11.4587 37.7859 11.5443 37.743C11.5988 37.7248 17.0412 35.052 21.4321 36.4166C23.8619 37.18 28.7776 38.071 29.74 38.2386C29.8672 38.2568 37.5213 38.275 37.5213 38.275C37.9182 38.2486 38.3163 38.3043 38.6908 38.4385C39.0654 38.5728 39.4085 38.7827 39.6989 39.0554C39.9892 39.3281 40.2207 39.6577 40.379 40.0238C40.5373 40.3899 40.6189 40.7847 40.6189 41.1837C40.6189 41.5828 40.5373 41.9776 40.379 42.3437C40.2207 42.7098 39.9892 43.0394 39.6989 43.312C39.4085 43.5847 39.0654 43.7947 38.6908 43.9289C38.3163 44.0632 37.9182 44.1188 37.5213 44.0924H25.7359C25.5433 44.0924 25.3585 44.1692 25.2223 44.3059C25.0861 44.4426 25.0095 44.6279 25.0095 44.8212C25.0095 45.0145 25.0861 45.1999 25.2223 45.3365C25.3585 45.4732 25.5433 45.55 25.7359 45.55H37.5268C38.0738 45.5511 38.6159 45.4459 39.123 45.2403L50.5326 41.0498C50.8888 40.9153 51.2683 40.8541 51.6486 40.8697C52.0289 40.8854 52.4021 40.9776 52.7462 41.1409C53.2664 41.3819 53.7036 41.7723 54.0025 42.2627C54.3013 42.7531 54.4484 43.3215 54.4251 43.8959C54.4017 44.4703 54.209 45.0248 53.8714 45.4892C53.5337 45.9536 53.0663 46.307 52.5283 46.5047L36.8367 52.2857C36.5117 52.4132 28.5651 55.505 23.722 52.8323C18.3886 49.8862 11.7368 49.1228 11.459 49.1046C11.3574 49.0799 11.2517 49.0774 11.1491 49.0975C11.0465 49.1175 10.9494 49.1595 10.8645 49.2206C10.7796 49.2817 10.7088 49.3605 10.657 49.4516C10.6052 49.5427 10.5735 49.6439 10.5643 49.7483C10.555 49.8528 10.5684 49.958 10.6034 50.0568C10.6384 50.1556 10.6942 50.2457 10.7671 50.3209C10.8399 50.3961 10.9281 50.4546 11.0256 50.4925C11.1231 50.5303 11.2275 50.5466 11.3319 50.5403C11.3863 50.5403 17.9546 51.2854 23.0156 54.0857C24.5392 54.922 26.426 55.3611 28.6196 55.3611C29.793 55.3505 30.9636 55.2469 32.1207 55.0514C33.9117 54.7461 35.6692 54.2684 37.3688 53.6248L53.0422 47.8602C53.5769 47.6691 54.0685 47.3735 54.4886 46.9905C54.9087 46.6075 55.2489 46.1448 55.4895 45.629C55.7302 45.1132 55.8665 44.5547 55.8906 43.9857C55.9147 43.4167 55.8261 42.8486 55.6299 42.3142Z" fill="#F2D0AC"/>
<path d="M1.12384 36.5456C1.11799 36.1886 1.25315 35.8438 1.49981 35.5864C1.74648 35.329 2.08461 35.18 2.4404 35.1719H9.84035C10.1958 35.1805 10.5335 35.3297 10.7798 35.587C11.026 35.8444 11.1609 36.1889 11.1551 36.5456V50.4615C11.1614 50.8185 11.0267 51.1636 10.7804 51.4213C10.5341 51.679 10.1961 51.8285 9.84035 51.8371H2.4404C2.08445 51.8285 1.74632 51.6791 1.4997 51.4214C1.25309 51.1637 1.11799 50.8187 1.12384 50.4615V36.5456Z" fill="#E2E4F1"/>
<path d="M10.3122 52.4384H2.1405C1.7552 52.4384 1.38569 52.2848 1.11325 52.0115C0.840801 51.7381 0.687744 51.3674 0.687744 50.9808V36.2232C0.687744 35.8366 0.840801 35.4659 1.11325 35.1925C1.38569 34.9192 1.7552 34.7656 2.1405 34.7656H10.3122C10.6975 34.7656 11.067 34.9192 11.3395 35.1925C11.6119 35.4659 11.765 35.8366 11.765 36.2232V50.9808C11.765 51.3674 11.6119 51.7381 11.3395 52.0115C11.067 52.2848 10.6975 52.4384 10.3122 52.4384ZM2.1405 36.2232V50.9808H10.3122V36.2232H2.1405Z" fill="#CFD1E2"/>
<path d="M28.1541 27.3848C35.5486 27.3848 41.543 21.4089 41.543 14.041C41.543 6.67307 35.554 0.695312 28.1541 0.695312C20.7541 0.695312 14.767 6.67125 14.767 14.041C14.767 21.4107 20.7596 27.3848 28.1541 27.3848Z" fill="white"/>
<path d="M28.1988 27.8418C20.5356 27.8418 14.3069 21.6327 14.3069 13.9951C14.3069 6.35758 20.5356 0.148438 28.1988 0.148438C35.8621 0.148438 42.0908 6.35758 42.0908 13.9951C42.0908 21.6327 35.8621 27.8418 28.1988 27.8418ZM28.1988 1.60598C21.3346 1.60598 15.7596 7.15377 15.7596 13.9951C15.7596 20.8365 21.3346 26.3934 28.1988 26.3934C35.0631 26.3934 40.638 20.8365 40.638 13.9951C40.638 7.15377 35.0631 1.60598 28.1988 1.60598Z" fill="#F0F0F0"/>
<path fill-rule="evenodd" clip-rule="evenodd" d="M28.1987 6.70703C27.7017 6.70703 27.225 6.90513 26.8736 7.25774C26.5221 7.61035 26.3247 8.0886 26.3247 8.58727V12.0234H22.8998C22.4028 12.0234 21.9261 12.2215 21.5747 12.5741C21.2232 12.9268 21.0258 13.405 21.0258 13.9037C21.0258 14.4023 21.2232 14.8806 21.5747 15.2332C21.9261 15.5858 22.4028 15.7839 22.8998 15.7839H26.3247V19.2201C26.3247 19.7187 26.5221 20.197 26.8736 20.5496C27.225 20.9022 27.7017 21.1003 28.1987 21.1003C28.6957 21.1003 29.1724 20.9022 29.5239 20.5496C29.8753 20.197 30.0728 19.7187 30.0728 19.2201V15.7839H33.4976C33.9947 15.7839 34.4713 15.5858 34.8228 15.2332C35.1742 14.8806 35.3717 14.4023 35.3717 13.9037C35.3717 13.405 35.1742 12.9268 34.8228 12.5741C34.4713 12.2215 33.9947 12.0234 33.4976 12.0234H30.0728V8.58727C30.0728 8.0886 29.8753 7.61035 29.5239 7.25774C29.1724 6.90513 28.6957 6.70703 28.1987 6.70703Z" fill="#FF624E"/>
<path d="M33.4812 10.8192H31.2748V8.60558C31.2748 7.76432 30.9417 6.95751 30.3488 6.36265C29.7559 5.76778 28.9518 5.43359 28.1133 5.43359C27.2748 5.43359 26.4706 5.76778 25.8777 6.36265C25.2848 6.95751 24.9517 7.76432 24.9517 8.60558V10.8192H22.9161C22.0776 10.8192 21.2734 11.1534 20.6805 11.7483C20.0876 12.3431 19.7545 13.1499 19.7545 13.9912C19.7545 14.8325 20.0876 15.6393 20.6805 16.2341C21.2734 16.829 22.0776 17.1632 22.9161 17.1632H24.9517V19.2056C24.9517 20.0468 25.2848 20.8537 25.8777 21.4485C26.4706 22.0434 27.2748 22.3776 28.1133 22.3776C28.9518 22.3776 29.7559 22.0434 30.3488 21.4485C30.9417 20.8537 31.2748 20.0468 31.2748 19.2056V17.1632H33.4812C34.3197 17.1632 35.1238 16.829 35.7168 16.2341C36.3097 15.6393 36.6428 14.8325 36.6428 13.9912C36.6428 13.1499 36.3097 12.3431 35.7168 11.7483C35.1238 11.1534 34.3197 10.8192 33.4812 10.8192ZM33.4812 15.1919H30.287C30.0272 15.1928 29.7783 15.2968 29.5946 15.4811C29.4109 15.6654 29.3073 15.9151 29.3064 16.1757V19.2001C29.2943 19.5116 29.1624 19.8064 28.9385 20.0225C28.7145 20.2386 28.4159 20.3594 28.1051 20.3594C27.7944 20.3594 27.4957 20.2386 27.2717 20.0225C27.0478 19.8064 26.9159 19.5116 26.9039 19.2001V16.1557C26.9029 15.895 26.7993 15.6453 26.6156 15.461C26.4319 15.2767 26.183 15.1728 25.9233 15.1718H22.9088C22.5983 15.1597 22.3045 15.0274 22.0891 14.8027C21.8737 14.578 21.7534 14.2784 21.7534 13.9666C21.7534 13.6548 21.8737 13.3552 22.0891 13.1305C22.3045 12.9058 22.5983 12.7735 22.9088 12.7614H25.9287C26.1885 12.7604 26.4374 12.6565 26.621 12.4722C26.8047 12.2879 26.9084 12.0382 26.9093 11.7776V8.58189C26.903 8.41968 26.9294 8.25786 26.987 8.10614C27.0445 7.95441 27.132 7.8159 27.2442 7.6989C27.3563 7.58191 27.4909 7.48883 27.6397 7.42525C27.7886 7.36168 27.9488 7.32891 28.1106 7.32891C28.2724 7.32891 28.4325 7.36168 28.5814 7.42525C28.7303 7.48883 28.8648 7.58191 28.977 7.6989C29.0891 7.8159 29.1766 7.95441 29.2341 8.10614C29.2917 8.25786 29.3181 8.41968 29.3118 8.58189V11.7776C29.3128 12.0382 29.4164 12.2879 29.6001 12.4722C29.7838 12.6565 30.0326 12.7604 30.2924 12.7614H33.4794C33.7932 12.7736 34.0902 12.9072 34.3079 13.1343C34.5257 13.3614 34.6473 13.6643 34.6473 13.9794C34.6473 14.2945 34.5257 14.5973 34.3079 14.8244C34.0902 15.0515 33.7932 15.1851 33.4794 15.1973L33.4812 15.1919Z" fill="#CF422F"/>
</svg>
