<svg width="276" height="72" viewBox="0 0 276 72" fill="none" xmlns="http://www.w3.org/2000/svg">
<mask id="mask0_2954_7926" style="mask-type:luminance" maskUnits="userSpaceOnUse" x="0" y="0" width="276" height="72">
<path d="M276 0.765625H0V71.0202H276V0.765625Z" fill="white"/>
</mask>
<g mask="url(#mask0_2954_7926)">
<path fill-rule="evenodd" clip-rule="evenodd" d="M17.3154 11.5692C34.1862 2.95736 54.3127 0.464451 71.8494 6.88557C91.902 15.6485 94.7138 29.4728 87.3883 43.2971C83.4666 26.3 55.3486 20.4077 35.814 27.3576C33.1502 28.6418 30.7084 29.1706 29.0805 27.8108C25.3808 22.5984 20.7191 17.3104 16.9454 12.1735C16.7234 12.0225 17.0934 11.7203 17.3154 11.5692Z" fill="#9EDBF4"/>
</g>
<mask id="mask1_2954_7926" style="mask-type:luminance" maskUnits="userSpaceOnUse" x="0" y="0" width="276" height="72">
<path d="M276 0.761719H0V71.0163H276V0.761719Z" fill="white"/>
</mask>
<g mask="url(#mask1_2954_7926)">
<path d="M18.4977 11.0317C35.3685 2.4199 54.3111 0.455792 71.8478 6.95245C91.9004 15.7154 94.7122 29.5397 87.3867 43.364C90.7905 16.2442 51.6473 14.96 32.1127 21.9099C29.2269 22.8164 27.5251 23.043 26.5631 21.8343C22.8634 16.6219 20.6435 14.6578 17.0178 11.8627C16.7218 11.6361 18.2757 11.1073 18.4977 11.0317Z" stroke="white" stroke-width="1.33059" stroke-linecap="round" stroke-linejoin="round"/>
</g>
<mask id="mask2_2954_7926" style="mask-type:luminance" maskUnits="userSpaceOnUse" x="0" y="0" width="276" height="72">
<path d="M276 0.761719H0V71.0163H276V0.761719Z" fill="white"/>
</mask>
<g mask="url(#mask2_2954_7926)">
<path fill-rule="evenodd" clip-rule="evenodd" d="M18.4977 11.0317C35.3685 2.4199 54.3111 0.455792 71.8478 6.95245C91.9004 15.7154 94.7122 29.5397 87.3867 43.364C90.7905 16.2442 51.6473 14.96 32.1127 21.9099C29.2269 22.8164 27.5251 23.043 26.5631 21.8343C22.8634 16.6219 20.6435 14.6578 17.0178 11.8627C16.7218 11.6361 18.2757 11.1073 18.4977 11.0317Z" fill="#005DA9"/>
</g>
<mask id="mask3_2954_7926" style="mask-type:luminance" maskUnits="userSpaceOnUse" x="0" y="0" width="276" height="72">
<path d="M276 0.761719H0V71.0163H276V0.761719Z" fill="white"/>
</mask>
<g mask="url(#mask3_2954_7926)">
<path d="M18.4977 11.0317C35.3685 2.4199 54.3111 0.455792 71.8478 6.95245C91.9004 15.7154 94.7122 29.5397 87.3867 43.364C90.7905 16.2442 51.6473 14.96 32.1127 21.9099C29.2269 22.8164 27.5251 23.043 26.5631 21.8343C22.8634 16.6219 20.6435 14.6578 17.0178 11.8627C16.7218 11.6361 18.2757 11.1073 18.4977 11.0317Z" stroke="white" stroke-width="1.33059" stroke-linecap="round" stroke-linejoin="round"/>
</g>
<path fill-rule="evenodd" clip-rule="evenodd" d="M29.7461 22.6743C30.634 24.9406 31.3 26.527 32.4099 28.5666C37.8855 26.3003 43.7311 25.0917 49.7986 24.6384C49.2067 22.5988 48.6887 20.7857 48.0968 18.7461C41.2153 19.5015 35.4437 20.7857 29.7461 22.6743Z" fill="#009EE0"/>
<mask id="mask4_2954_7926" style="mask-type:luminance" maskUnits="userSpaceOnUse" x="0" y="0" width="276" height="72">
<path d="M276 0.761719H0V71.0163H276V0.761719Z" fill="white"/>
</mask>
<g mask="url(#mask4_2954_7926)">
<path fill-rule="evenodd" clip-rule="evenodd" d="M12.9477 17.5312C7.84206 21.4595 3.62437 26.1431 1.55252 32.7153C-5.03301 51.5254 10.0619 64.8964 34.4801 67.6915C54.3107 69.1268 68.4437 65.3497 83.0206 53.8672C61.4882 61.2704 46.0973 57.8709 36.478 54.5471C26.4147 51.0721 19.3112 44.9532 20.6431 35.0571C20.9391 33.093 23.1589 32.5642 22.493 28.7871C19.8292 24.6322 16.6474 20.8551 12.9477 17.5312Z" fill="#102A83"/>
</g>
<mask id="mask5_2954_7926" style="mask-type:luminance" maskUnits="userSpaceOnUse" x="0" y="0" width="276" height="72">
<path d="M276 0.761719H0V71.0163H276V0.761719Z" fill="white"/>
</mask>
<g mask="url(#mask5_2954_7926)">
<path fill-rule="evenodd" clip-rule="evenodd" d="M13.8359 20.4023C14.7238 21.2333 15.0198 21.611 15.9817 22.6686C3.62459 31.356 4.21655 44.4249 3.99457 47.0689C-0.519105 38.457 6.14041 27.2767 13.8359 20.4023Z" fill="#009EE0"/>
</g>
<path fill-rule="evenodd" clip-rule="evenodd" d="M69.2658 1.74609C68.9698 1.82164 68.6738 1.89718 68.3779 1.97272C68.0819 1.97272 67.7859 2.04826 67.4159 2.04826H32.7864C32.4165 2.04826 32.1205 2.04826 31.8245 1.97272C31.5285 1.89718 31.2325 1.82164 30.9366 1.74609L28.0508 14.0595C29.1607 12.9264 30.4186 12.0954 31.7505 11.4911C33.1564 10.8867 34.7843 10.5846 36.5602 10.5846H41.5178V46.3917C41.5178 47.4493 41.4438 48.4314 41.2958 49.4134C41.1478 50.3955 40.8519 51.302 40.4079 52.2085C39.9639 53.115 39.298 53.8704 38.41 54.5503H58.5366C57.6486 53.8704 56.9827 53.0395 56.5387 52.2085C56.0947 51.3775 55.7988 50.3955 55.6508 49.4134C55.5028 48.4314 55.4288 47.4493 55.4288 46.3917V10.5846H60.3864C61.1264 10.5846 61.8663 10.5846 62.7543 10.7357C63.5682 10.8112 64.3821 11.1134 65.0481 11.5666C65.788 11.9443 66.306 12.6242 66.676 13.5307L69.2658 1.74609Z" fill="#E30016"/>
<mask id="mask6_2954_7926" style="mask-type:luminance" maskUnits="userSpaceOnUse" x="0" y="0" width="276" height="72">
<path d="M276 0.765625H0V71.0202H276V0.765625Z" fill="white"/>
</mask>
<g mask="url(#mask6_2954_7926)">
<path d="M69.2463 1.75C68.9503 1.82554 68.6543 1.90109 68.3583 1.97663C68.0623 1.97663 67.7664 2.05217 67.3964 2.05217H32.7669C32.3969 2.05217 32.101 2.05217 31.805 1.97663C31.509 1.90109 31.213 1.82554 30.917 1.75L28.0312 14.0634C29.1412 12.9303 30.3991 12.0993 31.731 11.495C33.1369 10.8906 34.7648 10.5885 36.5406 10.5885H41.4983V46.3956C41.4983 47.4532 41.4243 48.4353 41.2763 49.4173C41.1283 50.3994 40.8323 51.3059 40.3884 52.2124C39.9444 53.1189 39.2784 53.8743 38.3905 54.5542H58.517C57.6291 53.8743 56.9632 53.0434 56.5192 52.2124C56.0752 51.3814 55.7792 50.3994 55.6312 49.4173C55.4833 48.4353 55.4093 47.4532 55.4093 46.3956V10.5885H60.3669C61.1068 10.5885 61.8468 10.5885 62.7347 10.7396C63.5487 10.8151 64.3626 11.1173 65.0286 11.5705C65.7685 11.9482 66.2865 12.6281 66.6564 13.5346L69.2463 1.75Z" stroke="white" stroke-width="1.64299" stroke-linecap="round" stroke-linejoin="round"/>
</g>
<path d="M167.82 1.59382C168.634 2.2737 169.3 3.02912 169.744 3.86009C170.188 4.69106 170.484 5.59757 170.632 6.57962C170.78 7.56167 170.854 8.54373 170.854 9.52578V44.5775C170.854 45.5596 170.78 46.5416 170.632 47.5237C170.484 48.5057 170.188 49.4122 169.744 50.2432C169.3 51.0742 168.708 51.8296 167.82 52.5095H187.355C186.541 51.8296 185.875 51.0742 185.431 50.2432C184.987 49.4122 184.691 48.5057 184.543 47.5237C184.395 46.5416 184.321 45.5596 184.321 44.5775V9.90349H194.606C195.568 9.90349 196.53 9.97904 197.344 10.1301C198.158 10.2812 198.972 10.5834 199.638 11.1122C200.304 11.5654 200.97 12.3209 201.488 13.3029L200.748 1.36719C200.526 1.44273 200.23 1.51827 199.934 1.59382C199.638 1.66936 199.268 1.66936 198.898 1.66936H167.82V1.59382Z" fill="#E30016"/>
<mask id="mask7_2954_7926" style="mask-type:luminance" maskUnits="userSpaceOnUse" x="0" y="0" width="276" height="72">
<path d="M276 0.765625H0V71.0202H276V0.765625Z" fill="white"/>
</mask>
<g mask="url(#mask7_2954_7926)">
<path d="M167.82 1.59382C168.634 2.2737 169.3 3.02912 169.744 3.86009C170.188 4.69106 170.484 5.59757 170.632 6.57962C170.78 7.56167 170.854 8.54373 170.854 9.52578V44.5775C170.854 45.5596 170.78 46.5416 170.632 47.5237C170.484 48.5057 170.188 49.4122 169.744 50.2432C169.3 51.0742 168.708 51.8296 167.82 52.5095H187.355C186.541 51.8296 185.875 51.0742 185.431 50.2432C184.987 49.4122 184.691 48.5057 184.543 47.5237C184.395 46.5416 184.321 45.5596 184.321 44.5775V9.90349H194.606C195.568 9.90349 196.53 9.97904 197.344 10.1301C198.158 10.2812 198.972 10.5834 199.638 11.1122C200.304 11.5654 200.97 12.3209 201.488 13.3029L200.748 1.36719C200.526 1.44273 200.23 1.51827 199.934 1.59382C199.638 1.66936 199.268 1.66936 198.898 1.66936H167.82V1.59382Z" stroke="white" stroke-width="1.64299" stroke-linecap="round" stroke-linejoin="round"/>
</g>
<path d="M204.351 21.1592C205.555 21.2245 206.592 21.3447 207.548 21.6475L207.954 21.7891C208.93 22.1626 209.777 22.6372 210.462 23.2031L210.745 23.4512C211.395 24.0548 211.936 24.758 212.328 25.5605L212.487 25.9102C212.889 26.8677 213.094 27.9009 213.094 29.0938C213.094 30.4068 212.826 31.5143 212.415 32.5703C211.942 33.6003 211.338 34.4287 210.586 35.1992C209.854 35.8828 209.087 36.4419 208.236 36.8447L207.864 37.0088C206.799 37.4438 205.608 37.7994 204.434 37.9404L204.412 37.9424L204.39 37.9463C203.912 38.0324 203.419 38.0828 202.91 38.1035C203.494 37.6158 204.002 37.0696 204.412 36.4609L204.573 36.21C205.402 34.8566 205.794 33.2016 205.794 31.3604C205.794 30.2425 205.724 29.1564 205.39 28.2676C205.135 27.3299 204.706 26.618 204.174 26.0742H204.173C203.705 25.532 203.179 25.1949 202.677 24.9541L202.457 24.8535C201.812 24.5714 201.108 24.4883 200.528 24.4883H199.331V38.5283L197.935 39.2412L199.331 39.3906V47.375C199.331 47.7041 199.352 48.0312 199.381 48.3506L199.484 49.2793C199.567 49.952 199.736 50.5743 200.083 51.2002C200.134 51.3151 200.194 51.4253 200.258 51.5322H191.375C191.441 51.4297 191.505 51.3255 191.565 51.2178L191.586 51.1807L191.603 51.1416C191.792 50.6898 192.02 50.1569 192.133 49.5459L192.174 49.2793C192.247 48.6829 192.327 48.0329 192.327 47.375V25.4678C192.327 25.1387 192.307 24.8115 192.277 24.4922L192.174 23.5635L192.172 23.5498L192.138 23.3281C192.048 22.8026 191.882 22.1999 191.574 21.6436C191.498 21.4734 191.408 21.3122 191.305 21.1592H204.351Z" fill="#E30016" stroke="white" stroke-width="1.50545"/>
<path d="M230.776 21.3867L239.849 47.1729L239.856 47.1963L239.866 47.2197C240.374 48.4053 240.841 49.519 241.315 50.3262L241.329 50.3486L241.344 50.3701C241.588 50.7271 241.829 51.0944 242.049 51.3975C242.139 51.5211 242.233 51.6426 242.331 51.7607H232.078C232.148 51.6535 232.214 51.5424 232.272 51.4248C232.702 50.705 232.876 49.977 232.876 49.1895C232.876 49.0597 232.879 48.7756 232.797 48.4639C232.783 48.2376 232.733 48.0017 232.68 47.8057L232.617 47.5957C232.599 47.5386 232.59 47.4879 232.565 47.3633C232.556 47.3145 232.54 47.2322 232.513 47.1494C232.5 47.11 232.476 47.0462 232.436 46.9727L230.91 42.5957L230.734 42.0908H220.265L220.09 42.5996L218.547 47.1016C218.419 47.4277 218.34 47.7064 218.275 47.9951L218.214 48.2891C218.141 48.6635 218.052 49.1074 218.052 49.6426C218.052 49.7927 218.05 50.1774 218.147 50.5771C218.242 50.962 218.418 51.3177 218.63 51.6846H212.494C212.525 51.645 212.558 51.6066 212.588 51.5674L212.909 51.1318C213.297 50.5778 213.689 49.9398 214.005 49.2939C214.236 48.8228 214.465 48.3074 214.695 47.7168L214.926 47.0996L214.93 47.0889L222.107 25.8613L222.123 25.8135L222.133 25.7646C222.162 25.6159 222.206 25.4605 222.264 25.2656C222.317 25.083 222.384 24.8606 222.429 24.6318C222.505 24.2412 222.591 23.7298 222.591 23.2021C222.591 22.57 222.377 22.0633 222.144 21.5869L222.124 21.5459L222.099 21.5068L222.015 21.3867H230.776ZM224.678 28.3213L221.349 37.9902L221.005 38.9883H229.611L229.286 38L226.104 28.3311L225.406 26.207L224.678 28.3213Z" fill="#E30016" stroke="white" stroke-width="1.50545"/>
<path d="M249.136 20.556C249.876 20.9337 250.394 21.387 250.764 21.9913C251.134 22.5201 251.43 23.1245 251.652 23.7288C251.8 24.3331 251.948 25.013 251.948 25.6929C252.022 26.3728 252.022 26.9771 252.022 27.657C252.022 29.3189 251.948 30.9809 251.874 32.6428C251.726 34.3048 251.578 35.9667 251.208 37.6286C250.912 39.2906 250.468 40.9525 249.876 42.69C249.284 44.4275 248.544 46.1649 247.656 47.978H243.809V59.7626L247.804 60.8202C247.804 60.0648 247.804 59.3093 247.878 58.5539C247.952 57.7985 248.1 57.0431 248.248 56.2876C248.47 55.5322 248.766 54.9279 249.136 54.3235C249.506 53.7192 250.024 53.2659 250.69 52.9638C251.282 52.6616 252.096 52.435 252.984 52.435H265.933C266.377 52.435 266.821 52.5105 267.339 52.5861C267.857 52.6616 268.301 52.8882 268.745 53.1904C269.189 53.4926 269.633 53.9458 270.003 54.5502C270.373 55.1545 270.669 55.9855 270.817 56.9675C271.039 57.9496 271.113 59.2338 271.113 60.6691L275.108 59.6115V47.7513H270.817V25.3907C270.817 24.7864 270.891 24.1821 270.965 23.5777C271.039 22.9734 271.261 22.4446 271.483 21.9158C271.779 21.387 272.149 20.9337 272.667 20.4805H249.136V20.556ZM262.455 25.1641V47.9024H253.502C254.02 46.6182 254.464 45.334 254.834 43.8231C255.278 42.3878 255.574 40.7259 255.87 38.9128C256.166 37.0998 256.388 35.0602 256.536 32.7939C256.684 30.5276 256.758 27.9592 256.758 25.0886H262.455V25.1641Z" fill="#E30016"/>
<mask id="mask8_2954_7926" style="mask-type:luminance" maskUnits="userSpaceOnUse" x="0" y="0" width="276" height="72">
<path d="M276 0.765625H0V71.0202H276V0.765625Z" fill="white"/>
</mask>
<g mask="url(#mask8_2954_7926)">
<path d="M249.136 20.5599C249.876 20.9376 250.394 21.3909 250.764 21.9952C251.134 22.524 251.43 23.1284 251.652 23.7327C251.8 24.337 251.948 25.0169 251.948 25.6968C252.022 26.3767 252.022 26.981 252.022 27.6609C252.022 29.3229 251.948 30.9848 251.874 32.6467C251.726 34.3087 251.578 35.9706 251.208 37.6325C250.912 39.2945 250.468 40.9564 249.876 42.6939C249.284 44.4314 248.544 46.1688 247.656 47.9819H243.809V59.7665L247.804 60.8241C247.804 60.0687 247.804 59.3132 247.878 58.5578C247.952 57.8024 248.1 57.047 248.248 56.2915C248.47 55.5361 248.766 54.9318 249.136 54.3274C249.506 53.7231 250.024 53.2698 250.69 52.9677C251.282 52.6655 252.096 52.4389 252.984 52.4389H265.933C266.377 52.4389 266.821 52.5144 267.339 52.59C267.857 52.6655 268.301 52.8921 268.745 53.1943C269.189 53.4965 269.633 53.9497 270.003 54.5541C270.373 55.1584 270.669 55.9894 270.817 56.9714C271.039 57.9535 271.113 59.2377 271.113 60.673L275.108 59.6154V47.7552H270.817V25.3946C270.817 24.7903 270.891 24.186 270.965 23.5816C271.039 22.9773 271.261 22.4485 271.483 21.9197C271.779 21.3909 272.149 20.9376 272.666 20.4844H249.136V20.5599ZM262.455 25.168V47.9063H253.502C254.02 46.6221 254.464 45.3379 254.834 43.827C255.278 42.3917 255.574 40.7298 255.87 38.9168C256.166 37.1037 256.388 35.0641 256.536 32.7978C256.684 30.5315 256.758 27.9631 256.758 25.0925H262.455V25.168Z" stroke="white" stroke-width="1.64299" stroke-linecap="round" stroke-linejoin="round"/>
</g>
<path fill-rule="evenodd" clip-rule="evenodd" d="M59.7871 37.9321C59.7871 39.5184 60.0091 41.1048 60.4531 42.6912C60.897 44.2776 61.489 45.7885 62.3769 47.1482C63.2649 48.5835 64.3748 49.7922 65.7067 50.8498C67.0386 51.9074 68.6665 52.8139 70.4423 53.4183C72.2922 54.0226 74.364 54.3248 76.7319 54.4003C78.9517 54.4003 80.9496 54.0982 82.7994 53.4938C84.6493 52.8895 86.2772 52.134 87.6831 51.0765C89.089 50.0189 90.2729 48.8102 91.3088 47.3749C92.2708 45.9396 93.0107 44.4287 93.5287 42.6912C94.0466 41.0293 94.2686 39.2163 94.2686 37.3277C94.2686 34.9104 93.8986 32.7196 93.0847 30.68C92.3447 28.6403 91.1608 26.9028 89.7549 25.392C88.275 23.8811 86.4992 22.748 84.4273 21.917C82.3555 21.0861 79.9876 20.7084 77.3238 20.6328C75.03 20.6328 72.9582 20.935 71.1083 21.6149C69.2584 22.2192 67.6305 23.1257 66.2246 24.1833C64.8187 25.3164 63.6348 26.6007 62.6729 28.036C61.711 29.4713 61.045 31.0577 60.5271 32.7196C60.0091 34.4571 59.7871 36.119 59.7871 37.9321ZM68.6665 36.6478C68.6665 34.6837 68.8884 32.9462 69.4064 31.5865C69.8504 30.2267 70.5163 29.0936 71.3303 28.1871C72.1442 27.3561 73.0321 26.6762 73.9941 26.2985C74.956 25.9208 75.9919 25.6942 76.9539 25.6942C78.0638 25.6942 79.0997 25.9208 79.9876 26.4496C80.8756 26.9028 81.6895 27.5827 82.3555 28.4892C83.0214 29.3202 83.6134 30.3778 84.0573 31.4354C84.5013 32.5685 84.7973 33.7772 85.0193 35.0614C85.2413 36.3457 85.3153 37.6299 85.3153 38.9896C85.3153 40.6516 85.1673 42.0113 84.7973 43.22C84.5013 44.4287 84.0574 45.4108 83.4654 46.1662C82.9474 46.9972 82.2815 47.6015 81.6155 48.0547C80.9496 48.508 80.2096 48.8857 79.5437 49.0368C78.8037 49.2634 78.1378 49.339 77.4718 49.339C76.5839 49.339 75.7699 49.1879 74.882 48.8857C74.0681 48.5835 73.2541 48.0548 72.5142 47.4504C71.7742 46.7705 71.1083 45.9396 70.5163 44.9575C69.9244 43.9755 69.4804 42.7668 69.1844 41.3315C68.8884 39.9717 68.7405 38.3853 68.6665 36.6478Z" fill="#E30016"/>
<path d="M59.7871 37.9321C59.7871 39.5184 60.0091 41.1048 60.4531 42.6912C60.897 44.2776 61.489 45.7885 62.3769 47.1482C63.2649 48.5835 64.3748 49.7922 65.7067 50.8498C67.0386 51.9074 68.6665 52.8139 70.4423 53.4183C72.2922 54.0226 74.364 54.3248 76.7319 54.4003C78.9517 54.4003 80.9496 54.0982 82.7994 53.4938C84.6493 52.8895 86.2772 52.134 87.6831 51.0765C89.089 50.0189 90.2729 48.8102 91.3088 47.3749C92.2708 45.9396 93.0107 44.4287 93.5287 42.6912C94.0466 41.0293 94.2686 39.2163 94.2686 37.3277C94.2686 34.9104 93.8986 32.7196 93.0847 30.68C92.3447 28.6403 91.1608 26.9028 89.7549 25.392C88.275 23.8811 86.4992 22.748 84.4273 21.917C82.3555 21.0861 79.9876 20.7084 77.3238 20.6328C75.03 20.6328 72.9582 20.935 71.1083 21.6149C69.2584 22.2192 67.6305 23.1257 66.2246 24.1833C64.8187 25.3164 63.6348 26.6007 62.6729 28.036C61.711 29.4713 61.045 31.0577 60.5271 32.7196C60.0091 34.4571 59.7871 36.119 59.7871 37.9321ZM68.6665 36.6478C68.6665 34.6837 68.8884 32.9462 69.4064 31.5865C69.8504 30.2267 70.5163 29.0936 71.3303 28.1871C72.1442 27.3561 73.0321 26.6762 73.9941 26.2985C74.956 25.9208 75.9919 25.6942 76.9539 25.6942C78.0638 25.6942 79.0997 25.9208 79.9876 26.4496C80.8756 26.9028 81.6895 27.5827 82.3555 28.4892C83.0214 29.3202 83.6134 30.3778 84.0573 31.4354C84.5013 32.5685 84.7973 33.7772 85.0193 35.0614C85.2413 36.3457 85.3153 37.6299 85.3153 38.9896C85.3153 40.6516 85.1673 42.0113 84.7973 43.22C84.5013 44.4287 84.0574 45.4108 83.4654 46.1662C82.9474 46.9972 82.2815 47.6015 81.6155 48.0547C80.9496 48.508 80.2096 48.8857 79.5437 49.0368C78.8037 49.2634 78.1378 49.339 77.4718 49.339C76.5839 49.339 75.7699 49.1879 74.882 48.8857C74.0681 48.5835 73.2541 48.0547 72.5142 47.4504C71.7742 46.7705 71.1083 45.9396 70.5163 44.9575C69.9244 43.9755 69.4804 42.7668 69.1844 41.3315C68.8884 39.9717 68.7405 38.3853 68.6665 36.6478Z" stroke="white" stroke-width="1.64299" stroke-linecap="round" stroke-linejoin="round"/>
<path fill-rule="evenodd" clip-rule="evenodd" d="M132.525 37.9321C132.525 39.5184 132.747 41.1048 133.191 42.6912C133.635 44.2776 134.227 45.7885 135.115 47.1482C136.003 48.5835 137.113 49.7922 138.445 50.8498C139.777 51.9074 141.405 52.8139 143.181 53.4183C145.03 54.0226 147.102 54.3248 149.47 54.4003C151.69 54.4003 153.688 54.0982 155.538 53.4938C157.388 52.8895 159.015 52.134 160.421 51.0765C161.827 50.0189 163.011 48.8102 164.047 47.3749C165.009 45.9396 165.749 44.4287 166.267 42.6912C166.785 41.0293 167.007 39.2163 167.007 37.3277C167.007 34.9104 166.637 32.7196 165.823 30.68C165.083 28.6403 163.899 26.9028 162.493 25.392C161.013 23.8811 159.237 22.748 157.166 21.917C155.094 21.0861 152.726 20.7084 150.062 20.6328C147.768 20.6328 145.696 20.935 143.847 21.6149C141.997 22.2192 140.369 23.1257 138.963 24.1833C137.557 25.3164 136.373 26.6007 135.411 28.036C134.449 29.4713 133.783 31.0577 133.265 32.7196C132.821 34.4571 132.525 36.119 132.525 37.9321ZM141.479 36.6478C141.479 34.6837 141.701 32.9462 142.219 31.5865C142.663 30.2267 143.329 29.0936 144.143 28.1871C144.956 27.3561 145.844 26.6762 146.806 26.2985C147.768 25.9208 148.804 25.6942 149.766 25.6942C150.876 25.6942 151.912 25.9208 152.8 26.4496C153.688 26.9028 154.502 27.5827 155.168 28.4892C155.834 29.3202 156.426 30.3778 156.87 31.4354C157.314 32.5685 157.61 33.7772 157.832 35.0614C158.054 36.3457 158.128 37.6299 158.128 38.9896C158.128 40.6516 157.98 42.0113 157.61 43.22C157.314 44.4287 156.87 45.4108 156.278 46.1662C155.76 46.9972 155.094 47.6015 154.428 48.0547C153.762 48.508 153.022 48.8857 152.356 49.0368C151.616 49.2634 150.95 49.339 150.284 49.339C149.396 49.339 148.582 49.1879 147.694 48.8857C146.88 48.5835 146.066 48.0548 145.326 47.4504C144.587 46.7705 143.921 45.9396 143.329 44.9575C142.737 43.9755 142.293 42.7668 141.997 41.3315C141.627 39.9717 141.479 38.3853 141.479 36.6478Z" fill="#E30016"/>
<path d="M132.525 37.9321C132.525 39.5184 132.747 41.1048 133.191 42.6912C133.635 44.2776 134.227 45.7885 135.115 47.1482C136.003 48.5835 137.113 49.7922 138.445 50.8498C139.777 51.9074 141.405 52.8139 143.181 53.4183C145.03 54.0226 147.102 54.3248 149.47 54.4003C151.69 54.4003 153.688 54.0982 155.538 53.4938C157.388 52.8895 159.015 52.134 160.421 51.0765C161.827 50.0189 163.011 48.8102 164.047 47.3749C165.009 45.9396 165.749 44.4287 166.267 42.6912C166.785 41.0293 167.007 39.2163 167.007 37.3277C167.007 34.9104 166.637 32.7196 165.823 30.68C165.083 28.6403 163.899 26.9028 162.493 25.392C161.013 23.8811 159.237 22.748 157.166 21.917C155.094 21.0861 152.726 20.7084 150.062 20.6328C147.768 20.6328 145.696 20.935 143.847 21.6149C141.997 22.2192 140.369 23.1257 138.963 24.1833C137.557 25.3164 136.373 26.6007 135.411 28.036C134.449 29.4713 133.783 31.0577 133.265 32.7196C132.821 34.4571 132.525 36.119 132.525 37.9321ZM141.479 36.6478C141.479 34.6837 141.701 32.9462 142.219 31.5865C142.663 30.2267 143.329 29.0936 144.143 28.1871C144.956 27.3561 145.844 26.6762 146.806 26.2985C147.768 25.9208 148.804 25.6942 149.766 25.6942C150.876 25.6942 151.912 25.9208 152.8 26.4496C153.688 26.9028 154.502 27.5827 155.168 28.4892C155.834 29.3202 156.426 30.3778 156.87 31.4354C157.314 32.5685 157.61 33.7772 157.832 35.0614C158.054 36.3457 158.128 37.6299 158.128 38.9896C158.128 40.6516 157.98 42.0113 157.61 43.22C157.314 44.4287 156.87 45.4108 156.278 46.1662C155.76 46.9972 155.094 47.6015 154.428 48.0547C153.762 48.508 153.022 48.8857 152.356 49.0368C151.616 49.2634 150.95 49.339 150.284 49.339C149.396 49.339 148.582 49.1879 147.694 48.8857C146.88 48.5835 146.066 48.0547 145.326 47.4504C144.587 46.7705 143.921 45.9396 143.329 44.9575C142.737 43.9755 142.293 42.7668 141.997 41.3315C141.627 39.9717 141.479 38.3853 141.479 36.6478Z" stroke="white" stroke-width="1.64299" stroke-linecap="round" stroke-linejoin="round"/>
<path fill-rule="evenodd" clip-rule="evenodd" d="M95.825 21.6094C96.417 22.1382 96.7869 22.667 97.0829 23.1958C97.3789 23.7246 97.5269 24.3289 97.6009 24.8577C97.6749 25.3865 97.6749 25.8398 97.6749 26.293C97.6749 26.7463 97.6009 27.124 97.6009 27.4261L95.0111 48.0493C94.8631 49.1069 94.7151 49.9378 94.4931 50.6177C94.2711 51.2976 94.0491 51.9019 93.7532 52.3552C93.4572 52.8084 93.1612 53.1862 92.8652 53.4883H101.819C101.153 53.0351 100.709 52.5818 100.413 52.053C100.117 51.5242 99.9687 50.9199 99.8947 50.24C99.8207 49.5601 99.8947 48.8047 99.9687 47.8982L101.597 32.6386L107.146 47.8982C107.368 48.5025 107.59 48.9558 107.738 49.3335C107.96 49.7112 108.108 50.0134 108.33 50.3155C108.478 50.5422 108.7 50.7688 108.922 50.9954C109.144 51.1465 109.366 51.3731 109.588 51.5242C109.958 51.8264 110.328 52.053 110.698 52.3552C111.142 52.5818 111.586 52.884 112.178 53.1862C112.77 53.4883 113.436 53.7905 114.324 54.0927L120.835 32.563L122.241 47.3694C122.241 47.6715 122.315 47.9737 122.315 48.2759C122.315 48.5781 122.389 48.8047 122.389 49.1069V50.0134C122.389 50.5422 122.315 51.1465 122.093 51.6753C121.871 52.2796 121.501 52.884 120.909 53.4883H133.192C132.674 52.8084 132.23 52.2041 131.934 51.5242C131.638 50.9199 131.416 50.1644 131.268 49.409C131.12 48.6536 130.972 47.7471 130.898 46.765L128.827 26.1419C128.753 25.462 128.753 24.7822 128.827 24.2534C128.901 23.649 129.049 23.1958 129.345 22.7425C129.641 22.2893 130.085 21.9115 130.603 21.6094H119.133L113.436 40.495L106.554 21.6094H95.825Z" fill="#E30016"/>
<path d="M95.825 21.6094C96.417 22.1382 96.7869 22.667 97.0829 23.1958C97.3789 23.7246 97.5269 24.3289 97.6009 24.8577C97.6749 25.3865 97.6749 25.8398 97.6749 26.293C97.6749 26.7463 97.6009 27.124 97.6009 27.4261L95.0111 48.0493C94.8631 49.1069 94.7151 49.9378 94.4931 50.6177C94.2711 51.2976 94.0491 51.9019 93.7532 52.3552C93.4572 52.8084 93.1612 53.1862 92.8652 53.4883H101.819C101.153 53.0351 100.709 52.5818 100.413 52.053C100.117 51.5242 99.9687 50.9199 99.8947 50.24C99.8207 49.5601 99.8947 48.8047 99.9687 47.8982L101.597 32.6386L107.146 47.8982C107.368 48.5025 107.59 48.9558 107.738 49.3335C107.96 49.7112 108.108 50.0134 108.33 50.3155C108.478 50.5422 108.7 50.7688 108.922 50.9954C109.144 51.1465 109.366 51.3731 109.588 51.5242C109.958 51.8264 110.328 52.053 110.698 52.3552C111.142 52.5818 111.586 52.884 112.178 53.1862C112.77 53.4883 113.436 53.7905 114.324 54.0927L120.835 32.563L122.241 47.3694C122.241 47.6715 122.315 47.9737 122.315 48.2759C122.315 48.5781 122.389 48.8047 122.389 49.1069V50.0134C122.389 50.5422 122.315 51.1465 122.093 51.6753C121.871 52.2796 121.501 52.884 120.909 53.4883H133.192C132.674 52.8084 132.23 52.2041 131.934 51.5242C131.638 50.9199 131.416 50.1645 131.268 49.409C131.12 48.6536 130.972 47.7471 130.898 46.765L128.827 26.1419C128.753 25.462 128.753 24.7822 128.827 24.2534C128.901 23.649 129.049 23.1958 129.345 22.7425C129.641 22.2893 130.085 21.9115 130.603 21.6094H119.133L113.436 40.495L106.554 21.6094H95.825Z" stroke="white" stroke-width="1.64299" stroke-linecap="round" stroke-linejoin="round"/>
</svg>
