<svg width="39" height="28" viewBox="0 0 39 28" fill="none" xmlns="http://www.w3.org/2000/svg">
<mask id="mask0_5587_327764" style="mask-type:luminance" maskUnits="userSpaceOnUse" x="0" y="0" width="112" height="28">
<path d="M111.333 0H0.5V28H111.333V0Z" fill="white"/>
</mask>
<g mask="url(#mask0_5587_327764)">
<path fill-rule="evenodd" clip-rule="evenodd" d="M7.45731 4.30628C14.2321 0.874025 22.3143 -0.119523 29.3565 2.43962C37.4091 5.93209 38.5382 11.4418 35.5965 16.9514C34.0217 10.1773 22.7303 7.82886 14.8858 10.5988C13.8161 11.1106 12.8355 11.3213 12.1818 10.7794C10.6961 8.70198 8.82415 6.59446 7.30874 4.54714C7.21959 4.48693 7.36816 4.3665 7.45731 4.30628Z" fill="#9EDBF4"/>
</g>
<mask id="mask1_5587_327764" style="mask-type:luminance" maskUnits="userSpaceOnUse" x="0" y="0" width="112" height="28">
<path d="M111.333 0H0.5V28H111.333V0Z" fill="white"/>
</mask>
<g mask="url(#mask1_5587_327764)">
<path d="M7.92959 4.09417C14.7044 0.661916 22.3112 -0.12088 29.3534 2.46837C37.4059 5.96084 38.535 11.4705 35.5934 16.9802C36.9602 6.17159 21.2415 5.65977 13.397 8.42966C12.2381 8.79095 11.5547 8.88127 11.1684 8.39955C9.68272 6.32213 8.7913 5.53934 7.33531 4.42536C7.21645 4.33503 7.84045 4.12428 7.92959 4.09417Z" stroke="white" stroke-width="0.530306" stroke-linecap="round" stroke-linejoin="round"/>
</g>
<mask id="mask2_5587_327764" style="mask-type:luminance" maskUnits="userSpaceOnUse" x="0" y="0" width="112" height="28">
<path d="M111.333 0H0.5V28H111.333V0Z" fill="white"/>
</mask>
<g mask="url(#mask2_5587_327764)">
<path fill-rule="evenodd" clip-rule="evenodd" d="M7.92959 4.09417C14.7044 0.661916 22.3112 -0.12088 29.3534 2.46837C37.4059 5.96084 38.535 11.4705 35.5934 16.9802C36.9602 6.17159 21.2415 5.65977 13.397 8.42966C12.2381 8.79095 11.5547 8.88127 11.1684 8.39955C9.68272 6.32213 8.7913 5.53934 7.33531 4.42536C7.21645 4.33503 7.84045 4.12428 7.92959 4.09417Z" fill="#005DA9"/>
</g>
<mask id="mask3_5587_327764" style="mask-type:luminance" maskUnits="userSpaceOnUse" x="0" y="0" width="112" height="28">
<path d="M111.333 0H0.5V28H111.333V0Z" fill="white"/>
</mask>
<g mask="url(#mask3_5587_327764)">
<path d="M7.92959 4.09417C14.7044 0.661916 22.3112 -0.12088 29.3534 2.46837C37.4059 5.96084 38.535 11.4705 35.5934 16.9802C36.9602 6.17159 21.2415 5.65977 13.397 8.42966C12.2381 8.79095 11.5547 8.88127 11.1684 8.39955C9.68272 6.32213 8.7913 5.53934 7.33531 4.42536C7.21645 4.33503 7.84045 4.12428 7.92959 4.09417Z" stroke="white" stroke-width="0.530306" stroke-linecap="round" stroke-linejoin="round"/>
</g>
<path fill-rule="evenodd" clip-rule="evenodd" d="M12.4453 8.72965C12.8019 9.63288 13.0693 10.2651 13.515 11.078C15.7139 10.1748 18.0613 9.69309 20.4978 9.51245C20.2601 8.69955 20.0521 7.97697 19.8144 7.16406C17.051 7.46514 14.7333 7.97697 12.4453 8.72965Z" fill="#009EE0"/>
<mask id="mask4_5587_327764" style="mask-type:luminance" maskUnits="userSpaceOnUse" x="0" y="0" width="112" height="28">
<path d="M111.333 0H0.5V28H111.333V0Z" fill="white"/>
</mask>
<g mask="url(#mask4_5587_327764)">
<path fill-rule="evenodd" clip-rule="evenodd" d="M5.69705 6.68359C3.64678 8.24918 1.95308 10.1159 1.12109 12.7352C-1.52346 20.232 4.5382 25.561 14.3438 26.675C22.3072 27.247 27.9826 25.7417 33.8362 21.1653C25.1895 24.1159 19.0089 22.761 15.1461 21.4363C11.105 20.0513 8.25246 17.6126 8.78731 13.6685C8.90617 12.8857 9.79759 12.675 9.53016 11.1696C8.46046 9.5137 7.18275 8.00832 5.69705 6.68359Z" fill="#102A83"/>
</g>
<mask id="mask5_5587_327764" style="mask-type:luminance" maskUnits="userSpaceOnUse" x="0" y="0" width="112" height="28">
<path d="M111.333 0H0.5V28H111.333V0Z" fill="white"/>
</mask>
<g mask="url(#mask5_5587_327764)">
<path fill-rule="evenodd" clip-rule="evenodd" d="M6.056 7.82812C6.41257 8.15931 6.53142 8.30985 6.91771 8.73135C1.95546 12.1937 2.19318 17.4023 2.10403 18.4561C0.291478 15.0238 2.96574 10.5679 6.056 7.82812Z" fill="#009EE0"/>
</g>
<path fill-rule="evenodd" clip-rule="evenodd" d="M28.3163 0.390625C28.1975 0.420733 28.0786 0.45084 27.9598 0.480948C27.8409 0.480948 27.7221 0.511055 27.5735 0.511055H13.6673C13.5188 0.511055 13.3999 0.511055 13.281 0.480948C13.1622 0.45084 13.0433 0.420733 12.9245 0.390625L11.7656 5.29815C12.2113 4.84654 12.7165 4.51536 13.2513 4.2745C13.8159 4.03364 14.4696 3.91321 15.1827 3.91321H17.1736V18.1842C17.1736 18.6057 17.1439 18.9971 17.0844 19.3885C17.025 19.7799 16.9062 20.1412 16.7279 20.5025C16.5496 20.8637 16.2822 21.1648 15.9256 21.4358H24.0078C23.6512 21.1648 23.3838 20.8336 23.2055 20.5025C23.0272 20.1713 22.9084 19.7799 22.849 19.3885C22.7895 18.9971 22.7598 18.6057 22.7598 18.1842V3.91321H24.7507C25.0478 3.91321 25.3449 3.91321 25.7015 3.97342C26.0284 4.00353 26.3552 4.12396 26.6226 4.3046C26.9198 4.45514 27.1278 4.72611 27.2763 5.0874L28.3163 0.390625Z" fill="#E30016"/>
<mask id="mask6_5587_327764" style="mask-type:luminance" maskUnits="userSpaceOnUse" x="0" y="0" width="112" height="28">
<path d="M111.333 0H0.5V28H111.333V0Z" fill="white"/>
</mask>
<g mask="url(#mask6_5587_327764)">
<path d="M28.3085 0.390625C28.1897 0.420733 28.0708 0.45084 27.952 0.480948C27.8331 0.480948 27.7142 0.511055 27.5657 0.511055H13.6595C13.5109 0.511055 13.3921 0.511055 13.2732 0.480948C13.1544 0.45084 13.0355 0.420733 12.9167 0.390625L11.7578 5.29815C12.2035 4.84654 12.7087 4.51536 13.2435 4.2745C13.8081 4.03364 14.4618 3.91321 15.1749 3.91321H17.1658V18.1842C17.1658 18.6057 17.1361 18.9971 17.0766 19.3885C17.0172 19.7799 16.8983 20.1412 16.7201 20.5025C16.5418 20.8637 16.2743 21.1648 15.9178 21.4358H24C23.6434 21.1648 23.376 20.8336 23.1977 20.5025C23.0194 20.1713 22.9006 19.7799 22.8411 19.3885C22.7817 18.9971 22.752 18.6057 22.752 18.1842V3.91321H24.7428C25.04 3.91321 25.3371 3.91321 25.6937 3.97342C26.0205 4.00353 26.3474 4.12396 26.6148 4.3046C26.912 4.45514 27.12 4.72611 27.2685 5.0874L28.3085 0.390625Z" stroke="white" stroke-width="0.654813" stroke-linecap="round" stroke-linejoin="round"/>
</g>
</svg>
