<?xml version="1.0" encoding="utf-8"?><svg style="position: absolute; width: 0; height: 0; visibility: hidden;" xmlns="http://www.w3.org/2000/svg" xmlns:xlink="http://www.w3.org/1999/xlink"><symbol fill="none" viewBox="0 0 19 19" id="close" xmlns="http://www.w3.org/2000/svg"><path d="M17.5 2L2 17.5M2 2l15.5 15.5" stroke="currentColor" stroke-width="3"/></symbol><symbol fill="none" viewBox="0 0 13 14" id="ic-address" xmlns="http://www.w3.org/2000/svg"><path d="M12.925 1.878A.998.998 0 0011.622.575l-11 4.5A.998.998 0 001 7h5.5v5.5a1 1 0 001.925.378l4.5-11z" fill="currentColor"/></symbol><symbol fill="none" viewBox="0 0 15 18" id="ic-address2" xmlns="http://www.w3.org/2000/svg"><path fill-rule="evenodd" clip-rule="evenodd" d="M8.366 17.378C12.073 14.23 15 11.746 15 7.763 15 3.476 11.642 0 7.5 0 3.358 0 0 3.476 0 7.763c0 3.784 2.78 6.215 6.133 9.147.373.327.754.66 1.138 1a.35.35 0 00.462.005l.633-.537zM7.5 11.83c2.17 0 3.929-1.82 3.929-4.067 0-2.245-1.76-4.066-3.929-4.066-2.17 0-3.929 1.82-3.929 4.066 0 2.246 1.76 4.067 3.929 4.067z" fill="currentColor"/></symbol><symbol fill="none" viewBox="0 0 19 22" id="ic-android" xmlns="http://www.w3.org/2000/svg"><path d="M12.272 2.02l.96-1.732a.192.192 0 00-.018-.214.193.193 0 00-.32.027l-.97 1.75a6.54 6.54 0 00-5.253 0L5.701.1a.194.194 0 00-.34.187l.96 1.732a5.55 5.55 0 00-3.092 4.876h12.137a5.55 5.55 0 00-3.094-4.876zM6.497 4.675a.507.507 0 110-1.014.507.507 0 010 1.014zm5.602 0a.507.507 0 110-1.015.507.507 0 010 1.015zM3.227 16.172a1.467 1.467 0 001.47 1.468h.973v3a1.36 1.36 0 102.721 0v-3h1.814v3a1.36 1.36 0 002.72 0v-3h.974a1.466 1.466 0 001.468-1.468V7.377H3.227v8.796zM1.36 7.142A1.36 1.36 0 000 8.502v5.67a1.36 1.36 0 102.72 0v-5.67a1.36 1.36 0 00-1.36-1.36m15.872 0a1.36 1.36 0 00-1.36 1.362v5.668a1.361 1.361 0 002.72 0v-5.67a1.36 1.36 0 00-1.36-1.36z" fill="currentColor"/></symbol><symbol fill="none" viewBox="0 0 10 5" id="ic-arrow-down" xmlns="http://www.w3.org/2000/svg"><path fill-rule="evenodd" clip-rule="evenodd" d="M9.801 1.02l-4.32 3.805a.746.746 0 01-.961 0L.199 1.02a.549.549 0 010-.846.746.746 0 01.96 0L5 3.557 8.84.175a.746.746 0 01.961 0 .549.549 0 010 .846z" fill="currentColor"/></symbol><symbol fill="none" viewBox="0 0 10 10" id="ic-delete" xmlns="http://www.w3.org/2000/svg"><path d="M8.768 1.233a.523.523 0 010 .73L1.962 8.767a.516.516 0 01-.729-.729L8.04 1.233a.523.523 0 01.73 0z" fill="currentColor"/><path d="M1.236 1.233a.523.523 0 000 .73l6.806 6.805a.516.516 0 00.729-.729L1.965 1.233a.523.523 0 00-.73 0z" fill="currentColor"/></symbol><symbol fill="none" viewBox="0 0 22 21" id="ic-des-0" xmlns="http://www.w3.org/2000/svg"><path fill-rule="evenodd" clip-rule="evenodd" d="M11.63 9.978l4.085 4.086-.89.891L10.37 10.5V4.2h1.26v5.778zM11 21C5.2 21 .5 16.3.5 10.5S5.2 0 11 0s10.5 4.7 10.5 10.5S16.8 21 11 21zm0-1.26a9.24 9.24 0 100-18.48 9.24 9.24 0 000 18.48z" fill="currentColor"/></symbol><symbol fill="none" viewBox="0 0 16 19" id="ic-des-1" xmlns="http://www.w3.org/2000/svg"><path d="M.5 1h15M.5 18h15M2.583 18v-4.435l2.38-1.267c.545-.29.996-.7 1.31-1.19.312-.49.477-1.044.477-1.608 0-.564-.165-1.118-.478-1.608-.313-.49-.764-.9-1.309-1.19l-2.38-1.267V1m10.834 0v4.435l-2.38 1.267c-.545.29-.996.7-1.309 1.19A2.983 2.983 0 009.251 9.5c0 .563.164 1.117.477 1.608.313.49.764.9 1.309 1.19l2.38 1.267V18" stroke="currentColor" stroke-width="1.166"/></symbol><symbol fill="none" viewBox="0 0 17 22" id="ic-des-2" xmlns="http://www.w3.org/2000/svg"><path d="M3.52 5.28c0 .201.164.364.367.364a.365.365 0 00.366-.363v-.694h.7a.365.365 0 00.367-.363c0-.2-.164-.363-.366-.363h-.7v-.693c0-.2-.165-.363-.367-.363a.365.365 0 00-.367.363v.693h-.7a.365.365 0 00-.367.363c0 .2.164.363.367.363h.7v.694z" fill="currentColor" stroke="currentColor" stroke-width=".268"/><path d="M16.314 3.864v-.001a.37.37 0 00-.044-.109.35.35 0 00-.057-.077l-2.596-2.57a.366.366 0 00-.1-.069.375.375 0 00-.086-.03h-.004a.365.365 0 00-.07-.008H.687a.365.365 0 00-.367.363v19.274c0 .2.164.363.367.363h15.267a.365.365 0 00.366-.363V3.933a.392.392 0 00-.007-.07v.001zm-1.246-.293h-1.344V2.24l1.344 1.33zM1.054 20.274V1.726H12.99v2.208c0 .2.164.363.366.363h2.23v15.977H1.054z" fill="currentColor" stroke="currentColor" stroke-width=".268"/><path d="M13.188 7.887H3.445a.365.365 0 00-.367.363c0 .2.164.363.367.363h9.743a.365.365 0 00.366-.363c0-.2-.164-.363-.366-.363zm0 2.351H3.445a.365.365 0 00-.367.363c0 .2.164.363.367.363h9.743a.365.365 0 00.366-.363c0-.2-.164-.363-.366-.363zm0 2.356H3.445a.365.365 0 00-.367.363c0 .2.164.363.367.363h9.743a.365.365 0 00.366-.363c0-.2-.164-.363-.366-.363zM8.53 14.945H3.444a.365.365 0 00-.367.363c0 .2.164.363.367.363h5.084a.365.365 0 00.367-.363c0-.2-.164-.363-.367-.363z" fill="currentColor" stroke="currentColor" stroke-width=".268"/></symbol><symbol fill="none" viewBox="0 0 23 20" id="ic-des-3" xmlns="http://www.w3.org/2000/svg"><path d="M21.108 3.67c-.088-.839-.762-1.47-1.568-1.47h-4.816A4.979 4.979 0 0011.498 1a4.976 4.976 0 00-3.222 1.199H3.808c-.787 0-1.46.613-1.565 1.427L.514 17.104c-.06.47.077.945.376 1.303.3.359.734.564 1.189.564 19.51-.197 19.159.452 20.017-.546a1.7 1.7 0 00.395-1.279L21.108 3.67zm-5.32 2.182a.341.341 0 01-.264.129c-7.905-.045-8.497.23-8.393-.418a4.72 4.72 0 011.204-2.455l.436.454.486-.507-.402-.42a4.308 4.308 0 012.3-.901v.5h.687v-.5a4.31 4.31 0 012.3.9l-.403.421.486.508.438-.457c.83.89 1.392 2.418 1.126 2.746h0zm5.796 12.094c-.502.583-.004.197-19.506.307a.875.875 0 01-.67-.318.957.957 0 01-.213-.735l1.73-13.48c.06-.459.438-.805.883-.805h3.766c-.644.806-1.533 2.609-.891 3.4.197.243.485.382.79.382h8.05c.305 0 .593-.139.79-.382.638-.785-.248-2.597-.889-3.4h4.115c.455 0 .836.358.886.831l1.382 13.475a.947.947 0 01-.223.724h0z" fill="currentColor" stroke="currentColor" stroke-width=".221"/><path d="M11.8 4.716l-.301-1.92-.301 1.921c-.539.328-.312 1.183.301 1.183a.623.623 0 00.609-.635.638.638 0 00-.308-.549v0zm-.38.549a.08.08 0 01.079-.083c.046 0 .082.037.082.083 0 .087-.161.09-.161 0zm5.32 1.661c-1.176 0-2.098 1.538-2.098 3.502 0 1.648.972 2.307-.243 4.722-.464 1.014.07 2.208 1.136 2.514 1.235.354 2.174-.87 2.14-2.218-.039-1.528.703-2.812.71-2.825l.033-.073c1.098-3.403-.333-5.622-1.678-5.622h0zm.247 8.54c.01.385-.07.729-.234.992-.777 1.257-2.223.072-1.74-.984.041-.083 1.028-2.043.574-3.463-.072-.281-.258-1.113-.258-1.583 0-1.483.66-2.785 1.411-2.785.765 0 1.412 1.276 1.412 2.785 0 1.79-1.222 2.761-1.165 5.037h0zm-8.912-3.27c.846-3.321-.578-5.27-1.818-5.27-1.177 0-2.099 1.538-2.099 3.502 0 .654.243 1.55.454 2.193 1.11 1.924.36 3.104 1.055 4.227 1.252 2.023 3.789.173 2.925-1.712-.249-.487-.828-1.962-.516-2.94h0zm-.795 4.776c-.77.22-1.292-.66-1.27-1.506.057-2.283-1.164-3.24-1.164-5.037 0-1.51.646-2.785 1.41-2.785.753 0 1.412 1.301 1.412 2.785 0 1.507-1.02 2.44.31 5.03.29.632-.07 1.333-.698 1.513h0z" fill="currentColor" stroke="currentColor" stroke-width=".221"/></symbol><symbol fill="none" viewBox="0 0 13 14" id="ic-error" xmlns="http://www.w3.org/2000/svg"><rect x=".247" y=".975" width="12.442" height="12.442" rx="6.221" fill="#E30016"/><path d="M6.468 9.96a.656.656 0 01-.486-.19.612.612 0 01-.205-.466.63.63 0 01.197-.474.699.699 0 01.494-.191c.192 0 .354.064.486.191a.62.62 0 01.205.474.64.64 0 01-.197.465.699.699 0 01-.494.191zM5.86 4.43h1.23l-.166 3.758h-.897L5.86 4.431z" fill="#fff"/></symbol><symbol fill="none" viewBox="0 0 17 10" id="ic-eye" xmlns="http://www.w3.org/2000/svg"><path fill-rule="evenodd" clip-rule="evenodd" d="M16.5 5C12.68-1.667 4.338-1.667.5 5c3.838 6.667 12.18 6.667 16 0zm-8-1.564c-.855 0-1.54.723-1.54 1.584 0 .88.685 1.583 1.54 1.583s1.54-.704 1.54-1.583c0-.86-.685-1.584-1.54-1.584zM6.429 1.461a4.148 4.148 0 00-1.938 3.52 4.13 4.13 0 002.014 3.577C4.775 8.05 3.198 6.858 2.077 5 3.18 3.162 4.737 1.99 6.43 1.461zm4.066 7.097A4.13 4.13 0 0012.51 4.98a4.15 4.15 0 00-1.938-3.519c1.691.528 3.25 1.701 4.352 3.539-1.102 1.857-2.698 3.05-4.428 3.558z" fill="currentColor"/></symbol><symbol fill="none" viewBox="0 0 14 16" id="ic-f-arrow-down" xmlns="http://www.w3.org/2000/svg"><path d="M13 8.25a.74.74 0 00-.53.22L7 13.94 1.53 8.47A.75.75 0 00.47 9.53l6 6a.75.75 0 001.06 0l6-6A.75.75 0 0013 8.25z" fill="currentColor"/><path d="M7 .25a.76.76 0 00-.75.75v14a.75.75 0 101.5 0V1A.76.76 0 007 .25z" fill="currentColor"/></symbol><symbol fill="none" viewBox="0 0 15 26" id="ic-f-arrow-down2" xmlns="http://www.w3.org/2000/svg"><path d="M1.5 18.25a.739.739 0 01.53.22l5.47 5.47 5.47-5.47a.75.75 0 011.06 1.06l-6 6a.75.75 0 01-1.06 0l-6-6a.75.75 0 01.53-1.28z" fill="currentColor"/><path d="M7.5.25a.76.76 0 01.75.75v24a.75.75 0 11-1.5 0V1A.76.76 0 017.5.25z" fill="currentColor"/></symbol><symbol fill="none" viewBox="0 0 18 21" id="ic-ios" xmlns="http://www.w3.org/2000/svg"><path d="M14.217 19.44c-1.103 1.069-2.306.9-3.465.394-1.227-.518-2.352-.54-3.645 0-1.62.697-2.475.495-3.443-.394-5.49-5.659-4.68-14.276 1.553-14.591 1.518.079 2.576.832 3.465.9 1.327-.27 2.598-1.046 4.016-.945 1.699.135 2.981.81 3.825 2.025-3.51 2.103-2.678 6.727.54 8.021-.641 1.688-1.474 3.364-2.857 4.601l.01-.011zM8.569 4.781C8.4 2.273 10.437.202 12.777 0c.326 2.902-2.633 5.063-4.208 4.781z" fill="currentColor"/></symbol><symbol fill="none" viewBox="0 0 7 10" id="ic-left" xmlns="http://www.w3.org/2000/svg"><path d="M3 5l3.5-3.5L5 0 0 5l5 5 1.5-1.5L3 5z" fill="currentColor"/></symbol><symbol fill="none" viewBox="0 0 20 20" id="ic-link" xmlns="http://www.w3.org/2000/svg"><rect x=".625" y=".625" width="18.75" height="18.75" rx="4" stroke="currentColor"/><path d="M5.808 13.094a.625.625 0 10.884.884l-.884-.884zm8.138-6.63a.625.625 0 00-.625-.624H7.696a.625.625 0 000 1.25h5v5a.625.625 0 001.25 0V6.465zm-7.254 7.514l7.071-7.071-.884-.884-7.07 7.071.883.884z" fill="currentColor"/></symbol><symbol fill="none" viewBox="0 0 17 16" id="ic-loop" xmlns="http://www.w3.org/2000/svg"><path d="M16.257 14.573l-3.945-3.96a6.308 6.308 0 001.57-4.153c0-3.562-3.001-6.46-6.69-6.46C3.501 0 .5 2.898.5 6.46s3.002 6.46 6.691 6.46a6.785 6.785 0 003.834-1.169l3.974 3.99a.88.88 0 00.629.259.885.885 0 00.605-.235.823.823 0 00.024-1.192zM7.19 1.685c2.727 0 4.946 2.142 4.946 4.775 0 2.633-2.219 4.775-4.946 4.775S2.246 9.093 2.246 6.46c0-2.633 2.218-4.775 4.945-4.775z" fill="currentColor"/></symbol><symbol fill="none" viewBox="0 0 21 17" id="ic-mail" xmlns="http://www.w3.org/2000/svg"><path d="M2.835 16.17c-.527 0-.978-.188-1.354-.563a1.85 1.85 0 01-.563-1.354v-11.5c0-.527.188-.979.563-1.354A1.85 1.85 0 012.835.836h15.333c.527 0 .978.188 1.354.563.376.376.563.827.563 1.354v11.5c0 .527-.188.978-.563 1.354a1.841 1.841 0 01-1.354.562H2.835zM10.5 9.46l7.667-4.79V2.752L10.5 7.543 2.834 2.752v1.916L10.5 9.461z" fill="currentColor"/></symbol><symbol fill="none" viewBox="0 0 23 18" id="ic-mail2" xmlns="http://www.w3.org/2000/svg"><path d="M2.7 17.5a2.156 2.156 0 01-1.553-.624A2.016 2.016 0 01.5 15.375V2.625c0-.584.216-1.084.647-1.5A2.162 2.162 0 012.7.5h17.6c.605 0 1.123.208 1.554.625.431.416.647.916.646 1.5v12.75c0 .584-.215 1.085-.646 1.501-.43.417-.948.625-1.554.624H2.7zm8.8-7.438L2.7 4.75v10.625h17.6V4.75l-8.8 5.313zm0-2.124l8.8-5.313H2.7l8.8 5.313zM2.7 4.75V2.625v12.75V4.75z" fill="currentColor"/></symbol><symbol fill="none" viewBox="0 0 16 16" id="ic-pdf" xmlns="http://www.w3.org/2000/svg"><path d="M.25 2c0-1.103.897-2 2-2h5v4a1 1 0 001 1h4v4.5h-6.5c-1.103 0-2 .897-2 2V16h-1.5c-1.103 0-2-.897-2-2V2zm12 2h-4V0l4 4zm-6.5 7h1a1.751 1.751 0 010 3.5h-.5v1c0 .275-.225.5-.5.5a.501.501 0 01-.5-.5v-4c0-.275.225-.5.5-.5zm1 2.5c.416 0 .75-.334.75-.75a.748.748 0 00-.75-.75h-.5v1.5h.5zm3-2.5h1a1.5 1.5 0 011.5 1.5v2a1.5 1.5 0 01-1.5 1.5h-1a.501.501 0 01-.5-.5v-4c0-.275.225-.5.5-.5zm1 4c.275 0 .5-.225.5-.5v-2c0-.275-.225-.5-.5-.5h-.5v3h.5zm2.5-3.5c0-.275.225-.5.5-.5h1.5c.275 0 .5.225.5.5s-.225.5-.5.5h-1v1h1c.275 0 .5.225.5.5s-.225.5-.5.5h-1v1.5c0 .275-.225.5-.5.5a.501.501 0 01-.5-.5v-4z" fill="currentColor"/></symbol><symbol fill="none" viewBox="0 0 12 20" id="ic-phone" xmlns="http://www.w3.org/2000/svg"><path d="M9.999 0h-8a2 2 0 00-2 2v16a2 2 0 002 2h8a2 2 0 002-2V2a2 2 0 00-2-2zm-3 19h-2v-1h2v1zm3-2h-8V3h8v14z" fill="currentColor"/></symbol><symbol fill="none" viewBox="0 0 19 19" id="ic-phone2" xmlns="http://www.w3.org/2000/svg"><path fill-rule="evenodd" clip-rule="evenodd" d="M13.977 18.997c-1.37-.05-5.254-.587-9.321-4.652C.59 10.278.054 6.397.003 5.025-.074 2.937 1.527.908 3.376.116a1.4 1.4 0 011.375.15c1.523 1.11 2.573 2.789 3.475 4.108a1.43 1.43 0 01-.243 1.89L6.126 7.64a.457.457 0 00-.135.586c.42.764 1.169 1.902 2.025 2.758.857.857 2.049 1.654 2.866 2.122a.46.46 0 00.613-.154l1.209-1.84a1.43 1.43 0 011.956-.315c1.34.927 2.902 1.959 4.046 3.423a1.398 1.398 0 01.18 1.413c-.797 1.858-2.813 3.44-4.909 3.363z" fill="currentColor"/></symbol><symbol fill="none" viewBox="0 0 7 10" id="ic-right" xmlns="http://www.w3.org/2000/svg"><path d="M3.5 5L0 1.5 1.5 0l5 5-5 5L0 8.5 3.5 5z" fill="currentColor"/></symbol><symbol fill="none" viewBox="0 0 15 14" id="ic-star" xmlns="http://www.w3.org/2000/svg"><path d="M6.629.546a1 1 0 011.742 0l1.602 2.842a1 1 0 00.674.49l3.198.644a1 1 0 01.538 1.657l-2.208 2.402a1 1 0 00-.257.792l.375 3.241a1 1 0 01-1.41 1.024l-2.967-1.357a1 1 0 00-.832 0l-2.967 1.357a1 1 0 01-1.41-1.024l.375-3.241a1 1 0 00-.257-.792L.617 6.18a1 1 0 01.538-1.657l3.198-.645a1 1 0 00.674-.49L6.629.547z" fill="currentColor"/></symbol><symbol fill="none" viewBox="0 0 100 100" id="ic-tg" xmlns="http://www.w3.org/2000/svg"><path d="M89.442 11.418c-12.533 5.19-66.27 27.449-81.118 33.516-9.958 3.886-4.129 7.529-4.129 7.529s8.5 2.914 15.786 5.1c7.286 2.186 11.172-.243 11.172-.243l34.244-23.073c12.143-8.257 9.229-1.457 6.315 1.457-6.315 6.315-16.758 16.272-25.501 24.287-3.886 3.4-1.943 6.315-.243 7.772 6.315 5.343 23.558 16.272 24.53 17.001 5.131 3.632 15.223 8.861 16.758-2.186l6.072-38.13c1.943-12.872 3.886-24.773 4.129-28.173.728-8.257-8.015-4.857-8.015-4.857z" fill="currentColor"/></symbol><symbol fill="none" viewBox="0 0 15 18" id="ic-user" xmlns="http://www.w3.org/2000/svg"><path d="M7.5 9c1.287 0 2.521-.474 3.431-1.318.91-.844 1.422-1.989 1.422-3.182 0-1.193-.511-2.338-1.421-3.182C10.021.474 8.787 0 7.5 0S4.979.474 4.068 1.318c-.91.844-1.42 1.989-1.42 3.182 0 1.193.51 2.338 1.42 3.182C4.978 8.526 6.213 9 7.5 9zm-4.853 1.636c-.702 0-1.375.259-1.872.72A2.367 2.367 0 000 13.09v.123S0 18 7.5 18s7.5-4.786 7.5-4.786v-.123a2.37 2.37 0 00-.775-1.736 2.756 2.756 0 00-1.872-.719H2.647z" fill="currentColor"/></symbol><symbol fill="none" viewBox="0 0 13 14" id="ic-valid" xmlns="http://www.w3.org/2000/svg"><rect x=".247" y=".975" width="12.442" height="12.442" rx="6.221" fill="#0CC44D"/><path d="M3.703 7.073l1.99 2.196 4.23-4.147" stroke="#fff" stroke-width="1.382"/></symbol><symbol fill="none" viewBox="0 0 548.358 548.358" id="ic-vk" xmlns="http://www.w3.org/2000/svg"><path d="M545.451 400.298c-.664-1.431-1.283-2.618-1.858-3.569-9.514-17.135-27.695-38.167-54.532-63.102l-.567-.571-.284-.28-.287-.287h-.288c-12.18-11.611-19.893-19.418-23.123-23.415-5.91-7.614-7.234-15.321-4.004-23.13 2.282-5.9 10.854-18.36 25.696-37.397 7.807-10.089 13.99-18.175 18.556-24.267 32.931-43.78 47.208-71.756 42.828-83.939l-1.701-2.847c-1.143-1.714-4.093-3.282-8.846-4.712-4.764-1.427-10.853-1.663-18.278-.712l-82.224.568c-1.332-.472-3.234-.428-5.712.144l-3.713.859-1.431.715-1.136.859c-.952.568-1.999 1.567-3.142 2.995-1.137 1.423-2.088 3.093-2.848 4.996-8.952 23.031-19.13 44.444-30.553 64.238-7.043 11.803-13.511 22.032-19.418 30.693-5.899 8.658-10.848 15.037-14.842 19.126-4 4.093-7.61 7.372-10.852 9.849-3.237 2.478-5.708 3.525-7.419 3.142-1.715-.383-3.33-.763-4.859-1.143-2.663-1.714-4.805-4.045-6.42-6.995-1.622-2.95-2.714-6.663-3.285-11.136-.568-4.476-.904-8.326-1-11.563-.089-3.233-.048-7.806.145-13.706.198-5.903.287-9.897.287-11.991 0-7.234.141-15.085.424-23.555.288-8.47.521-15.181.716-20.125.194-4.949.284-10.185.284-15.705s-.336-9.849-1-12.991a44.442 44.442 0 00-2.99-9.137c-1.335-2.95-3.289-5.232-5.853-6.852-2.569-1.618-5.763-2.902-9.564-3.856-10.089-2.283-22.936-3.518-38.547-3.71-35.401-.38-58.148 1.906-68.236 6.855-3.997 2.091-7.614 4.948-10.848 8.562-3.427 4.189-3.905 6.475-1.431 6.851 11.422 1.711 19.508 5.804 24.267 12.275l1.715 3.429c1.334 2.474 2.666 6.854 3.999 13.134 1.331 6.28 2.19 13.227 2.568 20.837.95 13.897.95 25.793 0 35.689-.953 9.9-1.853 17.607-2.712 23.127-.859 5.52-2.143 9.993-3.855 13.418-1.715 3.426-2.856 5.52-3.428 6.28-.571.76-1.047 1.239-1.425 1.427a21.387 21.387 0 01-7.71 1.431c-2.667 0-5.901-1.334-9.707-4-3.805-2.666-7.754-6.328-11.847-10.992-4.093-4.665-8.709-11.184-13.85-19.558-5.137-8.374-10.467-18.271-15.987-29.691l-4.567-8.282c-2.855-5.328-6.755-13.086-11.704-23.267-4.952-10.185-9.329-20.037-13.134-29.554-1.521-3.997-3.806-7.04-6.851-9.134l-1.429-.859c-.95-.76-2.475-1.567-4.567-2.427a30.301 30.301 0 00-6.567-1.854l-78.229.568c-7.994 0-13.418 1.811-16.274 5.428l-1.143 1.711c-.571.953-.859 2.475-.859 4.57 0 2.094.571 4.664 1.714 7.707 11.42 26.84 23.839 52.725 37.257 77.659 13.418 24.934 25.078 45.019 34.973 60.237 9.897 15.229 19.985 29.602 30.264 43.112 10.279 13.515 17.083 22.176 20.412 25.981 3.333 3.812 5.951 6.662 7.854 8.565l7.139 6.851c4.568 4.569 11.276 10.041 20.127 16.416 8.853 6.379 18.654 12.659 29.408 18.85 10.756 6.181 23.269 11.225 37.546 15.126 14.275 3.905 28.169 5.472 41.684 4.716h32.834c6.659-.575 11.704-2.669 15.133-6.283l1.136-1.431c.764-1.136 1.479-2.901 2.139-5.276.668-2.379 1-5 1-7.851-.195-8.183.428-15.558 1.852-22.124 1.423-6.564 3.045-11.513 4.859-14.846 1.813-3.33 3.859-6.14 6.136-8.418 2.282-2.283 3.908-3.666 4.862-4.142.948-.479 1.705-.804 2.276-.999 4.568-1.522 9.944-.048 16.136 4.429 6.187 4.473 11.99 9.996 17.418 16.56 5.425 6.57 11.943 13.941 19.555 22.124 7.617 8.186 14.277 14.271 19.985 18.274l5.708 3.426c3.812 2.286 8.761 4.38 14.853 6.283 6.081 1.902 11.409 2.378 15.984 1.427l73.087-1.14c7.229 0 12.854-1.197 16.844-3.572 3.998-2.379 6.373-5 7.139-7.851.764-2.854.805-6.092.145-9.712-.677-3.611-1.344-6.136-2.008-7.563z" fill="currentColor"/></symbol><symbol fill="none" viewBox="0 0 20 20" id="ic-wa" xmlns="http://www.w3.org/2000/svg"><path d="M11.79.639l-.57-.08a9.13 9.13 0 00-8.92 4 9.1 9.1 0 00-.71 9.66 1.3 1.3 0 01.1 1c-.41 1.41-.79 2.83-1.19 4.32l.5-.15c1.35-.36 2.7-.72 4.05-1.05a1.45 1.45 0 01.85.08A9.45 9.45 0 1011.79.639zm2.52 13.12a2.76 2.76 0 01-2.72.56 9.2 9.2 0 01-5.13-3.71 8.5 8.5 0 01-1.11-2.08 2.49 2.49 0 01.55-2.52 1.23 1.23 0 011.32-.42c.2.05.34.34.52.56.147.413.317.816.51 1.21a.94.94 0 01-.2 1.31c-.45.4-.38.73-.06 1.18a6.7 6.7 0 002.82 2.32c.32.14.56.17.77-.16.09-.13.21-.24.31-.36.58-.73.4-.72 1.32-.32.293.123.577.266.85.43.27.16.68.33.74.57a1.45 1.45 0 01-.49 1.43z" fill="currentColor"/></symbol><symbol fill="none" viewBox="0 0 18 18" id="ic-wa2" xmlns="http://www.w3.org/2000/svg"><path d="M9 .5a8.5 8.5 0 11-4.134 15.929l-.259-.151-2.577.758a.86.86 0 01-1.088-.973l.022-.093.758-2.577A8.5 8.5 0 019 .5zm0 1.7a6.8 6.8 0 00-5.745 10.44c.168.265.24.591.183.915l-.033.139-.375 1.275 1.276-.374a1.28 1.28 0 011.054.15A6.799 6.799 0 109 2.2zM6.537 4.906a.595.595 0 01.581.064c.428.313.768.733 1.06 1.143l.279.402.13.192a.603.603 0 01-.04.734l-.063.065-.785.583a.195.195 0 00-.057.247c.178.323.494.805.856 1.167.363.362.867.699 1.212.897a.194.194 0 00.226-.026l.032-.039.511-.777a.603.603 0 01.827-.135l.462.322c.459.328.9.68 1.25 1.126a.596.596 0 01.075.597c-.337.786-1.19 1.455-2.075 1.422l-.135-.008-.163-.015-.091-.012-.203-.034c-.785-.148-2.044-.594-3.349-1.897C5.773 9.619 5.328 8.36 5.18 7.574l-.034-.202-.021-.177-.011-.148-.004-.064c-.032-.887.64-1.74 1.427-2.077z" fill="currentColor"/></symbol></svg>