<svg width="1015" height="693" viewBox="0 0 1015 693" fill="none" xmlns="http://www.w3.org/2000/svg">
<path d="M0 611.065C8.93 612.165 17.9 611.535 26.86 611.655C43.01 611.855 59.16 611.775 75.31 611.925C82.21 611.985 86.02 615.855 86.04 622.835C86.12 643.315 86.1 663.795 86.05 684.275C86.04 690.005 83.69 692.075 77.64 692.085C71.05 692.085 68.95 690.245 68.94 684.125C68.9 667.145 68.8 650.155 69.02 633.175C69.07 629.185 68.24 627.665 63.94 627.725C49.29 627.925 34.63 627.865 19.99 627.585C16.17 627.515 15.69 629.075 15.72 632.255C15.87 647.405 15.84 662.555 15.87 677.715C15.87 679.215 15.9 680.715 15.87 682.215C15.72 690.645 12.09 693.535 3.77 691.895C2.51 691.645 1.43 690.525 0 691.065V611.075V611.065Z" fill="#F13830"/>
<path d="M736.64 232.715C736.64 268.705 736.7 304.695 736.62 340.695C736.55 371.995 722.98 395.595 695.61 410.855C685.23 416.635 673.88 420.035 661.91 420.095C623.92 420.305 585.93 420.555 547.94 420.225C509.8 419.895 478.24 390.775 473.75 352.875C473.14 347.715 472.93 342.605 472.92 337.455C472.9 307.295 472.99 277.135 472.83 246.975C472.81 242.905 474.19 241.545 478.11 241.155C513.62 237.655 542.85 211.665 550.76 176.355C551.82 171.615 553.49 170.025 558.47 170.045C599.79 170.255 641.12 170.085 682.44 170.235C686.6 170.245 688.09 169.565 687.99 164.925C687.65 149.105 687.67 133.265 687.97 117.445C688.15 107.745 692.71 100.155 701.46 95.7252C709.6 91.6052 717.83 92.0353 725.58 97.0653C733.59 102.265 736.49 110.085 736.49 119.255C736.5 157.075 736.49 194.905 736.49 232.725H736.64V232.715ZM622.42 224.145C602.44 224.145 582.46 224.095 562.48 224.155C540.35 224.225 522.18 241.505 521.88 263.475C521.52 289.275 521.64 315.085 521.93 340.895C522.12 357.135 534.52 369.075 550.67 369.105C586.63 369.175 622.6 369.165 658.56 369.095C675.03 369.065 687.82 356.145 687.84 339.645C687.88 302.685 687.8 265.715 687.94 228.755C687.95 225.135 687.22 223.995 683.36 224.035C663.05 224.255 642.74 224.135 622.42 224.145Z" fill="#018FE3"/>
<path d="M1005.5 652.965C1013.5 659.745 1015.9 667.925 1012.84 676.905C1009.94 685.435 1001.23 691.835 991.38 691.985C976.06 692.215 960.72 692.165 945.4 692.015C937.67 691.945 933.87 687.895 933.84 680.115C933.79 661.785 933.79 643.455 933.85 625.135C933.87 618.065 938.18 612.495 945.18 612.395C961.64 612.155 978.19 610.695 994.55 613.155C1009.98 615.475 1018.59 632.595 1011.81 646.305C1010.46 649.035 1008.61 651.285 1005.5 652.975V652.965ZM969.74 645.785C969.74 645.885 969.74 645.975 969.75 646.075C976.39 645.765 983.05 645.635 989.68 645.085C994.69 644.665 996.93 641.775 996.85 636.745C996.75 630.535 992.87 627.315 984.87 627.185C978.05 627.065 971.22 627.105 964.4 627.285C948.51 627.695 950.44 624.065 950.05 642.125C949.99 645.065 951.02 645.895 953.76 645.825C959.08 645.685 964.41 645.785 969.74 645.785ZM969.87 677.015C975.53 677.015 981.19 677.215 986.84 676.965C995.07 676.605 999.23 671.405 996.73 664.745C994.87 659.805 990.26 659.375 986 659.195C978.69 658.895 971.36 659.075 964.04 659.075C949.64 659.075 949.75 659.075 950.06 673.525C950.13 676.605 951.31 677.105 953.9 677.045C959.22 676.925 964.55 677.005 969.87 677.005V677.015Z" fill="#018FE3"/>
<path d="M232.99 692.095C225.87 691.955 218.7 692.925 211.63 691.305C199.91 688.615 192.45 681.855 191.36 669.905C190.28 658.035 190.26 645.895 191.38 634.035C192.51 622.085 201.13 613.865 213.99 612.535C226.66 611.225 239.63 610.835 252.29 612.845C266.17 615.035 274.53 625.185 274.91 638.985C275.16 648.295 275.17 657.625 274.89 666.935C274.49 680.345 263.43 691.435 249.96 692.055C244.32 692.315 238.65 692.095 233 692.095H232.99ZM233.13 627.995C233.13 627.995 233.13 628.045 233.13 628.075C228.64 628.075 224.15 627.915 219.67 628.115C212.53 628.425 208.08 633.115 208.02 640.275C207.95 648.085 208 655.895 208.01 663.715C208.01 672.455 211.43 676.465 220 676.825C228.3 677.175 236.63 677.205 244.92 676.845C252.9 676.495 257.21 672.435 257.56 664.975C257.94 656.845 257.98 648.685 257.63 640.555C257.28 632.425 252.64 628.235 244.59 628.025C240.77 627.925 236.95 628.005 233.12 628.005L233.13 627.995Z" fill="#F13830"/>
<path d="M876.84 692.045C869.73 691.695 862.57 692.945 855.49 691.165C843.12 688.045 835.89 679.145 835.84 666.475C835.8 657.315 835.81 648.155 835.84 638.995C835.89 624.705 845.71 613.215 860.13 612.335C871.87 611.615 883.78 610.945 895.49 612.905C909.96 615.335 917.24 622.795 918.37 637.415C919.2 648.155 919.48 659.045 917.99 669.815C916.22 682.665 906.28 691.605 893.31 692.015C887.82 692.195 882.32 692.045 876.83 692.045H876.84ZM901.86 652.805C901.86 648.645 902 644.475 901.83 640.315C901.55 633.195 897.63 628.945 890.63 628.015C881.51 626.805 872.37 627.025 863.26 628.055C857.17 628.745 853.18 632.675 852.82 638.825C852.28 647.965 852.1 657.135 852.84 666.265C853.25 671.355 855.74 675.145 861.11 676.075C871.33 677.865 881.69 677.625 891.88 676.385C898.89 675.535 901.68 671.315 901.85 664.285C901.94 660.455 901.87 656.625 901.86 652.795V652.805Z" fill="#018FE3"/>
<path d="M429.22 692.065C421.76 691.885 414.24 692.995 406.86 691.105C395.16 688.105 387.99 678.995 387.93 666.835C387.88 657.675 387.9 648.505 387.93 639.345C387.97 624.485 397.98 612.985 412.9 612.295C425.16 611.735 437.53 611.095 449.78 613.075C461.85 615.025 470.59 624.835 470.94 637.125C471.21 646.785 471.3 656.455 471.11 666.105C470.8 681.225 460.03 691.705 444.72 692.045C439.56 692.165 434.39 692.065 429.23 692.065H429.22ZM404.94 652.385H404.91C404.91 655.885 404.9 659.385 404.91 662.875C404.95 672.495 408.78 676.685 418.31 676.965C426.13 677.195 433.97 677.165 441.79 676.975C448.97 676.805 453.02 673.575 454.06 666.445C455.41 657.205 454.94 647.865 453.95 638.585C453.3 632.455 449.49 628.745 443.28 628.045C434.32 627.045 425.34 627.055 416.37 627.965C409.07 628.705 405.28 632.585 404.97 639.885C404.79 644.045 404.94 648.215 404.94 652.375V652.385Z" fill="#018FE3"/>
<path d="M733.71 652.425C733.71 658.575 734.42 664.835 733.56 670.865C732 681.805 723.52 690.185 711.11 691.575C698.45 692.985 685.51 693.565 672.86 691.025C660.62 688.565 653 678.615 652.89 666.025C652.82 657.535 652.86 649.055 652.88 640.565C652.9 624.535 662.44 613.295 678.26 612.335C689.49 611.655 700.85 611.225 712.11 612.985C724.58 614.935 733.25 624.305 733.86 636.955C734.11 642.095 733.9 647.265 733.9 652.425H733.71ZM669.84 652.335H669.87C669.87 656.485 669.8 660.645 669.89 664.795C670.02 671.515 672.2 674.715 678.77 676.055C688.26 677.985 697.94 677.605 707.46 676.345C713.73 675.515 717.32 671.405 717.5 665.125C717.75 656.015 718.37 646.845 716.9 637.765C716.03 632.385 712.44 628.815 707.05 628.085C698.13 626.885 689.16 626.895 680.24 628.055C673.61 628.925 670.05 633.095 669.86 639.855C669.74 644.005 669.84 648.165 669.84 652.315V652.335Z" fill="#018FE3"/>
<path d="M330.82 692.105C316.83 692.105 302.84 692.135 288.85 692.095C282.78 692.075 280.68 690.425 280.15 685.535C279.62 680.615 281.6 678.025 287.3 677.035C290.29 676.515 290.75 674.125 291.75 672.185C300.58 654.945 309.29 637.645 318.11 620.395C319.6 617.475 321.01 614.455 324.47 613.065C330.61 610.605 336.64 612.555 339.68 618.385C349.08 636.445 358.53 654.475 367.7 672.645C369.25 675.705 370.73 677.245 374.33 677.125C379.5 676.955 380.84 678.695 380.85 684.175C380.85 689.845 379.19 692.015 374.29 692.045C359.8 692.135 345.31 692.075 330.82 692.075V692.095V692.105ZM351.61 676.915C344.12 662.145 337.01 648.115 329.73 633.755C322.22 648.415 315.02 662.465 307.61 676.915H351.61Z" fill="#018FE3"/>
<path d="M101.94 655.555C101.94 646.555 101.9 637.555 101.96 628.565C102.03 618.925 106.64 614.325 116.21 612.885C123.64 611.765 130.89 611.905 138.3 612.925C143.24 613.605 148.29 612.755 153.32 612.805C165.77 612.945 177 621.895 179.01 634.135C180.02 640.285 180.22 646.385 178.45 652.395C175.1 663.825 165.7 670.915 153.68 671.055C143.52 671.165 133.35 671.205 123.19 671.035C120.08 670.985 118.63 671.595 118.95 675.065C119.26 678.365 119.12 681.725 118.99 685.055C118.79 690.155 116.48 692.075 110.82 692.115C104.99 692.155 102.06 690.015 101.98 685.065C101.82 675.235 101.93 665.405 101.94 655.575V655.555ZM136.79 655.085C136.79 655.085 136.79 655.045 136.79 655.025C140.94 655.025 145.1 655.065 149.25 655.025C158.17 654.915 162.91 650.425 162.89 642.165C162.88 633.345 157.94 628.245 149.07 628.135C140.93 628.035 132.78 628.295 124.64 628.075C120.74 627.965 119.11 629.555 119.1 633.235C119.07 639.545 119.15 645.865 118.98 652.175C118.91 654.805 120.19 655.165 122.33 655.125C127.15 655.035 131.97 655.095 136.79 655.095V655.085Z" fill="#F13830"/>
<path d="M748.48 653.895C748.48 644.245 748.43 634.595 748.5 624.945C748.56 617.065 751.51 613.285 759.26 612.915C774.84 612.175 790.55 610.875 805.95 614.095C817.26 616.455 824.24 625.775 824.9 637.375C825.41 646.285 825.28 655.015 818.43 662.035C813.42 667.175 807.21 669.775 800.22 670.005C789.92 670.335 779.59 670.265 769.28 670.165C766.2 670.135 764.71 670.675 765.09 674.285C765.49 678.065 765.28 681.935 765.05 685.745C764.75 690.675 762.84 692.045 756.95 692.045C751.18 692.045 748.66 690.295 748.54 685.315C748.32 675.675 748.49 666.025 748.5 656.375C748.5 655.545 748.5 654.715 748.5 653.875H748.48V653.895ZM781.56 655.095V655.065C784.05 655.065 786.55 655.065 789.04 655.065C791.53 655.065 794.03 655.135 796.52 655.005C803.93 654.595 808.57 649.595 808.69 642.005C808.81 633.865 804.1 628.325 796.43 628.115C787.46 627.865 778.49 628.095 769.52 627.845C766.2 627.755 765.06 629.075 765.09 632.135C765.14 638.785 765.22 645.435 765.06 652.075C765 654.475 765.66 655.255 768.11 655.155C772.59 654.955 777.08 655.095 781.57 655.095H781.56Z" fill="#018FE3"/>
<path d="M486.84 651.675C486.84 641.025 486.75 630.365 486.87 619.715C486.93 614.055 489.4 612.045 495.57 612.125C501.63 612.205 503.85 614.285 503.89 620.095C503.93 626.755 503.81 633.415 503.94 640.075C503.97 641.735 502.8 644.315 504.91 644.905C507.13 645.525 509.88 645.825 512.03 643.935C515.9 640.525 519.78 637.135 523.63 633.705C530.34 627.725 537.13 621.845 543.68 615.695C549.4 610.325 556.13 611.985 562.56 612.845C565.74 613.275 565.86 616.925 562.64 619.865C555.64 626.265 548.44 632.435 541.3 638.685C537.42 642.075 533.62 645.565 529.57 648.745C527.11 650.675 527.66 651.625 529.8 653.385C541.24 662.765 552.55 672.305 563.9 681.795C565.05 682.755 566.18 683.735 567.34 684.685C568.91 685.975 569.54 687.635 569.05 689.575C568.48 691.815 566.5 691.855 564.67 692.045C555.9 692.945 548.34 691.535 541.56 684.655C533.18 676.165 523.46 669.015 514.51 661.075C511.72 658.595 508.68 659.085 505.6 659.115C503.11 659.145 503.96 661.235 503.95 662.505C503.87 669.495 503.96 676.485 503.91 683.485C503.87 689.735 501.61 692.015 495.62 692.055C488.98 692.105 486.86 690.165 486.81 683.645C486.74 672.995 486.79 662.335 486.79 651.685C486.81 651.685 486.83 651.685 486.85 651.685L486.84 651.675Z" fill="#018FE3"/>
<path d="M608.3 612.355C618.28 612.355 628.27 612.205 638.24 612.405C644.97 612.545 647.47 615.535 646.79 621.755C646.33 626.025 644.35 628.335 639.68 628.155C634.03 627.935 628.36 628.365 622.72 628.045C618.9 627.825 617.63 628.755 617.69 632.855C617.96 649.655 617.81 666.455 617.85 683.265C617.85 686.505 617.96 689.975 614.41 691.365C610.78 692.785 606.88 692.645 603.34 690.685C600.76 689.255 600.86 686.635 600.86 684.085C600.89 666.945 600.75 649.815 600.97 632.675C601.02 628.895 600.01 627.855 596.27 628.055C589.97 628.385 583.62 627.935 577.31 628.185C572.64 628.375 571.16 625.905 570.85 621.895C570.39 615.875 571.87 613.065 576.36 612.465C579.3 612.065 582.33 612.265 585.33 612.255C592.98 612.235 600.64 612.255 608.29 612.255C608.29 612.285 608.29 612.315 608.29 612.345L608.3 612.355Z" fill="#018FE3"/>
<path d="M277.9 179.485C277.9 143.335 277.87 107.195 277.9 71.0453C277.93 33.7453 301.92 6.24529 338.77 0.935289C342.76 0.365289 346.7 0.125276 350.69 0.125276C389.34 0.125276 427.99 -0.224713 466.63 0.245287C495.46 0.595287 517.11 13.7953 530.52 39.5253C534.6 47.3453 536.88 55.9353 536.91 64.8553C537.02 98.0053 537.03 131.155 537.03 164.295C537.03 197.035 515.94 220.195 485.14 228.115C479 229.695 472.75 230.245 466.39 230.235C422.25 230.145 378.1 230.255 333.96 230.075C329.67 230.055 328.85 231.265 328.89 235.305C329.12 255.795 329.07 276.285 328.99 296.775C328.94 309.365 319.24 320.035 307.14 321.135C293.16 322.405 281.25 313.815 278.91 300.825C278.23 297.045 277.89 293.265 277.89 289.415C277.93 252.765 277.92 216.125 277.91 179.475L277.9 179.485ZM408.04 53.0153V53.0353C388.38 53.0353 368.72 52.8753 349.06 53.0953C337.11 53.2253 328.99 61.8353 328.98 73.8653C328.94 101.355 328.94 128.845 329 156.345C329.03 169.045 337.22 177.085 350.01 177.095C388.5 177.115 426.99 177.115 465.48 177.095C477.62 177.095 485.84 168.985 485.86 156.955C485.89 129.795 485.9 102.635 485.86 75.4753C485.84 60.5753 478.48 53.1353 463.54 53.0453C445.05 52.9353 426.55 53.0153 408.06 53.0153H408.04Z" fill="#F13830"/>
<path d="M438.05 116.235C438.41 135.705 423.71 147.935 406.17 147.975C389.25 148.015 375.65 133.595 375.75 116.505C375.86 97.9751 389.65 84.8151 406.8 84.6151C425.33 84.4051 439.09 100.075 438.05 116.225V116.235Z" fill="#F13830"/>
<path d="M573.75 300.355C573.83 282.845 587.41 269.055 604.48 269.135C621.78 269.215 635.95 283.095 635.87 299.885C635.8 317.205 621.62 331.205 604.35 330.995C586.87 330.785 573.67 317.565 573.75 300.345V300.355Z" fill="#018FE3"/>
</svg>
