<?xml version="1.0" encoding="UTF-8"?><!DOCTYPE svg PUBLIC "-//W3C//DTD SVG 1.1//EN" "http://www.w3.org/Graphics/SVG/1.1/DTD/svg11.dtd"><svg xmlns="http://www.w3.org/2000/svg" xmlns:xlink="http://www.w3.org/1999/xlink"><defs>
<clipPath id="clip0_5587_506610">
<rect width="18" height="18" fill="white"/>
</clipPath>
</defs><symbol id="ic-mainnav-0" viewBox="0 0 18 18">
<path d="M9.76562 6.62109C9.85549 6.61923 9.94205 6.65499 10.0059 6.71973C10.0697 6.7847 10.1055 6.87354 10.1045 6.96582V8.42773H11.5254C11.6154 8.42572 11.7025 8.46148 11.7666 8.52637C11.8302 8.59114 11.866 8.67947 11.8652 8.77148V10.3438C11.8663 10.4366 11.8304 10.5259 11.7666 10.5918C11.7029 10.6578 11.6161 10.6947 11.5254 10.6943H10.1045V12.1494C10.1058 12.2423 10.0705 12.3323 10.0068 12.3984C9.94315 12.4644 9.8562 12.5012 9.76562 12.501H8.23438C8.14384 12.5012 8.05686 12.4643 7.99316 12.3984C7.92949 12.3323 7.89422 12.2423 7.89551 12.1494V10.6943H6.47461C6.38387 10.6947 6.29616 10.6578 6.23242 10.5918C6.16885 10.5259 6.13366 10.4364 6.13477 10.3438V8.77148C6.13401 8.67938 6.16965 8.59115 6.2334 8.52637C6.2975 8.46147 6.38461 8.42571 6.47461 8.42773H7.89551V6.96582C7.89445 6.87359 7.92941 6.78469 7.99316 6.71973C8.05702 6.65483 8.14438 6.6192 8.23438 6.62109H9.76562ZM8.58594 7.33008V8.77148C8.58382 8.97026 8.42805 9.13143 8.23438 9.13574H6.8252V9.98633H8.23438C8.42671 9.98734 8.58323 10.1464 8.58594 10.3438V11.793H9.41406V10.3438C9.41678 10.1463 9.57318 9.98721 9.76562 9.98633H11.1748V9.13574H9.76562C9.57182 9.13156 9.41616 8.97035 9.41406 8.77148V7.33008H8.58594Z" fill="currentColor"/>
<path d="M9.76562 6.62109C9.85549 6.61923 9.94205 6.65499 10.0059 6.71973C10.0697 6.7847 10.1055 6.87354 10.1045 6.96582V8.42773H11.5254C11.6154 8.42572 11.7025 8.46148 11.7666 8.52637C11.8302 8.59114 11.866 8.67947 11.8652 8.77148V10.3438C11.8663 10.4366 11.8304 10.5259 11.7666 10.5918C11.7029 10.6578 11.6161 10.6947 11.5254 10.6943H10.1045V12.1494C10.1058 12.2423 10.0705 12.3323 10.0068 12.3984C9.94315 12.4644 9.8562 12.5012 9.76562 12.501H8.23438C8.14384 12.5012 8.05686 12.4643 7.99316 12.3984C7.92949 12.3323 7.89422 12.2423 7.89551 12.1494V10.6943H6.47461C6.38387 10.6947 6.29616 10.6578 6.23242 10.5918C6.16885 10.5259 6.13366 10.4364 6.13477 10.3438V8.77148C6.13401 8.67938 6.16965 8.59115 6.2334 8.52637C6.2975 8.46147 6.38461 8.42571 6.47461 8.42773H7.89551V6.96582C7.89445 6.87359 7.92941 6.78469 7.99316 6.71973C8.05702 6.65483 8.14438 6.6192 8.23438 6.62109H9.76562ZM8.58594 7.33008V8.77148C8.58382 8.97026 8.42805 9.13143 8.23438 9.13574H6.8252V9.98633H8.23438C8.42671 9.98734 8.58323 10.1464 8.58594 10.3438V11.793H9.41406V10.3438C9.41678 10.1463 9.57318 9.98721 9.76562 9.98633H11.1748V9.13574H9.76562C9.57182 9.13156 9.41616 8.97035 9.41406 8.77148V7.33008H8.58594Z" fill="currentColor"/>
<path d="M8.77051 1.08984C8.90136 0.970229 9.09861 0.970261 9.22949 1.08984L16.8848 8.09668C16.9917 8.19384 17.0286 8.34945 16.9775 8.48633C16.9264 8.62285 16.7978 8.7129 16.6553 8.71191H15.041V16.6357C15.0409 16.8312 14.8956 17 14.7051 17H3.29492C3.10426 17 2.95908 16.8312 2.95898 16.6357V8.71191H1.34473C1.20217 8.71291 1.07363 8.62286 1.02246 8.48633C0.971422 8.34944 1.00835 8.19383 1.11523 8.09668L8.77051 1.08984ZM3.64941 15.2295V16.292H14.3506V15.2295H3.64941ZM2.25098 8.00293H3.29492C3.48822 8.0041 3.64522 8.1631 3.64941 8.36133V14.5205H14.3506V8.36133C14.3548 8.16311 14.5118 8.00412 14.7051 8.00293H15.75L9 1.8252L2.25098 8.00293Z" fill="currentColor"/>
<path d="M8.77051 1.08984C8.90136 0.970229 9.09861 0.970261 9.22949 1.08984L16.8848 8.09668C16.9917 8.19384 17.0286 8.34945 16.9775 8.48633C16.9264 8.62285 16.7978 8.7129 16.6553 8.71191H15.041V16.6357C15.0409 16.8312 14.8956 17 14.7051 17H3.29492C3.10426 17 2.95908 16.8312 2.95898 16.6357V8.71191H1.34473C1.20217 8.71291 1.07363 8.62286 1.02246 8.48633C0.971422 8.34944 1.00835 8.19383 1.11523 8.09668L8.77051 1.08984ZM3.64941 15.2295V16.292H14.3506V15.2295H3.64941ZM2.25098 8.00293H3.29492C3.48822 8.0041 3.64522 8.1631 3.64941 8.36133V14.5205H14.3506V8.36133C14.3548 8.16311 14.5118 8.00412 14.7051 8.00293H15.75L9 1.8252L2.25098 8.00293Z" fill="currentColor"/>
</symbol><symbol id="ic-mainnav-1" viewBox="0 0 18 18">
<path d="M16.9857 3.3701L16.7547 2.4117C16.7299 2.30461 16.6447 2.22281 16.5374 2.20305L9.0522 0.754247C9.01917 0.748584 8.98345 0.748584 8.95042 0.754247L1.45959 2.20028C1.35512 2.22281 1.26992 2.30461 1.24512 2.4117L1.01408 3.37009C0.238689 6.60062 0.761181 13.5968 8.28774 16.9597L8.89003 17.2275C8.92575 17.2443 8.96148 17.25 9.00002 17.25C9.03857 17.25 9.0743 17.2416 9.11002 17.2275L9.71231 16.9597C17.2386 13.5968 17.7613 6.60062 16.986 3.37009L16.9857 3.3701ZM9.49205 16.441L8.99977 16.6609L8.50748 16.441C1.31647 13.2303 0.810482 6.57517 1.54747 3.5054L1.73444 2.7218L8.99993 1.31806L16.2626 2.7218L16.4496 3.5054C17.1893 6.57514 16.6834 13.2305 9.49238 16.441H9.49205Z" fill="currentColor" stroke="currentColor" stroke-width="0.2"/>
<path d="M15.3108 3.52496L9.05197 2.31577C9.01895 2.31011 8.98322 2.31011 8.9502 2.31577L2.68851 3.52496C2.58404 3.54472 2.49871 3.62639 2.47121 3.73361C2.45476 3.81528 0.626053 11.8631 8.88973 15.5501C8.92545 15.5669 8.96117 15.5726 8.99972 15.5726C9.03827 15.5726 9.074 15.5642 9.10972 15.5501C17.3734 11.8602 15.5446 3.81543 15.5254 3.73361C15.5007 3.62928 15.4154 3.54472 15.3109 3.52496H15.3108ZM8.9998 14.9835C1.85813 11.725 2.74377 5.22463 2.97194 4.04362L8.9998 2.87947L15.0277 4.04652C15.2559 5.22463 16.1414 11.725 8.9998 14.9835Z" fill="currentColor" stroke="currentColor" stroke-width="0.2"/>
<path d="M12.2115 7.19547H10.2151V5.14907C10.2151 4.99403 10.0913 4.86719 9.9401 4.86719H8.05908C7.90783 4.86719 7.78408 4.99403 7.78408 5.14907V7.19547H5.78769C5.63644 7.19547 5.5127 7.32231 5.5127 7.47735V9.40548C5.5127 9.56052 5.63644 9.68736 5.78769 9.68736H7.78408V11.7338C7.78408 11.8888 7.90783 12.0156 8.05908 12.0156H9.9401C10.0913 12.0156 10.2151 11.8888 10.2151 11.7338V9.68736H12.2115C12.3627 9.68736 12.4865 9.56052 12.4865 9.40548V7.47735C12.4865 7.31954 12.3627 7.19547 12.2115 7.19547ZM11.9365 9.1207H9.9401C9.78885 9.1207 9.6651 9.24755 9.6651 9.40258V11.449H8.33407V9.40258C8.33407 9.24755 8.21032 9.1207 8.05908 9.1207H6.06268V7.75923H8.05908C8.21032 7.75923 8.33407 7.63238 8.33407 7.47735V5.43095H9.6651V7.47735C9.6651 7.63238 9.78885 7.75923 9.9401 7.75923H11.9365V9.1207Z" fill="currentColor" stroke="currentColor" stroke-width="0.2"/>
</symbol><symbol id="ic-mainnav-2" viewBox="0 0 18 18">
<path d="M0.75 12.6175C0.75 12.8108 0.878621 12.9672 1.03746 12.9672H12.0657C12.2244 12.9672 12.3531 12.8108 12.3531 12.6175C12.3531 12.4244 12.2244 12.2677 12.0657 12.2677H11.3226C11.6756 11.8373 11.8941 11.2431 11.8941 10.5884C11.8941 9.27715 11.0174 8.21042 9.93992 8.21042C8.96309 8.21042 8.15391 9.08712 8.00991 10.227C7.48646 9.5519 6.74684 9.12777 5.9255 9.12777C4.39155 9.12777 1.14764 9.50096 1.01038 9.51674C0.852215 9.53496 0.736295 9.70594 0.751403 9.89806C0.766378 10.0907 0.907568 10.2321 1.0648 10.2133C1.09809 10.2094 4.41858 9.82762 5.9255 9.82762C7.09284 9.82762 8.05724 10.8943 8.19953 12.2679H1.03769C0.878988 12.2677 0.750099 12.4244 0.750099 12.6175L0.75 12.6175ZM9.93983 8.90997C10.7002 8.90997 11.319 9.66286 11.319 10.5882C11.319 11.5143 10.7001 12.2676 9.93983 12.2676C9.17868 12.2676 8.55977 11.5142 8.55977 10.5882C8.56004 9.66286 9.17895 8.90997 9.93983 8.90997ZM10.4697 0.750137C7.44466 0.750137 4.76253 3.22812 3.94722 6.77641C3.92302 6.88183 3.94067 6.99489 3.99509 7.08209C4.0495 7.16929 4.13427 7.22037 4.22412 7.22037H5.86466C5.98392 7.22037 6.09089 7.13073 6.13314 6.99505C6.81396 4.8226 8.55209 3.36267 10.4582 3.36267C13.0128 3.36267 15.0913 5.89158 15.0913 8.99955C15.0913 12.1074 13.0127 14.636 10.4582 14.636H1.03764C0.878799 14.636 0.750178 14.7927 0.750178 14.9858C0.750178 15.1789 0.878799 15.3355 1.03764 15.3355H6.13724C7.35421 16.571 8.88831 17.25 10.4698 17.25C14.2082 17.25 17.25 13.5488 17.25 8.99938C17.25 4.45072 14.2083 0.75 10.4698 0.75L10.4697 0.750137ZM10.4697 16.5505C9.27157 16.5505 8.10289 16.1241 7.10399 15.3356H10.4579C13.3296 15.3356 15.666 12.493 15.666 8.99943C15.666 5.50548 13.3297 2.66289 10.4579 2.66289C8.38151 2.66289 6.48234 4.20331 5.67046 6.52058H4.61515C5.47485 3.51273 7.82976 1.44968 10.4698 1.44968C13.8913 1.44968 16.675 4.83655 16.675 8.99939C16.675 13.1631 13.8913 16.5503 10.4698 16.5503L10.4697 16.5505Z" fill="currentColor" stroke="currentColor" stroke-width="0.2"/>
</symbol><symbol id="ic-mainnav-3" viewBox="0 0 12 17">
<path d="M9.53506 16.5C10.4783 16.5 11.25 15.7617 11.25 14.8594V2.39062C11.25 1.48825 10.4783 0.75 9.53506 0.75H1.71494C0.771692 0.75 0 1.48825 0 2.39062V14.8594C0 15.7617 0.771692 16.5 1.71494 16.5H9.53506ZM0.685975 3.22734H10.5812V13.3172H0.685975V3.22734ZM1.715 1.40625H9.55227C10.1182 1.40625 10.5813 1.84925 10.5813 2.39068V2.57116L0.686098 2.57104V2.39057C0.686098 1.84916 1.14916 1.40625 1.71512 1.40625L1.715 1.40625ZM0.685975 14.8594V13.9735H10.5812V14.8594C10.5812 15.4008 10.1181 15.8438 9.55215 15.8438L1.71488 15.8437C1.14895 15.8437 0.685853 15.4008 0.685853 14.8594L0.685975 14.8594Z" fill="currentColor"/>
<path d="M4.90448 15.122H6.345C6.53365 15.122 6.68796 14.9744 6.68796 14.7939C6.68796 14.6135 6.53364 14.4658 6.345 14.4658H4.90448C4.71583 14.4658 4.56152 14.6135 4.56152 14.7939C4.56152 14.9743 4.71584 15.122 4.90448 15.122Z" fill="currentColor"/>
<path d="M8.66006 8.92036C8.04268 8.32974 7.15088 8.11643 6.32774 8.34608V5.91811C6.32774 4.72048 5.31596 3.80176 4.11553 3.80176C2.89786 3.80176 1.90332 4.75332 1.90332 5.91811V9.92123C1.90332 11.0861 2.89798 12.0376 4.11553 12.0376C4.4414 12.0376 4.75003 11.972 5.04154 11.8407C5.12731 11.9556 5.21308 12.0541 5.29873 12.1525C5.74458 12.579 6.34484 12.8252 6.97934 12.8252C9.08881 12.8251 10.152 10.3478 8.66007 8.92019L8.66006 8.92036ZM7.90545 9.18289L5.55602 11.4306C5.12728 10.8072 5.19582 9.93763 5.779 9.39623C6.36192 8.82195 7.25372 8.77276 7.90546 9.18291L7.90545 9.18289ZM4.09829 4.45789C4.93864 4.45789 5.62459 5.11408 5.62459 5.91804V7.59151L2.57199 7.5914V5.91805C2.57199 5.11411 3.25791 4.45789 4.09829 4.45789V4.45789ZM4.09829 11.3813C3.25794 11.3813 2.57199 10.7251 2.57199 9.92117V8.24782H5.64173V8.65798C5.52163 8.74003 5.40165 8.82209 5.29878 8.93687C4.64707 9.56033 4.45843 10.4791 4.73285 11.2666C4.52709 11.3321 4.32132 11.3813 4.09835 11.3813L4.09829 11.3813ZM6.97933 12.1689C6.63637 12.1689 6.32762 12.0705 6.05332 11.9064L8.40276 9.65876C9.14024 10.7251 8.3171 12.1689 6.97936 12.1689L6.97933 12.1689Z" fill="currentColor"/>
</symbol><symbol id="ic-mainnav-4" viewBox="0 0 16 18">
<path d="M15.5 8.00185C15.5 7.75741 15.3421 7.59444 15.1053 7.59444H12.3816L13.3684 4.90556L13.9605 5.19074C14 5.23148 14.0789 5.23148 14.1184 5.23148C14.2763 5.23148 14.4342 5.15 14.4737 4.98704C14.5526 4.78333 14.4737 4.53889 14.2763 4.45741L13.2895 4.00926L12.8553 3.80556L11.1184 3.03148C10.9211 2.95 10.6842 3.03148 10.6053 3.23519C10.5263 3.43889 10.6053 3.68333 10.8026 3.76481L11.3158 4.00926L9.57895 7.59444H5.67105V5.39444C7.76316 5.19074 9.38158 3.35741 9.38158 1.15741C9.38158 0.912963 9.22368 0.75 8.98684 0.75C7.21053 0.75 5.67105 1.93148 5.11842 3.56111C4.52632 2.66481 3.53947 2.0537 2.43421 2.0537C2.19737 2.0537 2.03947 2.21667 2.03947 2.46111C2.03947 4.17222 3.30263 5.59815 4.88158 5.80185V7.5537H0.894737C0.657895 7.5537 0.5 7.71667 0.5 7.96111C0.5 10.9759 2.19737 13.6238 4.68421 14.887H2.75C2.51316 14.887 2.35526 15.05 2.35526 15.2944V16.8426C2.35526 17.087 2.51316 17.25 2.75 17.25H13.2892C13.5261 17.25 13.684 17.087 13.684 16.8426V15.2944C13.684 15.05 13.5261 14.887 13.2892 14.887H11.355C13.8024 13.6648 15.4998 11.0574 15.4998 8.00162L15.5 8.00185ZM8.59233 1.6463C8.39496 3.19444 7.21075 4.41667 5.71075 4.62037C5.90812 3.07222 7.09233 1.85 8.59233 1.6463ZM2.86842 2.95C3.89474 3.11296 4.68421 3.96852 4.8421 5.02778C3.85526 4.86481 3.06579 4.05 2.86842 2.95ZM12.066 4.33519L12.4608 4.49815L12.6976 4.57963L11.5529 7.59444H10.4871L12.066 4.33519ZM12.8555 15.7426V16.4759H3.14496V15.7426H12.8555ZM8.00045 14.9278C4.44782 14.9278 1.48707 12.0352 1.28992 8.40926H14.711C14.5136 12.0759 11.5531 14.9278 8.00045 14.9278Z" fill="currentColor"/>
</symbol><symbol id="ic-mainnav-5" viewBox="0 0 12 18">
<path d="M0.0750773 17.25L2.07172 14.0117C2.5788 13.5921 3.21285 13.1194 3.38993 12.8322L3.40462 12.6045C3.6292 12.7259 3.81937 12.8333 4.2049 13.044C4.39053 13.1444 4.6572 13.0772 4.76462 12.9031L8.65863 6.58747L9.36788 6.97088C9.55365 7.0746 9.82431 7.00836 9.9326 6.83263C10.041 6.65691 9.96699 6.40423 9.77808 6.30546C9.37703 6.07072 8.89233 5.82649 8.54662 5.61877L10.2805 2.8067L10.635 2.99835C10.8208 3.1022 11.0914 3.03596 11.1997 2.8601C11.3082 2.68438 11.2341 2.43184 11.0452 2.33293L8.20834 0.799345C8.02257 0.695627 7.75191 0.761871 7.64361 0.937595C7.53518 1.11345 7.60923 1.36599 7.79813 1.46477L8.15269 1.65655L6.41556 4.47382C6.04987 4.28994 5.57905 4.03539 5.16814 3.81324C4.98237 3.70939 4.71171 3.77563 4.60342 3.95149C4.49498 4.12721 4.56903 4.37975 4.75794 4.47866L5.46719 4.86207L1.5699 11.1829C1.46247 11.3571 1.53381 11.6068 1.71943 11.7072C2.13506 11.9279 2.29128 12.0113 2.52599 12.1364L2.32596 12.257C2.15075 12.5426 2.03418 13.2867 1.90061 13.9053L0 16.9877L0.0747646 17.2498L0.0750773 17.25ZM2.48435 11.2334L6.17271 5.24327C6.70562 5.53141 7.41615 5.9155 7.94307 6.21409L7.53928 6.86905L6.65269 6.38981L6.24251 7.05523L7.12899 7.53447L6.71881 8.19975L5.83233 7.7205L5.42214 8.38592L6.30873 8.86516L5.89855 9.53058L5.01207 9.05133L4.60189 9.71675L5.48837 10.196L5.07818 10.8614L4.1916 10.3822L3.78141 11.0476L4.66789 11.5268L4.26081 12.187C3.6821 11.8709 3.24251 11.6365 2.4846 11.2336L2.48435 11.2334ZM7.82805 5.25081L7.1188 4.86739L8.86232 2.03967L9.57157 2.42309L7.82805 5.25081Z" fill="currentColor"/>
</symbol><symbol id="ic-mainnav-6" viewBox="0 0 18 18">
<path d="M16.5103 9.43684V8.52298C16.5103 8.15583 16.2136 7.85694 15.8488 7.85694H13.3161L14.5122 6.59326L14.3995 6.47978C13.9484 6.02554 13.1929 6.00627 12.7246 6.49413L11.4166 7.85694H8.40926C8.04468 7.85694 7.74788 8.15571 7.74788 8.52298V8.64609H3.04942C2.65465 8.64609 2.33359 8.96954 2.33359 9.36709V9.38591H1.7548C1.3386 9.38591 1 9.72701 1 10.1462C1 10.5654 1.3386 10.9064 1.7548 10.9064H5.22272L8.55267 12.8848L5.25422 14.8444H2.75432V15.1733H3.70521V15.5313C3.35305 15.5858 3.08177 15.8902 3.08177 16.2599C3.08177 16.6679 3.41138 16.9998 3.81651 16.9998C4.21936 16.9998 4.54681 16.6716 4.55057 16.2668L5.27425 15.6688V15.1734H12.474V15.6688L13.1977 16.2669C13.2016 16.6716 13.5289 16.9998 13.9317 16.9998C14.3368 16.9998 14.6664 16.6679 14.6664 16.2599C14.6664 15.8902 14.3951 15.5859 14.043 15.5313V15.1733H14.9939V14.8444H12.494L9.19521 12.8848L12.5252 10.9064H16.2451C16.6614 10.9064 17 10.5654 17 10.1462C17 9.82124 16.7956 9.5454 16.5102 9.43687L16.5103 9.43684ZM3.81643 16.6709C3.5913 16.6709 3.40821 16.4866 3.40821 16.2598C3.40821 16.0332 3.5913 15.8487 3.81643 15.8487C4.04156 15.8487 4.22464 16.0331 4.22464 16.2598C4.22464 16.4864 4.04156 16.6709 3.81643 16.6709ZM4.94765 15.513L4.46209 15.9142C4.37163 15.7436 4.21816 15.6142 4.03165 15.5562V15.1733H4.94765V15.513ZM14.3399 16.2598C14.3399 16.4864 14.1568 16.6709 13.9317 16.6709C13.7066 16.6709 13.5235 16.4866 13.5235 16.2598C13.5235 16.0332 13.7066 15.8487 13.9317 15.8487C14.1568 15.8489 14.3399 16.0332 14.3399 16.2598ZM12.8006 15.1733H13.7166V15.5562C13.5301 15.6142 13.3766 15.7436 13.2861 15.9144L12.8006 15.5131L12.8005 15.1733H12.8006ZM15.1686 8.18564H15.8488C16.0335 8.18564 16.1838 8.33686 16.1838 8.52284V9.38576H15.1686L15.1686 8.18564ZM13.7305 8.18564H14.8421V9.38576H13.7305V8.18564ZM13.4039 8.18564V9.38576H12.2923V8.93843L13.0049 8.18564H13.4039ZM12.2924 8.46193V8.18564H12.5539L12.2924 8.46193ZM12.9593 6.72241C13.2556 6.414 13.7168 6.38325 14.0457 6.60928L12.8651 7.85681H11.8706L12.9593 6.72241ZM10.8542 8.18562H11.1011L10.8542 8.44286V8.18562ZM10.8542 8.9159L11.555 8.18562H11.9658V8.80678L11.4179 9.38562H10.8541L10.8542 8.9159ZM11.9659 9.28341V9.38575H11.869L11.9659 9.28341ZM9.41607 8.18562H10.5277V8.64582H9.41607V8.18562ZM9.41607 8.97476H10.5277V9.38586H9.41607V8.97476ZM8.07452 8.52281C8.07452 8.33683 8.22468 8.18562 8.40936 8.18562H9.08952V8.64582H8.07449L8.07452 8.52281ZM8.07452 8.97476H9.08955V9.38586H8.07452V8.97476ZM2.66032 9.36694C2.66032 9.15067 2.83486 8.97476 3.04964 8.97476H7.74809V9.38586L2.66026 9.38574L2.66032 9.36694ZM11.8513 14.8443H5.89665L8.87398 13.0754L11.8513 14.8443ZM8.87398 12.6937L5.86544 10.9062H11.8828L8.87398 12.6937ZM16.245 10.5774H1.7547C1.51851 10.5774 1.32641 10.3838 1.32641 10.146C1.32641 9.90809 1.5185 9.71453 1.7547 9.71453H16.245C16.4813 9.71453 16.6734 9.90798 16.6734 10.146C16.6734 10.3838 16.4813 10.5774 16.245 10.5774Z" fill="currentColor" stroke="currentColor" stroke-width="0.25"/>
<path d="M10.0498 2.73972C10.1721 2.7107 10.2981 2.69601 10.4243 2.69601V2.36719C10.2729 2.36719 10.1217 2.38486 9.97485 2.41974L10.0498 2.73972Z" fill="currentColor" stroke="currentColor" stroke-width="0.25"/>
<path d="M8.93751 3.05733L9.18554 3.27132C9.35268 3.07478 9.56584 2.91885 9.80157 2.82031L9.67658 2.51648C9.39346 2.63488 9.1379 2.8218 8.9375 3.05734L8.93751 3.05733Z" fill="currentColor" stroke="currentColor" stroke-width="0.25"/>
<path d="M15.6858 2.87181C15.6858 2.62949 15.5633 2.41551 15.3773 2.28918L15.8822 1.13241L15.5835 1.00012L15.0695 2.17766C15.0425 2.17444 15.0161 2.16939 14.9883 2.16939C14.6602 2.16939 14.3861 2.39955 14.3121 2.70738H12.4679C11.9893 2.10031 11.2518 1.70931 10.4242 1.70931C9.59646 1.70931 8.85898 2.10043 8.38035 2.70738H6.5269C6.45296 2.39944 6.17871 2.16939 5.8507 2.16939C5.82655 2.16939 5.80376 2.17421 5.78018 2.17662L5.26588 1L4.96704 1.1324L5.47052 2.28424C5.27991 2.40976 5.15309 2.62581 5.15309 2.8718C5.15309 3.25904 5.46605 3.57421 5.85059 3.57421C6.17871 3.57421 6.45282 3.34405 6.52679 3.03622H8.1591C7.94035 3.42059 7.81341 3.86437 7.81341 4.33824V4.50265H13.0345V4.33824C13.0345 3.86437 12.9076 3.42059 12.6889 3.03622H14.3119C14.386 3.34405 14.6601 3.57421 14.9881 3.57421C15.3728 3.57421 15.6857 3.25904 15.6857 2.8718L15.6858 2.87181ZM5.85077 3.24527C5.64615 3.24527 5.4798 3.07776 5.4798 2.87169C5.4798 2.66562 5.64625 2.4981 5.85077 2.4981C6.05539 2.4981 6.22174 2.66573 6.22174 2.87169C6.22174 3.07775 6.05528 3.24527 5.85077 3.24527ZM12.7023 4.17382H8.14589C8.22986 2.98195 9.21969 2.03813 10.4243 2.03813C11.6288 2.03802 12.6184 2.98195 12.7024 4.17382H12.7023ZM14.9882 3.24527C14.7836 3.24527 14.6173 3.07776 14.6173 2.87169C14.6173 2.66562 14.7837 2.4981 14.9882 2.4981C15.1929 2.4981 15.3592 2.66573 15.3592 2.87169C15.3592 3.07775 15.1928 3.24527 14.9882 3.24527Z" fill="currentColor" stroke="currentColor" stroke-width="0.25"/>
</symbol><symbol id="ic-mainnav-7" viewBox="0 0 16 16">
<path d="M13.884 10.9507L13.5384 10.6051L12.805 11.3384L12.8049 11.3383C12.7096 11.4338 12.7096 11.5886 12.8049 11.684L13.5383 12.4174L13.8839 12.0718L13.5678 11.7556H14.9334V11.2668H13.5678L13.884 10.9507Z" fill="currentColor" stroke="currentColor" stroke-width="0.2"/>
<path d="M1.7334 14.2H3.0989L2.78289 14.516L3.12849 14.8616L3.86182 14.1283V14.1284C3.95719 14.0329 3.95719 13.8781 3.86182 13.7826L3.12849 13.0493L2.78289 13.3949L3.0989 13.711H1.7334V14.2Z" fill="currentColor" stroke="currentColor" stroke-width="0.2"/>
<path d="M6.13328 7.35547C6.13328 7.61748 5.99349 7.85953 5.76662 7.99058C5.53974 8.12153 5.26016 8.12153 5.03329 7.99058C4.80641 7.85951 4.66662 7.61748 4.66662 7.35547H4.17773C4.17773 7.79209 4.41072 8.19563 4.78884 8.4139C5.16696 8.63226 5.63294 8.63226 6.01106 8.4139C6.38918 8.19564 6.62217 7.79209 6.62217 7.35547H6.13328Z" fill="currentColor" stroke="currentColor" stroke-width="0.2"/>
<path d="M9.79984 8.08891C9.60538 8.08891 9.41876 8.01165 9.28128 7.87415C9.14381 7.73665 9.06652 7.55003 9.06652 7.35559H8.57764C8.57764 7.79221 8.81062 8.19575 9.18875 8.41402C9.56686 8.63238 10.0328 8.63238 10.411 8.41402C10.7891 8.19576 11.0221 7.79221 11.0221 7.35559H10.5332C10.5332 7.55005 10.4559 7.73667 10.3184 7.87415C10.1809 8.01162 9.99431 8.08891 9.79987 8.08891H9.79984Z" fill="currentColor" stroke="currentColor" stroke-width="0.2"/>
<path d="M6.62207 12H8.57762V12.4889H6.62207V12Z" fill="currentColor" stroke="currentColor" stroke-width="0.2"/>
<path d="M7.11114 11.0222H8.33336V10.5333H7.35559V8.57776H6.8667V10.7778C6.8667 10.8426 6.89245 10.9048 6.93829 10.9506C6.98412 10.9964 7.04632 11.0222 7.11114 11.0222Z" fill="currentColor" stroke="currentColor" stroke-width="0.2"/>
<path d="M4.66675 6.1333H6.37785V6.62219H4.66675V6.1333Z" fill="currentColor" stroke="currentColor" stroke-width="0.2"/>
<path d="M8.82227 6.1333H10.5334V6.62219H8.82227V6.1333Z" fill="currentColor" stroke="currentColor" stroke-width="0.2"/>
<path d="M14.4444 13.2222H12.2444C12.0282 13.2229 11.8185 13.2954 11.6478 13.4281C11.4772 13.5608 11.3553 13.7462 11.3013 13.9555H10.3884C11.4747 12.8174 12.5979 11.214 12.7181 9.79996H12.7333C13.1221 9.79953 13.495 9.64489 13.77 9.36999C14.0449 9.09499 14.1995 8.72212 14.2 8.3333V7.35553C14.1994 6.9964 14.0674 6.64991 13.8286 6.38158C13.5898 6.11335 13.261 5.9418 12.9044 5.89968L13.6793 4.54345C13.7003 4.50656 13.7113 4.46466 13.7111 4.42221C13.7111 2.34444 12.2718 1 10.0444 1H4.91109C2.73554 1 1.48888 2.24666 1.48888 4.42221C1.48866 4.4651 1.49979 4.50722 1.52118 4.54443L2.29608 5.90066H2.29597C1.93945 5.94267 1.61066 6.114 1.37189 6.38212C1.13301 6.65013 1.00075 6.99649 1 7.35553V8.33331C1.00044 8.72213 1.15507 9.09502 1.42997 9.37C1.70497 9.64489 2.07784 9.79952 2.46666 9.79997H2.48183C2.63755 11.6299 4.47624 13.782 5.73307 14.8238C5.73962 14.8293 5.7466 14.8345 5.7538 14.8393C6.55731 15.3719 7.13688 15.6667 7.70443 15.6667C8.24221 15.6667 8.77015 15.4017 9.46717 14.8241C9.60357 14.7109 9.74784 14.5821 9.89515 14.4448H11.3015V14.4447C11.3556 14.654 11.4774 14.8394 11.648 14.972C11.8187 15.1047 12.0285 15.177 12.2445 15.1778H14.4445V15.6667H14.9334V12.7333H14.4445L14.4444 13.2222ZM13.711 7.35552V8.3333C13.711 8.59258 13.608 8.84129 13.4247 9.02472C13.2412 9.20806 12.9925 9.31107 12.7333 9.31107V6.37775C12.9925 6.37775 13.2413 6.48076 13.4247 6.6641C13.608 6.84754 13.711 7.09625 13.711 7.35552ZM2.46663 9.31107C2.20735 9.31107 1.95864 9.20806 1.77521 9.02472C1.59188 8.84128 1.48886 8.59258 1.48886 8.3333V7.35552C1.48886 7.09624 1.59188 6.84753 1.77521 6.6641C1.95865 6.48076 2.20736 6.37775 2.46663 6.37775V9.31107ZM1.97775 4.35795C2.00219 2.50705 3.04106 1.48888 4.91107 1.48888H10.0444C11.9814 1.48888 13.1934 2.58647 13.2221 4.35823L12.391 5.81092L11.3798 5.30348L12.2028 4.06903L11.7961 3.79774L10.9405 5.08282L10.6384 4.93124C10.3067 4.77442 9.96418 4.64173 9.61344 4.53423L10.0324 3.27732L9.56793 3.1228L9.13994 4.40438C8.71467 4.30442 8.2809 4.24484 7.84439 4.22672V2.95562H7.3555V4.22477C6.91757 4.23786 6.48205 4.29428 6.05526 4.39315L5.63186 3.12204L5.16741 3.27656L5.58297 4.52322H5.58308C5.23038 4.63257 4.88707 4.77007 4.55641 4.9342L4.09002 5.16816L3.41823 3.82373L2.98063 4.04231L3.65284 5.38674L2.80885 5.81093L1.97775 4.35795ZM9.70384 13.9555H8.57767V14.4444H9.15821L9.15505 14.4473C7.91274 15.4772 7.42224 15.3579 6.03455 14.439C4.53984 13.1963 2.9554 11.066 2.9554 9.55548V6.28412L4.77532 5.37085C5.65291 4.93521 6.61946 4.70845 7.59941 4.70845C8.57925 4.70845 9.5458 4.93522 10.4235 5.37085L12.2444 6.28412V9.55548C12.2444 10.8847 11.017 12.6933 9.70392 13.9555L9.70384 13.9555ZM14.4444 14.6888H12.2444C12.0697 14.6888 11.9083 14.5956 11.821 14.4444C11.7337 14.2931 11.7337 14.1067 11.821 13.9555C11.9083 13.8043 12.0697 13.7111 12.2444 13.7111H12.4888V14.1999H12.9777V13.7111H13.4666V14.1999H13.9555V13.7111H14.4444V14.6888Z" fill="currentColor" stroke="currentColor" stroke-width="0.2"/>
</symbol><symbol id="ic-elsenav-0" viewBox="0 0 18 18">
<path d="M16.4801 11.1562C16.0035 10.9124 15.4535 10.9686 15.0501 11.2875L12.465 12.8062C12.3183 12.8812 12.1717 12.9375 12.0067 12.9563C12.08 12.7875 12.1351 12.6 12.1351 12.3937C12.1351 11.6625 11.5668 11.0812 10.8518 11.0812H7.47841L7.05677 10.7438C6.21336 10.1062 5.24171 9.74993 4.23334 9.74993H1.85008C1.24507 9.74993 0.75 10.2562 0.75 10.875V15.375C0.75 15.9938 1.24504 16.5001 1.85008 16.5001H2.21672C2.73005 16.5001 3.17009 16.1251 3.28006 15.6375L5.53505 16.9875C5.81 17.1562 6.14006 17.25 6.47003 17.25H10.7601C11.1267 17.25 11.4751 17.1375 11.7867 16.9313L16.7001 13.5563L16.7184 13.5376C17.0668 13.2751 17.25 12.8626 17.25 12.4125C17.2503 11.8875 16.9569 11.4001 16.4803 11.1562L16.4801 11.1562ZM2.58329 15.375C2.58329 15.5812 2.41832 15.7499 2.21665 15.7499H1.85002C1.64834 15.7499 1.48338 15.5812 1.48338 15.375L1.48325 10.875C1.48325 10.6687 1.64822 10.5 1.84989 10.5H2.58316L2.58329 15.375ZM16.2784 12.9563L11.3651 16.3125C11.1817 16.4438 10.98 16.5001 10.76 16.5001H6.47C6.26832 16.5001 6.08493 16.4438 5.91996 16.3501L3.3166 14.7938V10.5001H4.25158C5.07655 10.5001 5.90153 10.8001 6.59827 11.3251L7.12988 11.7376C7.20315 11.7938 7.27656 11.8125 7.34984 11.8125H10.8332C11.1449 11.8125 11.3832 12.0563 11.3832 12.3751C11.3832 12.6751 11.1449 12.9376 10.8332 12.9376H6.25015C6.14017 12.9376 6.04848 12.9751 5.9752 13.0501C5.92021 13.125 5.88351 13.2188 5.88351 13.3126C5.88351 13.5188 6.04848 13.6875 6.25015 13.6875H11.9152C12.2269 13.6875 12.5569 13.5938 12.8319 13.4438L15.4169 11.925L15.4536 11.8875C15.6553 11.7375 15.912 11.6999 16.1504 11.8126C16.3703 11.925 16.517 12.15 16.517 12.4126C16.517 12.6376 16.4253 12.825 16.2786 12.9563L16.2784 12.9563ZM10.65 9.00001C12.8685 9.00001 14.6834 7.14373 14.6834 4.87501C14.6835 2.60619 12.8685 0.75 10.65 0.75C8.43162 0.75 6.61667 2.60629 6.61667 4.87501C6.61667 7.14369 8.43172 9.00001 10.65 9.00001ZM10.65 1.5C12.4651 1.5 13.9501 3.01872 13.9501 4.87501C13.9501 6.73129 12.4651 8.25001 10.65 8.25001C8.83499 8.25001 7.35001 6.73129 7.35001 4.87501C7.35014 3.01872 8.83512 1.5 10.65 1.5ZM9.36673 3.93754C9.36673 3.20629 9.93504 2.62507 10.65 2.62507H11.3833C11.585 2.62507 11.75 2.79379 11.75 3.00004C11.75 3.20629 11.585 3.375 11.3833 3.375H10.65C10.3384 3.375 10.1 3.61879 10.1 3.93754C10.1 4.23757 10.3384 4.50007 10.65 4.50007C11.3651 4.50007 11.9334 5.08129 11.9334 5.81254C11.9334 6.54379 11.3651 7.12501 10.65 7.12501H9.91677C9.71509 7.12501 9.55013 6.95629 9.55013 6.75004C9.55013 6.54379 9.7151 6.37508 9.91677 6.37508H10.65C10.9617 6.37508 11.2001 6.11258 11.2001 5.81254C11.2001 5.49381 10.9617 5.25001 10.65 5.25001C9.93504 5.25001 9.36673 4.66879 9.36673 3.93754Z" fill="currentColor"/>
</symbol><symbol id="ic-elsenav-1" viewBox="0 0 18 18">
<g clip-path="url(#clip0_5587_506610)">
<path d="M12.025 10.9249H11.75C11.6771 10.9249 11.6071 10.9539 11.5555 11.0055L9.00001 13.5611L6.4445 11.0056V11.0055C6.39294 10.9539 6.32296 10.9249 6.25004 10.9249H5.97504C4.59489 10.9431 3.2765 11.4993 2.30043 12.4754C1.32442 13.4514 0.768166 14.7698 0.75 16.15V16.975C0.75 17.1268 0.873137 17.25 1.025 17.25C1.17686 17.25 1.3 17.1268 1.3 16.975V16.15C1.31362 15.1547 1.63958 14.1888 2.23169 13.3886C2.82368 12.5884 3.6521 11.9944 4.59998 11.6903V13.2694C4.22444 13.3041 3.8754 13.4777 3.62114 13.7561C3.36677 14.0346 3.22558 14.3978 3.22499 14.775V16.15C3.22499 16.2229 3.25396 16.2929 3.30552 16.3444C3.35708 16.396 3.42706 16.425 3.49999 16.425H4.04998C4.20185 16.425 4.32498 16.3018 4.32498 16.15C4.32498 15.9981 4.20185 15.875 4.04998 15.875H3.77498V14.775C3.77498 14.5197 3.87639 14.2749 4.05686 14.0944C4.23745 13.9139 4.48224 13.8125 4.73747 13.8125H5.01247C5.26771 13.8125 5.5125 13.9139 5.69309 14.0944C5.87355 14.275 5.97496 14.5197 5.97496 14.775V15.875H5.69996C5.5481 15.875 5.42496 15.9981 5.42496 16.15C5.42496 16.3018 5.5481 16.425 5.69996 16.425H6.24996C6.32288 16.425 6.39286 16.396 6.44442 16.3444C6.49599 16.2929 6.52496 16.2229 6.52496 16.15V14.775C6.52434 14.3978 6.38316 14.0346 6.1288 13.7561C5.87455 13.4777 5.52554 13.3041 5.14997 13.2694V11.5555C5.42189 11.5032 5.69811 11.4762 5.97496 11.475H6.13616L8.72495 14.0638V16.975C8.72495 17.1268 8.84808 17.25 8.99994 17.25C9.15181 17.25 9.27494 17.1268 9.27494 16.975V14.0638L11.8637 11.475H12.0249C12.3018 11.4762 12.578 11.5032 12.8499 11.5555V14.264C12.5013 14.354 12.2188 14.609 12.0936 14.9466C11.9683 15.2842 12.0163 15.6618 12.222 15.9572C12.4276 16.2529 12.7648 16.4292 13.1249 16.4292C13.485 16.4292 13.8223 16.2529 14.0279 15.9572C14.2335 15.6617 14.2815 15.2842 14.1563 14.9466C14.031 14.609 13.7485 14.3541 13.3999 14.264V11.6903C14.3478 11.9944 15.1762 12.5884 15.7682 13.3886C16.3603 14.1888 16.6863 15.1547 16.6999 16.15V16.975C16.6999 17.1268 16.823 17.25 16.9749 17.25C17.1268 17.25 17.2499 17.1268 17.2499 16.975V16.15C17.2317 14.7698 16.6755 13.4514 15.6995 12.4754C14.7235 11.4993 13.4051 10.9431 12.0249 10.9249L12.025 10.9249ZM13.675 15.3249C13.675 15.4708 13.617 15.6107 13.5139 15.7138C13.4108 15.817 13.2708 15.8749 13.125 15.8749C12.9791 15.8749 12.8392 15.817 12.736 15.7138C12.6329 15.6107 12.575 15.4708 12.575 15.3249C12.575 15.1791 12.6329 15.0391 12.736 14.936C12.8392 14.8329 12.9791 14.7749 13.125 14.7749C13.2708 14.7749 13.4108 14.8329 13.5139 14.936C13.617 15.0391 13.675 15.1791 13.675 15.3249Z" fill="currentColor" stroke="currentColor" stroke-width="0.2"/>
<path d="M5.42492 7.07497H5.44468C5.56757 8.22996 6.43628 9.20264 7.35751 9.78639H7.35763C7.35407 9.79904 7.35149 9.81193 7.3499 9.82494V10.9249C7.3499 11.0768 7.47303 11.1999 7.6249 11.1999C7.77676 11.1999 7.89989 11.0768 7.89989 10.9249V10.0826C8.24231 10.2554 8.61684 10.3549 8.99989 10.3749C9.38294 10.3549 9.75747 10.2554 10.0999 10.0826V10.9249C10.0999 11.0768 10.223 11.1999 10.3749 11.1999C10.5267 11.1999 10.6499 11.0768 10.6499 10.9249V9.82494C10.6483 9.81193 10.6457 9.79904 10.6421 9.78639C11.5634 9.20251 12.4321 8.22848 12.555 7.07497H12.5749C12.9267 7.0757 13.2576 6.90764 13.4644 6.62306C13.6714 6.33836 13.7293 5.97177 13.62 5.63737C13.5107 5.30281 13.2476 5.04108 12.9126 4.93353C13.1419 4.02248 13.2362 3.63613 13.1166 3.15845C12.8175 1.96135 11.3074 0.75 8.99983 0.75C6.69223 0.75 5.18222 1.96135 4.88302 3.15845C4.76345 3.63613 4.85773 4.02248 5.08706 4.93353C4.75204 5.04108 4.48895 5.30281 4.37967 5.63737C4.27041 5.9718 4.32823 6.33838 4.53522 6.62306C4.74208 6.90763 5.07293 7.07569 5.4248 7.07497H5.42492ZM8.9999 9.82495C8.0039 9.82495 5.97491 8.42466 5.97491 6.79997V5.32849C7.52339 5.05361 9.00053 4.46911 10.3177 3.60999C10.6573 4.05661 11.3596 4.90518 12.0249 5.25998V6.79997C12.0249 8.42466 9.9959 9.82495 8.9999 9.82495ZM13.1249 5.97497C13.1249 6.12082 13.0669 6.26078 12.9638 6.3639C12.8607 6.46702 12.7207 6.52497 12.5749 6.52497V5.42498C12.7207 5.42498 12.8607 5.48292 12.9638 5.58605C13.0669 5.68917 13.1249 5.82913 13.1249 5.97497ZM5.41674 3.29152C5.65823 2.32595 6.99602 1.3 8.9999 1.3C11.0038 1.3 12.3417 2.32598 12.5831 3.29152C12.6702 3.64104 12.5894 3.96478 12.3726 4.82598C11.8644 4.61016 11.0672 3.72071 10.5984 3.06599C10.5541 3.00387 10.4858 2.96299 10.4101 2.95304C10.3343 2.94322 10.258 2.96532 10.1992 3.01406C10.1834 3.02732 8.63805 4.2777 5.62853 4.83285C5.41049 3.96587 5.32898 3.64187 5.41651 3.29151L5.41674 3.29152ZM5.42497 5.42498V6.52497C5.22842 6.52497 5.04685 6.42013 4.94864 6.24997C4.85043 6.07982 4.85043 5.87013 4.94864 5.69998C5.04685 5.52982 5.22843 5.42498 5.42497 5.42498Z" fill="currentColor" stroke="currentColor" stroke-width="0.2"/>
<path d="M11.2001 5.97492C11.2001 6.27865 10.9538 6.52492 10.6501 6.52492C10.3464 6.52492 10.1001 6.27865 10.1001 5.97492C10.1001 5.6712 10.3464 5.42493 10.6501 5.42493C10.9538 5.42493 11.2001 5.6712 11.2001 5.97492Z" fill="currentColor" stroke="currentColor" stroke-width="0.2"/>
<path d="M7.90004 5.97492C7.90004 6.27865 7.65377 6.52492 7.35005 6.52492C7.04632 6.52492 6.80005 6.27865 6.80005 5.97492C6.80005 5.6712 7.04632 5.42493 7.35005 5.42493C7.65377 5.42493 7.90004 5.6712 7.90004 5.97492Z" fill="currentColor" stroke="currentColor" stroke-width="0.2"/>
<path d="M9.65286 7.96061C9.46331 8.09909 9.23471 8.17361 9 8.17361C8.76529 8.17361 8.53668 8.09909 8.34714 7.96061C8.29066 7.91175 8.21676 7.88806 8.14249 7.89481C8.06809 7.90156 7.99971 7.93827 7.95293 7.99646C7.90628 8.05465 7.88517 8.12929 7.8945 8.20332C7.90395 8.27735 7.94299 8.34438 8.0029 8.38907C8.28919 8.60796 8.63958 8.72655 9.00003 8.72655C9.36048 8.72655 9.71085 8.60796 9.99716 8.38907C10.0571 8.34438 10.0961 8.27735 10.1056 8.20332C10.1149 8.12929 10.0938 8.05465 10.0471 7.99646C10.0003 7.93827 9.93197 7.90156 9.85757 7.89481C9.7833 7.88806 9.70939 7.91175 9.65292 7.96061H9.65286Z" fill="currentColor" stroke="currentColor" stroke-width="0.2"/>
</g>

</symbol><symbol id="ic-elsenav-2" viewBox="0 0 18 16">
<path d="M6.46803 11.4869C6.54322 11.4869 6.6055 11.4189 6.6055 11.3368V8.28831H9.39571C9.4709 8.28831 9.53317 8.22031 9.53317 8.13822L9.5333 5.24194C9.5333 5.15984 9.47103 5.09185 9.39583 5.09185L6.60549 5.09171V2.04338C6.60549 1.96129 6.54322 1.89329 6.46802 1.89329H3.81528C3.74009 1.89329 3.67781 1.96129 3.67781 2.04338V5.09185L0.887471 5.09171C0.812276 5.09171 0.75 5.15985 0.75 5.24194V8.13822C0.75 8.22032 0.812276 8.28831 0.887471 8.28831H3.67768V11.3368C3.67768 11.4189 3.73995 11.4869 3.81515 11.4869L6.46803 11.4869ZM1.02478 7.98811V5.392H3.81499C3.89018 5.392 3.95246 5.32401 3.95246 5.24191L3.95259 2.19344H6.3304V5.24191C6.3304 5.32401 6.39268 5.392 6.46787 5.392H9.25808V7.98811H6.46787C6.39268 7.98811 6.3304 8.0561 6.3304 8.1382V11.1867H3.95259V8.1382C3.95259 8.0561 3.89031 7.98811 3.81512 7.98811H1.02478ZM15.0459 12.1593V13.5565C15.0459 14.6274 14.2466 15.5 13.2658 15.5H6.78509C5.80424 15.5 5.00499 14.6274 5.00499 13.5565V12.4757L3.99665 13.5925C3.94345 13.6526 3.85547 13.6526 3.80227 13.5945C3.74907 13.5364 3.74728 13.4403 3.80048 13.3822L5.04349 12.0052C5.09477 11.9471 5.18837 11.9471 5.23965 12.0052L6.48266 13.3822C6.53586 13.4403 6.53586 13.5364 6.48087 13.5945C6.45338 13.6225 6.41859 13.6384 6.38368 13.6384C6.3489 13.6384 6.31219 13.6245 6.28649 13.5945L5.27814 12.4776V13.5584C5.27814 14.4651 5.95283 15.2018 6.78331 15.2018H13.266C14.0964 15.2018 14.7711 14.4652 14.7711 13.5584V12.1613C14.7711 12.0792 14.8334 12.0112 14.9086 12.0112C14.9838 12.0112 15.0461 12.0772 15.0461 12.1593H15.0459ZM17.0094 2.95802C17.0606 3.02002 17.1468 3.02407 17.2037 2.97003C17.2605 2.91404 17.266 2.81994 17.2147 2.75781C16.6684 2.08931 15.9919 1.76302 15.046 1.70297V0.650091C15.046 0.567993 14.9837 0.5 14.9085 0.5C14.8334 0.5 14.7711 0.567993 14.7711 0.650091V1.69696C14.0854 1.71902 13.4309 2.12337 13.0607 2.75781C12.7068 3.36433 12.6701 4.07486 12.9654 4.70944C13.3357 5.44399 14.2267 5.78033 14.7712 5.98042L14.7709 9.86352C13.8836 9.85556 13.2236 9.58134 12.8112 9.04686C12.7617 8.98278 12.6755 8.97482 12.6168 9.02885C12.5581 9.08289 12.5508 9.17699 12.6003 9.24108C13.0678 9.84352 13.7974 10.1538 14.771 10.1638V11.4568C14.771 11.5389 14.8332 11.6069 14.9084 11.6069C14.9836 11.6069 15.0459 11.5389 15.0459 11.4568V10.1478C15.8306 10.0678 16.5236 9.66942 16.8939 9.06697C17.1341 8.67659 17.3504 8.02221 17.0149 7.11341C16.6226 6.31478 15.6839 5.98848 15.1211 5.79443C15.0954 5.78438 15.0698 5.77642 15.0459 5.76846V2.0051C15.9058 2.06318 16.5181 2.35946 17.0094 2.95786L17.0094 2.95802ZM13.2089 4.56938C12.9614 4.03699 12.9925 3.43441 13.2932 2.92003C13.614 2.37159 14.1805 2.02324 14.7708 1.99922V5.66429C14.2612 5.47427 13.5077 5.16404 13.2089 4.56953L13.2089 4.56938ZM16.7674 7.23948C16.9929 7.852 16.9581 8.42639 16.6667 8.89887C16.3458 9.42133 15.739 9.76953 15.046 9.8476L15.0459 6.08066C15.5684 6.26287 16.4356 6.56708 16.7674 7.23966L16.7674 7.23948Z" fill="currentColor" stroke="currentColor" stroke-width="0.5"/>
</symbol><symbol id="ic-elsenav-3" viewBox="0 0 12 17">
<path d="M9.53506 16.5C10.4783 16.5 11.25 15.7617 11.25 14.8594V2.39062C11.25 1.48825 10.4783 0.75 9.53506 0.75H1.71494C0.771692 0.75 0 1.48825 0 2.39062V14.8594C0 15.7617 0.771692 16.5 1.71494 16.5H9.53506ZM0.685975 3.22734H10.5812V13.3172H0.685975V3.22734ZM1.715 1.40625H9.55227C10.1182 1.40625 10.5813 1.84925 10.5813 2.39068V2.57116L0.686098 2.57104V2.39057C0.686098 1.84916 1.14916 1.40625 1.71512 1.40625L1.715 1.40625ZM0.685975 14.8594V13.9735H10.5812V14.8594C10.5812 15.4008 10.1181 15.8438 9.55215 15.8438L1.71488 15.8437C1.14895 15.8437 0.685853 15.4008 0.685853 14.8594L0.685975 14.8594Z" fill="currentColor"/>
<path d="M4.90472 15.1219H6.34524C6.53389 15.1219 6.6882 14.9743 6.6882 14.7938C6.6882 14.6133 6.53388 14.4657 6.34524 14.4657H4.90472C4.71608 14.4657 4.56177 14.6133 4.56177 14.7938C4.56177 14.9742 4.71608 15.1219 4.90472 15.1219Z" fill="currentColor"/>
</symbol></svg>