<svg width="1511" height="366" viewBox="0 0 1511 366" fill="none" xmlns="http://www.w3.org/2000/svg">
<mask id="mask0_7696_493102" style="mask-type:alpha" maskUnits="userSpaceOnUse" x="0" y="-293" width="1511" height="1037">
<path d="M0 -293H1511V683.616C1511 716.753 1484.14 743.616 1451 743.616H0V-293Z" fill="#F78067"/>
</mask>
<g mask="url(#mask0_7696_493102)">
<path d="M380.737 346.622C53.5875 307.526 -144.688 286.789 -295.771 403.98C-446.854 521.171 -421.158 691.391 -421.158 691.391L1136.76 994.976L1578.22 367.268L1524.92 100.667C1252.23 345.025 707.887 385.719 380.737 346.622Z" fill="#1C7DD5" fill-opacity="0.48"/>
<path d="M384.189 335.068C59.6305 278.349 -137.235 246.927 -294.431 355.781C-451.626 464.636 -435.166 635.996 -435.166 635.996L1104.07 1023.33L1578.8 420.4L1540 151.308C1254.5 380.572 708.748 391.788 384.189 335.068Z" fill="#1C7DD5"/>
</g>
</svg>
