<svg width="1511" height="499" viewBox="0 0 1511 499" fill="none" xmlns="http://www.w3.org/2000/svg">
<mask id="mask0_7696_492733" style="mask-type:alpha" maskUnits="userSpaceOnUse" x="0" y="-174" width="1511" height="1038">
<path d="M0 -173.309H1511V803.308C1511 836.445 1484.14 863.308 1451 863.308H0V-173.309Z" fill="#F78067"/>
</mask>
<g mask="url(#mask0_7696_492733)">
<path d="M380.737 466.314C53.5875 427.217 -144.688 406.48 -295.771 523.671C-446.854 640.862 -421.158 811.083 -421.158 811.083L1136.76 1114.67L1578.22 486.959L1524.92 220.358C1252.23 464.717 707.887 505.41 380.737 466.314Z" fill="#1C7DD5" fill-opacity="0.48"/>
<path d="M384.189 454.76C59.6305 398.04 -137.235 366.618 -294.431 475.473C-451.626 584.327 -435.166 755.688 -435.166 755.688L1104.07 1143.02L1578.8 540.091L1540 271C1254.5 500.264 708.748 511.479 384.189 454.76Z" fill="#1C7DD5"/>
<path d="M1127.78 1112.92L1104.07 1143.02L492.429 989.108L1127.78 1112.92ZM1578.81 540.091L1223.45 991.407L1572.35 495.309L1578.81 540.091ZM-294.427 475.473C-137.232 366.618 59.6341 398.04 384.193 454.76C448.012 465.913 520.383 474.437 597.646 479.195C519.326 478.699 445.745 474.082 380.741 466.313C53.5911 427.217 -144.685 406.481 -295.768 523.672C-394.47 600.232 -417.722 699.426 -421.981 759.004L-435.163 755.688C-435.187 755.439 -451.509 584.248 -294.427 475.473ZM1552.82 359.881L1535.73 274.396C1537.16 273.269 1538.58 272.138 1540 271L1552.82 359.881Z" fill="#2AB4F1"/>
</g>
</svg>
