<svg width="988" height="336" viewBox="0 0 988 336" fill="none" xmlns="http://www.w3.org/2000/svg">
<mask id="mask0_7696_493855" style="mask-type:alpha" maskUnits="userSpaceOnUse" x="4" y="0" width="980" height="328">
<path d="M4 0H984V328H4V0Z" fill="#F78067"/>
</mask>
<g mask="url(#mask0_7696_493855)">
<path d="M296.75 98.5566C92.1121 89.8229 -31.8725 85.6329 -124.539 132.038C-217.206 178.444 -198.86 241.467 -198.86 241.467L777.239 326.843L1044.13 84.8544L1007.26 -13.6196C840.447 82.3854 501.387 107.29 296.75 98.5566Z" fill="#1C7DD5" fill-opacity="0.48"/>
<path d="M217.084 98.12C37.0627 78.9869 -72.1317 68.3874 -159.323 105.107C-246.514 141.827 -307.998 378 -307.998 378L97.7222 335.5L1067.5 335.5L1020 60.5L1037 6C878.643 83.337 397.106 117.253 217.084 98.12Z" fill="#1C7DD5"/>
<path d="M-141.381 100.549C-61.6653 54.6886 38.1677 67.9267 202.755 91.8225C235.119 96.5212 271.819 100.113 311 102.117C271.283 101.908 233.969 99.9629 201.005 96.6901C35.1033 80.2189 -65.445 71.4828 -142.061 120.855C-192.114 153.11 -203.905 194.9 -206.065 220L-212.75 218.603C-212.762 218.498 -221.039 146.376 -141.381 100.549Z" fill="#2AB4F1"/>
</g>
</svg>
