<svg width="744" height="398" viewBox="0 0 744 398" fill="none" xmlns="http://www.w3.org/2000/svg">
<mask id="mask0_7696_493469" style="mask-type:alpha" maskUnits="userSpaceOnUse" x="-12" y="0" width="1511" height="1037">
<path d="M-12 0H1499V976.616C1499 1009.75 1472.14 1036.62 1439 1036.62H-12V0Z" fill="#F78067"/>
</mask>
<g mask="url(#mask0_7696_493469)">
<path d="M196.113 349.605C17.2957 328.235 -91.0801 316.901 -173.661 380.956C-256.241 445.012 -242.196 538.053 -242.196 538.053L609.348 703.989L850.644 360.889L821.515 215.168C672.464 348.732 374.93 370.975 196.113 349.605Z" fill="#1C7DD5" fill-opacity="0.48"/>
<path d="M197.988 343.297C20.5872 312.295 -87.0177 295.12 -172.939 354.618C-258.861 414.117 -249.864 507.781 -249.864 507.781L591.468 719.496L850.953 389.938L829.742 242.855C673.69 368.169 375.389 374.299 197.988 343.297Z" fill="#1C7DD5"/>
<path d="M604.433 703.035L591.477 719.492L257.158 635.363L604.433 703.035ZM850.962 389.934L656.727 636.62L847.431 365.457L850.962 389.934ZM-172.931 354.614C-87.0088 295.116 20.5963 312.291 197.997 343.293C232.88 349.389 272.437 354.048 314.669 356.649C271.86 356.378 231.641 353.854 196.11 349.608C17.2932 328.238 -91.0828 316.904 -173.663 380.96C-227.613 422.807 -240.322 477.025 -242.65 509.59L-249.855 507.777C-249.868 507.642 -258.79 414.07 -172.931 354.614ZM836.757 291.433L827.417 244.708C828.198 244.092 828.976 243.473 829.751 242.852L836.757 291.433Z" fill="#2AB4F1"/>
</g>
</svg>
