<svg width="44" height="42" viewBox="0 0 44 42" fill="none" xmlns="http://www.w3.org/2000/svg">
<path d="M22.1308 41.7846L14.3781 33.5666L15.0829 32.8195C16.2912 31.4855 16.996 29.7777 16.996 27.9102C16.996 24.068 14.0761 20.9729 10.4512 20.9729C8.73963 20.9729 7.0782 21.6667 5.86985 23.0008L5.11484 23.8011L4.41004 23.0008C-0.322365 17.6113 -0.171333 9.33995 4.71205 4.16377C7.12847 1.60246 10.3505 0.214844 13.7739 0.214844C16.8449 0.214844 19.7649 1.38882 22.1311 3.46996C24.4471 1.33565 27.3667 0.214844 30.4883 0.214844C33.9115 0.214844 37.1338 1.60218 39.5502 4.21704C41.9666 6.77835 43.3259 10.1936 43.3259 13.8223C43.3259 17.4508 42.0171 20.8664 39.6004 23.4276L22.1308 41.7846ZM17.1972 33.5666L22.1308 38.796L38.0898 21.8267C40.1034 19.6924 41.2616 16.8105 41.2616 13.7155C41.2616 10.6736 40.154 7.79222 38.0898 5.60426C36.0763 3.46995 33.3574 2.24232 30.4375 2.24232C27.5175 2.24232 24.8493 3.4163 22.7851 5.60426L22.1309 6.40492L21.4261 5.65786C19.4125 3.52355 16.6937 2.29592 13.8243 2.29592C10.9545 2.29592 8.23611 3.4699 6.22245 5.65786C2.34588 9.76688 1.99366 16.2237 5.31644 20.7595C6.82685 19.5322 8.63922 18.8916 10.5019 18.8916C15.2343 18.8916 19.0602 22.9471 19.0602 27.9632C19.0096 29.991 18.4053 31.9657 17.1972 33.5663L17.1972 33.5666ZM6.87675 27.4832H14.4283C14.9821 27.4832 15.4351 27.0031 15.4351 26.4161C15.4351 25.8291 14.9821 25.3489 14.4283 25.3489H9.34369L10.4513 24.1749C10.6525 23.9616 10.7533 23.6948 10.7533 23.4279C10.7533 23.161 10.6525 22.8941 10.4513 22.6808C10.0485 22.2539 9.44446 22.2539 9.04162 22.6808L6.17184 25.7227C5.97062 25.936 5.92005 26.1496 5.86984 26.4165V26.6298C5.86984 26.8431 5.97062 27.0035 6.12163 27.2168C6.17184 27.27 6.17184 27.27 6.22241 27.3236C6.42364 27.3769 6.62486 27.4833 6.87664 27.4833L6.87675 27.4832ZM12.3139 33.14L15.1837 30.0981C15.3849 29.8848 15.4355 29.6712 15.4857 29.4043V29.191C15.4857 28.9777 15.3849 28.8173 15.2339 28.604C15.1837 28.5507 15.1837 28.5507 15.1331 28.4971C14.9319 28.3371 14.6801 28.2302 14.4785 28.2302H6.92694C6.37314 28.2302 5.92015 28.7104 5.92015 29.2974C5.92015 29.8844 6.37317 30.3646 6.92694 30.3646H12.0621L10.9545 31.5385C10.7533 31.7518 10.6525 32.0187 10.6525 32.2856C10.6525 32.5525 10.7533 32.8194 10.9545 33.0327C11.1558 33.246 11.4075 33.3528 11.6593 33.3528C11.8609 33.4064 12.1123 33.2999 12.3139 33.1399L12.3139 33.14Z" fill="white"/>
<path d="M22.1308 41.7846L14.3781 33.5666L15.0829 32.8195C16.2912 31.4855 16.996 29.7777 16.996 27.9102C16.996 24.068 14.0761 20.9729 10.4512 20.9729C8.73963 20.9729 7.0782 21.6667 5.86985 23.0008L5.11484 23.8011L4.41004 23.0008C-0.322365 17.6113 -0.171333 9.33995 4.71205 4.16377C7.12847 1.60246 10.3505 0.214844 13.7739 0.214844C16.8449 0.214844 19.7649 1.38882 22.1311 3.46996C24.4471 1.33565 27.3667 0.214844 30.4883 0.214844C33.9115 0.214844 37.1338 1.60218 39.5502 4.21704C41.9666 6.77835 43.3259 10.1936 43.3259 13.8223C43.3259 17.4508 42.0171 20.8664 39.6004 23.4276L22.1308 41.7846ZM17.1972 33.5666L22.1308 38.796L38.0898 21.8267C40.1034 19.6924 41.2616 16.8105 41.2616 13.7155C41.2616 10.6736 40.154 7.79222 38.0898 5.60426C36.0763 3.46995 33.3574 2.24232 30.4375 2.24232C27.5175 2.24232 24.8493 3.4163 22.7851 5.60426L22.1309 6.40492L21.4261 5.65786C19.4125 3.52355 16.6937 2.29592 13.8243 2.29592C10.9545 2.29592 8.23611 3.4699 6.22245 5.65786C2.34588 9.76688 1.99366 16.2237 5.31644 20.7595C6.82685 19.5322 8.63922 18.8916 10.5019 18.8916C15.2343 18.8916 19.0602 22.9471 19.0602 27.9632C19.0096 29.991 18.4053 31.9657 17.1972 33.5663L17.1972 33.5666ZM6.87675 27.4832H14.4283C14.9821 27.4832 15.4351 27.0031 15.4351 26.4161C15.4351 25.8291 14.9821 25.3489 14.4283 25.3489H9.34369L10.4513 24.1749C10.6525 23.9616 10.7533 23.6948 10.7533 23.4279C10.7533 23.161 10.6525 22.8941 10.4513 22.6808C10.0485 22.2539 9.44446 22.2539 9.04162 22.6808L6.17184 25.7227C5.97062 25.936 5.92005 26.1496 5.86984 26.4165V26.6298C5.86984 26.8431 5.97062 27.0035 6.12163 27.2168C6.17184 27.27 6.17184 27.27 6.22241 27.3236C6.42364 27.3769 6.62486 27.4833 6.87664 27.4833L6.87675 27.4832ZM12.3139 33.14L15.1837 30.0981C15.3849 29.8848 15.4355 29.6712 15.4857 29.4043V29.191C15.4857 28.9777 15.3849 28.8173 15.2339 28.604C15.1837 28.5507 15.1837 28.5507 15.1331 28.4971C14.9319 28.3371 14.6801 28.2302 14.4785 28.2302H6.92694C6.37314 28.2302 5.92015 28.7104 5.92015 29.2974C5.92015 29.8844 6.37317 30.3646 6.92694 30.3646H12.0621L10.9545 31.5385C10.7533 31.7518 10.6525 32.0187 10.6525 32.2856C10.6525 32.5525 10.7533 32.8194 10.9545 33.0327C11.1558 33.246 11.4075 33.3528 11.6593 33.3528C11.8609 33.4064 12.1123 33.2999 12.3139 33.1399L12.3139 33.14Z" fill="#102A83"/>
</svg>
