<svg width="33" height="42" viewBox="0 0 33 42" fill="none" xmlns="http://www.w3.org/2000/svg">
<path d="M29.2518 29.2113C28.5077 29.0756 27.685 29.2176 26.7464 29.6408L20.0395 32.5572C20.0449 32.5014 20.0502 32.4474 20.0556 32.3957C20.089 32.0467 20.046 31.6682 19.929 31.2687C19.6789 30.4137 19.1074 29.7099 18.3634 29.3373C18.3496 29.3299 18.3442 29.3281 18.33 29.3218C18.2525 29.2878 16.11 28.3138 15.2938 27.9431L10.301 25.6443C9.96804 25.4861 9.59982 25.4062 9.20781 25.4062C7.75488 25.4062 6.3434 26.0468 5.33311 27.1646C5.0838 27.4411 4.8552 27.7494 4.6661 28.065L0.914932 30.6629C0.577785 30.8968 0.500303 31.3489 0.743098 31.6742C0.985894 31.9991 1.45498 32.0727 1.79256 31.8398L5.67914 29.1478C5.77272 29.0835 5.84867 28.9988 5.90236 28.9016C6.05502 28.6273 6.24909 28.356 6.46619 28.1172C7.18996 27.3162 8.18875 26.8568 9.20708 26.8568C9.36703 26.8568 9.51201 26.8867 9.64434 26.9499L14.6478 29.2539C17.0827 30.3613 17.5744 30.5839 17.6795 30.6316C18.0523 30.8231 18.343 31.1986 18.4807 31.6655C18.5475 31.8932 18.5732 32.095 18.557 32.2669C18.5367 32.4802 18.5141 32.7212 18.4496 32.8909C18.2199 33.5089 17.7044 33.9081 17.1352 33.9081C16.9591 33.9081 16.785 33.8697 16.6185 33.7931L12.371 31.8474C11.9963 31.6755 11.5471 31.8297 11.3692 32.1912C11.1908 32.5523 11.3507 32.9852 11.7259 33.1567L15.9734 35.1024C16.3428 35.2721 16.7336 35.3582 17.1356 35.3582C17.8808 35.3582 18.5724 35.0632 19.0986 34.559L27.3746 30.9602C28.0266 30.6664 28.5494 30.5607 28.9736 30.6372C29.2935 30.6952 29.6157 30.9074 29.8554 31.2179C30.2605 31.7417 30.359 32.4857 30.0971 33.0269C29.9843 33.2586 29.8263 33.4098 29.5148 33.5858L19.2519 39.3558C19.2293 39.3684 19.2067 39.3828 19.1852 39.3984C18.0963 40.1705 17.0718 40.3206 16.0558 39.856L14.1679 38.9895L14.1046 38.9607C11.2842 37.6813 8.08814 36.2324 4.93525 37.0626L2.28253 37.7612C1.8821 37.8669 1.64582 38.2654 1.75514 38.6513C1.86484 39.0372 2.27831 39.2649 2.67874 39.1595L5.33145 38.4609C7.94882 37.7715 10.8784 39.1004 13.4625 40.2722L15.4106 41.1652C15.999 41.4332 16.6004 41.5666 17.2064 41.5666C18.1557 41.5666 19.1139 41.2384 20.0429 40.5886L30.2723 34.8363C30.6613 34.6178 31.1465 34.2848 31.4591 33.6387C31.9531 32.6193 31.7931 31.2974 31.0606 30.3504C30.5903 29.7427 29.9479 29.3383 29.2509 29.2108L29.2518 29.2113Z" fill="#102A83" stroke="#102A83" stroke-width="0.237209"/>
<path d="M12.6658 13.8463H15.6729V16.7442C15.6729 17.1449 16.0089 17.4687 16.4247 17.4687H19.7539C20.1697 17.4687 20.5057 17.1449 20.5057 16.7442V13.8463H23.5128C23.9286 13.8463 24.2645 13.5224 24.2645 13.1218V9.91334C24.2645 9.51265 23.9285 9.18885 23.5128 9.18885H20.5057V6.29089C20.5057 5.8902 20.1697 5.56641 19.7539 5.56641H16.4247C16.0089 5.56641 15.6729 5.89021 15.6729 6.29089V9.18885H12.6658C12.25 9.18885 11.9141 9.51266 11.9141 9.91334V13.1218C11.9141 13.5225 12.2501 13.8463 12.6658 13.8463ZM13.4176 10.6378H16.4247C16.8405 10.6378 17.1764 10.314 17.1764 9.91334V7.01538H19.0022V9.91334C19.0022 10.314 19.3382 10.6378 19.754 10.6378H22.7611V12.3973H19.754C19.3382 12.3973 19.0022 12.7211 19.0022 13.1218V16.0198H17.1764V13.1218C17.1764 12.7211 16.8404 12.3973 16.4247 12.3973H13.4176V10.6378Z" fill="#102A83" stroke="#102A83" stroke-width="0.237209"/>
<path d="M17.5899 24.6742C17.7326 24.7961 17.9109 24.8575 18.0893 24.8575C18.2676 24.8575 18.4468 24.7965 18.5898 24.6734C19.2419 24.1123 27.6463 16.7858 29.5774 14.8577C33.1536 11.8419 33.5295 6.58523 30.4108 3.123C28.7677 1.29925 26.3877 0.253906 23.8823 0.253906H23.8693C21.731 0.253906 19.6658 1.02793 18.0891 2.39854C14.807 -0.461003 9.72838 -0.482767 6.41916 2.46692C2.91916 5.58745 2.70638 10.871 5.94432 14.2442C6.27725 14.591 17.4955 24.5946 17.5887 24.6731L17.5899 24.6742ZM7.44092 3.53159C10.3329 0.953372 14.862 1.12304 17.5369 3.90936C17.6796 4.05721 17.8794 4.14223 18.0888 4.14223C18.2982 4.14223 18.4992 4.05721 18.6407 3.90936C19.9844 2.50698 21.8883 1.70369 23.8686 1.70369H23.8794H23.8924C25.9586 1.70665 27.9198 2.57086 29.2741 4.07382C31.857 6.93961 31.5379 11.2969 28.5642 13.7864C28.5469 13.8008 28.5308 13.8152 28.5147 13.8318C26.8995 15.4516 20.0638 21.4379 18.0908 23.1548C15.8761 21.1894 7.40469 13.6031 7.03942 13.2539C4.3706 10.4669 4.54901 6.1074 7.43908 3.53099L7.44092 3.53159Z" fill="#102A83" stroke="#102A83" stroke-width="0.237209"/>
</svg>
