<svg width="44" height="45" viewBox="0 0 44 45" fill="none" xmlns="http://www.w3.org/2000/svg">
<path fill-rule="evenodd" clip-rule="evenodd" d="M30.4648 24.1629H3.20045C2.69732 24.1629 2.32031 23.7476 2.32031 23.2219V1.82382C2.32031 1.29776 2.69766 0.882812 3.20045 0.882812H30.4648C30.9428 0.882812 31.3449 1.29812 31.3449 1.82382V23.1662C31.3701 23.7199 30.9424 24.1626 30.4648 24.1626V24.1629ZM3.50252 22.8342H30.1129V2.18379H3.50252V22.8342Z" fill="#102A83" stroke="#102A83" stroke-width="0.493023"/>
<path fill-rule="evenodd" clip-rule="evenodd" d="M16.8312 16.6085C13.8885 16.6085 11.0967 15.2799 9.15989 12.8991C8.98379 12.6499 8.93348 12.3176 9.10957 12.0411L11.2224 8.66394C11.3231 8.49781 11.4992 8.38707 11.6753 8.35938C11.8262 8.35938 12.0526 8.44244 12.1532 8.58087C13.3353 10.048 14.9701 10.8232 16.7811 10.8232C18.5417 10.8232 20.252 10.0203 21.3838 8.58087C21.5347 8.44244 21.7108 8.35938 21.8869 8.35938C22.063 8.35938 22.2391 8.47012 22.3397 8.63624L24.4526 12.0134C24.6287 12.2626 24.6035 12.6225 24.4274 12.844C22.541 15.2802 19.7492 16.6088 16.8317 16.6088L16.8312 16.6085ZM10.4175 12.4007C12.0775 14.2277 14.4165 15.3072 16.8312 15.3072C19.2204 15.3072 21.5346 14.2554 23.2449 12.4007L21.8113 10.1307C20.4531 11.4594 18.6673 12.2069 16.8312 12.2069C14.9448 12.2069 13.2093 11.4593 11.8008 10.1307L10.4175 12.4007Z" fill="#102A83" stroke="#102A83" stroke-width="0.493023"/>
<path fill-rule="evenodd" clip-rule="evenodd" d="M7.23047 29.5082C6.90344 29.5082 6.60156 29.2037 6.60156 28.8161V23.4734C6.60156 23.0858 6.90344 22.7812 7.23047 22.7812C7.58266 22.7812 7.85938 23.0858 7.85938 23.4734V28.8161C7.83422 29.2037 7.5575 29.5082 7.23047 29.5082Z" fill="#102A83" stroke="#102A83" stroke-width="0.493023"/>
<path fill-rule="evenodd" clip-rule="evenodd" d="M26.4258 29.5082C26.0736 29.5082 25.7969 29.2037 25.7969 28.8161V23.4734C25.7969 23.0858 26.0736 22.7812 26.4258 22.7812C26.778 22.7812 27.0547 23.0858 27.0547 23.4734V28.8161C27.0547 29.2037 26.778 29.5082 26.4258 29.5082Z" fill="#102A83" stroke="#102A83" stroke-width="0.493023"/>
<path fill-rule="evenodd" clip-rule="evenodd" d="M32.4875 40.3043H1.17359C0.720783 40.3043 0.34375 39.8613 0.34375 39.3633V29.0934C0.34375 28.595 0.721097 28.1523 1.17359 28.1523H32.4875C32.9403 28.1523 33.3425 28.5953 33.3425 29.0934V39.419C33.3425 39.862 32.94 40.3046 32.4875 40.3046V40.3043ZM1.5508 38.948H32.1095V29.5083H1.5508V38.948Z" fill="#102A83" stroke="#102A83" stroke-width="0.493023"/>
<path fill-rule="evenodd" clip-rule="evenodd" d="M19.0558 36.1757C18.1002 36.1757 17.3203 35.3451 17.3203 34.2656C17.3203 33.1861 18.0999 32.3555 19.0558 32.3555C20.0366 32.3555 20.8165 33.1861 20.8165 34.2656C20.8165 35.3451 20.0369 36.1757 19.0558 36.1757ZM19.0558 33.6842C18.7791 33.6842 18.5527 33.9611 18.5527 34.2656C18.5527 34.5702 18.7791 34.8471 19.0558 34.8471C19.3577 34.8471 19.5841 34.5702 19.5841 34.2656C19.5841 33.9611 19.3829 33.6842 19.0558 33.6842Z" fill="#102A83" stroke="#102A83" stroke-width="0.493023"/>
<path fill-rule="evenodd" clip-rule="evenodd" d="M23.9074 36.1757C22.9266 36.1757 22.1719 35.3451 22.1719 34.2656C22.1719 33.1861 22.9266 32.3555 23.9074 32.3555C24.8882 32.3555 25.668 33.1861 25.668 34.2656C25.668 35.3451 24.8634 36.1757 23.9074 36.1757ZM23.9074 33.6842C23.6307 33.6842 23.3791 33.9611 23.3791 34.2656C23.3791 34.5702 23.6307 34.8471 23.9074 34.8471C24.1841 34.8471 24.4357 34.5702 24.4357 34.2656C24.4357 33.9611 24.1841 33.6842 23.9074 33.6842Z" fill="#102A83" stroke="#102A83" stroke-width="0.493023"/>
<path fill-rule="evenodd" clip-rule="evenodd" d="M28.7294 36.1757C27.7486 36.1757 26.9688 35.3451 26.9688 34.2656C26.9688 33.1861 27.7483 32.3555 28.7294 32.3555C29.6851 32.3555 30.4649 33.1861 30.4649 34.2656C30.4649 35.3451 29.6602 36.1757 28.7294 36.1757ZM28.7294 33.6842C28.4275 33.6842 28.2011 33.9611 28.2011 34.2656C28.2011 34.5702 28.4275 34.8471 28.7294 34.8471C29.0061 34.8471 29.2325 34.5702 29.2325 34.2656C29.2325 33.9611 29.0061 33.6842 28.7294 33.6842Z" fill="#102A83" stroke="#102A83" stroke-width="0.493023"/>
<path fill-rule="evenodd" clip-rule="evenodd" d="M14.6222 34.9586H3.83203C3.47984 34.9586 3.20312 34.654 3.20312 34.2664C3.20312 33.8788 3.47985 33.5742 3.83203 33.5742H14.6222C14.9744 33.5742 15.2511 33.8788 15.2511 34.2664C15.2511 34.654 14.9743 34.9586 14.6222 34.9586Z" fill="#102A83" stroke="#102A83" stroke-width="0.493023"/>
<path fill-rule="evenodd" clip-rule="evenodd" d="M34.4693 43.8176H21.0886C18.3975 43.8176 16.2344 41.9352 16.2344 39.6098C16.2344 39.2222 16.5111 38.9176 16.8633 38.9176C17.2155 38.9176 17.4922 39.2222 17.4922 39.6098C17.4922 41.1323 19.1773 42.4886 21.1141 42.4886H34.5201C36.4569 42.4886 38.142 41.16 38.142 39.6098V22.6687C38.142 22.2811 38.4187 21.9766 38.7709 21.9766C39.1231 21.9766 39.3998 22.2811 39.3998 22.6687V39.6376C39.3244 41.9353 37.1361 43.8178 34.4701 43.8178L34.4693 43.8176Z" fill="#102A83" stroke="#102A83" stroke-width="0.493023"/>
<path fill-rule="evenodd" clip-rule="evenodd" d="M38.6917 23.3277C37.0317 23.3277 35.6736 21.8329 35.6736 19.9783L35.6484 16.075C35.6484 15.6874 35.9503 15.3828 36.2773 15.3828C36.6295 15.3828 36.9063 15.6874 36.9063 16.075V19.9783C36.9063 21.0577 37.7612 21.9714 38.7423 21.9714C39.698 21.9714 40.5533 21.0581 40.5533 19.9783V16.075C40.5533 15.6874 40.83 15.3828 41.1822 15.3828C41.5092 15.3828 41.8111 15.6874 41.8111 16.075V19.9783C41.7608 21.8329 40.3775 23.3277 38.6923 23.3277H38.6917Z" fill="#102A83" stroke="#102A83" stroke-width="0.493023"/>
<path fill-rule="evenodd" clip-rule="evenodd" d="M42.6406 16.7164H34.793C34.4408 16.7164 34.1641 16.4118 34.1641 16.0242C34.1641 15.6366 34.4408 15.332 34.793 15.332H42.6406C42.9928 15.332 43.2695 15.6366 43.2695 16.0242C43.2695 16.4118 42.9425 16.7164 42.6406 16.7164Z" fill="#102A83" stroke="#102A83" stroke-width="0.493023"/>
</svg>
