<svg width="53" height="45" viewBox="0 0 53 45" fill="none" xmlns="http://www.w3.org/2000/svg">
<path d="M51.7571 1.125H1.24285C0.763312 1.125 0.375 1.5973 0.375 2.18055V42.8195C0.375 43.4027 0.763312 43.875 1.24285 43.875H51.7571C52.2363 43.875 52.625 43.4027 52.625 42.8195V2.18055C52.625 1.59779 52.2367 1.125 51.7571 1.125ZM50.8893 34.0921H15.8525C15.373 34.0921 14.9847 34.5644 14.9847 35.1477C14.9847 35.7304 15.373 36.2032 15.8525 36.2032H50.8893V41.7632L2.11103 41.7637V36.2037H10.0742C10.5538 36.2037 10.9421 35.7309 10.9421 35.1481C10.9421 34.5649 10.5538 34.0926 10.0742 34.0926L2.11103 34.0921V3.2365H50.8893V34.0921ZM30.7028 21.31H44.9889C45.4684 21.31 45.8567 20.8377 45.8567 20.2544C45.8567 19.6712 45.4684 19.1989 44.9889 19.1989H30.7028C30.2237 19.1989 29.8349 19.6712 29.8349 20.2544C29.8345 20.8377 30.2237 21.31 30.7028 21.31ZM30.7028 16.5432H44.9889C45.4684 16.5432 45.8567 16.0709 45.8567 15.4877C45.8567 14.9044 45.4684 14.4321 44.9889 14.4321L30.7028 14.4317C30.2237 14.4317 29.8349 14.904 29.8349 15.4872C29.8345 16.0709 30.2237 16.5432 30.7028 16.5432V16.5432ZM30.7028 26.0781H37.8454C38.325 26.0781 38.7133 25.6058 38.7133 25.0225C38.7133 24.4398 38.325 23.967 37.8454 23.967L30.7028 23.9665C30.2237 23.9665 29.8349 24.4393 29.8349 25.022C29.8345 25.6058 30.2237 26.0781 30.7028 26.0781V26.0781ZM8.01353 22.8942H12.3726V28.2005C12.3726 28.7833 12.7609 29.2561 13.2405 29.2561H18.465C18.9445 29.2561 19.3328 28.7833 19.3328 28.2005V22.8942H23.6919C24.1714 22.8942 24.5598 22.4219 24.5598 21.8387V15.4872C24.5598 14.9039 24.1714 14.4316 23.6919 14.4316H19.3328V9.12976C19.3328 8.54651 18.9445 8.07421 18.465 8.07421H13.2405C12.7609 8.07421 12.3726 8.54651 12.3726 9.12976V14.4316H8.01353C7.53399 14.4316 7.14568 14.9039 7.14568 15.4872V21.8387C7.14527 22.4219 7.53359 22.8942 8.01353 22.8942ZM8.88137 16.5432H13.2405C13.72 16.5432 14.1083 16.0709 14.1083 15.4877V10.1858H17.5967V15.4877C17.5967 16.0709 17.985 16.5432 18.4645 16.5432H22.8236V20.7831H18.4645C17.985 20.7831 17.5967 21.2554 17.5967 21.8386V27.1449H14.1083V21.8386C14.1083 21.2554 13.72 20.7831 13.2405 20.7831H8.88137V16.5432Z" fill="#102A83" stroke="#102A83" stroke-width="0.475"/>
</svg>
