<svg width="43" height="58" viewBox="0 0 43 58" fill="none" xmlns="http://www.w3.org/2000/svg">
<path d="M31.4466 14.3373L31.5041 17.64C31.5041 17.64 37.7598 17.5694 38.604 23.9269C38.6122 26.5547 38.4972 26.7896 38.6336 29.4436C39.0556 37.6866 30.4218 39.1926 29.9866 38.5931L30.0605 42.0569C31.4893 42.0569 40.0394 41.4574 41.8756 31.9318C41.8756 31.9318 42.0694 25.5266 41.7458 22.7346C40.1297 14.9022 32.5289 14.1451 31.4466 14.3373Z" fill="#E2E4F1"/>
<path d="M27.9613 1.08516L34.5932 7.80238C34.8488 8.05908 34.9923 8.40661 34.9923 8.7689C34.9923 9.13119 34.8488 9.47872 34.5932 9.73542L22.2837 21.948C22.0243 22.2022 21.6755 22.3447 21.3123 22.3447C20.949 22.3447 20.6002 22.2022 20.3408 21.948L13.6909 15.0501C13.4352 14.7931 13.2916 14.4453 13.2916 14.0827C13.2916 13.7202 13.4352 13.3724 13.6909 13.1154L26.0086 1.08516C26.2684 0.827902 26.6193 0.683594 26.985 0.683594C27.3506 0.683594 27.7015 0.827902 27.9613 1.08516Z" fill="#E2E4F1"/>
<path d="M15.2113 16.6289L18.6947 20.1632L16.9242 21.9551C16.7823 22.1034 16.6115 22.2213 16.4225 22.3014C16.2334 22.3816 16.03 22.4224 15.8247 22.4213C15.6193 22.4203 15.4164 22.3773 15.2282 22.2952C15.0399 22.213 14.8705 22.0934 14.7301 21.9436L13.2914 20.362C12.6623 19.7362 12.7445 18.9183 13.3735 18.2893L15.2113 16.6289Z" fill="#E2E4F1"/>
<path d="M31.0138 1.16395C31.3238 0.856257 31.743 0.683594 32.1798 0.683594C32.6167 0.683594 33.0358 0.856257 33.3459 1.16395L34.6598 2.49098C34.9675 2.80239 35.1401 3.22254 35.1401 3.66033C35.1401 4.09812 34.9675 4.51827 34.6598 4.82968L33.1028 6.38499L29.5356 2.66999L31.0138 1.16395Z" fill="#E2E4F1"/>
<path d="M14.8734 33.2852H2.54102C2.14216 33.2856 1.75976 33.4442 1.47773 33.7263C1.19569 34.0083 1.03706 34.3907 1.03662 34.7896V36.0361C1.03706 36.435 1.19569 36.8174 1.47773 37.0994C1.75976 37.3814 2.14216 37.5401 2.54102 37.5405H14.8734V33.2852Z" fill="#E2E4F1"/>
<path d="M12.6704 40.2134C12.7017 37.9383 13.6275 35.767 15.2474 34.1693C16.8673 32.5715 19.0511 31.6758 21.3264 31.6758C23.6017 31.6758 25.7855 32.5715 27.4054 34.1693C29.0253 35.767 29.9511 37.9383 29.9824 40.2134V49.0197H12.6704V40.2134Z" fill="#E2E4F1"/>
<path d="M1.0188 53.0546C1.0188 50.6765 3.11937 48.75 5.71428 48.75H37.0717C39.665 48.75 41.7672 50.6765 41.7672 53.0546V56.1931C41.7672 56.8353 41.194 57.3609 40.4927 57.3609H2.29162C1.59198 57.3609 1.0188 56.8353 1.0188 56.1931V53.0546Z" fill="#E2E4F1"/>
<path d="M42.4644 30.4226V24.8386C42.4583 21.9293 41.3201 19.1366 39.2907 17.0521C37.2612 14.9675 34.5001 13.7547 31.592 13.6706L34.9917 10.3367C35.179 10.1557 35.3279 9.93873 35.4295 9.69888C35.5311 9.45902 35.5832 9.20115 35.5829 8.94066C35.5851 8.42049 35.3848 7.91987 35.0245 7.54466L33.842 6.34575L35.1395 5.06471C35.3268 4.8837 35.4757 4.66678 35.5773 4.42693C35.6789 4.18707 35.7311 3.9292 35.7307 3.66871C35.7329 3.14854 35.5326 2.64792 35.1723 2.27271L33.5628 0.630362C33.3828 0.441749 33.1661 0.291989 32.926 0.190305C32.6859 0.0886217 32.4276 0.0371688 32.1668 0.0391158C31.6467 0.0369821 31.146 0.237229 30.7708 0.597515L29.4734 1.87855L28.258 0.646786C28.076 0.461972 27.8593 0.314906 27.6203 0.214023C27.3814 0.11314 27.1248 0.0604238 26.8654 0.058898C26.6061 0.0573722 26.3489 0.107067 26.1088 0.205131C25.8686 0.303196 25.6502 0.447702 25.466 0.630362L13.1648 12.7345C12.9775 12.9155 12.8286 13.1324 12.727 13.3723C12.6254 13.6121 12.5732 13.87 12.5736 14.1305C12.5714 14.6507 12.7717 15.1513 13.132 15.5265L14.1995 16.6104L12.8856 17.9079C12.7008 18.0899 12.5537 18.3066 12.4529 18.5456C12.352 18.7846 12.2993 19.0411 12.2977 19.3005C12.2962 19.5599 12.3459 19.817 12.444 20.0572C12.542 20.2973 12.6865 20.5157 12.8692 20.6999L14.4787 22.3423C14.6597 22.5296 14.8766 22.6785 15.1165 22.7801C15.3563 22.8816 15.6142 22.9338 15.8747 22.9335H15.8911C16.1465 22.936 16.3999 22.888 16.6367 22.7921C16.8735 22.6963 17.0889 22.5546 17.2707 22.3751L18.5846 21.0776L19.8985 22.4244C20.2654 22.7971 20.7647 23.0096 21.2877 23.0158C21.8107 23.0219 22.3149 22.8212 22.6905 22.4572L25.154 20.0265L24.2343 19.0904L21.7707 21.5211C21.6438 21.6399 21.4765 21.706 21.3027 21.706C21.1288 21.706 20.9615 21.6399 20.8346 21.5211L14.0681 14.6068C14.0086 14.5462 13.9619 14.4743 13.9309 14.3953C13.8998 14.3163 13.8851 14.2318 13.8875 14.1469C13.885 14.0606 13.9014 13.9747 13.9354 13.8953C13.9694 13.8159 14.0203 13.7449 14.0845 13.6871L26.3858 1.59935C26.5127 1.48054 26.68 1.41443 26.8538 1.41443C27.0277 1.41443 27.195 1.48054 27.3219 1.59935L34.0884 8.48081C34.1928 8.60515 34.2509 8.76187 34.2526 8.92424C34.255 9.01059 34.2387 9.09644 34.2047 9.17584C34.1706 9.25525 34.1197 9.3263 34.0555 9.3841L30.2124 13.1615L31.1321 14.0976L31.2964 13.9334V14.9517C33.9099 14.9517 36.4163 15.9899 38.2643 17.8379C40.1123 19.6859 41.1505 22.1923 41.1505 24.8058V30.3898C41.1475 33.2057 40.0488 35.91 38.087 37.9301C36.1251 39.9502 33.4541 41.1275 30.6394 41.2129C30.6394 41.2129 30.623 39.6362 30.6066 39.3899C32.9876 39.1902 35.2068 38.1039 36.8249 36.3459C38.443 34.5879 39.342 32.2864 39.3439 29.8971V24.5594C39.3422 22.5781 38.5543 20.6784 37.1533 19.2774C35.7523 17.8763 33.8526 17.0885 31.8712 17.0867V18.4006C33.5045 18.401 35.0708 19.0501 36.2257 20.205C37.3806 21.3599 38.0296 22.9261 38.03 24.5594V29.8971C38.0274 31.9723 37.2407 33.97 35.8275 35.4897C34.4144 37.0095 32.4791 37.9391 30.4095 38.0924C29.9378 36.0449 28.7864 34.2176 27.143 32.9082C25.4997 31.5989 23.4613 30.8849 21.3602 30.8825C19.3851 30.8801 17.4618 31.5135 15.8747 32.6891H2.39099C1.86829 32.6891 1.36701 32.8967 0.997407 33.2663C0.627806 33.6359 0.420166 34.1372 0.420166 34.6599L0.420166 36.138C0.420166 36.6607 0.627806 37.162 0.997407 37.5316C1.36701 37.9012 1.86829 38.1088 2.39099 38.1088H12.3108C12.1587 38.7826 12.0815 39.4711 12.0809 40.1618V48.1272H5.2651C3.97834 48.1397 2.74832 48.6587 1.84148 49.5717C0.934634 50.4846 0.423993 51.7182 0.420166 53.005V56.536C0.420166 56.8845 0.558592 57.2187 0.804993 57.4651C1.05139 57.7115 1.38558 57.8499 1.73405 57.8499H41.1505C41.499 57.8499 41.8332 57.7115 42.0796 57.4651C42.326 57.2187 42.4644 56.8845 42.4644 56.536V53.005C42.4646 52.3687 42.3394 51.7386 42.096 51.1506C41.8526 50.5627 41.4957 50.0285 41.0458 49.5786C40.5959 49.1287 40.0617 48.7718 39.4738 48.5284C38.8859 48.285 38.2557 48.1598 37.6194 48.16H30.6394V42.5596C33.8018 42.4716 36.8055 41.155 39.0131 38.8891C41.2208 36.6231 42.4588 33.5862 42.4644 30.4226ZM16.3346 21.4225C16.208 21.5362 16.0447 21.6003 15.8747 21.6032C15.7883 21.6056 15.7025 21.5893 15.6231 21.5552C15.5437 21.5212 15.4726 21.4703 15.4148 21.4061L13.8053 19.7638C13.6865 19.6369 13.6204 19.4695 13.6204 19.2957C13.6204 19.1219 13.6865 18.9545 13.8053 18.8276L15.1192 17.5302L17.6484 20.1087L16.3346 21.4225ZM31.6741 1.55008C31.7352 1.49124 31.8072 1.44501 31.8861 1.41401C31.965 1.38301 32.0492 1.36786 32.134 1.36942C32.2203 1.36699 32.3062 1.38336 32.3856 1.41739C32.465 1.45142 32.536 1.5023 32.5938 1.5665L34.2033 3.20886C34.2629 3.2694 34.3095 3.34134 34.3406 3.42036C34.3716 3.49938 34.3864 3.58385 34.384 3.66871C34.3864 3.75507 34.3701 3.84092 34.336 3.92032C34.302 3.99972 34.2511 4.07078 34.1869 4.12857L32.8895 5.40961L30.3602 2.83111L31.6741 1.55008ZM2.39099 36.8278C2.21676 36.8278 2.04966 36.7586 1.92646 36.6354C1.80326 36.5122 1.73405 36.3451 1.73405 36.1709V34.6927C1.73405 34.5185 1.80326 34.3514 1.92646 34.2282C2.04966 34.105 2.21676 34.0358 2.39099 34.0358H14.4294C13.6977 34.8569 13.1192 35.8025 12.7214 36.8278H2.39099ZM41.1505 53.005V56.536H1.73405V53.005C1.7334 52.5411 1.82429 52.0816 2.00151 51.6529C2.17873 51.2242 2.43881 50.8347 2.76682 50.5067C3.09484 50.1787 3.48436 49.9186 3.91306 49.7414C4.34176 49.5642 4.80122 49.4733 5.2651 49.4739H37.6194C38.0833 49.4733 38.5428 49.5642 38.9715 49.7414C39.4002 49.9186 39.7897 50.1787 40.1177 50.5067C40.4457 50.8347 40.7058 51.2242 40.883 51.6529C41.0603 52.0816 41.1511 52.5411 41.1505 53.005ZM13.3947 48.16V40.1946C13.3947 38.0821 14.234 36.056 15.7278 34.5622C17.2216 33.0684 19.2476 32.2292 21.3602 32.2292C23.4727 32.2292 25.4987 33.0684 26.9925 34.5622C28.4864 36.056 29.3256 38.0821 29.3256 40.1946V48.16H13.3947Z" fill="#CFD1E2"/>
<path d="M21.4426 44.873C20.5331 44.873 19.644 44.6033 18.8877 44.098C18.1315 43.5927 17.5421 42.8745 17.194 42.0342C16.846 41.1939 16.7549 40.2693 16.9324 39.3772C17.1098 38.4852 17.5478 37.6658 18.1909 37.0227C18.834 36.3796 19.6534 35.9416 20.5454 35.7641C21.4375 35.5867 22.3621 35.6778 23.2024 36.0258C24.0427 36.3739 24.7609 36.9633 25.2662 37.7195C25.7715 38.4758 26.0412 39.3649 26.0412 40.2744C26.0377 41.4929 25.5521 42.6606 24.6904 43.5222C23.8288 44.3839 22.6611 44.8695 21.4426 44.873ZM21.4426 36.9897C20.7929 36.9897 20.1579 37.1823 19.6177 37.5432C19.0775 37.9042 18.6565 38.4172 18.4079 39.0174C18.1593 39.6176 18.0943 40.278 18.221 40.9152C18.3477 41.5524 18.6606 42.1376 19.1199 42.597C19.5793 43.0564 20.1646 43.3692 20.8018 43.496C21.4389 43.6227 22.0994 43.5577 22.6996 43.309C23.2998 43.0604 23.8128 42.6394 24.1737 42.0993C24.5346 41.5591 24.7273 40.924 24.7273 40.2744C24.7247 39.404 24.3778 38.57 23.7623 37.9546C23.1469 37.3392 22.3129 36.9923 21.4426 36.9897Z" fill="#FF624E"/>
<path d="M21.4419 44.2153C22.2215 44.2153 22.9835 43.9841 23.6317 43.551C24.2799 43.1179 24.7852 42.5023 25.0835 41.7821C25.3818 41.0618 25.4599 40.2693 25.3078 39.5047C25.1557 38.7401 24.7803 38.0378 24.2291 37.4865C23.6778 36.9353 22.9755 36.5599 22.2109 36.4078C21.4463 36.2557 20.6537 36.3337 19.9335 36.6321C19.2132 36.9304 18.5976 37.4356 18.1645 38.0838C17.7314 38.732 17.5002 39.4941 17.5002 40.2737C17.5002 41.3191 17.9155 42.3216 18.6547 43.0608C19.3939 43.8 20.3965 44.2153 21.4419 44.2153Z" fill="#FF624E"/>
<path d="M21.4426 44.873C20.5331 44.873 19.644 44.6033 18.8877 44.098C18.1315 43.5927 17.5421 42.8745 17.194 42.0342C16.846 41.1939 16.7549 40.2693 16.9324 39.3772C17.1098 38.4852 17.5478 37.6658 18.1909 37.0227C18.834 36.3796 19.6534 35.9416 20.5454 35.7641C21.4375 35.5867 22.3621 35.6778 23.2024 36.0258C24.0427 36.3739 24.7609 36.9633 25.2662 37.7195C25.7715 38.4758 26.0412 39.3649 26.0412 40.2744C26.0377 41.4929 25.5521 42.6606 24.6904 43.5222C23.8288 44.3839 22.6611 44.8695 21.4426 44.873ZM21.4426 36.9897C20.7929 36.9897 20.1579 37.1823 19.6177 37.5432C19.0775 37.9042 18.6565 38.4172 18.4079 39.0174C18.1593 39.6176 18.0943 40.278 18.221 40.9152C18.3477 41.5524 18.6606 42.1376 19.1199 42.597C19.5793 43.0564 20.1646 43.3692 20.8018 43.496C21.4389 43.6227 22.0994 43.5577 22.6996 43.309C23.2998 43.0604 23.8128 42.6394 24.1737 42.0993C24.5346 41.5591 24.7273 40.924 24.7273 40.2744C24.7247 39.404 24.3778 38.57 23.7623 37.9546C23.1469 37.3392 22.3129 36.9923 21.4426 36.9897Z" fill="#CF422F"/>
<path d="M27.809 20.6961C28.6068 20.6961 29.3866 20.4596 30.05 20.0164C30.7133 19.5731 31.2303 18.9432 31.5356 18.2061C31.8409 17.4691 31.9208 16.6581 31.7651 15.8756C31.6095 15.0932 31.2253 14.3744 30.6612 13.8103C30.0971 13.2462 29.3784 12.8621 28.5959 12.7064C27.8135 12.5508 27.0025 12.6307 26.2654 12.9359C25.5284 13.2412 24.8984 13.7582 24.4552 14.4216C24.012 15.0849 23.7754 15.8648 23.7754 16.6625C23.7758 17.7322 24.2009 18.7579 24.9573 19.5142C25.7136 20.2706 26.7394 20.6957 27.809 20.6961Z" fill="#FF624E"/>
<path d="M27.8476 21.2245C26.9381 21.2245 26.049 20.9548 25.2928 20.4495C24.5365 19.9442 23.9471 19.226 23.5991 18.3857C23.251 17.5455 23.1599 16.6208 23.3374 15.7288C23.5148 14.8368 23.9528 14.0174 24.5959 13.3742C25.239 12.7311 26.0584 12.2931 26.9505 12.1157C27.8425 11.9383 28.7671 12.0293 29.6074 12.3774C30.4477 12.7254 31.1659 13.3149 31.6712 14.0711C32.1765 14.8273 32.4462 15.7164 32.4462 16.6259C32.4427 17.8445 31.9571 19.0121 31.0955 19.8738C30.2338 20.7354 29.0662 21.2211 27.8476 21.2245ZM27.8476 13.3412C27.198 13.3412 26.5629 13.5339 26.0227 13.8948C25.4826 14.2557 25.0616 14.7687 24.8129 15.3689C24.5643 15.9691 24.4993 16.6296 24.626 17.2667C24.7528 17.9039 25.0656 18.4892 25.525 18.9486C25.9843 19.4079 26.5696 19.7208 27.2068 19.8475C27.844 19.9743 28.5044 19.9092 29.1046 19.6606C29.7048 19.412 30.2178 18.991 30.5787 18.4508C30.9397 17.9106 31.1323 17.2756 31.1323 16.6259C31.1297 15.7556 30.7828 14.9216 30.1674 14.3062C29.5519 13.6907 28.718 13.3438 27.8476 13.3412Z" fill="#CF422F"/>
</svg>
