<svg width="148" height="147" viewBox="0 0 148 147" fill="none" xmlns="http://www.w3.org/2000/svg">
<path d="M72.3494 81.2538C73.8475 82.1516 72.3494 84.2467 71.0018 83.349C69.5037 82.4512 68.9051 83.0494 68.4559 83.6486C67.8573 84.3971 67.407 84.9953 66.2098 84.9953C63.664 84.9953 61.4168 83.6486 60.9675 80.9542C60.3689 78.1103 62.1658 75.2668 64.7117 73.9201C67.1081 72.423 67.7067 69.1304 66.8083 66.5864C62.4656 64.0423 59.9186 59.4029 59.9186 54.4641C59.9186 46.6815 66.2087 40.3957 73.9968 40.3957C81.7849 40.3957 88.0751 46.6815 88.0751 54.4641C88.0751 59.4029 85.3798 64.0424 81.1853 66.5864C80.4363 69.1305 80.7361 72.4232 83.4314 73.9201C85.8279 75.2668 87.6248 78.1106 87.026 80.9542C86.5768 83.6475 84.3308 84.9953 81.7837 84.9953C80.7348 84.9953 80.1362 84.3971 79.5376 83.6486C79.0884 83.0504 78.4888 82.4512 77.1411 83.349C75.643 84.2468 74.2953 82.1516 75.643 81.2538C78.9379 79.0093 80.2855 80.6556 81.4839 82.0023C82.5328 83.0504 84.3297 81.853 84.479 80.5052C84.7788 78.8589 83.5805 76.9131 82.0825 76.1656C79.2366 74.37 77.889 71.2268 78.3383 67.7848C76.9917 68.2327 75.4946 68.5323 73.9967 68.5323C72.4988 68.5323 71.1509 68.2327 69.8033 67.9341C70.1031 71.0775 68.9048 74.369 65.9096 76.1658C64.4115 77.0636 63.2144 78.7099 63.5131 80.5054C63.6625 81.8521 65.6098 83.0495 66.5082 82.0024C67.7064 80.6547 69.0541 79.0084 72.349 81.2539L72.3494 81.2538ZM73.9969 42.9405C67.5575 42.9405 62.4647 48.0287 62.4647 54.4647C62.4647 60.7504 67.5565 65.8386 73.9969 65.8386C80.2871 65.8386 85.5292 60.7504 85.5292 54.4647C85.5292 48.0287 80.2868 42.9405 73.9969 42.9405ZM122.371 69.8795C123.57 66.7361 124.468 63.2941 124.468 60.4506C124.768 52.6679 117.129 55.6609 115.482 59.4024C114.583 61.3484 114.283 65.2392 113.834 67.4836C116.83 67.3354 119.825 68.2332 122.371 69.8795L122.371 69.8795ZM124.468 71.6762C127.163 74.071 128.661 78.1111 128.661 81.5541C128.661 89.3367 122.222 95.6225 114.434 95.6225C111.139 95.6225 107.995 94.4251 105.447 92.4791C104.1 94.8739 102.602 97.1183 100.805 99.2136C101.404 126.452 120.124 130.942 140.493 138.275C142.14 138.873 141.242 141.268 139.744 140.819C119.226 133.336 100.206 128.846 98.2587 101.907C94.8144 105.349 89.8721 109.091 85.5281 111.635C91.9675 120.764 85.5281 133.784 73.9958 133.784C62.4636 133.784 56.0242 120.764 62.4636 111.635C58.2702 109.091 53.1784 105.349 49.733 101.907C47.7857 128.846 28.7663 133.336 8.39757 140.819C6.75009 141.268 5.85168 138.873 7.49914 138.275C27.8673 130.942 46.588 126.452 47.3369 99.2136C42.8436 93.9749 39.9981 87.989 37.7519 81.5541C35.8046 83.2004 33.4092 83.2004 31.1619 82.003C25.6208 79.1591 22.1754 69.1321 21.1276 63.1459C20.529 59.255 20.6784 54.1657 25.321 53.268C27.8669 52.8191 30.7126 53.5676 32.6598 55.2139C31.4636 29.3217 46.5897 6.125 73.9979 6.125C101.406 6.125 116.531 29.3228 115.333 55.2139C120.425 51.0234 127.315 52.6698 127.015 60.6017C127.015 63.8943 125.818 67.9354 124.469 71.6769L124.468 71.6762ZM103.651 90.5332C101.554 88.1384 100.356 84.996 100.356 81.553C100.356 75.1181 104.849 69.4307 111.139 67.9336L112.786 56.5596C108.742 37.1033 93.1672 23.9334 73.5476 23.9334C53.9286 23.9334 38.9517 36.9537 35.3573 56.1106C35.5067 59.8521 35.9559 63.5937 36.8554 67.6348C40.749 86.4918 46.4404 99.6623 64.1128 109.69C66.6587 107.146 70.1029 105.648 73.9976 105.648C77.8913 105.648 81.3364 107.146 83.8824 109.69C91.9682 105.05 99.1567 98.7646 103.65 90.533L103.651 90.5332ZM114.434 70.0299C108.144 70.0299 103.052 75.2686 103.052 81.5541C103.052 87.989 108.144 93.0783 114.434 93.0783C120.873 93.0783 125.966 87.9901 125.966 81.5541C125.966 75.2675 120.874 70.0299 114.434 70.0299ZM69.3541 95.472C67.7067 95.472 67.7067 92.9279 69.3541 92.9279H78.4898C80.2867 92.9279 80.2867 95.472 78.4898 95.472H69.3541ZM35.3573 46.6825C41.7967 30.8186 56.624 21.3894 73.5476 21.3894C90.7701 21.3894 106.047 31.2673 112.636 47.4308C110.989 25.7291 96.4618 8.66847 73.9969 8.66847C51.9813 8.66847 37.3042 25.4303 35.3573 46.6825ZM33.1112 60.9C32.3622 57.6075 29.2176 55.2126 25.7724 55.8118C22.7773 56.41 23.3759 60.451 23.8251 62.6968C24.5742 67.785 27.7188 77.3633 32.3623 79.7581C34.3096 80.656 35.8067 80.3563 36.8556 78.5607C35.0576 72.5737 34.1592 67.0365 33.1114 60.9001L33.1112 60.9ZM82.0847 111.486C80.1374 109.54 77.1424 108.193 73.9978 108.193C70.8522 108.193 68.0077 109.54 65.911 111.486C58.7225 118.669 63.6649 131.241 73.9978 131.241C84.332 131.241 89.2742 118.67 82.0847 111.486Z" fill="#102A83"/>
</svg>
