<svg width="14" height="18" viewBox="0 0 14 18" fill="none" xmlns="http://www.w3.org/2000/svg">
<path d="M11.6924 12.3155C11.3952 12.2613 11.0666 12.318 10.6917 12.487L8.01314 13.6518C8.01528 13.6295 8.01743 13.6079 8.01957 13.5873C8.0329 13.4479 8.01574 13.2968 7.96902 13.1372C7.86914 12.7957 7.64089 12.5146 7.34373 12.3658C7.33821 12.3629 7.33607 12.3621 7.3304 12.3596C7.29946 12.346 6.44378 11.9571 6.11778 11.809L4.12375 10.8909C3.99079 10.8277 3.84373 10.7958 3.68717 10.7958C3.1069 10.7958 2.54318 11.0517 2.13969 11.4981C2.04012 11.6085 1.94882 11.7316 1.8733 11.8577L0.375154 12.8952C0.240504 12.9887 0.209559 13.1692 0.306527 13.2991C0.403495 13.4289 0.590838 13.4583 0.725661 13.3653L2.27789 12.2901C2.31526 12.2644 2.34559 12.2306 2.36704 12.1918C2.42801 12.0823 2.50552 11.9739 2.59222 11.8785C2.88128 11.5586 3.28018 11.3752 3.68688 11.3752C3.75076 11.3752 3.80866 11.3871 3.86151 11.4124L5.85981 12.3325C6.83223 12.7748 7.02863 12.8637 7.07059 12.8827C7.21948 12.9592 7.3356 13.1092 7.39059 13.2957C7.41724 13.3866 7.42751 13.4672 7.42107 13.5358C7.41296 13.621 7.40392 13.7173 7.37818 13.785C7.28643 14.0319 7.08054 14.1913 6.8532 14.1913C6.78289 14.1913 6.71335 14.176 6.64686 14.1454L4.95048 13.3683C4.80082 13.2997 4.62144 13.3612 4.55037 13.5056C4.47914 13.6498 4.54302 13.8227 4.69283 13.8912L6.38921 14.6683C6.53673 14.736 6.69283 14.7704 6.85337 14.7704C7.151 14.7704 7.4272 14.6526 7.63736 14.4513L10.9426 13.014C11.203 12.8966 11.4118 12.8544 11.5813 12.885C11.709 12.9081 11.8377 12.9929 11.9334 13.1169C12.0952 13.3261 12.1346 13.6232 12.0299 13.8394C11.9849 13.9319 11.9218 13.9923 11.7974 14.0626L7.6986 16.367C7.68956 16.3721 7.68053 16.3778 7.67195 16.384C7.23705 16.6924 6.82791 16.7523 6.42211 16.5668L5.66812 16.2207L5.64284 16.2092C4.51646 15.6983 3.24 15.1196 1.98079 15.4511L0.921346 15.7302C0.761422 15.7724 0.667058 15.9315 0.710717 16.0856C0.754528 16.2398 0.919661 16.3307 1.07958 16.2886L2.13903 16.0096C3.18435 15.7343 4.35438 16.265 5.38642 16.733L6.16445 17.0897C6.39944 17.1967 6.63963 17.25 6.88166 17.25C7.2608 17.25 7.64346 17.1189 8.01448 16.8594L12.0999 14.562C12.2553 14.4748 12.449 14.3418 12.5739 14.0837C12.7712 13.6766 12.7073 13.1487 12.4147 12.7704C12.2269 12.5277 11.9703 12.3662 11.692 12.3153L11.6924 12.3155Z" fill="currentColor" stroke="currentColor" stroke-width="0.2"/>
<path d="M5.06587 6.17913H6.26684V7.33652C6.26684 7.49654 6.40103 7.62586 6.56708 7.62586H7.89672C8.06277 7.62586 8.19696 7.49654 8.19696 7.33652V6.17913H9.39793C9.56398 6.17913 9.69817 6.04981 9.69817 5.88978V4.6084C9.69817 4.44837 9.56398 4.31905 9.39793 4.31905H8.19696V3.16166C8.19696 3.00163 8.06277 2.87231 7.89672 2.87231H6.56708C6.40103 2.87231 6.26684 3.00164 6.26684 3.16166V4.31905H5.06587C4.89981 4.31905 4.76562 4.44837 4.76562 4.6084V5.88978C4.76562 6.04981 4.89982 6.17913 5.06587 6.17913ZM5.36611 4.89774H6.56708C6.73313 4.89774 6.86732 4.76842 6.86732 4.6084V3.45101H7.59649V4.6084C7.59649 4.76842 7.73068 4.89774 7.89673 4.89774H9.0977V5.60045H7.89673C7.73068 5.60045 7.59649 5.72977 7.59649 5.8898V7.04719H6.86732V5.8898C6.86732 5.72977 6.73313 5.60045 6.56708 5.60045H5.36611V4.89774Z" fill="currentColor" stroke="currentColor" stroke-width="0.2"/>
<path d="M7.0367 10.503C7.09369 10.5517 7.16492 10.5762 7.23615 10.5762C7.30738 10.5762 7.37891 10.5518 7.43606 10.5027C7.69647 10.2786 11.0531 7.35251 11.8243 6.58249C13.2526 5.37801 13.4027 3.27861 12.1571 1.89586C11.5009 1.16749 10.5504 0.75 9.54978 0.75H9.54457C8.69058 0.75 7.8658 1.05913 7.23608 1.60653C5.92526 0.464479 3.89696 0.455787 2.57532 1.63384C1.17749 2.88011 1.09251 4.99025 2.38568 6.33747C2.51865 6.47594 6.99898 10.4712 7.03624 10.5026L7.0367 10.503ZM2.9834 2.05904C4.13841 1.02935 5.94722 1.09712 7.01552 2.20992C7.07251 2.26897 7.15232 2.30292 7.23596 2.30292C7.3196 2.30292 7.39987 2.26897 7.45639 2.20992C7.99302 1.64984 8.7534 1.32902 9.5443 1.32902H9.54859H9.5538C10.379 1.3302 11.1623 1.67535 11.7032 2.2756C12.7347 3.42014 12.6073 5.16036 11.4196 6.1546C11.4127 6.16036 11.4063 6.16612 11.3998 6.17276C10.7548 6.81965 8.02473 9.21047 7.23674 9.89617C6.35224 9.11123 2.96892 6.08142 2.82304 5.94196C1.75717 4.82887 1.82842 3.08777 2.98266 2.0588L2.9834 2.05904Z" fill="currentColor" stroke="currentColor" stroke-width="0.2"/>
</svg>
