<svg width="18" height="18" viewBox="0 0 18 18" fill="none" xmlns="http://www.w3.org/2000/svg">
<g clip-path="url(#clip0_6950_110364)">
<path d="M16.3661 0.75H1.63393C1.14657 0.75 0.75 1.14657 0.75 1.63393V14.0089C0.75 14.4963 1.14657 14.8929 1.63393 14.8929H7.52679V15.4821H6.64286C6.1555 15.4821 5.75893 15.8787 5.75893 16.3661C5.75893 16.8534 6.1555 17.25 6.64286 17.25H11.3571C11.8445 17.25 12.2411 16.8534 12.2411 16.3661C12.2411 15.8787 11.8445 15.4821 11.3571 15.4821H10.4732V14.8929H16.3661C16.8534 14.8929 17.25 14.4963 17.25 14.0089V1.63393C17.25 1.14657 16.8534 0.75 16.3661 0.75ZM11.6518 16.3661C11.6518 16.5284 11.5195 16.6607 11.3571 16.6607H6.64286C6.48054 16.6607 6.34821 16.5284 6.34821 16.3661C6.34821 16.2038 6.48054 16.0714 6.64286 16.0714H11.3571C11.5195 16.0714 11.6518 16.2038 11.6518 16.3661ZM9.88393 15.4821H8.11607V14.8929H9.88393V15.4821ZM16.6607 14.0089C16.6607 14.1712 16.5284 14.3036 16.3661 14.3036H10.1792H10.1787H7.82158H7.82105H1.63422C1.47191 14.3036 1.33958 14.1712 1.33958 14.0089V1.63393C1.33958 1.47161 1.47191 1.33929 1.63422 1.33929H16.3664C16.5287 1.33929 16.661 1.47161 16.661 1.63393L16.6607 14.0089ZM12.2411 11.0625H9.88393V9.48709C11.0059 9.53957 11.6007 9.67979 11.7644 9.76173C11.8036 9.85868 11.8934 9.93142 12.0046 9.94418C12.0158 9.94536 12.0269 9.94589 12.0381 9.94589C12.1857 9.94589 12.3133 9.83513 12.3304 9.68452C12.3425 9.57811 12.308 9.47209 12.2332 9.3858C11.9397 9.04722 10.7379 8.93357 9.88369 8.89582V8.20551C11.0977 8.26208 11.7323 8.42031 11.8999 8.51134C11.9353 8.61472 12.0266 8.6943 12.142 8.70877C12.1547 8.71022 12.167 8.71114 12.1794 8.71114C12.3255 8.71114 12.4525 8.60236 12.4714 8.45333C12.4852 8.34284 12.4505 8.23235 12.373 8.14185C12.053 7.76791 10.6895 7.65069 9.88382 7.61385V6.79239C11.1991 6.85395 11.8869 7.04112 12.0547 7.14148C12.0863 7.2525 12.1826 7.33944 12.3046 7.35365C12.3161 7.35483 12.3273 7.35536 12.3386 7.35536C12.4862 7.35536 12.6137 7.2446 12.6308 7.09426C12.6439 6.98048 12.6064 6.86618 12.5254 6.77278C12.1727 6.36554 10.7266 6.24098 9.88357 6.20269V5.23367C11.3214 5.29997 12.0556 5.51239 12.2239 5.62408C12.2498 5.74312 12.3486 5.83796 12.476 5.85361C12.4881 5.85506 12.5002 5.85572 12.5119 5.85572C12.6587 5.85572 12.7859 5.74615 12.804 5.59672C12.8184 5.47768 12.7795 5.35771 12.6946 5.25908C12.3107 4.81304 10.6908 4.68215 9.88318 4.6444V3.49859C11.4636 3.57081 12.2482 3.81744 12.4115 3.94386C12.4307 4.07197 12.5338 4.17694 12.6687 4.19259C12.6806 4.19404 12.692 4.1947 12.7035 4.1947C12.8508 4.1947 12.9781 4.08421 12.9957 3.93425C13.006 3.8456 12.9943 3.71182 12.8784 3.57806C12.4553 3.08743 10.729 2.94799 9.88396 2.9092V2.22324C9.88396 2.06066 9.75189 1.92859 9.58932 1.92859H8.41074C8.24817 1.92859 8.1161 2.06066 8.1161 2.22324V2.9092C7.2711 2.94813 5.54483 3.08743 5.12101 3.57779C5.00526 3.71182 4.99316 3.84559 5.00368 3.93398C5.02131 4.08394 5.14864 4.19443 5.29596 4.19443C5.3074 4.19443 5.31898 4.1939 5.33068 4.19232C5.46564 4.17667 5.5685 4.07184 5.58797 3.94359C5.75121 3.81718 6.53581 3.57055 8.11624 3.49832V4.64413C7.30862 4.68188 5.68872 4.81263 5.30477 5.25881C5.21993 5.35746 5.181 5.47742 5.19547 5.59645C5.21375 5.74588 5.34068 5.85545 5.48748 5.85545C5.49958 5.85545 5.51129 5.85492 5.52339 5.85334C5.65124 5.83769 5.75003 5.74285 5.77555 5.62381C5.94378 5.51214 6.67803 5.2997 8.11585 5.2334V6.20242C7.27284 6.24043 5.82673 6.36539 5.47407 6.77251C5.39304 6.8659 5.35568 6.98021 5.36858 7.09399C5.38594 7.2442 5.51327 7.35509 5.66085 7.35509C5.67203 7.35509 5.68348 7.35456 5.69479 7.35338C5.81712 7.33957 5.91314 7.25262 5.94471 7.14121C6.11268 7.04072 6.80035 6.85367 8.1156 6.79212V7.61358C7.31007 7.65041 5.94643 7.76735 5.62639 8.14158C5.54892 8.23208 5.51419 8.34257 5.528 8.45306C5.54681 8.60183 5.67388 8.71087 5.82001 8.71087C5.83238 8.71087 5.84474 8.71035 5.85737 8.7085C5.97286 8.69377 6.06415 8.61419 6.09953 8.51107C6.26685 8.42004 6.9019 8.26181 8.11573 8.20525V8.89555C7.26154 8.9333 6.05966 9.04695 5.76623 9.38553C5.69165 9.47156 5.65692 9.57758 5.66903 9.68425C5.68613 9.83487 5.81372 9.94562 5.9613 9.94562C5.97248 9.94562 5.98366 9.94509 5.99484 9.94391C6.10586 9.93128 6.19583 9.85814 6.23503 9.76146C6.39853 9.67952 6.99373 9.5393 8.11549 9.48682L8.11589 11.0625H5.75874C5.2493 11.0625 4.28553 11.3089 4.28553 12.2411C4.28553 13.6742 8.95267 13.7143 8.99981 13.7143C9.0469 13.7143 13.7141 13.6742 13.7141 12.2411C13.7144 11.3089 12.7506 11.0625 12.2412 11.0625H12.2411ZM9 11.0625C9.16232 11.0625 9.29464 11.1948 9.29464 11.3571C9.29464 11.5195 9.16232 11.6518 9 11.6518C8.83768 11.6518 8.70536 11.5195 8.70536 11.3571C8.70536 11.1948 8.83768 11.0625 9 11.0625ZM8.70536 2.51786H9.29464V10.5274C9.20217 10.4944 9.10404 10.4732 9 10.4732C8.89596 10.4732 8.79783 10.4944 8.70536 10.5274V2.51786ZM9 13.125C7.11099 13.125 4.875 12.6459 4.875 12.2411C4.875 11.6641 5.72354 11.6521 5.75893 11.6518H8.17052C8.29246 11.9939 8.61656 12.2411 9 12.2411C9.3833 12.2411 9.70741 11.9942 9.82948 11.6518H12.2403C12.2765 11.652 13.125 11.6642 13.125 12.2411C13.125 12.6459 10.889 13.125 9 13.125Z" fill="currentColor" stroke="currentColor" stroke-width="0.1"/>
</g>
<defs>
<clipPath id="clip0_6950_110364">
<rect width="18" height="18" fill="white"/>
</clipPath>
</defs>
</svg>
