<svg width="13" height="20" viewBox="0 0 13 20" fill="none" xmlns="http://www.w3.org/2000/svg">
<path d="M7.62242 13.653C7.54915 13.653 7.47984 13.6115 7.44314 13.5411C7.3902 13.4415 7.4269 13.3129 7.52869 13.259C8.58378 12.6867 9.37419 11.3344 9.69592 9.54264C9.69592 9.53431 9.70001 9.5261 9.70001 9.51777C10.804 5.85536 9.5004 4.7311 8.88927 4.41579C8.00935 3.96376 6.96641 4.24575 6.57944 4.78073C6.54274 4.83464 6.48162 4.86367 6.41653 4.86367C6.35131 4.86367 6.29018 4.83047 6.25361 4.78073C5.86667 4.2456 4.8196 3.96359 3.94378 4.41579C3.33266 4.731 2.0332 5.85516 3.13304 9.51777C3.13713 9.5261 3.13713 9.53431 3.13713 9.54264C3.45899 11.3346 4.24928 12.6867 5.30436 13.259C5.40219 13.313 5.44285 13.4374 5.38991 13.5411C5.33697 13.6407 5.21472 13.6821 5.11293 13.6282C3.93149 12.9894 3.08827 11.5709 2.7379 9.62977C1.55236 5.67271 3.05566 4.40747 3.75628 4.04683C4.72583 3.54906 5.84207 3.79385 6.41649 4.34967C6.98681 3.79384 8.10305 3.54906 9.07669 4.04683C9.77744 4.40774 11.2806 5.67275 10.0951 9.62977C9.7447 11.5669 8.90149 12.9895 7.72004 13.6282C7.68756 13.6447 7.65495 13.653 7.62234 13.653L7.62242 13.653Z" fill="currentColor" stroke="currentColor" stroke-width="0.5"/>
<path d="M6.41465 9.05289C6.30058 9.05289 6.21094 8.96162 6.21094 8.84548V4.66444C6.21094 4.5483 6.30058 4.45703 6.41465 4.45703C6.52871 4.45703 6.61835 4.5483 6.61835 4.66444V8.84548C6.61822 8.95745 6.52462 9.05276 6.41465 9.05276V9.05289Z" fill="currentColor" stroke="currentColor" stroke-width="0.5"/>
<path d="M2.50091 7.0952C2.45206 7.0952 2.39912 7.0745 2.36241 7.03713C1.86944 6.56423 1.52725 6.02927 1.33584 5.45261C0.846962 3.96768 0.891875 2.66934 1.47024 1.80253C1.85718 1.21767 2.4683 0.877597 3.18123 0.836067C4.00411 0.790497 4.38709 1.13891 4.75371 1.47482C5.13669 1.82323 5.49921 2.15094 6.41582 2.15094C7.33243 2.15094 7.69495 1.82323 8.07793 1.47482C8.44863 1.13891 8.82752 0.794536 9.65041 0.836067C10.3633 0.873434 10.9703 1.21767 11.3614 1.80253C11.9399 2.66941 11.9888 3.96775 11.4958 5.45261C11.3044 6.02914 10.9622 6.5601 10.4692 7.03713C10.3878 7.11591 10.2573 7.11174 10.18 7.0288C10.1026 6.94586 10.1067 6.81306 10.1882 6.73429C10.6321 6.30712 10.9418 5.83006 11.1089 5.31979C11.5569 3.95935 11.5284 2.7938 11.0233 2.03472C10.7096 1.56182 10.2126 1.28401 9.63009 1.25077C8.97422 1.21341 8.69724 1.46652 8.35096 1.78174C7.94765 2.14668 7.49137 2.56152 6.41992 2.56152C5.34847 2.56152 4.89219 2.14671 4.48888 1.78174C4.13851 1.46236 3.86562 1.21341 3.20975 1.25077C2.62715 1.28398 2.13021 1.56182 1.81653 2.03472C1.29914 2.79377 1.27063 3.95932 1.71884 5.31979C1.88584 5.83006 2.19953 6.30696 2.63954 6.73429C2.721 6.81306 2.72509 6.94587 2.64772 7.0288C2.60693 7.07021 2.55386 7.0952 2.50092 7.0952H2.50091Z" fill="currentColor" stroke="currentColor" stroke-width="0.5"/>
<path d="M6.4174 19.1669C5.63926 19.1669 5.00781 18.524 5.00781 17.7317V11.7008C5.00781 10.9085 5.63926 10.2656 6.4174 10.2656C7.19553 10.2656 7.82698 10.9085 7.82698 11.7008V17.7317C7.82685 18.524 7.1954 19.1669 6.4174 19.1669ZM6.4174 10.6805C5.86331 10.6805 5.41525 11.1409 5.41525 11.7009V17.7318C5.41525 18.296 5.8674 18.7522 6.4174 18.7522C6.9674 18.7522 7.41955 18.2918 7.41955 17.7318V11.7009C7.41955 11.1367 6.96727 10.6805 6.4174 10.6805Z" fill="currentColor" stroke="currentColor" stroke-width="0.5"/>
</svg>
