<svg width="18" height="18" viewBox="0 0 18 18" fill="none" xmlns="http://www.w3.org/2000/svg">
<path d="M9.16135 17.25H7.40113C7.27454 17.25 7.17068 17.1553 7.15938 17.03L7.15611 17.0059C7.15285 16.9754 7.14959 16.9433 7.14959 16.9128L7.15122 16.5258C7.15285 16.2881 7.15448 16.0505 7.15448 15.8128C7.15448 15.7229 7.15285 15.625 7.13991 15.5366C7.13338 15.4948 7.12697 15.4723 7.12208 15.4611C7.10902 15.4579 7.08478 15.4563 7.03932 15.4563L6.491 15.4676C6.21999 15.4739 5.94911 15.4788 5.6781 15.4836L5.56946 15.4869C5.42993 15.49 5.28388 15.4948 5.1363 15.4804C4.73554 15.4419 4.42888 15.2492 4.24715 14.9199C4.17092 14.7802 4.13851 14.6228 4.14819 14.4415C4.16124 14.2215 4.17255 14.0015 4.18234 13.7814C4.13851 13.767 4.09142 13.7493 4.04433 13.7252C3.86272 13.6337 3.73778 13.4764 3.70048 13.2933C3.66318 13.1134 3.71505 12.9256 3.84164 12.7762C3.87567 12.736 3.91134 12.7007 3.94864 12.667C3.82217 12.6301 3.70689 12.5835 3.59987 12.5273C3.51385 12.4823 3.43272 12.4229 3.36464 12.3571C3.17966 12.1789 3.14236 11.9429 3.26405 11.7083L3.43761 11.3743C3.61444 11.0323 3.79128 10.6902 3.97137 10.3497C4.02487 10.2487 4.09306 10.1587 4.16766 10.0897C4.70956 9.58864 5.3228 9.34302 5.98314 9.35906C6.29461 9.36702 6.58997 9.43451 6.85922 9.55981C7.75478 9.97723 8.44753 10.5779 8.91808 11.3486C9.14188 11.7163 9.26846 12.1387 9.30251 12.6413C9.37396 13.677 9.38364 14.7272 9.39506 15.7437C9.39821 16.0246 9.40147 16.3056 9.40473 16.5867C9.40637 16.683 9.40637 16.7794 9.40473 16.8773V17.0106C9.40473 17.1423 9.2961 17.2498 9.16135 17.2498L9.16135 17.25ZM7.63636 16.7683H8.91961C8.91961 16.7089 8.91961 16.651 8.9181 16.5916C8.9132 16.3106 8.91157 16.028 8.90831 15.7469C8.89852 14.7385 8.88721 13.6948 8.8175 12.6735C8.78825 12.2496 8.68439 11.8963 8.50105 11.596C8.07606 10.8992 7.47087 10.3756 6.65155 9.99501C6.44232 9.89867 6.21349 9.84572 5.97024 9.83926C5.43323 9.82807 4.94973 10.0224 4.49875 10.4399C4.46297 10.472 4.42893 10.5186 4.40142 10.5699C4.22133 10.9104 4.04603 11.2508 3.86919 11.5912L3.69726 11.9268C3.67127 11.9766 3.67616 11.9815 3.70542 12.0103C3.74109 12.0456 3.78492 12.0762 3.83026 12.1003C3.97631 12.1774 4.14663 12.2287 4.36727 12.2624C4.40457 12.2689 4.44198 12.2786 4.47765 12.2881L4.51005 12.2962C4.61065 12.3218 4.68362 12.407 4.69178 12.5081L4.69341 12.5339C4.69994 12.6109 4.66905 12.6864 4.61065 12.7377L4.5019 12.8308C4.46786 12.8614 4.43056 12.8903 4.39489 12.9192C4.3267 12.9754 4.26189 13.0269 4.21317 13.083C4.19044 13.1087 4.16608 13.1488 4.17587 13.1938C4.18391 13.2323 4.2148 13.2676 4.26341 13.2934C4.2943 13.3094 4.32834 13.3207 4.36249 13.3319C4.40294 13.3463 4.4435 13.3609 4.48406 13.3785C4.58303 13.4218 4.67884 13.5359 4.67395 13.6675C4.66415 13.934 4.64958 14.2007 4.63501 14.4672C4.63012 14.5588 4.64306 14.6294 4.67558 14.6888C4.7778 14.8767 4.94484 14.9778 5.18334 15.0003C5.30177 15.0116 5.42672 15.0084 5.55646 15.0051L5.66848 15.0019C5.93937 14.9971 6.20874 14.9907 6.47966 14.9859L7.02809 14.9747C7.37522 14.9682 7.56826 15.124 7.6186 15.4661C7.63643 15.5849 7.6397 15.7021 7.6397 15.8113C7.6397 16.0506 7.63807 16.2882 7.63643 16.5275L7.63636 16.7683ZM14.5086 17.2468H10.5986C10.4689 17.2468 10.3617 17.1472 10.3552 17.0188L10.3536 16.9898C10.352 16.961 10.3503 16.932 10.3503 16.9032L10.3585 15.5526C10.3666 14.3932 10.3731 13.2323 10.378 12.0728V11.9106C10.378 11.6135 10.3763 11.3068 10.4234 10.9985C10.4834 10.6082 10.5953 10.1024 10.9312 9.65607C11.1438 9.37503 11.4309 9.17429 11.7845 9.06029C12.075 8.96718 12.3119 8.84189 12.5082 8.67645C12.6575 8.55127 12.7045 8.29757 12.6088 8.12254C12.5471 8.00844 12.3752 7.94106 12.2551 7.98444C12.148 8.02298 12.0312 8.08078 11.9014 8.16419C11.5315 8.40024 11.1243 8.63953 10.6457 8.78733C10.021 8.98 9.4289 8.94954 8.88536 8.69734C8.7442 8.63157 8.53658 8.52878 8.35814 8.38098C8.04329 8.12093 7.66856 7.99886 7.34253 7.91533C6.75026 7.76119 6.18085 7.81092 5.64873 8.06151C4.82777 8.45007 4.25346 8.97674 3.89001 9.6705C3.68567 10.0639 3.55744 10.4878 3.45034 10.8861L3.4261 10.9728C3.39847 11.0708 3.31082 11.1414 3.20859 11.1478C2.9166 11.1687 2.64732 11.0627 2.46563 10.8588C2.28064 10.65 2.2093 10.361 2.2726 10.0671C2.3099 9.88888 2.37156 9.71386 2.44942 9.56134C2.78035 8.91097 3.1487 8.1305 3.38065 7.28264C3.43741 7.07393 3.47308 6.85231 3.50397 6.64199C3.51691 6.56007 3.51365 6.46858 3.51038 6.37063L3.50875 6.31756C3.47472 4.9639 3.89002 3.78527 4.74339 2.81527C5.35989 2.11357 6.13538 1.59487 7.11044 1.22557C8.14226 0.838596 9.20006 0.685957 10.2562 0.774356C11.9581 0.915688 13.3891 1.56442 14.5099 2.70292C15.3407 3.54757 15.8322 4.57531 15.9685 5.75716C16.0123 6.13766 16.0107 6.53107 15.962 6.92773C15.9555 6.97595 15.9588 7.03214 15.962 7.09317C15.9652 7.15582 15.9669 7.21847 15.9636 7.281C15.9296 7.89445 15.7349 8.46932 15.571 8.90127C15.4542 9.20956 15.3131 9.50985 15.1784 9.8021L15.094 9.98358C15.0584 10.059 15.0097 10.1136 14.9691 10.1586C14.9545 10.1746 14.9383 10.1923 14.9254 10.2101L14.8978 10.2502C14.8718 10.2855 14.8377 10.3352 14.8328 10.3577C14.7955 10.5119 14.7566 10.6709 14.7566 10.8186C14.7517 12.41 14.7533 14.0028 14.7533 15.5942V17.0041C14.7517 17.139 14.6414 17.2465 14.5083 17.2465L14.5086 17.2468ZM10.837 16.7651H14.2636V15.596C14.2636 14.003 14.2636 12.4118 14.2668 10.8187C14.2668 10.6147 14.3138 10.4188 14.356 10.247C14.3836 10.1361 14.4453 10.0479 14.4939 9.97716L14.5183 9.94347C14.5426 9.90656 14.5734 9.87287 14.6043 9.83906C14.6205 9.82141 14.6449 9.79418 14.6496 9.78449L14.734 9.60139C14.8655 9.31885 15.0034 9.02498 15.1137 8.73439C15.2759 8.30878 15.4446 7.80137 15.4755 7.25703C15.4788 7.21042 15.4755 7.16543 15.4739 7.11893C15.4706 7.04498 15.4673 6.96157 15.4771 6.87319C15.521 6.51508 15.5225 6.15859 15.4835 5.815C15.3603 4.74066 14.9158 3.80776 14.1614 3.04179C13.1246 1.9867 11.7976 1.38619 10.2156 1.25444C9.23249 1.17264 8.24764 1.31547 7.28715 1.67682C6.38681 2.01568 5.67613 2.49261 5.11322 3.13167C4.3312 4.01967 3.96614 5.0586 3.99702 6.30641L3.99865 6.35613C4.00192 6.47024 4.00506 6.58896 3.98723 6.71263C3.95319 6.93587 3.91589 7.17352 3.8526 7.40797C3.60922 8.2976 3.22804 9.10533 2.88571 9.77818C2.82732 9.89378 2.78022 10.0287 2.75097 10.1667C2.7202 10.3128 2.74945 10.4477 2.83373 10.5425C2.88082 10.5955 2.94085 10.6324 3.01219 10.6533C3.12094 10.2615 3.25231 9.84717 3.46003 9.45051C3.87209 8.65882 4.52112 8.06156 5.44091 7.62636C6.07851 7.32442 6.76158 7.26502 7.46725 7.44811C7.82264 7.5396 8.27854 7.68739 8.67112 8.01007C8.77335 8.09522 8.90798 8.1739 9.09297 8.26066C9.52939 8.46291 9.99015 8.48541 10.5012 8.32804C10.923 8.19801 11.2961 7.97799 11.6369 7.7596C11.7991 7.65519 11.9467 7.58135 12.0911 7.53001C12.4384 7.40795 12.8617 7.57178 13.0385 7.89448C13.2414 8.26863 13.1473 8.77291 12.8228 9.04428C12.5762 9.25138 12.2858 9.40713 11.9338 9.51962C11.6742 9.60304 11.473 9.74114 11.3205 9.94511C11.1079 10.2278 10.9798 10.5746 10.9035 11.0724C10.8613 11.3454 10.863 11.62 10.863 11.9106V12.0776C10.8597 13.2386 10.8516 14.398 10.8435 15.559L10.837 16.7651Z" fill="currentColor" stroke="currentColor" stroke-width="0.2"/>
</svg>
