<svg width="22" height="22" viewBox="0 0 22 22" fill="none" xmlns="http://www.w3.org/2000/svg">
<g clip-path="url(#clip0_6950_99292)">
<path d="M10.7543 12.1617C10.9785 12.2961 10.7543 12.6097 10.5526 12.4753C10.3284 12.3409 10.2388 12.4305 10.1716 12.5201C10.082 12.6322 10.0146 12.7217 9.83543 12.7217C9.45441 12.7217 9.1181 12.5201 9.05086 12.1169C8.96127 11.6913 9.23019 11.2657 9.61121 11.0642C9.96987 10.8401 10.0594 10.3473 9.925 9.96662C9.27507 9.58587 8.89387 8.89154 8.89387 8.15239C8.89387 6.98764 9.83526 6.04691 11.0008 6.04691C12.1664 6.04691 13.1078 6.98764 13.1078 8.15239C13.1078 8.89154 12.7044 9.58589 12.0767 9.96662C11.9646 10.3474 12.0094 10.8401 12.4128 11.0642C12.7715 11.2657 13.0404 11.6913 12.9508 12.1169C12.8835 12.52 12.5474 12.7217 12.1662 12.7217C12.0092 12.7217 11.9196 12.6322 11.8301 12.5201C11.7628 12.4306 11.6731 12.3409 11.4714 12.4753C11.2472 12.6097 11.0455 12.2961 11.2472 12.1617C11.7403 11.8258 11.942 12.0722 12.1213 12.2738C12.2783 12.4306 12.5472 12.2514 12.5696 12.0497C12.6145 11.8033 12.4351 11.5121 12.2109 11.4002C11.785 11.1315 11.5833 10.6611 11.6506 10.146C11.449 10.213 11.225 10.2578 11.0008 10.2578C10.7766 10.2578 10.5749 10.213 10.3732 10.1683C10.4181 10.6388 10.2388 11.1314 9.7905 11.4003C9.56629 11.5346 9.38713 11.781 9.43184 12.0497C9.45419 12.2513 9.74562 12.4305 9.88008 12.2738C10.0594 12.0721 10.2611 11.8257 10.7542 12.1618L10.7543 12.1617ZM11.0008 6.42777C10.0371 6.42777 9.27493 7.18927 9.27493 8.15247C9.27493 9.0932 10.037 9.8547 11.0008 9.8547C11.9422 9.8547 12.7268 9.0932 12.7268 8.15247C12.7268 7.18927 11.9422 6.42777 11.0008 6.42777ZM18.2405 10.4595C18.4199 9.98901 18.5543 9.4739 18.5543 9.04833C18.5992 7.88358 17.456 8.3315 17.2094 8.89146C17.075 9.18269 17.0301 9.765 16.9629 10.1009C17.4113 10.0787 17.8595 10.2131 18.2405 10.4595L18.2405 10.4595ZM18.5543 10.7283C18.9577 11.0868 19.1819 11.6914 19.1819 12.2067C19.1819 13.3714 18.2182 14.3122 17.0526 14.3122C16.5595 14.3122 16.0889 14.1329 15.7077 13.8417C15.506 14.2001 15.2818 14.536 15.0129 14.8496C15.1025 18.9261 17.9043 19.598 20.9526 20.6955C21.1992 20.7851 21.0647 21.1435 20.8405 21.0763C17.7699 19.9564 14.9232 19.2844 14.6319 15.2527C14.1164 15.7679 13.3767 16.3278 12.7266 16.7086C13.6903 18.0748 12.7266 20.0235 11.0007 20.0235C9.27477 20.0235 8.31105 18.0748 9.27477 16.7086C8.64718 16.3278 7.88514 15.7678 7.3695 15.2527C7.07807 19.2844 4.23163 19.9564 1.18325 21.0763C0.93669 21.1435 0.802234 20.7851 1.04879 20.6955C4.09709 19.598 6.89883 18.9262 7.0109 14.8496C6.33844 14.0656 5.91258 13.1697 5.57641 12.2067C5.28498 12.4531 4.92649 12.4531 4.59016 12.2739C3.76088 11.8482 3.24524 10.3476 3.08842 9.45171C2.99883 8.8694 3.02119 8.10773 3.71601 7.97338C4.09703 7.9062 4.52291 8.01822 4.81434 8.26461C4.63532 4.38958 6.89907 0.917969 11.001 0.917969C15.1029 0.917969 17.3665 4.38974 17.1872 8.26461C17.9493 7.63746 18.9804 7.88386 18.9355 9.07095C18.9355 9.56371 18.7563 10.1685 18.5545 10.7285L18.5543 10.7283ZM15.4388 13.5505C15.125 13.1921 14.9457 12.7218 14.9457 12.2065C14.9457 11.2435 15.6181 10.3923 16.5595 10.1682L16.8061 8.466C16.2008 5.55418 13.8699 3.58317 10.9336 3.58317C7.99741 3.58317 5.75598 5.53178 5.21804 8.3988C5.2404 8.95876 5.30763 9.51872 5.44225 10.1235C6.02497 12.9457 6.87674 14.9167 9.52159 16.4174C9.9026 16.0367 10.4181 15.8126 11.0009 15.8126C11.5837 15.8126 12.0993 16.0367 12.4803 16.4174C13.6904 15.7231 14.7662 14.7824 15.4387 13.5505L15.4388 13.5505ZM17.0526 10.482C16.1112 10.482 15.3492 11.266 15.3492 12.2067C15.3492 13.1697 16.1112 13.9314 17.0526 13.9314C18.0163 13.9314 18.7785 13.1699 18.7785 12.2067C18.7785 11.2658 18.0165 10.482 17.0526 10.482ZM10.306 14.2896C10.0594 14.2896 10.0594 13.9089 10.306 13.9089H11.6733C11.9422 13.9089 11.9422 14.2896 11.6733 14.2896H10.306ZM5.21803 6.98779C6.18175 4.61361 8.40082 3.20244 10.9336 3.20244C13.5111 3.20244 15.7974 4.68077 16.7836 7.09978C16.5371 3.85191 14.3629 1.29862 11.0008 1.29862C7.70598 1.29862 5.50942 3.80719 5.21803 6.98779ZM4.88189 9.11559C4.76979 8.62283 4.29917 8.26441 3.78357 8.35409C3.33533 8.44361 3.42491 9.0484 3.49214 9.38449C3.60424 10.146 4.07486 11.5795 4.76981 11.9379C5.06124 12.0723 5.28529 12.0274 5.44227 11.7587C5.17319 10.8627 5.03874 10.034 4.88192 9.11561L4.88189 9.11559ZM12.2113 16.6862C11.9198 16.395 11.4716 16.1935 11.001 16.1935C10.5302 16.1935 10.1045 16.395 9.7907 16.6862C8.71487 17.7613 9.45456 19.6429 11.001 19.6429C12.5476 19.6429 13.2872 17.7615 12.2113 16.6862Z" fill="currentColor" stroke="currentColor" stroke-width="0.5"/>
</g>
<defs>
<clipPath id="clip0_6950_99292">
<rect width="22" height="22" fill="white"/>
</clipPath>
</defs>
</svg>
