<svg width="17" height="18" viewBox="0 0 17 18" fill="none" xmlns="http://www.w3.org/2000/svg">
<path d="M7.58729 5.30544C7.8943 5.30498 8.18859 5.15745 8.40563 4.8948C8.62267 4.63233 8.74466 4.27656 8.74505 3.90531V3.33519C8.74429 2.8356 8.52357 2.37425 8.16562 2.12468C7.80778 1.87511 7.36696 1.87511 7.00912 2.12468C6.65116 2.37424 6.43031 2.83556 6.42969 3.33519V3.90531C6.42994 4.27658 6.55206 4.63232 6.76911 4.8948C6.98615 5.15743 7.28046 5.30497 7.58732 5.30544H7.58729ZM6.89208 3.33519H6.8922C6.89271 3.03537 7.02538 2.75845 7.24025 2.60876C7.455 2.45893 7.71956 2.45893 7.93445 2.60876C8.14933 2.75844 8.28201 3.03537 8.2825 3.33519V3.90531C8.28288 4.1286 8.20981 4.34297 8.07943 4.50112C7.94906 4.6591 7.77192 4.74792 7.58728 4.74792C7.40264 4.74792 7.22564 4.6591 7.09525 4.50112C6.96475 4.34299 6.89168 4.12861 6.89219 3.90531L6.89208 3.33519Z" fill="currentColor" stroke="currentColor" stroke-width="0.2"/>
<path d="M9.17123 10.1363C9.0312 9.44156 9.00909 8.71974 9.1063 8.01452L9.12854 7.85224C9.17619 7.50694 9.37201 7.2185 9.64268 7.09446L11.4676 6.26292V6.26308C11.6239 6.19116 11.7273 6.01028 11.7278 5.80822V5.21272C11.7278 5.06135 11.6696 4.91859 11.5701 4.8267C11.4708 4.73465 11.3417 4.70391 11.2209 4.74356L9.15119 5.42139C9.14369 5.42293 9.13632 5.42477 9.12895 5.42723L7.97831 5.80189V5.80174C7.72429 5.88426 7.45681 5.88426 7.20278 5.80174L6.05214 5.42708C6.04489 5.42477 6.03752 5.42278 6.03003 5.42124L3.96014 4.74352C3.83929 4.70387 3.71018 4.73461 3.61082 4.82666C3.51145 4.91856 3.45312 5.06132 3.45312 5.21269V5.80819C3.45376 6.01027 3.5572 6.19114 3.71337 6.26304L5.53827 7.09458V7.09443C5.80894 7.21844 6.00476 7.50687 6.05255 7.85221L6.07479 8.01449C6.17187 8.7197 6.14989 9.44148 6.00985 10.1363L5.05781 14.8835C5.03519 14.9965 5.05667 15.1157 5.11614 15.2071C5.17548 15.2984 5.26634 15.3517 5.3624 15.3517H5.77678C5.95875 15.3521 6.13602 15.2827 6.28354 15.154C6.43094 15.025 6.54099 14.8432 6.59779 14.6342L7.58783 11.0114C7.58808 11.0105 7.58834 11.0097 7.58847 11.0092C7.59025 11.0088 7.59228 11.0085 7.59177 11.0072C7.59241 11.0085 7.59279 11.0098 7.59317 11.0114L8.5832 14.6342C8.64013 14.8431 8.75018 15.025 8.89758 15.154C9.04499 15.2827 9.22238 15.3521 9.40421 15.3517H9.81872C9.91479 15.3517 10.0056 15.2984 10.065 15.2071C10.1245 15.1157 10.1459 14.9965 10.1232 14.8835L9.17123 10.1363ZM9.40428 14.7927L9.40416 14.7925C9.2307 14.7928 9.07657 14.6582 9.02244 14.4587L8.03241 10.8359H8.03228C7.96938 10.6053 7.79122 10.4498 7.59045 10.4498C7.3898 10.4498 7.21163 10.6053 7.14862 10.8359L6.15858 14.4587C6.10432 14.6582 5.95031 14.7928 5.77674 14.7925H5.55207L6.45939 10.268V10.2681C6.61403 9.50033 6.63843 8.70263 6.53105 7.92305L6.50882 7.76077C6.43384 7.21878 6.12632 6.76558 5.70141 6.57104L3.91577 5.75748L3.91564 5.30844L5.93166 5.96862C5.93916 5.97108 5.94678 5.97307 5.95441 5.97461L7.08244 6.34189C7.41523 6.45008 7.76571 6.45008 8.0985 6.34189L9.2264 5.97476C9.23403 5.97323 9.24178 5.97123 9.24927 5.96877L11.2653 5.3086V5.75763L9.47966 6.57119V6.57104C9.05461 6.76559 8.7472 7.21878 8.67225 7.76077L8.65001 7.92305C8.54263 8.70263 8.56703 9.50037 8.72168 10.2679L9.62899 14.7925L9.40428 14.7927Z" fill="currentColor" stroke="currentColor" stroke-width="0.2"/>
<path d="M11.0793 1.90801C10.6675 1.61188 10.2308 1.36908 9.77682 1.18359L9.62891 1.71363C10.0521 1.88651 10.459 2.11274 10.8429 2.38887L11.0793 1.90801Z" fill="currentColor" stroke="currentColor" stroke-width="0.2"/>
<path d="M1.78067 5.82564L1.35979 5.59375H1.35966C1.16105 6.12115 1.00908 6.67255 0.90625 7.23854L1.358 7.3584V7.35856C1.45382 6.831 1.5955 6.3171 1.78064 5.82565L1.78067 5.82564Z" fill="currentColor" stroke="currentColor" stroke-width="0.2"/>
<path d="M1.21255 9.01949L1.21268 8.96463L0.750127 8.96094L0.75 9.01949C0.749873 9.57903 0.796382 10.1372 0.88889 10.6855L1.34204 10.5733C1.25589 10.062 1.21243 9.5414 1.21255 9.0195V9.01949Z" fill="currentColor" stroke="currentColor" stroke-width="0.2"/>
<path d="M14.1631 7.44593L14.2982 7.41366V7.41381C14.2054 6.84538 14.0632 6.29029 13.8741 5.75781L13.4492 5.9788C13.6123 6.43814 13.7377 6.91557 13.8238 7.40442C13.9374 7.41118 14.0507 7.42501 14.1631 7.44591L14.1631 7.44593Z" fill="currentColor" stroke="currentColor" stroke-width="0.2"/>
<path d="M12.7962 4.57058L13.1736 4.24725C12.8967 3.77469 12.5798 3.33829 12.2279 2.94531L11.9141 3.35622H11.9142C12.2423 3.72274 12.5379 4.12982 12.7962 4.57055L12.7962 4.57058Z" fill="currentColor" stroke="currentColor" stroke-width="0.2"/>
<path d="M1.32031 12.3378C1.51283 12.8683 1.75082 13.3728 2.03039 13.843L2.40589 13.5165C2.14527 13.078 1.9234 12.6076 1.74396 12.1133L1.32031 12.3378Z" fill="currentColor" stroke="currentColor" stroke-width="0.2"/>
<path d="M10.7656 15.7097L10.9964 16.1946H10.9963C11.4113 15.9055 11.8003 15.5648 12.1567 15.178L11.8478 14.7617C11.5154 15.1224 11.1527 15.4402 10.7656 15.7097H10.7656Z" fill="currentColor" stroke="currentColor" stroke-width="0.2"/>
<path d="M7.58805 1.30937H7.58906C7.83495 1.30937 8.0807 1.32628 8.32494 1.36009L8.37767 0.8044C8.1159 0.768133 7.8526 0.75 7.5892 0.75H7.58805C7.37394 0.75 7.15767 0.76214 6.94531 0.786114L6.98839 1.34302C7.1865 1.32074 7.38816 1.30936 7.58806 1.30936L7.58805 1.30937Z" fill="currentColor" stroke="currentColor" stroke-width="0.2"/>
<path d="M8.23438 16.6967L8.28063 17.2533H8.28076C8.7574 17.1953 9.22769 17.0769 9.6839 16.8998L9.54234 16.3672C9.11716 16.5322 8.67875 16.6427 8.23438 16.6967L8.23438 16.6967Z" fill="currentColor" stroke="currentColor" stroke-width="0.2"/>
<path d="M3.36869 3.24327L3.06219 2.82437V2.82422C2.70347 3.20825 2.37891 3.63625 2.09375 4.10172L2.46544 4.43473L2.46532 4.43458C2.73141 4.00061 3.03408 3.60135 3.36869 3.24331L3.36869 3.24327Z" fill="currentColor" stroke="currentColor" stroke-width="0.2"/>
<path d="M5.44531 16.8789C5.90048 17.0601 6.37016 17.1827 6.84667 17.2448L6.89622 16.6887L6.8961 16.6885C6.45212 16.6307 6.01435 16.5164 5.59006 16.3477L5.44531 16.8789Z" fill="currentColor" stroke="currentColor" stroke-width="0.2"/>
<path d="M2.98438 15.1402C3.33867 15.5303 3.72558 15.8743 4.13895 16.1671L4.37251 15.6843C3.98696 15.4113 3.6261 15.0903 3.29568 14.7266L2.98438 15.1402Z" fill="currentColor" stroke="currentColor" stroke-width="0.2"/>
<path d="M5.6799 1.66275L5.54151 1.12906V1.12891C5.0843 1.30256 4.6436 1.534 4.22656 1.81921L4.4544 2.30605V2.30621C4.84298 2.0402 5.25381 1.82444 5.6799 1.66279V1.66275Z" fill="currentColor" stroke="currentColor" stroke-width="0.2"/>
<path d="M16.5001 11.3474C16.5003 10.3485 16.1408 9.39902 15.5151 8.74667C14.8894 8.09448 14.0599 7.80419 13.2429 7.95172C12.4259 8.0994 11.7026 8.67 11.2619 9.51487C10.8212 10.3598 10.7067 11.3951 10.9484 12.3503C11.19 13.3055 11.7638 14.086 12.52 14.4881C13.2762 14.8901 14.1398 14.8736 14.8852 14.443L16.0041 16.5232L16.3918 16.2181L15.2848 14.16V14.1601C16.0458 13.5193 16.4997 12.469 16.5001 11.3475L16.5001 11.3474ZM11.289 11.3474C11.289 10.586 11.5392 9.85572 11.9845 9.31727C12.4297 8.77881 13.0336 8.47621 13.6633 8.47621C14.293 8.47621 14.8968 8.77879 15.3421 9.31727C15.7873 9.85574 16.0376 10.586 16.0376 11.3476C16.0376 12.109 15.7873 12.8393 15.3421 13.3778C14.8968 13.9162 14.293 14.2188 13.6633 14.2188C13.0338 14.2179 12.4304 13.9152 11.9852 13.3769C11.5401 12.8385 11.2897 12.1088 11.289 11.3474Z" fill="currentColor" stroke="currentColor" stroke-width="0.2"/>
<path d="M14.971 11.3477C14.9706 11.7667 14.8328 12.1684 14.5878 12.4647C14.3428 12.761 14.0106 12.9278 13.6641 12.9282V13.4876C14.1332 13.487 14.5829 13.2612 14.9147 12.8601C15.2464 12.4589 15.433 11.9151 15.4335 11.3477L14.971 11.3477Z" fill="currentColor" stroke="currentColor" stroke-width="0.2"/>
</svg>
