<svg width="19" height="19" viewBox="0 0 19 19" fill="none" xmlns="http://www.w3.org/2000/svg">
<path d="M5.66699 6.23548C5.93135 6.23241 6.18372 6.1247 6.3688 5.93568C6.554 5.74679 6.65686 5.49205 6.65482 5.22733C6.65278 4.96263 6.54609 4.70954 6.35809 4.52333C6.17008 4.33725 5.91618 4.23336 5.65171 4.23438C5.38736 4.23528 5.13424 4.34121 4.94763 4.52869C4.76102 4.71618 4.65625 4.97017 4.65625 5.23485C4.65625 5.50223 4.76306 5.75849 4.95298 5.94649C5.1429 6.13449 5.39998 6.2385 5.66702 6.23544L5.66699 6.23548ZM5.66699 4.80604C5.83906 4.81064 5.99163 4.91797 6.05434 5.07853C6.11705 5.23909 6.07767 5.42159 5.95429 5.54196C5.83103 5.66218 5.64774 5.6969 5.48905 5.62989C5.33049 5.56289 5.22724 5.40731 5.22724 5.23488C5.22724 5.11912 5.2739 5.00834 5.35675 4.92755C5.43947 4.84676 5.55138 4.80299 5.66699 4.80605L5.66699 4.80604Z" fill="currentColor" stroke="currentColor" stroke-width="0.0792318"/>
<path d="M8.75468 9.95108H10.2636C10.5173 9.95453 10.7597 9.84506 10.9251 9.65231C11.0906 9.45956 11.1623 9.20333 11.1208 8.95245L10.9379 7.90247L10.3664 7.99406L10.5436 9.04417V9.04404C10.5576 9.12822 10.5335 9.21419 10.4779 9.2787C10.4235 9.34231 10.3442 9.37884 10.2606 9.37884H8.75469C8.67126 9.37884 8.59191 9.34231 8.53757 9.2787C8.48182 9.21419 8.45771 9.12822 8.47187 9.04404L8.65187 7.99393L8.08036 7.90234L7.90611 8.95246C7.86452 9.20333 7.93621 9.45958 8.10167 9.65231C8.26713 9.84505 8.5095 9.95454 8.76338 9.95109L8.75468 9.95108Z" fill="currentColor" stroke="currentColor" stroke-width="0.0792318"/>
<path d="M13.3704 4.23438C13.1054 4.23438 12.8512 4.3398 12.6637 4.52741C12.4764 4.71515 12.3711 4.96964 12.3711 5.23497C12.3711 5.50031 12.4764 5.75479 12.6637 5.94253C12.8512 6.13015 13.1054 6.23557 13.3704 6.23557C13.6354 6.23557 13.8895 6.13015 14.077 5.94253C14.2644 5.75479 14.3697 5.50031 14.3697 5.23497C14.3697 4.96964 14.2644 4.71515 14.077 4.52741C13.8895 4.3398 13.6354 4.23438 13.3704 4.23438ZM13.3704 5.66381C13.1972 5.66381 13.041 5.55928 12.9747 5.39911C12.9085 5.23881 12.945 5.05438 13.0675 4.93172C13.19 4.80907 13.3742 4.77244 13.5343 4.83881C13.6943 4.90517 13.7987 5.06152 13.7987 5.23496C13.7987 5.47184 13.607 5.66379 13.3704 5.66379L13.3704 5.66381Z" fill="currentColor" stroke="currentColor" stroke-width="0.0792318"/>
<path d="M10.2619 10.5864C10.1485 10.4953 9.98494 10.5039 9.88186 10.6065L9.51319 10.9784L9.14452 10.6065C9.04144 10.5039 8.8779 10.4953 8.76448 10.5864L7.3357 11.7309C7.27205 11.781 7.2325 11.856 7.22714 11.937C7.22191 12.0189 7.25215 12.0991 7.31007 12.1572L8.45308 13.3017C8.50692 13.3554 8.58001 13.3851 8.65592 13.3847H10.3704C10.4463 13.3851 10.5194 13.3554 10.5733 13.3017L11.7163 12.1572C11.7742 12.0991 11.8044 12.0189 11.7992 11.937C11.7939 11.856 11.7543 11.781 11.6907 11.7309L10.2619 10.5864ZM8.92166 11.1931L9.31022 11.5851L9.31035 11.5849C9.36393 11.6391 9.43702 11.6696 9.51318 11.6696C9.58934 11.6696 9.66244 11.6391 9.71601 11.5849L10.1046 11.1929L10.8561 11.7938L10.0561 11.9541H8.97024L8.17013 11.7939L8.92166 11.1931ZM10.2533 12.8125H8.77303L8.37017 12.4205L8.88453 12.5264H10.1418L10.6562 12.4205L10.2533 12.8125Z" fill="currentColor" stroke="currentColor" stroke-width="0.0792318"/>
<path d="M16.0847 4.23044V1.08302H15.5132V3.56954C15.1939 3.15885 14.7649 2.84744 14.2759 2.67102L14.3216 2.64241L13.1786 0.925633C13.126 0.845671 13.037 0.797385 12.9414 0.796875H6.0833C5.98775 0.797386 5.89871 0.845671 5.84615 0.925633L4.70313 2.64241L4.75454 2.67383C4.26098 2.85177 3.82928 3.16869 3.51152 3.58664V1.08302H2.94001V4.23044C2.17435 4.23044 1.46686 4.63946 1.08401 5.30341C0.701164 5.9674 0.701164 6.7854 1.08401 7.44938C1.46686 8.11337 2.17435 8.52235 2.94001 8.52235V10.0617C2.93937 10.62 3.14272 11.1595 3.51152 11.5782L5.79756 14.1704V15.1949C5.79896 15.7191 5.65379 16.2333 5.37862 16.6793C5.10346 17.1253 4.70901 17.4852 4.24021 17.7186L4.49739 18.2279C5.06266 17.9474 5.53783 17.5136 5.86875 16.9758C6.19967 16.438 6.37302 15.818 6.36907 15.1863V14.8172L6.70048 15.1919C7.13446 15.6849 7.75891 15.9673 8.41501 15.9674H10.6097C11.2658 15.9673 11.8902 15.6849 12.3242 15.1919L12.6556 14.8172V15.1919C12.6532 15.8222 12.8273 16.4405 13.1583 16.9765C13.4891 17.5127 13.9633 17.9452 14.5273 18.2249L14.7845 17.7156C14.3148 17.4819 13.9198 17.121 13.6446 16.674C13.3693 16.2269 13.2248 15.7115 13.2272 15.1864V14.1619L15.5132 11.5696C15.882 11.1509 16.0854 10.6115 16.0847 10.0532V8.52238C16.8504 8.52238 17.5579 8.11337 17.9407 7.44942C18.3236 6.78543 18.3236 5.96743 17.9407 5.30344C17.5579 4.63946 16.8504 4.23048 16.0847 4.23048L16.0847 4.23044ZM15.0588 3.90995L14.7417 4.09313L15.0274 4.58812L15.3503 4.40213C15.42 4.57381 15.4679 4.75366 15.4932 4.93721H15.1217V5.50947H15.4932C15.4679 5.69303 15.42 5.87274 15.3503 6.04455L15.0274 5.85856L14.7417 6.35355L15.0588 6.53673V6.5366C14.9471 6.68299 14.8163 6.81379 14.6702 6.9258L14.4873 6.60825L13.993 6.89438L14.173 7.21193C14.0037 7.28104 13.8259 7.32715 13.6443 7.34925V6.99732H13.0728V7.355C12.8922 7.32997 12.7155 7.28194 12.5471 7.21194L12.7243 6.90294L12.227 6.61681L12.0527 6.923V6.92287C11.9113 6.80957 11.7838 6.67992 11.6726 6.53661L11.9583 6.36213L11.6726 5.86714L11.3868 6.04162C11.3183 5.87378 11.2712 5.69775 11.2469 5.51802H11.5955V4.94577H11.2469C11.2712 4.76604 11.3183 4.59002 11.3868 4.42216L11.6726 4.59665L11.9583 4.10166L11.6726 3.92718C11.7838 3.78386 11.9113 3.6542 12.0527 3.54092L12.227 3.8471L12.7243 3.56097L12.5471 3.25198V3.25185C12.7155 3.18185 12.8921 3.13382 13.0728 3.10879V3.46647H13.6443V3.10601C13.8258 3.12798 14.0037 3.17422 14.173 3.24332L13.993 3.56088L14.4873 3.847L14.6702 3.52945C14.8163 3.64148 14.9471 3.77228 15.0588 3.91852V3.90995ZM8.36921 4.94578C8.30479 4.33457 8.03473 3.76359 7.60342 3.32635L7.95208 2.7998H8.20351C8.38938 3.22658 8.77094 3.53622 9.22648 3.62958V3.94432H9.79799V3.62958C10.2535 3.5362 10.6351 3.22658 10.821 2.7998H11.0724L11.4296 3.33488C11.0029 3.77124 10.7352 4.33862 10.6696 4.94578H8.36921ZM9.51223 3.08593C9.26985 3.08466 9.03945 2.98068 8.87782 2.7998H10.1466C9.98501 2.98068 9.75462 3.08466 9.51223 3.08593ZM13.5556 2.51367H13.3698C12.8372 2.5138 12.3164 2.67105 11.8724 2.96573L11.4638 2.35629C11.4112 2.27632 11.3222 2.22804 11.2267 2.22753H10.9409C10.9426 1.91777 10.8422 1.61593 10.6551 1.36914H12.7955L13.5556 2.51367ZM10.3694 2.22755H8.6549C8.6549 1.92085 8.81832 1.63753 9.08353 1.48413C9.34875 1.33085 9.67558 1.33085 9.9408 1.48413C10.206 1.63754 10.3694 1.92085 10.3694 2.22755ZM6.23758 1.36916H8.36925C8.18223 1.61594 8.08183 1.91777 8.08349 2.22755H7.79774C7.70219 2.22806 7.61314 2.27634 7.56059 2.3563L7.15478 2.96293C6.71377 2.66914 6.19572 2.51278 5.66605 2.51369H5.46602L6.23758 1.36916ZM4.3516 3.54093L4.52586 3.84711L5.0202 3.56098L4.843 3.25199V3.25186C5.01165 3.18225 5.18819 3.13422 5.36886 3.1088V3.46648H5.94037V3.10602C6.12279 3.12799 6.30153 3.17423 6.4718 3.24333L6.28887 3.56089L6.78321 3.84701L6.96614 3.52946H6.96627C7.1126 3.64213 7.24412 3.77293 7.35764 3.91853L7.03757 4.10171L7.32333 4.5967L7.6462 4.41071H7.64633C7.71879 4.58214 7.76969 4.76185 7.79775 4.94579H7.42627V5.51805H7.79775C7.77249 5.70161 7.7244 5.88132 7.65487 6.05313L7.332 5.86714L7.04624 6.36213L7.36632 6.54531C7.25265 6.69093 7.12113 6.82173 6.97482 6.93438L6.79188 6.61683L6.29754 6.90296L6.48048 7.22051C6.31004 7.28961 6.13133 7.33585 5.94891 7.35782V6.99737H5.3774V7.35504C5.19689 7.32962 5.02019 7.28159 4.85167 7.21198L5.02887 6.90299L4.53453 6.61686L4.36027 6.92304L4.36014 6.92291C4.2179 6.80961 4.08931 6.67996 3.97717 6.53665L4.28001 6.36217L3.99426 5.86718L3.69141 6.04167C3.6224 5.87408 3.57635 5.69805 3.55428 5.51807H3.89999V4.94581H3.54572C3.56766 4.76583 3.61384 4.5898 3.68286 4.42221L3.9857 4.59669L4.27146 4.10171L3.96861 3.92722C4.08074 3.7839 4.20921 3.65425 4.35159 3.54096L4.3516 3.54093ZM1.51113 6.37642C1.51075 5.98313 1.65707 5.60374 1.92138 5.31264C2.18557 5.02166 2.54877 4.83976 2.93991 4.80271V7.95013C2.54877 7.91309 2.18558 7.73119 1.92138 7.4402C1.65705 7.14909 1.51074 6.76971 1.51113 6.37642ZM15.5131 10.0533C15.5153 10.4745 15.3627 10.8819 15.0845 11.1978L11.8955 14.8174C11.5683 15.1836 11.1002 15.392 10.6096 15.3897H8.41493C7.92432 15.392 7.45627 15.1836 7.12904 14.8174L3.94008 11.1893C3.66185 10.8734 3.50929 10.466 3.51145 10.0448V6.8773C3.9522 7.45927 4.60855 7.83876 5.33224 7.93035C6.05594 8.02194 6.7859 7.81769 7.35741 7.36372C7.92879 6.90987 8.29364 6.24461 8.36928 5.51816H10.6724C10.7442 6.2465 11.1065 6.91497 11.6773 7.37199C12.2481 7.82914 12.979 8.0362 13.7043 7.94628C14.4297 7.85635 15.0881 7.47709 15.5302 6.89437V10.0418L15.5131 10.0533ZM16.0846 7.95023V4.80281C16.6462 4.80281 17.165 5.10273 17.4457 5.58965C17.7264 6.07659 17.7264 6.67642 17.4457 7.16336C17.165 7.6503 16.6462 7.9502 16.0846 7.9502V7.95023Z" fill="currentColor" stroke="currentColor" stroke-width="0.0792318"/>
</svg>
