<svg width="16" height="16" viewBox="0 0 16 16" fill="none" xmlns="http://www.w3.org/2000/svg">
<path d="M5.28148 0.666687C2.37058 0.666687 0 3.03972 0 5.95349C0 7.20447 0.403717 8.39823 1.14468 9.32169C0.441503 9.9505 0 10.8861 0 11.9225C0 13.7871 1.43537 15.3334 3.23704 15.3334H12.0963C13.8979 15.3334 15.3333 13.7871 15.3333 11.9225C15.3333 10.0579 13.898 8.51168 12.0963 8.51168H9.86542C10.2962 7.75983 10.5629 6.89201 10.5629 5.95355C10.5629 3.03972 8.19226 0.666748 5.28142 0.666748L5.28148 0.666687ZM5.28148 1.69C5.71407 1.69 6.12904 1.75733 6.52193 1.87653L3.6789 8.51183H3.23695C2.80259 8.51183 2.38926 8.60497 2.01241 8.76759C1.38386 8.02979 1.02222 7.02685 1.02222 5.95371C1.02222 3.59292 2.92307 1.69016 5.28148 1.69016V1.69ZM7.45364 2.28684C8.70373 3.02845 9.54074 4.38864 9.54074 5.95349C9.54074 6.91754 9.19836 7.7869 8.64624 8.51162H4.78613L7.45364 2.28684ZM3.23698 9.53487H7.15549V14.31H3.23698C2.01825 14.31 1.02225 13.2702 1.02225 11.9225C1.02225 10.5748 2.01825 9.53487 3.23698 9.53487ZM8.17772 9.53487H12.0962C13.315 9.53487 14.311 10.5748 14.311 11.9225C14.311 13.2702 13.315 14.31 12.0962 14.31H8.17772V9.53487Z" fill="currentColor"/>
</svg>
