<svg width="16" height="20" viewBox="0 0 16 20" fill="none" xmlns="http://www.w3.org/2000/svg">
<path d="M15.2668 19.0962L14.8597 19.0563C15.0479 17.0222 15.2934 13.219 14.8127 10.607C14.782 10.4305 14.784 10.2498 14.825 10.0691V10.067C14.9088 9.70561 15.0868 8.79995 14.9477 8.1969C14.8209 7.63796 14.7309 7.11264 14.7309 7.10634L14.7288 7.09583C14.7268 7.07482 14.6695 6.59572 14.6388 6.0095C14.6224 5.71322 14.5324 5.26985 14.1888 4.8286C13.7408 4.25495 12.9901 3.84732 11.9592 3.62039C11.2166 3.45649 10.4659 3.33042 9.67021 3.19805C8.25468 2.9606 6.79213 2.71687 5.17197 2.22517C3.24303 1.64103 1.26508 1.34894 0.503906 1.24808L0.555046 0.832031C1.32621 0.932892 3.33086 1.23129 5.28856 1.82173C6.88408 2.30502 8.3344 2.54877 9.73556 2.782C10.5354 2.91648 11.2902 3.04255 12.043 3.20857C14.6511 3.78223 15.0111 5.34136 15.0458 5.98433C15.0745 6.52437 15.1256 6.98245 15.1317 7.03705C15.142 7.09378 15.2258 7.58127 15.3424 8.09817C15.502 8.78741 15.3097 9.76869 15.2197 10.1595C15.1931 10.2835 15.189 10.4053 15.2115 10.5272C15.7045 13.1937 15.457 17.0411 15.2667 19.0963L15.2668 19.0962Z" fill="currentColor" stroke="currentColor" stroke-width="0.35"/>
<path d="M8.95616 19.1673C8.59819 18.3416 8.10727 17.2111 7.89863 15.1706C7.71453 13.3551 8.08887 11.6636 8.43456 10.5625C8.44888 10.5142 8.42433 10.4616 8.37729 10.4448C8.15841 10.365 7.92728 10.2872 7.71658 10.2557C7.31564 10.1948 6.77152 10.1822 4.56642 10.6823C2.95864 11.0479 1.36719 11.3232 0.563412 11.4556L0.5 11.0395C1.29982 10.9092 2.88101 10.634 4.4787 10.2704C6.75333 9.75564 7.31791 9.77032 7.77611 9.83967C8.02363 9.87749 8.27726 9.96155 8.51455 10.0498C8.77229 10.1423 8.90729 10.4238 8.82547 10.6928C8.49 11.756 8.12796 13.3866 8.30589 15.1287C8.5084 17.1039 8.96454 18.1545 9.33069 18.9991L8.95616 19.1673Z" fill="currentColor" stroke="currentColor" stroke-width="0.35"/>
<path d="M9.97033 8.55559C9.76781 8.55559 9.57145 8.49045 9.38528 8.35807C9.06004 8.12693 8.94346 7.89157 8.85141 7.70249C8.77777 7.5512 8.72459 7.44194 8.57322 7.34318C8.38094 7.2171 8.0475 7.12254 7.55455 7.0553C6.17175 6.86409 2.18104 6.82837 0.528146 6.82206L0.530192 6.40179C2.59211 6.4102 6.25567 6.45012 7.60971 6.63924C8.17017 6.71698 8.54657 6.82835 8.79408 6.99015C9.03954 7.14984 9.13568 7.34316 9.21955 7.51547C9.30342 7.68357 9.38115 7.84326 9.62049 8.01347C9.77391 8.12274 9.92732 8.15845 10.091 8.12483C10.4755 8.04499 10.8274 7.59951 10.9296 7.43353L10.9358 7.42302L10.9419 7.41461C10.9501 7.40411 11.7703 6.33458 11.3429 5.42891C11.0012 4.70187 10.588 4.65983 9.84552 4.84265C9.01709 5.04437 5.85448 4.71868 2.1911 4.34046C1.64084 4.28373 1.07424 4.22489 0.511719 4.16816L0.552632 3.75C1.11516 3.80674 1.68381 3.86557 2.23201 3.9223C5.7074 4.27952 8.9906 4.61784 9.7514 4.43291C10.4346 4.26481 11.2079 4.17655 11.7111 5.24609C12.2347 6.35556 11.3613 7.54487 11.2672 7.66886C11.2079 7.76131 10.7701 8.41269 10.1708 8.53668C10.1012 8.54929 10.0358 8.55559 9.97031 8.55559L9.97033 8.55559Z" fill="currentColor" stroke="currentColor" stroke-width="0.35"/>
<path d="M13.6127 19.0886C13.3283 13.6567 13.4674 10.8242 13.5799 10.0845C13.6597 9.55921 13.6454 9.21882 13.6352 8.94356C13.6311 8.8532 13.627 8.76705 13.627 8.6809C13.629 8.06732 13.3938 7.66388 13.1729 7.59664C13.0051 7.54411 12.8026 7.68279 12.6165 7.97277C12.0253 8.89311 11.4219 9.02129 10.98 9.11374C10.8225 9.14736 10.6855 9.17677 10.5893 9.23561C10.5443 9.26293 10.4912 9.30706 10.4912 9.35539C10.4912 9.44574 10.6262 9.63695 11.0087 9.87648C11.6489 10.2757 11.9742 10.6897 11.9742 11.8454C11.9742 12.5871 12.234 17.9873 12.2851 19.0631L11.876 19.0841C11.8248 18.0083 11.565 12.5976 11.565 11.8452C11.565 10.8702 11.338 10.5719 10.7959 10.2357C10.3152 9.93517 10.082 9.64732 10.082 9.35523C10.082 9.16401 10.1864 8.99381 10.3786 8.87613C10.5361 8.77947 10.7121 8.74165 10.9002 8.70172C11.3134 8.61557 11.7798 8.51681 12.2789 7.74145C12.6799 7.11527 13.0869 7.12999 13.2935 7.19304C13.7395 7.33173 14.0401 7.9285 14.0381 8.68074C14.0381 8.75639 14.0422 8.83834 14.0463 8.92449C14.0585 9.21657 14.0749 9.58007 13.987 10.1495C13.8765 10.8745 13.7415 13.6692 14.0238 19.0652L13.6127 19.0886Z" fill="currentColor" stroke="currentColor" stroke-width="0.35"/>
<path d="M11.0869 19.0874C11.0194 17.9716 10.9151 16.5596 10.8292 15.4249C10.7678 14.5949 10.7146 13.8784 10.6921 13.4876L10.6901 13.4644C10.6185 12.294 10.6164 12.2478 10.8087 11.6679C10.9212 11.3275 10.6573 11.0102 10.4651 10.8883C10.1766 10.7076 10.013 10.6887 9.92913 10.7076C9.8514 10.7244 9.81048 10.7748 9.76957 10.8253C9.76344 10.8316 9.75935 10.8379 9.75321 10.8442C9.65707 10.9597 9.6898 11.0543 9.99663 11.5166C10.0457 11.5901 10.0969 11.6679 10.15 11.7519C10.2278 11.8717 10.4323 12.1932 10.7351 19.0665L10.326 19.0854C10.0539 12.9519 9.85957 12.0943 9.80436 11.9791C9.75322 11.8971 9.70412 11.8236 9.65503 11.7521C9.50571 11.5252 9.38706 11.3466 9.32979 11.1743C9.25615 10.9495 9.29297 10.7456 9.44025 10.5691C9.44434 10.5649 9.44843 10.5586 9.45252 10.5544C9.63662 10.3296 9.96391 10.0837 10.6758 10.5313C11.0603 10.773 11.3631 11.2878 11.1912 11.8026C11.0255 12.3048 11.0255 12.3048 11.093 13.4374L11.0951 13.4605C11.1176 13.8492 11.1708 14.5636 11.2321 15.3915C11.316 16.5283 11.4224 17.9425 11.4899 19.0603L11.0869 19.0874Z" fill="currentColor" stroke="currentColor" stroke-width="0.35"/>
<path d="M12.7109 6.84925C12.5657 6.84925 12.4266 6.78831 12.3264 6.67904C12.22 6.56348 12.1689 6.40378 12.1873 6.24617L12.2711 5.51702C12.2896 5.34261 12.3918 5.18712 12.5412 5.10308C12.6946 5.01693 12.8787 5.01273 13.0362 5.09048C13.4985 5.32582 13.7787 5.70613 13.8462 6.19575C13.8667 6.34915 13.8237 6.50254 13.7296 6.62021C13.6355 6.73789 13.4944 6.81143 13.345 6.81773L12.7375 6.84925H12.7109L12.7109 6.84925ZM12.8009 5.45192C12.7723 5.45192 12.7498 5.46242 12.7396 5.46873C12.7191 5.48133 12.6843 5.50865 12.6782 5.56328L12.5943 6.29451C12.5882 6.34284 12.6127 6.37646 12.625 6.39117C12.6393 6.40588 12.67 6.43109 12.7171 6.42899L13.3246 6.39747C13.3716 6.39537 13.4003 6.36805 13.4146 6.35124C13.4269 6.33443 13.4494 6.30081 13.4412 6.25249C13.3941 5.90368 13.1957 5.63891 12.8561 5.46662C12.8357 5.45611 12.8173 5.45191 12.8009 5.45191L12.8009 5.45192Z" fill="currentColor" stroke="currentColor" stroke-width="0.35"/>
</svg>
