<svg width="16" height="25" viewBox="0 0 16 25" fill="none" xmlns="http://www.w3.org/2000/svg">
<path d="M0.738236 22.7629C0.557197 22.5391 0.42881 22.2791 0.362181 22.0014C0.295553 21.7237 0.292317 21.4351 0.352702 21.1561C0.413087 20.877 0.535613 20.6144 0.71159 20.3867C0.887566 20.1591 1.11268 19.9721 1.37096 19.8389C1.61795 19.7104 1.88963 19.6336 2.1687 19.6133C2.44776 19.5931 2.72809 19.6297 2.99184 19.7211C3.25559 19.8124 3.49696 19.9564 3.7006 20.1438C3.90423 20.3313 4.06566 20.5581 4.1746 20.8098L4.8066 22.2778C4.96999 22.6552 4.99018 23.077 4.86353 23.4676C4.73689 23.8582 4.47171 24.1918 4.11569 24.4085C3.74102 24.6413 3.29123 24.7301 2.85338 24.6577C2.41553 24.5853 2.02077 24.3568 1.74551 24.0165L0.738236 22.7629Z" fill="#FFE0BF"/>
<path d="M15.3499 22.7926C15.5255 22.5715 15.6508 22.3164 15.7173 22.0442C15.7838 21.772 15.79 21.4891 15.7355 21.2144C15.6811 20.9397 15.5671 20.6795 15.4014 20.4512C15.2356 20.223 15.0219 20.0319 14.7744 19.8908C14.527 19.7498 14.2515 19.6619 13.9665 19.6332C13.6815 19.6045 13.3935 19.6355 13.1217 19.7242C12.85 19.813 12.6008 19.9574 12.3908 20.1477C12.1808 20.3381 12.0148 20.5701 11.904 20.8281L11.2728 22.3011C11.1084 22.6803 11.0879 23.1043 11.2149 23.497C11.3419 23.8896 11.6082 24.2251 11.9659 24.4432C12.3413 24.6761 12.7917 24.7648 13.2302 24.6921C13.6687 24.6194 14.064 24.3905 14.3397 24.0497L15.3499 22.7926Z" fill="#FFE0BF"/>
<path d="M1.34548 15.2359C2.94548 12.4305 5.82766 11.8083 5.82766 11.8083C5.82766 11.8083 6.37748 12.2962 7.98475 12.3516C9.65748 12.2671 10.2778 11.7834 10.2778 11.7834C10.2778 11.7834 12.4371 12.2295 14.2153 14.4227C14.92 15.5093 15.1608 15.6655 15.4117 17.4837C15.4946 19.8275 12.8313 19.6144 12.8313 19.6144L8.03712 19.6641C8.03712 19.6641 2.49239 19.6499 2.16366 19.5654C0.245116 18.9915 0.19057 17.2884 1.34548 15.2359Z" fill="#FFE0BF"/>
<path d="M8.01964 12.2869C10.856 12.2869 13.1498 10.0604 13.1498 7.31534C13.1498 4.57031 10.8531 2.34375 8.01964 2.34375C5.18619 2.34375 2.88873 4.57031 2.88873 7.31534C2.88873 10.0604 5.18619 12.2869 8.01964 12.2869Z" fill="#FFE0BF"/>
<path d="M7.9615 9.98577C7.57384 9.98799 7.19223 9.89197 6.85392 9.70712C6.51562 9.52226 6.23219 9.25488 6.03132 8.93109C5.99306 8.86684 5.98153 8.7907 5.99913 8.7184C6.01673 8.64609 6.0621 8.58315 6.12586 8.54259C6.19247 8.50539 6.27101 8.49416 6.34574 8.51115C6.42047 8.52815 6.48585 8.57211 6.52877 8.63421C6.67999 8.87235 6.89094 9.06886 7.14166 9.20514C7.39238 9.34141 7.67457 9.41293 7.9615 9.41293C8.24844 9.41293 8.53062 9.34141 8.78134 9.20514C9.03206 9.06886 9.24302 8.87235 9.39423 8.63421C9.41437 8.60239 9.44075 8.57477 9.47185 8.55294C9.50295 8.5311 9.53817 8.51548 9.57547 8.50697C9.61277 8.49845 9.65142 8.49722 9.68921 8.50333C9.727 8.50945 9.76319 8.52279 9.79568 8.54259C9.82872 8.56139 9.8575 8.58653 9.88031 8.6165C9.90311 8.64647 9.91946 8.68064 9.92837 8.71695C9.93727 8.75326 9.93855 8.79095 9.93212 8.82776C9.92569 8.86456 9.91168 8.89971 9.89096 8.93109C9.69134 9.25583 9.40829 9.524 9.06985 9.709C8.73141 9.894 8.34934 9.98941 7.9615 9.98577Z" fill="#DCBC99"/>
<path d="M4.01819 16.4661V17.2807H4.52728V16.4661C4.52055 16.4047 4.49084 16.348 4.44385 16.3067C4.39686 16.2655 4.33591 16.2427 4.27273 16.2427C4.20956 16.2427 4.14861 16.2655 4.10162 16.3067C4.05463 16.348 4.02491 16.4047 4.01819 16.4661Z" fill="#F2D0AC"/>
<path d="M11.9084 16.4661C11.9017 16.4047 11.8719 16.348 11.825 16.3067C11.778 16.2655 11.717 16.2427 11.6538 16.2427C11.5907 16.2427 11.5297 16.2655 11.4827 16.3067C11.4357 16.348 11.406 16.4047 11.3993 16.4661V17.2807H11.9084V16.4661Z" fill="#F2D0AC"/>
<path d="M9.89968 5.94897C9.97852 5.94954 10.0554 5.97288 10.1207 6.01606C10.186 6.05925 10.2367 6.12034 10.2665 6.19163C10.2963 6.26293 10.3037 6.34124 10.288 6.41668C10.2723 6.49213 10.234 6.56134 10.1781 6.61559C10.1221 6.66984 10.051 6.70669 9.9736 6.72151C9.89623 6.73632 9.8161 6.72844 9.74331 6.69884C9.67052 6.66925 9.60834 6.61927 9.56459 6.55522C9.52085 6.49116 9.4975 6.41589 9.4975 6.33889C9.49883 6.23539 9.54172 6.13654 9.61694 6.06362C9.69216 5.99069 9.79369 5.94952 9.89968 5.94897Z" fill="#B69169"/>
<path d="M6.02767 6.02002C6.10654 6.02058 6.18348 6.04394 6.24877 6.08716C6.31406 6.13037 6.36479 6.19151 6.39454 6.26284C6.42429 6.33418 6.43174 6.41252 6.41595 6.48799C6.40016 6.56346 6.36183 6.63267 6.3058 6.68688C6.24978 6.7411 6.17856 6.7779 6.10115 6.79264C6.02373 6.80737 5.94357 6.79939 5.8708 6.76968C5.79802 6.73998 5.73589 6.68989 5.69223 6.62574C5.64857 6.56159 5.62535 6.48625 5.62549 6.40922C5.62682 6.30579 5.66974 6.20702 5.74498 6.13421C5.82022 6.0614 5.92175 6.02038 6.02767 6.02002Z" fill="#B69169"/>
<path d="M3.2793 19.6086H12.6015C12.5288 19.7067 10.6698 23.6051 10.6378 23.6569C10.3186 24.1882 10.1404 24.7223 9.56948 24.7223H6.47275C6.11653 24.6317 5.80769 24.4147 5.60657 24.1136C5.00366 23.4062 4.1273 20.4545 3.2793 19.6086Z" fill="#E2E4F1"/>
<path d="M2.88873 17.9846C2.88873 17.7196 3.02401 17.5137 3.47782 17.5137H12.4706C12.7796 17.5137 13.0044 17.7907 13.0044 18.0556V19.5968H2.88873V17.9846Z" fill="#E2E4F1"/>
<path d="M10.1666 23.8702C10.0828 24.0387 9.95259 24.181 9.79062 24.2814C9.62865 24.3817 9.44128 24.4361 9.24948 24.4383H6.7433C6.5523 24.4378 6.36525 24.3852 6.20313 24.2866C6.04101 24.188 5.91023 24.0473 5.82548 23.8801L5.05457 22.3375L4.52948 22.5854L5.30184 24.1244C5.43555 24.3864 5.6411 24.607 5.8956 24.7616C6.15011 24.9162 6.44357 24.9988 6.7433 25.0001H9.24948C9.5511 24.999 9.84643 24.9157 10.1023 24.7598C10.3582 24.6039 10.5646 24.3814 10.6982 24.1173L11.4706 22.5491L10.9455 22.3091L10.1666 23.8702Z" fill="#CFD1E2"/>
<path d="M12.6393 17.2805H3.28732C3.13302 17.2805 2.98503 17.3404 2.87592 17.4469C2.7668 17.5535 2.70551 17.698 2.70551 17.8487V19.8317H13.2241V17.8473C13.2239 17.7726 13.2086 17.6986 13.1791 17.6296C13.1496 17.5607 13.1064 17.4981 13.0521 17.4454C12.9978 17.3928 12.9334 17.3511 12.8625 17.3228C12.7917 17.2945 12.7159 17.2802 12.6393 17.2805ZM12.6393 19.2635H3.28732V17.8473H12.6393V19.2635Z" fill="#CFD1E2"/>
<path d="M15.9499 21.0533C15.881 20.7411 15.7431 20.4473 15.5457 20.1926C15.3483 19.9379 15.0963 19.7284 14.8073 19.5789C14.7504 19.5498 14.6919 19.5237 14.632 19.5008C15.0211 19.2856 15.3276 18.9521 15.5048 18.5512C15.8924 17.6655 15.6873 16.4461 14.9331 15.1144C13.8349 13.1797 12.5768 12.3509 10.8488 11.7195C11.6977 11.2108 12.3835 10.4797 12.8283 9.60947C13.2731 8.7392 13.4591 7.76455 13.3652 6.79623C13.2713 5.8279 12.9012 4.9047 12.2969 4.13147C11.6927 3.35824 10.8786 2.76597 9.94695 2.42192L9.73458 2.95388C11.6008 3.66411 12.8015 5.36297 12.8015 7.29763C12.8015 9.87078 10.6342 11.9603 7.97022 11.9603C5.30622 11.9603 3.13895 9.8722 3.13895 7.29763C3.14284 6.31613 3.46312 5.36076 4.05435 4.56704C4.64558 3.77333 5.47774 3.18158 6.43276 2.87575L6.24949 2.3374C5.79603 2.48233 5.3651 2.68737 4.96876 2.94678C4.21533 3.42563 3.59855 4.08325 3.17611 4.85816C2.75367 5.63306 2.53937 6.49994 2.55325 7.37771C2.56712 8.25548 2.80872 9.11548 3.25546 9.87728C3.70219 10.6391 4.33946 11.2778 5.10767 11.7337C3.39422 12.3651 2.14258 13.1939 1.0444 15.1144C0.290945 16.439 0.0851271 17.6655 0.473491 18.5512C0.646657 18.9564 0.956704 19.2915 1.35204 19.5008C1.29688 19.5241 1.24299 19.5501 1.19058 19.5789C0.900072 19.7264 0.646864 19.9353 0.449357 20.1903C0.25185 20.4454 0.115004 20.7402 0.0487635 21.0533C-0.0189195 21.3659 -0.0153018 21.6891 0.0593596 22.0002C0.134021 22.3112 0.277895 22.6024 0.480763 22.853L1.61531 24.2557C1.80407 24.4893 2.04493 24.6778 2.31955 24.8068C2.59417 24.9358 2.89531 25.0019 3.20004 25C3.58342 25.0001 3.95903 24.8945 4.28367 24.6954C4.68177 24.4517 4.97831 24.0779 5.12043 23.6405C5.26255 23.2032 5.24102 22.7308 5.05967 22.3076L4.34913 20.6627C4.22679 20.381 4.04582 20.1271 3.81771 19.9173C3.5896 19.7075 3.31933 19.5463 3.02404 19.4439C2.92027 19.4222 2.81502 19.408 2.70913 19.4013V19.2529C2.51295 19.2618 2.31656 19.2402 2.12731 19.189C1.58549 19.0469 1.21967 18.7564 1.02913 18.3246C0.714218 17.6144 0.919309 16.5391 1.57822 15.3836C2.69095 13.4233 3.92731 12.7131 5.82476 12.0817C6.50982 12.3678 7.24735 12.5147 7.99242 12.5135C8.73749 12.5123 9.47451 12.363 10.1586 12.0746C12.0619 12.6975 13.3069 13.4134 14.4269 15.3765C15.0859 16.532 15.2829 17.6016 14.9768 18.3175C14.7855 18.7493 14.4197 19.0405 13.8779 19.1819C13.6633 19.2296 13.4426 19.2452 13.2233 19.228V19.4049C13.131 19.4171 13.0402 19.438 12.952 19.4674C12.6641 19.5622 12.4007 19.7169 12.18 19.9208C11.9592 20.1248 11.7864 20.373 11.6735 20.6485L10.9629 22.2934C10.7794 22.7164 10.7568 23.1896 10.8992 23.6275C11.0417 24.0654 11.3398 24.4391 11.7397 24.6812C12.1615 24.9406 12.6664 25.0392 13.158 24.9581C13.6495 24.877 14.0932 24.6219 14.4044 24.2415L15.5389 22.8388C15.7363 22.5883 15.8753 22.2988 15.9463 21.9904C16.0173 21.682 16.0185 21.3622 15.9499 21.0533ZM3.79713 20.8758L4.50913 22.5199C4.63987 22.8196 4.65645 23.1551 4.55586 23.4656C4.45528 23.7762 4.24418 24.0414 3.96076 24.2131C3.66189 24.3987 3.3032 24.4695 2.95397 24.412C2.60475 24.3544 2.28976 24.1724 2.06985 23.9013L0.935309 22.4986C0.784299 22.3134 0.677121 22.0978 0.62146 21.8674C0.565799 21.6369 0.563032 21.3973 0.613357 21.1657C0.663683 20.9341 0.765855 20.7162 0.91255 20.5277C1.05924 20.3392 1.24683 20.1847 1.46185 20.0753C1.66762 19.9701 1.89321 19.9071 2.12481 19.89C2.35641 19.8729 2.58914 19.9021 2.80876 19.9759C3.02815 20.0512 3.22922 20.17 3.39931 20.3249C3.5694 20.4797 3.70485 20.6673 3.79713 20.8758ZM15.0546 22.4986L13.92 23.8942C13.7002 24.1655 13.3852 24.3475 13.036 24.4051C12.6867 24.4627 12.3279 24.3918 12.0291 24.206C11.747 24.0335 11.5372 23.7683 11.4373 23.4582C11.3375 23.1481 11.3542 22.8134 11.4844 22.5142L12.1942 20.8701C12.285 20.6619 12.4191 20.4744 12.588 20.3195C12.7569 20.1646 12.9569 20.0457 13.1753 19.9702C13.354 19.9086 13.5422 19.8774 13.7317 19.8779C14.0072 19.8781 14.2786 19.944 14.5222 20.0696C14.7371 20.1795 14.9245 20.3342 15.0713 20.5227C15.2181 20.7113 15.3207 20.929 15.3717 21.1606C15.4257 21.3925 15.4253 21.6334 15.3704 21.8651C15.3155 22.0969 15.2075 22.3135 15.0546 22.4986Z" fill="#F2D0AC"/>
<path d="M8.80002 0.432013C10.08 0.89153 10.08 2.76866 10.08 2.76866C10.08 2.76866 8.04366 1.89366 7.70402 2.64153C7.36438 3.3894 8.6182 3.83542 7.95638 3.94764C7.29456 4.05985 6.37529 3.60886 6.10911 2.5073C5.84293 1.40573 6.75638 0.721786 6.75638 0.721786C6.75638 0.721786 7.5222 -0.0267939 8.80002 0.432013Z" fill="#F2B983"/>
<path d="M7.74406 4.24935C6.95569 4.24935 6.0866 3.67051 5.82842 2.56895C5.53751 1.38287 6.43278 0.620085 6.56515 0.514261C6.69097 0.394232 7.53751 -0.318836 8.90115 0.16838C10.3601 0.691107 10.3746 2.68898 10.3746 2.77349V3.2117L9.96369 3.03486C9.44806 2.81611 8.49024 2.51923 8.09242 2.66767C8.01969 2.69608 7.98915 2.73159 7.98187 2.75929C7.8786 2.97875 8.01169 3.15489 8.21751 3.39494C8.35787 3.55758 8.51278 3.73372 8.43569 3.95318C8.3586 4.17264 8.10406 4.21383 8.0226 4.22804C7.93046 4.2422 7.83733 4.24933 7.74406 4.24935ZM7.98697 0.563977C7.61735 0.556629 7.25803 0.683124 6.97824 0.91909L6.94842 0.9475C6.9186 0.968096 6.18987 1.54054 6.40297 2.45105C6.52878 2.97875 7.02187 3.68472 7.70915 3.69324C7.50333 3.44608 7.20806 3.04338 7.43642 2.53486C7.47891 2.44323 7.54001 2.36099 7.61602 2.29311C7.69203 2.22523 7.78136 2.17313 7.8786 2.13997C8.39424 1.94892 9.22769 2.16767 9.7506 2.34452C9.66915 1.81469 9.42624 0.960284 8.69678 0.69963C8.47088 0.611674 8.23015 0.565668 7.98697 0.563977Z" fill="#D89B61"/>
</svg>
