<svg width="23" height="20" viewBox="0 0 23 20" fill="none" xmlns="http://www.w3.org/2000/svg">
<path d="M21.1085 3.6702C21.0205 2.83119 20.346 2.19851 19.5397 2.19851H14.7241C13.8165 1.42693 12.678 1 11.4982 1C10.3212 1 9.18372 1.42691 8.27571 2.19851H3.80783C3.02132 2.19851 2.34873 2.81197 2.24333 3.62564L0.51413 17.104C0.453313 17.5741 0.590665 18.0491 0.890484 18.4074C1.19064 18.7658 1.62373 18.9714 2.079 18.9714C21.5892 18.7745 21.2376 19.4234 22.0961 18.4254C22.3952 18.0778 22.5389 17.6115 22.4909 17.1461L21.1085 3.6702ZM15.7887 5.85235C15.7222 5.93402 15.6259 5.98074 15.5237 5.98074C7.61876 5.93598 7.02747 6.21042 7.13068 5.56275C7.26906 4.69594 7.67377 3.81607 8.33525 3.1078L8.77071 3.56216L9.2569 3.05466L8.85493 2.63525C9.52358 2.11456 10.3205 1.80121 11.1544 1.73365V2.23439H11.842V1.73365C12.6771 1.80105 13.4745 2.11383 14.1428 2.63383L13.7391 3.05503L14.2253 3.56253L14.6627 3.1062C15.4934 3.99566 16.0545 5.52409 15.7888 5.85237L15.7887 5.85235ZM21.5843 17.9457C21.0821 18.5291 21.58 18.1432 2.07846 18.2535C1.82169 18.2535 1.57722 18.1374 1.40775 17.9348C1.23862 17.7327 1.16106 17.4649 1.19523 17.1996L2.92461 3.72122C2.98406 3.26221 3.36348 2.91608 3.80751 2.91608H7.57446C6.93008 3.72227 6.04088 5.52493 6.68303 6.31614C6.88017 6.55902 7.16786 6.69829 7.4723 6.69829H15.5237C15.8282 6.69829 16.116 6.55902 16.313 6.31632C16.9509 5.53099 16.0646 3.71871 15.4243 2.91608H19.5393C19.9942 2.91608 20.3748 3.27361 20.4246 3.74724L21.8068 17.2224C21.8344 17.4901 21.7555 17.7467 21.5843 17.9457L21.5843 17.9457Z" fill="currentColor" stroke="currentColor" stroke-width="0.221053"/>
<path d="M11.8 4.71617L11.499 2.79688L11.1978 4.71722C10.6594 5.04497 10.8862 5.90003 11.499 5.90003C11.8347 5.90003 12.1077 5.61506 12.1077 5.26484C12.1075 5.02927 11.9828 4.82581 11.8 4.71612V4.71617ZM11.4199 5.26489C11.4199 5.21942 11.4551 5.18232 11.4988 5.18232C11.5451 5.18232 11.5813 5.21852 11.5813 5.26489C11.5815 5.35173 11.4199 5.35583 11.4199 5.26489Z" fill="currentColor" stroke="currentColor" stroke-width="0.221053"/>
<path d="M16.7402 6.9256C15.5635 6.9256 14.6417 8.46416 14.6417 10.4282C14.6417 12.076 15.6138 12.735 14.3986 15.1503C13.9348 16.1639 14.4683 17.3578 15.5353 17.6638C16.77 18.018 17.7091 16.7947 17.6749 15.4464C17.6363 13.918 18.3775 12.6339 18.3852 12.6212L18.4179 12.5483C19.5157 9.1446 18.0854 6.92593 16.7403 6.92593L16.7402 6.9256ZM16.9874 15.4655C16.9975 15.8512 16.9162 16.1945 16.753 16.4584C15.9761 17.715 14.5303 16.5301 15.0122 15.4737C15.0542 15.3909 16.0408 13.4315 15.5866 12.0112C15.5147 11.73 15.3291 10.8975 15.3291 10.4282C15.3291 8.94454 15.9885 7.64332 16.7402 7.64332C17.5054 7.64332 18.1517 8.91871 18.1517 10.4282C18.1517 12.2178 16.93 13.1891 16.9874 15.4653L16.9874 15.4655Z" fill="currentColor" stroke="currentColor" stroke-width="0.221053"/>
<path d="M8.07547 12.1957C8.92059 8.87461 7.497 6.92578 6.25674 6.92578C5.08003 6.92578 4.1582 8.46435 4.1582 10.4284C4.1582 11.0818 4.40079 11.9772 4.61212 12.6213C5.72275 14.5447 4.97275 15.7251 5.66668 16.8477C6.91892 18.8711 9.4555 17.0207 8.59227 15.1363C8.34302 14.6488 7.7639 13.1735 8.07551 12.1956L8.07547 12.1957ZM7.28003 16.9721C6.50957 17.1927 5.98834 16.3125 6.00969 15.4658C6.06726 13.1826 4.84579 12.2268 4.84579 10.4287C4.84579 8.91925 5.49205 7.64387 6.25692 7.64387C7.00862 7.64387 7.66804 8.94527 7.66804 10.4287C7.66804 11.9359 6.64851 12.8685 7.97862 15.4599C8.26717 16.0908 7.90824 16.7916 7.28006 16.9719L7.28003 16.9721Z" fill="currentColor" stroke="currentColor" stroke-width="0.221053"/>
</svg>
