<svg width="12" height="17" viewBox="0 0 12 17" fill="none" xmlns="http://www.w3.org/2000/svg">
<path d="M9.53506 16.5C10.4783 16.5 11.25 15.7617 11.25 14.8594V2.39062C11.25 1.48825 10.4783 0.75 9.53506 0.75H1.71494C0.771692 0.75 0 1.48825 0 2.39062V14.8594C0 15.7617 0.771692 16.5 1.71494 16.5H9.53506ZM0.685975 3.22734H10.5812V13.3172H0.685975V3.22734ZM1.715 1.40625H9.55227C10.1182 1.40625 10.5813 1.84925 10.5813 2.39068V2.57116L0.686098 2.57104V2.39057C0.686098 1.84916 1.14916 1.40625 1.71512 1.40625L1.715 1.40625ZM0.685975 14.8594V13.9735H10.5812V14.8594C10.5812 15.4008 10.1181 15.8438 9.55215 15.8438L1.71488 15.8437C1.14895 15.8437 0.685853 15.4008 0.685853 14.8594L0.685975 14.8594Z" fill="currentColor"/>
<path d="M4.90472 15.1219H6.34524C6.53389 15.1219 6.6882 14.9743 6.6882 14.7938C6.6882 14.6133 6.53388 14.4657 6.34524 14.4657H4.90472C4.71608 14.4657 4.56177 14.6133 4.56177 14.7938C4.56177 14.9742 4.71608 15.1219 4.90472 15.1219Z" fill="currentColor"/>
</svg>
