<svg width="18" height="18" viewBox="0 0 18 18" fill="none" xmlns="http://www.w3.org/2000/svg">
<g clip-path="url(#clip0_5587_506610)">
<path d="M12.025 10.9249H11.75C11.6771 10.9249 11.6071 10.9539 11.5555 11.0055L9.00001 13.5611L6.4445 11.0056V11.0055C6.39294 10.9539 6.32296 10.9249 6.25004 10.9249H5.97504C4.59489 10.9431 3.2765 11.4993 2.30043 12.4754C1.32442 13.4514 0.768166 14.7698 0.75 16.15V16.975C0.75 17.1268 0.873137 17.25 1.025 17.25C1.17686 17.25 1.3 17.1268 1.3 16.975V16.15C1.31362 15.1547 1.63958 14.1888 2.23169 13.3886C2.82368 12.5884 3.6521 11.9944 4.59998 11.6903V13.2694C4.22444 13.3041 3.8754 13.4777 3.62114 13.7561C3.36677 14.0346 3.22558 14.3978 3.22499 14.775V16.15C3.22499 16.2229 3.25396 16.2929 3.30552 16.3444C3.35708 16.396 3.42706 16.425 3.49999 16.425H4.04998C4.20185 16.425 4.32498 16.3018 4.32498 16.15C4.32498 15.9981 4.20185 15.875 4.04998 15.875H3.77498V14.775C3.77498 14.5197 3.87639 14.2749 4.05686 14.0944C4.23745 13.9139 4.48224 13.8125 4.73747 13.8125H5.01247C5.26771 13.8125 5.5125 13.9139 5.69309 14.0944C5.87355 14.275 5.97496 14.5197 5.97496 14.775V15.875H5.69996C5.5481 15.875 5.42496 15.9981 5.42496 16.15C5.42496 16.3018 5.5481 16.425 5.69996 16.425H6.24996C6.32288 16.425 6.39286 16.396 6.44442 16.3444C6.49599 16.2929 6.52496 16.2229 6.52496 16.15V14.775C6.52434 14.3978 6.38316 14.0346 6.1288 13.7561C5.87455 13.4777 5.52554 13.3041 5.14997 13.2694V11.5555C5.42189 11.5032 5.69811 11.4762 5.97496 11.475H6.13616L8.72495 14.0638V16.975C8.72495 17.1268 8.84808 17.25 8.99994 17.25C9.15181 17.25 9.27494 17.1268 9.27494 16.975V14.0638L11.8637 11.475H12.0249C12.3018 11.4762 12.578 11.5032 12.8499 11.5555V14.264C12.5013 14.354 12.2188 14.609 12.0936 14.9466C11.9683 15.2842 12.0163 15.6618 12.222 15.9572C12.4276 16.2529 12.7648 16.4292 13.1249 16.4292C13.485 16.4292 13.8223 16.2529 14.0279 15.9572C14.2335 15.6617 14.2815 15.2842 14.1563 14.9466C14.031 14.609 13.7485 14.3541 13.3999 14.264V11.6903C14.3478 11.9944 15.1762 12.5884 15.7682 13.3886C16.3603 14.1888 16.6863 15.1547 16.6999 16.15V16.975C16.6999 17.1268 16.823 17.25 16.9749 17.25C17.1268 17.25 17.2499 17.1268 17.2499 16.975V16.15C17.2317 14.7698 16.6755 13.4514 15.6995 12.4754C14.7235 11.4993 13.4051 10.9431 12.0249 10.9249L12.025 10.9249ZM13.675 15.3249C13.675 15.4708 13.617 15.6107 13.5139 15.7138C13.4108 15.817 13.2708 15.8749 13.125 15.8749C12.9791 15.8749 12.8392 15.817 12.736 15.7138C12.6329 15.6107 12.575 15.4708 12.575 15.3249C12.575 15.1791 12.6329 15.0391 12.736 14.936C12.8392 14.8329 12.9791 14.7749 13.125 14.7749C13.2708 14.7749 13.4108 14.8329 13.5139 14.936C13.617 15.0391 13.675 15.1791 13.675 15.3249Z" fill="currentColor" stroke="currentColor" stroke-width="0.2"/>
<path d="M5.42492 7.07497H5.44468C5.56757 8.22996 6.43628 9.20264 7.35751 9.78639H7.35763C7.35407 9.79904 7.35149 9.81193 7.3499 9.82494V10.9249C7.3499 11.0768 7.47303 11.1999 7.6249 11.1999C7.77676 11.1999 7.89989 11.0768 7.89989 10.9249V10.0826C8.24231 10.2554 8.61684 10.3549 8.99989 10.3749C9.38294 10.3549 9.75747 10.2554 10.0999 10.0826V10.9249C10.0999 11.0768 10.223 11.1999 10.3749 11.1999C10.5267 11.1999 10.6499 11.0768 10.6499 10.9249V9.82494C10.6483 9.81193 10.6457 9.79904 10.6421 9.78639C11.5634 9.20251 12.4321 8.22848 12.555 7.07497H12.5749C12.9267 7.0757 13.2576 6.90764 13.4644 6.62306C13.6714 6.33836 13.7293 5.97177 13.62 5.63737C13.5107 5.30281 13.2476 5.04108 12.9126 4.93353C13.1419 4.02248 13.2362 3.63613 13.1166 3.15845C12.8175 1.96135 11.3074 0.75 8.99983 0.75C6.69223 0.75 5.18222 1.96135 4.88302 3.15845C4.76345 3.63613 4.85773 4.02248 5.08706 4.93353C4.75204 5.04108 4.48895 5.30281 4.37967 5.63737C4.27041 5.9718 4.32823 6.33838 4.53522 6.62306C4.74208 6.90763 5.07293 7.07569 5.4248 7.07497H5.42492ZM8.9999 9.82495C8.0039 9.82495 5.97491 8.42466 5.97491 6.79997V5.32849C7.52339 5.05361 9.00053 4.46911 10.3177 3.60999C10.6573 4.05661 11.3596 4.90518 12.0249 5.25998V6.79997C12.0249 8.42466 9.9959 9.82495 8.9999 9.82495ZM13.1249 5.97497C13.1249 6.12082 13.0669 6.26078 12.9638 6.3639C12.8607 6.46702 12.7207 6.52497 12.5749 6.52497V5.42498C12.7207 5.42498 12.8607 5.48292 12.9638 5.58605C13.0669 5.68917 13.1249 5.82913 13.1249 5.97497ZM5.41674 3.29152C5.65823 2.32595 6.99602 1.3 8.9999 1.3C11.0038 1.3 12.3417 2.32598 12.5831 3.29152C12.6702 3.64104 12.5894 3.96478 12.3726 4.82598C11.8644 4.61016 11.0672 3.72071 10.5984 3.06599C10.5541 3.00387 10.4858 2.96299 10.4101 2.95304C10.3343 2.94322 10.258 2.96532 10.1992 3.01406C10.1834 3.02732 8.63805 4.2777 5.62853 4.83285C5.41049 3.96587 5.32898 3.64187 5.41651 3.29151L5.41674 3.29152ZM5.42497 5.42498V6.52497C5.22842 6.52497 5.04685 6.42013 4.94864 6.24997C4.85043 6.07982 4.85043 5.87013 4.94864 5.69998C5.04685 5.52982 5.22843 5.42498 5.42497 5.42498Z" fill="currentColor" stroke="currentColor" stroke-width="0.2"/>
<path d="M11.2001 5.97492C11.2001 6.27865 10.9538 6.52492 10.6501 6.52492C10.3464 6.52492 10.1001 6.27865 10.1001 5.97492C10.1001 5.6712 10.3464 5.42493 10.6501 5.42493C10.9538 5.42493 11.2001 5.6712 11.2001 5.97492Z" fill="currentColor" stroke="currentColor" stroke-width="0.2"/>
<path d="M7.90004 5.97492C7.90004 6.27865 7.65377 6.52492 7.35005 6.52492C7.04632 6.52492 6.80005 6.27865 6.80005 5.97492C6.80005 5.6712 7.04632 5.42493 7.35005 5.42493C7.65377 5.42493 7.90004 5.6712 7.90004 5.97492Z" fill="currentColor" stroke="currentColor" stroke-width="0.2"/>
<path d="M9.65286 7.96061C9.46331 8.09909 9.23471 8.17361 9 8.17361C8.76529 8.17361 8.53668 8.09909 8.34714 7.96061C8.29066 7.91175 8.21676 7.88806 8.14249 7.89481C8.06809 7.90156 7.99971 7.93827 7.95293 7.99646C7.90628 8.05465 7.88517 8.12929 7.8945 8.20332C7.90395 8.27735 7.94299 8.34438 8.0029 8.38907C8.28919 8.60796 8.63958 8.72655 9.00003 8.72655C9.36048 8.72655 9.71085 8.60796 9.99716 8.38907C10.0571 8.34438 10.0961 8.27735 10.1056 8.20332C10.1149 8.12929 10.0938 8.05465 10.0471 7.99646C10.0003 7.93827 9.93197 7.90156 9.85757 7.89481C9.7833 7.88806 9.70939 7.91175 9.65292 7.96061H9.65286Z" fill="currentColor" stroke="currentColor" stroke-width="0.2"/>
</g>
<defs>
<clipPath id="clip0_5587_506610">
<rect width="18" height="18" fill="white"/>
</clipPath>
</defs>
</svg>
