<svg width="14" height="16" viewBox="0 0 14 16" fill="none" xmlns="http://www.w3.org/2000/svg">
<path d="M13.0008 8.25066C12.9023 8.25019 12.8046 8.26941 12.7136 8.30719C12.6226 8.34497 12.5401 8.40055 12.4708 8.47066L7.00082 13.9407L1.53082 8.47066C1.38865 8.33818 1.2006 8.26606 1.0063 8.26948C0.811999 8.27291 0.626613 8.35163 0.4892 8.48904C0.351787 8.62645 0.273076 8.81184 0.269648 9.00614C0.266219 9.20044 0.338342 9.38848 0.470822 9.53066L6.47082 15.5307C6.61145 15.6711 6.80207 15.75 7.00082 15.75C7.19957 15.75 7.3902 15.6711 7.53082 15.5307L13.5308 9.53066C13.6713 9.39003 13.7502 9.19941 13.7502 9.00066C13.7502 8.80191 13.6713 8.61128 13.5308 8.47066C13.4616 8.40055 13.379 8.34497 13.288 8.30719C13.197 8.26941 13.0994 8.25019 13.0008 8.25066Z" fill="currentColor"/>
<path d="M7 0.25C6.80189 0.25259 6.61263 0.332439 6.47253 0.472534C6.33244 0.612629 6.25259 0.801893 6.25 1L6.25 15C6.25 15.1989 6.32902 15.3897 6.46967 15.5303C6.61032 15.671 6.80109 15.75 7 15.75C7.19891 15.75 7.38968 15.671 7.53033 15.5303C7.67098 15.3897 7.75 15.1989 7.75 15L7.75 1C7.74741 0.801893 7.66756 0.612629 7.52746 0.472534C7.38737 0.332439 7.19811 0.25259 7 0.25Z" fill="currentColor"/>
</svg>
