<svg width="15" height="26" viewBox="0 0 15 26" fill="none" xmlns="http://www.w3.org/2000/svg">
<path d="M1.49918 18.2507C1.59772 18.2502 1.69536 18.2694 1.78637 18.3072C1.87738 18.345 1.95993 18.4005 2.02918 18.4707L7.49918 23.9407L12.9692 18.4707C13.1114 18.3382 13.2994 18.2661 13.4937 18.2695C13.688 18.2729 13.8734 18.3516 14.0108 18.489C14.1482 18.6265 14.2269 18.8118 14.2304 19.0061C14.2338 19.2004 14.1617 19.3885 14.0292 19.5307L8.02918 25.5307C7.88855 25.6711 7.69793 25.75 7.49918 25.75C7.30043 25.75 7.1098 25.6711 6.96918 25.5307L0.969177 19.5307C0.828726 19.39 0.749837 19.1994 0.749838 19.0007C0.749838 18.8019 0.828726 18.6113 0.969177 18.4707C1.03842 18.4005 1.12097 18.345 1.21198 18.3072C1.303 18.2694 1.40064 18.2502 1.49918 18.2507Z" fill="currentColor"/>
<path d="M7.5 0.25C7.69811 0.25259 7.88737 0.332439 8.02747 0.472534C8.16756 0.612629 8.24741 0.801893 8.25 1L8.25 25C8.25 25.1989 8.17098 25.3897 8.03033 25.5303C7.88968 25.671 7.69891 25.75 7.5 25.75C7.30109 25.75 7.11032 25.671 6.96967 25.5303C6.82902 25.3897 6.75 25.1989 6.75 25L6.75 1C6.75259 0.801893 6.83244 0.612629 6.97254 0.472534C7.11263 0.332439 7.3019 0.25259 7.5 0.25Z" fill="currentColor"/>
</svg>
