<svg width="49" height="50" viewBox="0 0 49 50" fill="none" xmlns="http://www.w3.org/2000/svg">
<path d="M0.667969 35.4518C0.667969 36.0101 1.03954 36.4622 1.49841 36.4622H33.3577C33.8162 36.4622 34.1881 36.0101 34.1881 35.4518C34.1881 34.894 33.8162 34.4414 33.3577 34.4414H31.2109C32.2309 33.1978 32.8621 31.4814 32.8621 29.5899C32.8621 25.802 30.3295 22.7203 27.2166 22.7203C24.3947 22.7203 22.057 25.253 21.641 28.5461C20.1289 26.5957 17.9922 25.3704 15.6194 25.3704C11.188 25.3704 1.8167 26.4485 1.42019 26.4941C0.963255 26.5467 0.628377 27.0407 0.672023 27.5957C0.715283 28.1522 1.12316 28.5606 1.57739 28.5065C1.67357 28.4952 11.2661 27.3922 15.6194 27.3922C18.9917 27.3922 21.7778 30.4738 22.1888 34.4418H1.49908C1.0406 34.4413 0.668255 34.8939 0.668255 35.4518L0.667969 35.4518ZM27.2164 24.7412C29.413 24.7412 31.2006 26.9162 31.2006 29.5895C31.2006 32.265 29.4126 34.441 27.2164 34.441C25.0175 34.441 23.2295 32.2645 23.2295 29.5895C23.2303 26.9162 25.0183 24.7412 27.2164 24.7412ZM28.747 1.16837C20.0081 1.16837 12.2597 8.32697 9.90439 18.5776C9.83448 18.8821 9.88546 19.2088 10.0427 19.4607C10.1999 19.7126 10.4448 19.8602 10.7043 19.8602H15.4437C15.7882 19.8602 16.0972 19.6012 16.2193 19.2092C18.1861 12.9332 23.2073 8.71569 28.7138 8.71569C36.0939 8.71569 42.0982 16.0214 42.0982 25C42.0982 33.9783 36.0935 41.2831 28.7138 41.2831H1.49892C1.04006 41.2831 0.668482 41.7357 0.668482 42.2935C0.668482 42.8514 1.04006 43.304 1.49892 43.304H16.2311C19.7468 46.8729 24.1786 48.8346 28.7474 48.8346C39.5471 48.8346 48.3346 38.1423 48.3346 24.9995C48.3346 11.859 39.5474 1.16797 28.7474 1.16797L28.747 1.16837ZM28.747 46.8138C25.2858 46.8138 21.9097 45.582 19.0239 43.304H28.713C37.0089 43.304 43.7587 35.0922 43.7587 24.9997C43.7587 14.906 37.0093 6.69408 28.713 6.69408C22.7146 6.69408 17.2281 11.1442 14.8826 17.8385H11.8339C14.3175 9.14919 21.1206 3.18926 28.7474 3.18926C38.6316 3.18926 46.6735 12.9736 46.6735 24.9995C46.6735 37.028 38.6317 46.8134 28.7474 46.8134L28.747 46.8138Z" fill="#102A83" stroke="#102A83" stroke-width="0.433333"/>
</svg>
