<svg width="18" height="18" viewBox="0 0 18 18" fill="none" xmlns="http://www.w3.org/2000/svg">
<path d="M9.76562 6.62109C9.85549 6.61923 9.94205 6.65499 10.0059 6.71973C10.0697 6.7847 10.1055 6.87354 10.1045 6.96582V8.42773H11.5254C11.6154 8.42572 11.7025 8.46148 11.7666 8.52637C11.8302 8.59114 11.866 8.67947 11.8652 8.77148V10.3438C11.8663 10.4366 11.8304 10.5259 11.7666 10.5918C11.7029 10.6578 11.6161 10.6947 11.5254 10.6943H10.1045V12.1494C10.1058 12.2423 10.0705 12.3323 10.0068 12.3984C9.94315 12.4644 9.8562 12.5012 9.76562 12.501H8.23438C8.14384 12.5012 8.05686 12.4643 7.99316 12.3984C7.92949 12.3323 7.89422 12.2423 7.89551 12.1494V10.6943H6.47461C6.38387 10.6947 6.29616 10.6578 6.23242 10.5918C6.16885 10.5259 6.13366 10.4364 6.13477 10.3438V8.77148C6.13401 8.67938 6.16965 8.59115 6.2334 8.52637C6.2975 8.46147 6.38461 8.42571 6.47461 8.42773H7.89551V6.96582C7.89445 6.87359 7.92941 6.78469 7.99316 6.71973C8.05702 6.65483 8.14438 6.6192 8.23438 6.62109H9.76562ZM8.58594 7.33008V8.77148C8.58382 8.97026 8.42805 9.13143 8.23438 9.13574H6.8252V9.98633H8.23438C8.42671 9.98734 8.58323 10.1464 8.58594 10.3438V11.793H9.41406V10.3438C9.41678 10.1463 9.57318 9.98721 9.76562 9.98633H11.1748V9.13574H9.76562C9.57182 9.13156 9.41616 8.97035 9.41406 8.77148V7.33008H8.58594Z" fill="currentColor"/>
<path d="M9.76562 6.62109C9.85549 6.61923 9.94205 6.65499 10.0059 6.71973C10.0697 6.7847 10.1055 6.87354 10.1045 6.96582V8.42773H11.5254C11.6154 8.42572 11.7025 8.46148 11.7666 8.52637C11.8302 8.59114 11.866 8.67947 11.8652 8.77148V10.3438C11.8663 10.4366 11.8304 10.5259 11.7666 10.5918C11.7029 10.6578 11.6161 10.6947 11.5254 10.6943H10.1045V12.1494C10.1058 12.2423 10.0705 12.3323 10.0068 12.3984C9.94315 12.4644 9.8562 12.5012 9.76562 12.501H8.23438C8.14384 12.5012 8.05686 12.4643 7.99316 12.3984C7.92949 12.3323 7.89422 12.2423 7.89551 12.1494V10.6943H6.47461C6.38387 10.6947 6.29616 10.6578 6.23242 10.5918C6.16885 10.5259 6.13366 10.4364 6.13477 10.3438V8.77148C6.13401 8.67938 6.16965 8.59115 6.2334 8.52637C6.2975 8.46147 6.38461 8.42571 6.47461 8.42773H7.89551V6.96582C7.89445 6.87359 7.92941 6.78469 7.99316 6.71973C8.05702 6.65483 8.14438 6.6192 8.23438 6.62109H9.76562ZM8.58594 7.33008V8.77148C8.58382 8.97026 8.42805 9.13143 8.23438 9.13574H6.8252V9.98633H8.23438C8.42671 9.98734 8.58323 10.1464 8.58594 10.3438V11.793H9.41406V10.3438C9.41678 10.1463 9.57318 9.98721 9.76562 9.98633H11.1748V9.13574H9.76562C9.57182 9.13156 9.41616 8.97035 9.41406 8.77148V7.33008H8.58594Z" fill="currentColor"/>
<path d="M8.77051 1.08984C8.90136 0.970229 9.09861 0.970261 9.22949 1.08984L16.8848 8.09668C16.9917 8.19384 17.0286 8.34945 16.9775 8.48633C16.9264 8.62285 16.7978 8.7129 16.6553 8.71191H15.041V16.6357C15.0409 16.8312 14.8956 17 14.7051 17H3.29492C3.10426 17 2.95908 16.8312 2.95898 16.6357V8.71191H1.34473C1.20217 8.71291 1.07363 8.62286 1.02246 8.48633C0.971422 8.34944 1.00835 8.19383 1.11523 8.09668L8.77051 1.08984ZM3.64941 15.2295V16.292H14.3506V15.2295H3.64941ZM2.25098 8.00293H3.29492C3.48822 8.0041 3.64522 8.1631 3.64941 8.36133V14.5205H14.3506V8.36133C14.3548 8.16311 14.5118 8.00412 14.7051 8.00293H15.75L9 1.8252L2.25098 8.00293Z" fill="currentColor"/>
<path d="M8.77051 1.08984C8.90136 0.970229 9.09861 0.970261 9.22949 1.08984L16.8848 8.09668C16.9917 8.19384 17.0286 8.34945 16.9775 8.48633C16.9264 8.62285 16.7978 8.7129 16.6553 8.71191H15.041V16.6357C15.0409 16.8312 14.8956 17 14.7051 17H3.29492C3.10426 17 2.95908 16.8312 2.95898 16.6357V8.71191H1.34473C1.20217 8.71291 1.07363 8.62286 1.02246 8.48633C0.971422 8.34944 1.00835 8.19383 1.11523 8.09668L8.77051 1.08984ZM3.64941 15.2295V16.292H14.3506V15.2295H3.64941ZM2.25098 8.00293H3.29492C3.48822 8.0041 3.64522 8.1631 3.64941 8.36133V14.5205H14.3506V8.36133C14.3548 8.16311 14.5118 8.00412 14.7051 8.00293H15.75L9 1.8252L2.25098 8.00293Z" fill="currentColor"/>
</svg>
