<svg width="18" height="18" viewBox="0 0 18 18" fill="none" xmlns="http://www.w3.org/2000/svg">
<path d="M0.75 12.6175C0.75 12.8108 0.878621 12.9672 1.03746 12.9672H12.0657C12.2244 12.9672 12.3531 12.8108 12.3531 12.6175C12.3531 12.4244 12.2244 12.2677 12.0657 12.2677H11.3226C11.6756 11.8373 11.8941 11.2431 11.8941 10.5884C11.8941 9.27715 11.0174 8.21042 9.93992 8.21042C8.96309 8.21042 8.15391 9.08712 8.00991 10.227C7.48646 9.5519 6.74684 9.12777 5.9255 9.12777C4.39155 9.12777 1.14764 9.50096 1.01038 9.51674C0.852215 9.53496 0.736295 9.70594 0.751403 9.89806C0.766378 10.0907 0.907568 10.2321 1.0648 10.2133C1.09809 10.2094 4.41858 9.82762 5.9255 9.82762C7.09284 9.82762 8.05724 10.8943 8.19953 12.2679H1.03769C0.878988 12.2677 0.750099 12.4244 0.750099 12.6175L0.75 12.6175ZM9.93983 8.90997C10.7002 8.90997 11.319 9.66286 11.319 10.5882C11.319 11.5143 10.7001 12.2676 9.93983 12.2676C9.17868 12.2676 8.55977 11.5142 8.55977 10.5882C8.56004 9.66286 9.17895 8.90997 9.93983 8.90997ZM10.4697 0.750137C7.44466 0.750137 4.76253 3.22812 3.94722 6.77641C3.92302 6.88183 3.94067 6.99489 3.99509 7.08209C4.0495 7.16929 4.13427 7.22037 4.22412 7.22037H5.86466C5.98392 7.22037 6.09089 7.13073 6.13314 6.99505C6.81396 4.8226 8.55209 3.36267 10.4582 3.36267C13.0128 3.36267 15.0913 5.89158 15.0913 8.99955C15.0913 12.1074 13.0127 14.636 10.4582 14.636H1.03764C0.878799 14.636 0.750178 14.7927 0.750178 14.9858C0.750178 15.1789 0.878799 15.3355 1.03764 15.3355H6.13724C7.35421 16.571 8.88831 17.25 10.4698 17.25C14.2082 17.25 17.25 13.5488 17.25 8.99938C17.25 4.45072 14.2083 0.75 10.4698 0.75L10.4697 0.750137ZM10.4697 16.5505C9.27157 16.5505 8.10289 16.1241 7.10399 15.3356H10.4579C13.3296 15.3356 15.666 12.493 15.666 8.99943C15.666 5.50548 13.3297 2.66289 10.4579 2.66289C8.38151 2.66289 6.48234 4.20331 5.67046 6.52058H4.61515C5.47485 3.51273 7.82976 1.44968 10.4698 1.44968C13.8913 1.44968 16.675 4.83655 16.675 8.99939C16.675 13.1631 13.8913 16.5503 10.4698 16.5503L10.4697 16.5505Z" fill="currentColor" stroke="currentColor" stroke-width="0.2"/>
</svg>
