<svg width="16" height="18" viewBox="0 0 16 18" fill="none" xmlns="http://www.w3.org/2000/svg">
<path d="M15.5 8.00185C15.5 7.75741 15.3421 7.59444 15.1053 7.59444H12.3816L13.3684 4.90556L13.9605 5.19074C14 5.23148 14.0789 5.23148 14.1184 5.23148C14.2763 5.23148 14.4342 5.15 14.4737 4.98704C14.5526 4.78333 14.4737 4.53889 14.2763 4.45741L13.2895 4.00926L12.8553 3.80556L11.1184 3.03148C10.9211 2.95 10.6842 3.03148 10.6053 3.23519C10.5263 3.43889 10.6053 3.68333 10.8026 3.76481L11.3158 4.00926L9.57895 7.59444H5.67105V5.39444C7.76316 5.19074 9.38158 3.35741 9.38158 1.15741C9.38158 0.912963 9.22368 0.75 8.98684 0.75C7.21053 0.75 5.67105 1.93148 5.11842 3.56111C4.52632 2.66481 3.53947 2.0537 2.43421 2.0537C2.19737 2.0537 2.03947 2.21667 2.03947 2.46111C2.03947 4.17222 3.30263 5.59815 4.88158 5.80185V7.5537H0.894737C0.657895 7.5537 0.5 7.71667 0.5 7.96111C0.5 10.9759 2.19737 13.6238 4.68421 14.887H2.75C2.51316 14.887 2.35526 15.05 2.35526 15.2944V16.8426C2.35526 17.087 2.51316 17.25 2.75 17.25H13.2892C13.5261 17.25 13.684 17.087 13.684 16.8426V15.2944C13.684 15.05 13.5261 14.887 13.2892 14.887H11.355C13.8024 13.6648 15.4998 11.0574 15.4998 8.00162L15.5 8.00185ZM8.59233 1.6463C8.39496 3.19444 7.21075 4.41667 5.71075 4.62037C5.90812 3.07222 7.09233 1.85 8.59233 1.6463ZM2.86842 2.95C3.89474 3.11296 4.68421 3.96852 4.8421 5.02778C3.85526 4.86481 3.06579 4.05 2.86842 2.95ZM12.066 4.33519L12.4608 4.49815L12.6976 4.57963L11.5529 7.59444H10.4871L12.066 4.33519ZM12.8555 15.7426V16.4759H3.14496V15.7426H12.8555ZM8.00045 14.9278C4.44782 14.9278 1.48707 12.0352 1.28992 8.40926H14.711C14.5136 12.0759 11.5531 14.9278 8.00045 14.9278Z" fill="currentColor"/>
</svg>
