<svg width="35" height="23" viewBox="0 0 35 23" fill="none" xmlns="http://www.w3.org/2000/svg">
<path d="M22.4841 2.91016H13.207V19.8793H22.4841V2.91016Z" fill="#FF5A00"/>
<path d="M13.8246 11.3941C13.8246 7.94645 15.4165 4.88655 17.8593 2.90949C16.0615 1.47035 13.7937 0.600586 11.3201 0.600586C5.46019 0.600586 0.71875 5.42797 0.71875 11.3941C0.71875 17.3602 5.46019 22.1876 11.3201 22.1876C13.7937 22.1876 16.0615 21.3178 17.8593 19.8787C15.4131 17.9296 13.8246 14.8417 13.8246 11.3941Z" fill="#EB001B"/>
<path d="M34.9999 11.3941C34.9999 17.3602 30.2585 22.1876 24.3986 22.1876C21.9249 22.1876 19.6571 21.3178 17.8594 19.8787C20.333 17.8981 21.8941 14.8417 21.8941 11.3941C21.8941 7.94645 20.3021 4.88655 17.8594 2.90949C19.6537 1.47035 21.9215 0.600586 24.3952 0.600586C30.2585 0.600586 34.9999 5.4594 34.9999 11.3941Z" fill="#F79E1B"/>
</svg>
