<svg width="18" height="18" viewBox="0 0 18 18" fill="none" xmlns="http://www.w3.org/2000/svg">
<path d="M16.5103 9.43684V8.52298C16.5103 8.15583 16.2136 7.85694 15.8488 7.85694H13.3161L14.5122 6.59326L14.3995 6.47978C13.9484 6.02554 13.1929 6.00627 12.7246 6.49413L11.4166 7.85694H8.40926C8.04468 7.85694 7.74788 8.15571 7.74788 8.52298V8.64609H3.04942C2.65465 8.64609 2.33359 8.96954 2.33359 9.36709V9.38591H1.7548C1.3386 9.38591 1 9.72701 1 10.1462C1 10.5654 1.3386 10.9064 1.7548 10.9064H5.22272L8.55267 12.8848L5.25422 14.8444H2.75432V15.1733H3.70521V15.5313C3.35305 15.5858 3.08177 15.8902 3.08177 16.2599C3.08177 16.6679 3.41138 16.9998 3.81651 16.9998C4.21936 16.9998 4.54681 16.6716 4.55057 16.2668L5.27425 15.6688V15.1734H12.474V15.6688L13.1977 16.2669C13.2016 16.6716 13.5289 16.9998 13.9317 16.9998C14.3368 16.9998 14.6664 16.6679 14.6664 16.2599C14.6664 15.8902 14.3951 15.5859 14.043 15.5313V15.1733H14.9939V14.8444H12.494L9.19521 12.8848L12.5252 10.9064H16.2451C16.6614 10.9064 17 10.5654 17 10.1462C17 9.82124 16.7956 9.5454 16.5102 9.43687L16.5103 9.43684ZM3.81643 16.6709C3.5913 16.6709 3.40821 16.4866 3.40821 16.2598C3.40821 16.0332 3.5913 15.8487 3.81643 15.8487C4.04156 15.8487 4.22464 16.0331 4.22464 16.2598C4.22464 16.4864 4.04156 16.6709 3.81643 16.6709ZM4.94765 15.513L4.46209 15.9142C4.37163 15.7436 4.21816 15.6142 4.03165 15.5562V15.1733H4.94765V15.513ZM14.3399 16.2598C14.3399 16.4864 14.1568 16.6709 13.9317 16.6709C13.7066 16.6709 13.5235 16.4866 13.5235 16.2598C13.5235 16.0332 13.7066 15.8487 13.9317 15.8487C14.1568 15.8489 14.3399 16.0332 14.3399 16.2598ZM12.8006 15.1733H13.7166V15.5562C13.5301 15.6142 13.3766 15.7436 13.2861 15.9144L12.8006 15.5131L12.8005 15.1733H12.8006ZM15.1686 8.18564H15.8488C16.0335 8.18564 16.1838 8.33686 16.1838 8.52284V9.38576H15.1686L15.1686 8.18564ZM13.7305 8.18564H14.8421V9.38576H13.7305V8.18564ZM13.4039 8.18564V9.38576H12.2923V8.93843L13.0049 8.18564H13.4039ZM12.2924 8.46193V8.18564H12.5539L12.2924 8.46193ZM12.9593 6.72241C13.2556 6.414 13.7168 6.38325 14.0457 6.60928L12.8651 7.85681H11.8706L12.9593 6.72241ZM10.8542 8.18562H11.1011L10.8542 8.44286V8.18562ZM10.8542 8.9159L11.555 8.18562H11.9658V8.80678L11.4179 9.38562H10.8541L10.8542 8.9159ZM11.9659 9.28341V9.38575H11.869L11.9659 9.28341ZM9.41607 8.18562H10.5277V8.64582H9.41607V8.18562ZM9.41607 8.97476H10.5277V9.38586H9.41607V8.97476ZM8.07452 8.52281C8.07452 8.33683 8.22468 8.18562 8.40936 8.18562H9.08952V8.64582H8.07449L8.07452 8.52281ZM8.07452 8.97476H9.08955V9.38586H8.07452V8.97476ZM2.66032 9.36694C2.66032 9.15067 2.83486 8.97476 3.04964 8.97476H7.74809V9.38586L2.66026 9.38574L2.66032 9.36694ZM11.8513 14.8443H5.89665L8.87398 13.0754L11.8513 14.8443ZM8.87398 12.6937L5.86544 10.9062H11.8828L8.87398 12.6937ZM16.245 10.5774H1.7547C1.51851 10.5774 1.32641 10.3838 1.32641 10.146C1.32641 9.90809 1.5185 9.71453 1.7547 9.71453H16.245C16.4813 9.71453 16.6734 9.90798 16.6734 10.146C16.6734 10.3838 16.4813 10.5774 16.245 10.5774Z" fill="currentColor" stroke="currentColor" stroke-width="0.25"/>
<path d="M10.0498 2.73972C10.1721 2.7107 10.2981 2.69601 10.4243 2.69601V2.36719C10.2729 2.36719 10.1217 2.38486 9.97485 2.41974L10.0498 2.73972Z" fill="currentColor" stroke="currentColor" stroke-width="0.25"/>
<path d="M8.93751 3.05733L9.18554 3.27132C9.35268 3.07478 9.56584 2.91885 9.80157 2.82031L9.67658 2.51648C9.39346 2.63488 9.1379 2.8218 8.9375 3.05734L8.93751 3.05733Z" fill="currentColor" stroke="currentColor" stroke-width="0.25"/>
<path d="M15.6858 2.87181C15.6858 2.62949 15.5633 2.41551 15.3773 2.28918L15.8822 1.13241L15.5835 1.00012L15.0695 2.17766C15.0425 2.17444 15.0161 2.16939 14.9883 2.16939C14.6602 2.16939 14.3861 2.39955 14.3121 2.70738H12.4679C11.9893 2.10031 11.2518 1.70931 10.4242 1.70931C9.59646 1.70931 8.85898 2.10043 8.38035 2.70738H6.5269C6.45296 2.39944 6.17871 2.16939 5.8507 2.16939C5.82655 2.16939 5.80376 2.17421 5.78018 2.17662L5.26588 1L4.96704 1.1324L5.47052 2.28424C5.27991 2.40976 5.15309 2.62581 5.15309 2.8718C5.15309 3.25904 5.46605 3.57421 5.85059 3.57421C6.17871 3.57421 6.45282 3.34405 6.52679 3.03622H8.1591C7.94035 3.42059 7.81341 3.86437 7.81341 4.33824V4.50265H13.0345V4.33824C13.0345 3.86437 12.9076 3.42059 12.6889 3.03622H14.3119C14.386 3.34405 14.6601 3.57421 14.9881 3.57421C15.3728 3.57421 15.6857 3.25904 15.6857 2.8718L15.6858 2.87181ZM5.85077 3.24527C5.64615 3.24527 5.4798 3.07776 5.4798 2.87169C5.4798 2.66562 5.64625 2.4981 5.85077 2.4981C6.05539 2.4981 6.22174 2.66573 6.22174 2.87169C6.22174 3.07775 6.05528 3.24527 5.85077 3.24527ZM12.7023 4.17382H8.14589C8.22986 2.98195 9.21969 2.03813 10.4243 2.03813C11.6288 2.03802 12.6184 2.98195 12.7024 4.17382H12.7023ZM14.9882 3.24527C14.7836 3.24527 14.6173 3.07776 14.6173 2.87169C14.6173 2.66562 14.7837 2.4981 14.9882 2.4981C15.1929 2.4981 15.3592 2.66573 15.3592 2.87169C15.3592 3.07775 15.1928 3.24527 14.9882 3.24527Z" fill="currentColor" stroke="currentColor" stroke-width="0.25"/>
</svg>
