<svg width="12" height="17" viewBox="0 0 12 17" fill="none" xmlns="http://www.w3.org/2000/svg">
<path d="M9.53506 16.5C10.4783 16.5 11.25 15.7617 11.25 14.8594V2.39062C11.25 1.48825 10.4783 0.75 9.53506 0.75H1.71494C0.771692 0.75 0 1.48825 0 2.39062V14.8594C0 15.7617 0.771692 16.5 1.71494 16.5H9.53506ZM0.685975 3.22734H10.5812V13.3172H0.685975V3.22734ZM1.715 1.40625H9.55227C10.1182 1.40625 10.5813 1.84925 10.5813 2.39068V2.57116L0.686098 2.57104V2.39057C0.686098 1.84916 1.14916 1.40625 1.71512 1.40625L1.715 1.40625ZM0.685975 14.8594V13.9735H10.5812V14.8594C10.5812 15.4008 10.1181 15.8438 9.55215 15.8438L1.71488 15.8437C1.14895 15.8437 0.685853 15.4008 0.685853 14.8594L0.685975 14.8594Z" fill="currentColor"/>
<path d="M4.90448 15.122H6.345C6.53365 15.122 6.68796 14.9744 6.68796 14.7939C6.68796 14.6135 6.53364 14.4658 6.345 14.4658H4.90448C4.71583 14.4658 4.56152 14.6135 4.56152 14.7939C4.56152 14.9743 4.71584 15.122 4.90448 15.122Z" fill="currentColor"/>
<path d="M8.66006 8.92036C8.04268 8.32974 7.15088 8.11643 6.32774 8.34608V5.91811C6.32774 4.72048 5.31596 3.80176 4.11553 3.80176C2.89786 3.80176 1.90332 4.75332 1.90332 5.91811V9.92123C1.90332 11.0861 2.89798 12.0376 4.11553 12.0376C4.4414 12.0376 4.75003 11.972 5.04154 11.8407C5.12731 11.9556 5.21308 12.0541 5.29873 12.1525C5.74458 12.579 6.34484 12.8252 6.97934 12.8252C9.08881 12.8251 10.152 10.3478 8.66007 8.92019L8.66006 8.92036ZM7.90545 9.18289L5.55602 11.4306C5.12728 10.8072 5.19582 9.93763 5.779 9.39623C6.36192 8.82195 7.25372 8.77276 7.90546 9.18291L7.90545 9.18289ZM4.09829 4.45789C4.93864 4.45789 5.62459 5.11408 5.62459 5.91804V7.59151L2.57199 7.5914V5.91805C2.57199 5.11411 3.25791 4.45789 4.09829 4.45789V4.45789ZM4.09829 11.3813C3.25794 11.3813 2.57199 10.7251 2.57199 9.92117V8.24782H5.64173V8.65798C5.52163 8.74003 5.40165 8.82209 5.29878 8.93687C4.64707 9.56033 4.45843 10.4791 4.73285 11.2666C4.52709 11.3321 4.32132 11.3813 4.09835 11.3813L4.09829 11.3813ZM6.97933 12.1689C6.63637 12.1689 6.32762 12.0705 6.05332 11.9064L8.40276 9.65876C9.14024 10.7251 8.3171 12.1689 6.97936 12.1689L6.97933 12.1689Z" fill="currentColor"/>
</svg>
