<svg width="35" height="34" viewBox="0 0 35 34" fill="none" xmlns="http://www.w3.org/2000/svg">
<path d="M17.2097 33.6268L11.0075 27.0524L11.5714 26.4547C12.538 25.3875 13.1019 24.0212 13.1019 22.5272C13.1019 19.4535 10.7659 16.9774 7.86606 16.9774C6.49678 16.9774 5.16763 17.5325 4.20096 18.5997L3.59695 19.24L3.03311 18.5997C-0.752813 14.2881 -0.631988 7.67106 3.27472 3.53012C5.20785 1.48107 7.78546 0.370972 10.5242 0.370972C12.981 0.370972 15.317 1.31015 17.21 2.97507C19.0628 1.26762 21.3984 0.370972 23.8957 0.370972C26.6343 0.370972 29.2121 1.48084 31.1452 3.57273C33.0783 5.62178 34.1658 8.35395 34.1658 11.257C34.1658 14.1597 33.1188 16.8922 31.1854 18.9412L17.2097 33.6268ZM13.2629 27.0524L17.2097 31.2359L29.9769 17.6605C31.5878 15.953 32.5143 13.6475 32.5143 11.1715C32.5143 8.73799 31.6283 6.43288 29.9769 4.68251C28.3661 2.97505 26.191 1.99295 23.8551 1.99295C21.5191 1.99295 19.3845 2.93213 17.7332 4.68251L17.2098 5.32303L16.646 4.72539C15.0351 3.01793 12.86 2.03583 10.5645 2.03583C8.26868 2.03583 6.09397 2.97502 4.48304 4.72539C1.38179 8.0126 1.10001 13.178 3.75823 16.8067C4.96655 15.8249 6.41646 15.3124 7.90656 15.3124C11.6925 15.3124 14.7532 18.5568 14.7532 22.5696C14.7128 24.1919 14.2293 25.7717 13.2629 27.0522L13.2629 27.0524ZM5.00648 22.1857H11.0477C11.4908 22.1857 11.8532 21.8015 11.8532 21.332C11.8532 20.8624 11.4908 20.4782 11.0477 20.4782H6.98003L7.86608 19.539C8.02706 19.3684 8.10769 19.1549 8.10769 18.9414C8.10769 18.7279 8.02706 18.5144 7.86608 18.3438C7.54384 18.0022 7.06065 18.0022 6.73838 18.3438L4.44255 20.7772C4.28158 20.9479 4.24112 21.1188 4.20095 21.3323V21.5029C4.20095 21.6736 4.28158 21.8019 4.40238 21.9725C4.44255 22.0151 4.44255 22.0151 4.48301 22.058C4.64399 22.1006 4.80496 22.1858 5.00639 22.1858L5.00648 22.1857ZM9.35618 26.7111L11.652 24.2776C11.813 24.1069 11.8534 23.936 11.8936 23.7225V23.5519C11.8936 23.3812 11.813 23.2529 11.6922 23.0823C11.652 23.0397 11.652 23.0397 11.6115 22.9968C11.4506 22.8688 11.2491 22.7833 11.0879 22.7833H5.04663C4.60359 22.7833 4.2412 23.1674 4.2412 23.637C4.2412 24.1066 4.60361 24.4907 5.04663 24.4907H9.15476L8.26871 25.4299C8.10773 25.6006 8.0271 25.8141 8.0271 26.0276C8.0271 26.2411 8.10773 26.4546 8.26871 26.6252C8.42968 26.7959 8.63112 26.8813 8.83254 26.8813C8.9938 26.9242 9.19495 26.839 9.3562 26.711L9.35618 26.7111Z" fill="white"/>
<path d="M17.2097 33.6268L11.0075 27.0524L11.5714 26.4547C12.538 25.3875 13.1019 24.0212 13.1019 22.5272C13.1019 19.4535 10.7659 16.9774 7.86606 16.9774C6.49678 16.9774 5.16763 17.5325 4.20096 18.5997L3.59695 19.24L3.03311 18.5997C-0.752813 14.2881 -0.631988 7.67106 3.27472 3.53012C5.20785 1.48107 7.78546 0.370972 10.5242 0.370972C12.981 0.370972 15.317 1.31015 17.21 2.97507C19.0628 1.26762 21.3984 0.370972 23.8957 0.370972C26.6343 0.370972 29.2121 1.48084 31.1452 3.57273C33.0783 5.62178 34.1658 8.35395 34.1658 11.257C34.1658 14.1597 33.1188 16.8922 31.1854 18.9412L17.2097 33.6268ZM13.2629 27.0524L17.2097 31.2359L29.9769 17.6605C31.5878 15.953 32.5143 13.6475 32.5143 11.1715C32.5143 8.73799 31.6283 6.43288 29.9769 4.68251C28.3661 2.97505 26.191 1.99295 23.8551 1.99295C21.5191 1.99295 19.3845 2.93213 17.7332 4.68251L17.2098 5.32303L16.646 4.72539C15.0351 3.01793 12.86 2.03583 10.5645 2.03583C8.26868 2.03583 6.09397 2.97502 4.48304 4.72539C1.38179 8.0126 1.10001 13.178 3.75823 16.8067C4.96655 15.8249 6.41646 15.3124 7.90656 15.3124C11.6925 15.3124 14.7532 18.5568 14.7532 22.5696C14.7128 24.1919 14.2293 25.7717 13.2629 27.0522L13.2629 27.0524ZM5.00648 22.1857H11.0477C11.4908 22.1857 11.8532 21.8015 11.8532 21.332C11.8532 20.8624 11.4908 20.4782 11.0477 20.4782H6.98003L7.86608 19.539C8.02706 19.3684 8.10769 19.1549 8.10769 18.9414C8.10769 18.7279 8.02706 18.5144 7.86608 18.3438C7.54384 18.0022 7.06065 18.0022 6.73838 18.3438L4.44255 20.7772C4.28158 20.9479 4.24112 21.1188 4.20095 21.3323V21.5029C4.20095 21.6736 4.28158 21.8019 4.40238 21.9725C4.44255 22.0151 4.44255 22.0151 4.48301 22.058C4.64399 22.1006 4.80496 22.1858 5.00639 22.1858L5.00648 22.1857ZM9.35618 26.7111L11.652 24.2776C11.813 24.1069 11.8534 23.936 11.8936 23.7225V23.5519C11.8936 23.3812 11.813 23.2529 11.6922 23.0823C11.652 23.0397 11.652 23.0397 11.6115 22.9968C11.4506 22.8688 11.2491 22.7833 11.0879 22.7833H5.04663C4.60359 22.7833 4.2412 23.1674 4.2412 23.637C4.2412 24.1066 4.60361 24.4907 5.04663 24.4907H9.15476L8.26871 25.4299C8.10773 25.6006 8.0271 25.8141 8.0271 26.0276C8.0271 26.2411 8.10773 26.4546 8.26871 26.6252C8.42968 26.7959 8.63112 26.8813 8.83254 26.8813C8.9938 26.9242 9.19495 26.839 9.3562 26.711L9.35618 26.7111Z" fill="#102A83"/>
</svg>
