<svg width="28" height="36" viewBox="0 0 28 36" fill="none" xmlns="http://www.w3.org/2000/svg">
<path d="M24.9061 25.0011C24.2787 24.8867 23.5851 25.0064 22.7937 25.3633L17.1388 27.8222C17.1434 27.7751 17.1479 27.7296 17.1524 27.686C17.1806 27.3918 17.1443 27.0727 17.0457 26.7358C16.8348 26.0149 16.353 25.4215 15.7256 25.1074C15.714 25.1012 15.7095 25.0996 15.6975 25.0943C15.6322 25.0656 13.8258 24.2445 13.1375 23.9319L8.92793 21.9937C8.64722 21.8603 8.33677 21.793 8.00625 21.793C6.78123 21.793 5.59115 22.3331 4.73935 23.2755C4.52914 23.5086 4.3364 23.7686 4.17697 24.0347L1.01421 26.225C0.729952 26.4223 0.664624 26.8034 0.869334 27.0777C1.07404 27.3517 1.46955 27.4137 1.75417 27.2174L5.03109 24.9476C5.11 24.8934 5.17403 24.822 5.2193 24.74C5.34801 24.5088 5.51164 24.28 5.69469 24.0787C6.30493 23.4033 7.14704 23.016 8.00564 23.016C8.14049 23.016 8.26273 23.0412 8.3743 23.0945L12.5929 25.0371C14.6458 25.9708 15.0604 26.1584 15.149 26.1987C15.4634 26.3601 15.7085 26.6767 15.8246 27.0704C15.8808 27.2623 15.9025 27.4325 15.8889 27.5774C15.8718 27.7573 15.8527 27.9605 15.7984 28.1035C15.6047 28.6246 15.17 28.9612 14.6901 28.9612C14.5417 28.9612 14.3948 28.9288 14.2545 28.8643L10.6732 27.2238C10.3573 27.0788 9.9786 27.2088 9.82856 27.5136C9.67818 27.8181 9.81304 28.183 10.1293 28.3276L13.7106 29.9681C14.022 30.1112 14.3515 30.1838 14.6904 30.1838C15.3188 30.1838 15.9019 29.9351 16.3455 29.51L23.3233 26.4757C23.8731 26.228 24.3139 26.1388 24.6715 26.2034C24.9412 26.2523 25.2129 26.4312 25.415 26.693C25.7565 27.1346 25.8396 27.7619 25.6187 28.2182C25.5237 28.4136 25.3904 28.5411 25.1278 28.6894L16.4748 33.5544C16.4557 33.565 16.4367 33.5771 16.4186 33.5902C15.5004 34.2413 14.6367 34.3678 13.78 33.9761L12.1882 33.2455L12.1349 33.2212C9.75697 32.1426 7.06222 30.9209 4.40389 31.6208L2.16729 32.2099C1.82967 32.299 1.63046 32.635 1.72262 32.9603C1.81511 33.2857 2.16373 33.4777 2.50135 33.3889L4.73795 32.7998C6.94475 32.2186 9.41481 33.339 11.5935 34.327L13.2361 35.0799C13.7321 35.3059 14.2392 35.4184 14.7502 35.4184C15.5506 35.4184 16.3584 35.1416 17.1417 34.5938L25.7665 29.7438C26.0945 29.5596 26.5035 29.2788 26.7671 28.734C27.1836 27.8745 27.0488 26.76 26.4311 25.9615C26.0346 25.4492 25.493 25.1083 24.9053 25.0007L24.9061 25.0011Z" fill="#102A83" stroke="#102A83" stroke-width="0.2"/>
<path d="M10.92 12.0475H13.4554V14.4908C13.4554 14.8287 13.7387 15.1017 14.0892 15.1017H16.8962C17.2468 15.1017 17.5301 14.8287 17.5301 14.4908V12.0475H20.0654C20.416 12.0475 20.6993 11.7744 20.6993 11.4366V8.73147C20.6993 8.39363 20.416 8.12063 20.0654 8.12063H17.5301V5.67725C17.5301 5.33941 17.2468 5.06641 16.8962 5.06641H14.0892C13.7386 5.06641 13.4554 5.33942 13.4554 5.67725V8.12063H10.92C10.5694 8.12063 10.2861 8.39364 10.2861 8.73147V11.4366C10.2861 11.7745 10.5694 12.0475 10.92 12.0475ZM11.5538 9.34231H14.0892C14.4398 9.34231 14.723 9.06929 14.723 8.73147V6.28809H16.2624V8.73147C16.2624 9.0693 16.5457 9.34231 16.8963 9.34231H19.4316V10.8258H16.8963C16.5457 10.8258 16.2624 11.0988 16.2624 11.4366V13.88H14.723V11.4366C14.723 11.0988 14.4398 10.8258 14.0892 10.8258H11.5538V9.34231Z" fill="#102A83" stroke="#102A83" stroke-width="0.2"/>
<path d="M15.0744 21.1756C15.1947 21.2784 15.3451 21.3301 15.4954 21.3301C15.6458 21.3301 15.7968 21.2787 15.9175 21.1749C16.4672 20.7018 23.5533 14.5246 25.1815 12.899C28.1968 10.3562 28.5137 5.92411 25.8842 3.00498C24.4988 1.46731 22.4921 0.585938 20.3798 0.585938H20.3688C18.5659 0.585938 16.8247 1.23855 15.4953 2.39416C12.728 -0.0168288 8.44605 -0.0351787 5.65593 2.45181C2.70494 5.08284 2.52554 9.53757 5.25557 12.3817C5.53627 12.674 14.9948 21.1084 15.0734 21.1747L15.0744 21.1756ZM6.51741 3.34947C8.95577 1.17568 12.7744 1.31874 15.0297 3.66799C15.15 3.79265 15.3185 3.86433 15.495 3.86433C15.6716 3.86433 15.8411 3.79264 15.9604 3.66799C17.0933 2.48559 18.6985 1.8083 20.3682 1.8083H20.3773H20.3883C22.1304 1.8108 23.7839 2.53945 24.9258 3.80665C27.1035 6.2229 26.8345 9.8967 24.3272 11.9957C24.3126 12.0078 24.2991 12.02 24.2855 12.034C22.9237 13.3996 17.1602 18.4469 15.4967 19.8945C13.6294 18.2374 6.48686 11.8412 6.17889 11.5468C3.92871 9.19688 4.07913 5.52124 6.51586 3.34897L6.51741 3.34947Z" fill="#102A83" stroke="#102A83" stroke-width="0.2"/>
</svg>
