<svg width="53" height="53" viewBox="0 0 53 53" fill="none" xmlns="http://www.w3.org/2000/svg">
<path d="M49.7143 0.5H3.28571C1.7498 0.5 0.5 1.7498 0.5 3.28571V42.2857C0.5 43.8216 1.7498 45.0714 3.28571 45.0714H21.8571V46.9286H19.0714C17.5355 46.9286 16.2857 48.1784 16.2857 49.7143C16.2857 51.2502 17.5355 52.5 19.0714 52.5H33.9286C35.4645 52.5 36.7143 51.2502 36.7143 49.7143C36.7143 48.1784 35.4645 46.9286 33.9286 46.9286H31.1429V45.0714H49.7143C51.2502 45.0714 52.5 43.8216 52.5 42.2857V3.28571C52.5 1.7498 51.2502 0.5 49.7143 0.5ZM34.8571 49.7143C34.8571 50.2258 34.4401 50.6429 33.9286 50.6429H19.0714C18.5599 50.6429 18.1429 50.2258 18.1429 49.7143C18.1429 49.2027 18.5599 48.7857 19.0714 48.7857H33.9286C34.4401 48.7857 34.8571 49.2027 34.8571 49.7143ZM29.2857 46.9286H23.7143V45.0714H29.2857V46.9286ZM50.6429 42.2857C50.6429 42.7973 50.2258 43.2143 49.7143 43.2143H30.2164H30.2147H22.7862H22.7845H3.28664C2.7751 43.2143 2.35807 42.7973 2.35807 42.2857V3.28571C2.35807 2.77417 2.7751 2.35714 3.28664 2.35714H49.7152C50.2268 2.35714 50.6438 2.77417 50.6438 3.28571L50.6429 42.2857ZM36.7143 33H29.2857V28.0351C32.8217 28.2005 34.6963 28.6424 35.212 28.9006C35.3356 29.2061 35.6187 29.4354 35.969 29.4756C36.0042 29.4793 36.0394 29.481 36.0747 29.481C36.5398 29.481 36.9419 29.1319 36.9958 28.6573C37.0339 28.3219 36.9253 27.9878 36.6894 27.7159C35.7646 26.6488 31.977 26.2906 29.285 26.1717V23.9962C33.1108 24.1744 35.1109 24.6731 35.639 24.96C35.7506 25.2858 36.0382 25.5366 36.4022 25.5822C36.442 25.5868 36.481 25.5897 36.5199 25.5897C36.9805 25.5897 37.3805 25.2468 37.4402 24.7772C37.4838 24.429 37.3743 24.0807 37.1301 23.7955C36.1216 22.617 31.8244 22.2476 29.2854 22.1315V19.5427C33.4304 19.7367 35.5979 20.3266 36.127 20.6428C36.2265 20.9927 36.5299 21.2667 36.9146 21.3115C36.9507 21.3152 36.9859 21.3169 37.0216 21.3169C37.4867 21.3169 37.8888 20.9678 37.9427 20.494C37.9837 20.1355 37.8656 19.7752 37.6102 19.4809C36.4988 18.1974 31.9414 17.8049 29.2846 17.6842V14.6304C33.8159 14.8393 36.1299 15.5088 36.6601 15.8607C36.7418 16.2359 37.0531 16.5348 37.4548 16.5841C37.4929 16.5887 37.531 16.5907 37.5679 16.5907C38.0306 16.5907 38.4314 16.2454 38.4882 15.7745C38.5338 15.3993 38.4111 15.0213 38.1437 14.7104C36.9337 13.3047 31.8286 12.8922 29.2834 12.7733V9.16223C34.2641 9.38981 36.7368 10.1671 37.2512 10.5655C37.3118 10.9693 37.6368 11.3001 38.0621 11.3494C38.0994 11.3539 38.1355 11.356 38.1715 11.356C38.6358 11.356 39.0371 11.0078 39.0926 10.5352C39.125 10.2558 39.0881 9.83423 38.7229 9.41266C37.3893 7.86646 31.9488 7.427 29.2858 7.30475V5.14293C29.2858 4.63056 28.8696 4.21436 28.3572 4.21436H24.643C24.1306 4.21436 23.7144 4.63056 23.7144 5.14293V7.30475C21.0513 7.42745 15.611 7.86646 14.2753 9.41181C13.9105 9.83423 13.8724 10.2558 13.9055 10.5344C13.9611 11.0069 14.3624 11.3552 14.8267 11.3552C14.8627 11.3552 14.8992 11.3535 14.9361 11.3485C15.3614 11.2992 15.6856 10.9688 15.7469 10.5646C16.2614 10.1663 18.7341 9.38902 23.7148 9.16138V12.7724C21.1696 12.8914 16.0644 13.3034 14.8544 14.7096C14.5871 15.0205 14.4644 15.3985 14.51 15.7737C14.5676 16.2446 14.9676 16.5899 15.4302 16.5899C15.4684 16.5899 15.5053 16.5882 15.5434 16.5833C15.9463 16.5339 16.2577 16.235 16.3381 15.8599C16.8683 15.5079 19.1823 14.8385 23.7136 14.6295V17.6834C21.0568 17.8032 16.4994 18.197 15.388 19.48C15.1326 19.7744 15.0149 20.1346 15.0555 20.4932C15.1102 20.9666 15.5115 21.316 15.9766 21.316C16.0119 21.316 16.0479 21.3144 16.0836 21.3107C16.4691 21.2671 16.7717 20.9931 16.8712 20.642C17.4006 20.3253 19.5678 19.7358 23.7128 19.5418V22.1307C21.1741 22.2468 16.8766 22.6153 15.868 23.7947C15.6239 24.0799 15.5144 24.4281 15.5579 24.7763C15.6172 25.2452 16.0177 25.5888 16.4782 25.5888C16.5172 25.5888 16.5562 25.5872 16.596 25.5813C16.9599 25.5349 17.2476 25.2841 17.3591 24.9591C17.8864 24.6723 19.8878 24.1736 23.7132 23.9953V26.1708C21.0212 26.2898 17.2335 26.648 16.3087 27.715C16.0737 27.9861 15.9642 28.3202 16.0024 28.6564C16.0563 29.1311 16.4584 29.4801 16.9235 29.4801C16.9587 29.4801 16.994 29.4785 17.0292 29.4747C17.3791 29.4349 17.6626 29.2045 17.7862 28.8998C18.3014 28.6415 20.1772 28.1996 23.7125 28.0342L23.7137 33H16.2851C14.6796 33 11.6423 33.7764 11.6423 36.7143C11.6423 41.2308 26.3508 41.3571 26.4994 41.3571C26.6478 41.3571 41.3566 41.2307 41.3566 36.7143C41.3574 33.7764 38.3201 33 36.7146 33H36.7143ZM26.5 33C27.0115 33 27.4286 33.417 27.4286 33.9286C27.4286 34.4401 27.0115 34.8571 26.5 34.8571C25.9885 34.8571 25.5714 34.4401 25.5714 33.9286C25.5714 33.417 25.9885 33 26.5 33ZM25.5714 6.07143H27.4286V31.3137C27.1371 31.2097 26.8279 31.1429 26.5 31.1429C26.1721 31.1429 25.8629 31.2097 25.5714 31.3137V6.07143ZM26.5 39.5C20.5467 39.5 13.5 37.9902 13.5 36.7143C13.5 34.8961 16.1742 34.858 16.2857 34.8571H23.8859C24.2702 35.9353 25.2916 36.7143 26.5 36.7143C27.708 36.7143 28.7294 35.9362 29.1141 34.8571H36.7118C36.8258 34.858 39.5 34.8961 39.5 36.7143C39.5 37.9902 32.4533 39.5 26.5 39.5Z" fill="#102A83" stroke="#102A83" stroke-width="0.236364"/>
</svg>
