<svg width="62" height="21" viewBox="0 0 62 21" fill="none" xmlns="http://www.w3.org/2000/svg">
<path d="M26.7581 20.1594H21.7559L24.8846 0.53125H29.8866L26.7581 20.1594Z" fill="#00579F"/>
<path d="M44.8922 1.01143C43.9055 0.614283 42.3406 0.175781 40.4055 0.175781C35.4656 0.175781 31.987 2.84842 31.9656 6.66948C31.9246 9.48865 34.4562 11.0545 36.3497 11.9945C38.285 12.955 38.9429 13.582 38.9429 14.4382C38.9232 15.7531 37.3791 16.3592 35.9388 16.3592C33.9417 16.3592 32.8716 16.0467 31.2454 15.3152L30.5867 15.0016L29.8867 19.4077C31.0599 19.95 33.2215 20.4312 35.4656 20.4523C40.7144 20.4523 44.1315 17.821 44.1719 13.7491C44.1919 11.5146 42.8551 9.80254 39.9731 8.4035C38.2235 7.50541 37.152 6.89983 37.152 5.98092C37.1725 5.14555 38.0583 4.28992 40.0332 4.28992C41.6594 4.24801 42.8543 4.64461 43.7594 5.04148L44.2119 5.2499L44.8922 1.01143Z" fill="#00579F"/>
<path d="M51.5401 13.2059C51.9521 12.0783 53.5373 7.71406 53.5373 7.71406C53.5165 7.75597 53.9484 6.56563 54.1954 5.83489L54.545 7.52617C54.545 7.52617 55.4923 12.2245 55.698 13.2059C54.9162 13.2059 52.5282 13.2059 51.5401 13.2059ZM57.7148 0.53125H53.8455C52.6523 0.53125 51.7458 0.885936 51.231 2.15981L43.8008 20.1592H49.0495C49.0495 20.1592 49.9136 17.7366 50.0994 17.2148C50.6752 17.2148 55.7811 17.2148 56.5219 17.2148C56.6655 17.9039 57.1188 20.1592 57.1188 20.1592H61.7504L57.7148 0.53125Z" fill="#00579F"/>
<path d="M17.5787 0.53125L12.6798 13.9158L12.1445 11.2013C11.2388 8.06902 8.39833 4.66593 5.22852 2.97381L9.71571 20.1386H15.0055L22.8682 0.53125H17.5787Z" fill="#00579F"/>
<path d="M8.13051 0.53125H0.082336L0 0.927843C6.27808 2.55668 10.4359 6.48293 12.1442 11.2021L10.3946 2.18118C10.1066 0.927566 9.2214 0.572602 8.13051 0.53125Z" fill="#FAA61A"/>
</svg>
