<svg width="1512" height="1133" viewBox="0 0 1512 1133" fill="none" xmlns="http://www.w3.org/2000/svg">
<rect width="1518" height="1133" transform="translate(-3)" fill="#DAEFFF"/>
<path d="M428.237 79.5046C390.218 63.0137 306.264 34.8815 274.598 54.2801C235.015 78.5284 368.557 98.0259 394.663 118.899C420.77 139.773 393.499 153.096 378.717 147.028C363.935 140.96 271.54 119.722 261.533 133.857C251.525 147.992 294.071 166.892 304.879 172.934C322.295 182.671 353.775 200.381 341.263 210.06C328.751 219.738 294.166 220.937 282.406 216.175" stroke="#E4F4FF" stroke-width="13" stroke-linecap="round"/>
<path d="M1350.11 849.455C1353.54 850.49 1357.17 848.543 1358.2 845.105C1359.24 841.668 1357.29 838.042 1353.86 837.007L1350.11 849.455ZM1092.19 682.329L1086.62 685.672L1092.19 682.329ZM1273.21 709.461L1267.35 712.285C1268.86 715.405 1272.54 716.797 1275.73 715.449C1278.93 714.101 1280.5 710.488 1279.31 707.234L1273.21 709.461ZM1307.8 805.138C1306.53 808.496 1308.22 812.248 1311.58 813.519C1314.94 814.79 1318.69 813.099 1319.96 809.741L1307.8 805.138ZM1351.98 843.231L1353.86 837.007C1321.01 827.114 1268.58 807.227 1218.43 779.834C1168.07 752.322 1121.03 717.786 1097.76 678.987L1092.19 682.329L1086.62 685.672C1111.74 727.57 1161.37 763.48 1212.2 791.243C1263.24 819.123 1316.52 839.338 1350.11 849.455L1351.98 843.231ZM1092.19 682.329L1097.76 678.987C1083.15 654.616 1085.08 640.057 1092.04 632.124C1099.69 623.407 1116.19 618.956 1138.5 621.394C1182.54 626.206 1240.74 657.118 1267.35 712.285L1273.21 709.461L1279.06 706.637C1250.18 646.776 1187.63 613.685 1139.91 608.471C1116.35 605.895 1094.22 609.925 1082.27 623.551C1069.63 637.96 1070.99 659.606 1086.62 685.672L1092.19 682.329ZM1273.21 709.461L1279.31 707.234C1270.68 683.564 1258.78 652.769 1252.22 623.966C1248.94 609.583 1247.07 596.045 1247.52 584.403C1247.97 572.716 1250.71 563.625 1255.95 557.373L1250.97 553.198L1245.99 549.023C1238.17 558.344 1235.03 570.706 1234.53 583.906C1234.02 597.15 1236.14 611.931 1239.54 626.856C1246.34 656.665 1258.61 688.43 1267.1 711.688L1273.21 709.461ZM1250.97 553.198L1255.95 557.373C1260.19 552.309 1269.8 549.409 1282.47 553.081C1294.81 556.656 1308.92 566.329 1319.94 584.197C1341.97 619.888 1351.83 688.851 1307.8 805.138L1313.88 807.44L1319.96 809.741C1364.63 691.744 1356.09 618.014 1331.01 577.37C1318.48 557.069 1301.86 545.164 1286.09 540.595C1270.66 536.124 1254.79 538.516 1245.99 549.023L1250.97 553.198Z" fill="#E4F4FF"/>
</svg>
