<svg width="744" height="811" viewBox="0 0 744 811" fill="none" xmlns="http://www.w3.org/2000/svg">
<g clip-path="url(#clip0_2497_21158)">
<path d="M112.909 103.263C113.47 104.844 114.206 106.516 115.15 107.955C116.094 109.391 117.261 110.619 118.692 111.28C121.493 112.573 125.306 112.449 128.369 112.024C128.47 112.01 128.57 111.994 128.67 111.98C128.619 112.004 128.566 112.028 128.515 112.053C125.886 113.322 123 115.382 122.435 118.485C121.89 121.483 122.32 125.781 122.874 129.296C122.896 129.437 122.92 129.578 122.943 129.717C122.909 129.632 122.876 129.546 122.841 129.46C122.195 127.879 121.375 126.208 120.367 124.771C119.361 123.337 118.153 122.111 116.725 121.452C113.908 120.151 110.05 120.574 106.958 121.285C106.857 121.308 106.756 121.333 106.656 121.357C106.724 121.318 106.794 121.28 106.862 121.24C108.202 120.456 109.586 119.48 110.707 118.319C111.827 117.159 112.699 115.798 112.982 114.246C113.525 111.257 113.268 106.968 112.882 103.456C112.867 103.319 112.85 103.184 112.835 103.05C112.859 103.121 112.883 103.192 112.909 103.263Z" stroke="#1F459D" stroke-width="0.638543"/>
<path d="M123.117 106L126.234 104.381" stroke="#1F459D" stroke-width="0.638543"/>
<path d="M123.87 103.634L125.489 106.751" stroke="#1F459D" stroke-width="0.638543"/>
<path d="M125.88 123.09L128.996 121.471" stroke="#1F459D" stroke-width="0.638543"/>
<path d="M126.632 120.725L128.251 123.841" stroke="#1F459D" stroke-width="0.638543"/>
<path d="M657.29 100.325C656.929 102.927 656.744 105.781 657.019 108.463C657.292 111.14 658.027 113.69 659.539 115.642C662.499 119.462 667.887 122.042 672.449 123.663C672.601 123.717 672.752 123.768 672.901 123.819C672.811 123.816 672.721 123.811 672.631 123.809C668.061 123.674 662.564 124.453 659.539 128.358C656.616 132.131 654.111 138.414 652.344 143.698C652.274 143.908 652.205 144.116 652.137 144.322C652.151 144.183 652.167 144.042 652.18 143.901C652.423 141.238 652.488 138.324 652.125 135.6C651.763 132.88 650.969 130.305 649.461 128.358C646.484 124.516 640.818 122.318 636.009 121.074C635.85 121.033 635.692 120.994 635.535 120.955C635.659 120.95 635.784 120.948 635.909 120.941C638.336 120.819 640.964 120.463 643.359 119.659C645.754 118.856 647.948 117.595 649.461 115.642C652.375 111.88 655.114 105.734 657.115 100.574C657.193 100.374 657.266 100.174 657.342 99.9766C657.325 100.092 657.306 100.208 657.29 100.325Z" stroke="#1F459D"/>
<path d="M669.5 111.5H675" stroke="#1F459D"/>
<path d="M672.255 108.756L672.255 114.256" stroke="#1F459D"/>
<path d="M661 137.244H666.5" stroke="#1F459D"/>
<path d="M663.755 134.5L663.755 140" stroke="#1F459D"/>
<path d="M552.29 669.325C551.929 671.927 551.744 674.781 552.019 677.463C552.292 680.14 553.027 682.69 554.539 684.642C557.499 688.462 562.887 691.042 567.449 692.663C567.601 692.717 567.752 692.768 567.901 692.819C567.811 692.816 567.721 692.811 567.631 692.809C563.061 692.674 557.564 693.453 554.539 697.358C551.616 701.131 549.111 707.414 547.344 712.698C547.274 712.908 547.205 713.116 547.137 713.322C547.151 713.183 547.167 713.042 547.18 712.901C547.423 710.238 547.488 707.324 547.125 704.6C546.763 701.88 545.969 699.305 544.461 697.358C541.484 693.516 535.818 691.318 531.009 690.074C530.85 690.033 530.692 689.994 530.535 689.955C530.659 689.95 530.784 689.948 530.909 689.941C533.336 689.819 535.964 689.463 538.359 688.659C540.754 687.856 542.948 686.595 544.461 684.642C547.375 680.88 550.114 674.734 552.115 669.574C552.193 669.374 552.266 669.174 552.342 668.977C552.325 669.092 552.306 669.208 552.29 669.325Z" stroke="#1F459D"/>
<path d="M564.5 680.5H570" stroke="#1F459D"/>
<path d="M567.255 677.756L567.255 683.256" stroke="#1F459D"/>
<path d="M556 706.244H561.5" stroke="#1F459D"/>
<path d="M558.755 703.5L558.755 709" stroke="#1F459D"/>
</g>
<defs>
<clipPath id="clip0_2497_21158">
<rect width="744" height="811" fill="white"/>
</clipPath>
</defs>
</svg>
