<svg width="239" height="238" viewBox="0 0 239 238" fill="none" xmlns="http://www.w3.org/2000/svg">
<rect x="19.3242" y="0.00195312" width="219.583" height="219.583" rx="25.5515" transform="rotate(4.85049 19.3242 0.00195312)" fill="#DBAD5D"/>
<g clip-path="url(#clip0_2497_19535)">
<rect x="10.5068" y="8.8916" width="219.583" height="219.583" rx="25.5515" fill="#F1C983"/>
<path d="M74.4016 150.399C92.317 177.891 109.179 225.356 70.2093 264.326C34.5491 299.986 -11.5847 291.523 -42.6451 266.906C-76.6803 238.776 -89.4885 186.442 -51.4124 148.366C-14.0482 112.623 47.437 109.021 74.4016 150.399Z" fill="#FFE4B5"/>
<path opacity="0.9" d="M194.786 33.7863C201.558 1.67865 223.198 -43.8072 278.309 -43.8072C328.74 -43.8072 355.377 -5.20155 359.933 34.1686C364.109 78.1256 336.16 124.188 282.312 124.188C230.618 123.042 184.594 82.1119 194.786 33.7863Z" fill="#FFE4B5"/>
<path d="M116.076 129.586C142.631 129.586 164.158 108.059 164.158 81.5046C164.158 54.9498 142.631 33.4229 116.076 33.4229C89.5211 33.4229 67.9941 54.9498 67.9941 81.5046C67.9941 108.059 89.5211 129.586 116.076 129.586Z" fill="#CBE8FF"/>
<path d="M115.935 128.416C90.4491 128.416 69.7395 107.41 69.7395 81.5763C69.7225 70.2814 73.7532 59.3542 81.1009 50.776L79.0666 48.8965C70.9714 57.6956 66.9238 69.5497 66.9238 81.5763C66.9238 108.973 88.9075 131.256 115.935 131.256C121.418 131.26 126.862 130.337 132.037 128.525L131.126 125.825C126.244 127.539 121.108 128.415 115.935 128.416Z" fill="#84B6DF"/>
<path d="M88.3441 88.6251C82.7127 94.3339 75.8846 97.5474 77.8169 100.944C80.798 106.188 83.6419 98.2654 94.6583 103.439C106.062 108.793 106.062 109.827 113.957 107.723C120.623 105.938 123.22 101.739 120.292 94.5205C117.659 88.0971 110.535 90.1667 105.555 85.4222C101.061 81.1423 99.9237 81.8533 98.537 75.6095C97.7275 72.0898 94.3134 69.978 91.1669 71.6851C85.5777 74.6767 92.8352 84.0601 88.3441 88.6251Z" fill="#FFE0BF"/>
<path d="M121.574 93.8839C119.814 89.6146 116.382 88.5834 113.049 87.5486C110.768 86.8447 108.417 86.1407 106.488 84.314C105.366 83.2582 104.419 82.4627 103.673 81.8503C101.508 80.0482 100.839 79.5203 99.8926 75.2967C99.3682 73.0195 97.9287 71.133 95.9999 70.2425C95.137 69.838 94.1896 69.6464 93.2373 69.6838C92.2849 69.7211 91.3555 69.9864 90.5269 70.4572C86.7362 72.5197 87.4366 76.6096 88.035 80.2031C88.5242 83.1561 89.017 85.9296 87.3662 87.5944C85.6607 89.2646 83.8691 90.8448 81.9988 92.3283C78.1061 95.4959 74.7026 98.2307 76.6313 101.61C78.5601 104.988 80.9464 104.316 83.0864 103.721C85.4375 103.046 88.6298 102.155 94.1028 104.717C95.7887 105.499 97.2247 106.21 98.4883 106.829C103.12 109.071 105.366 110.173 108.21 110.173C109.857 110.173 111.729 109.821 114.348 109.117C118.219 108.086 120.803 106.27 122.066 103.711C123.295 100.962 123.154 97.7274 121.574 93.8839ZM119.539 102.331C118.663 104.091 116.664 105.46 113.612 106.241C107.4 107.913 106.805 107.628 99.6815 104.179C98.4179 103.574 96.9819 102.863 95.2608 102.067C92.0685 100.571 89.471 100.11 87.3662 100.11C85.664 100.141 83.9749 100.416 82.3508 100.927C80.239 101.532 79.887 101.603 79.0881 100.145C78.4228 99.0085 80.422 97.2628 83.7903 94.514C85.7522 92.9777 87.6264 91.3326 89.4041 89.5865C92.0685 86.8764 91.4033 83.0399 90.8577 79.6928C90.1925 75.8493 90.0869 73.9276 91.8749 72.9315C92.3254 72.6699 92.8334 72.5233 93.354 72.5049C93.8746 72.4865 94.3917 72.5968 94.8596 72.826C95.4565 73.1324 95.9765 73.5699 96.3805 74.1056C96.7846 74.6414 97.0624 75.2615 97.1931 75.9197C98.3158 80.9 99.4034 81.97 101.931 84.0677C102.705 84.7083 103.546 85.4192 104.598 86.4153C106.985 88.6925 109.79 89.5442 112.247 90.2869C115.333 91.209 117.755 91.9587 118.983 94.9821C120.212 98.0054 120.423 100.501 119.539 102.317V102.331Z" fill="#F2D0AC"/>
<path d="M116.079 34.7809C120.956 34.7865 125.803 35.5354 130.454 37.0018L131.333 34.3621C126.4 32.7978 121.255 32.0024 116.079 32.0039C106.791 31.9946 97.6868 34.592 89.8018 39.5008L91.3152 41.8589C98.7374 37.2117 107.322 34.7579 116.079 34.7809Z" fill="#84B6DF"/>
<path d="M155.09 51.0083L152.803 52.4162C159.279 60.7155 162.341 70.933 162.341 81.5975C162.341 85.2086 162.2 89.1471 161.144 93.2123L163.854 93.9162C164.981 89.5167 165.121 85.3987 165.121 81.5728C165.192 70.2959 161.989 59.8074 155.09 51.0083Z" fill="#84B6DF"/>
<path d="M171.355 107.179C165.6 97.4016 153.053 79.0009 152.388 78.0084C151.511 76.6252 149.378 76.3542 148.072 78.0401C147.861 78.3604 130.981 101.974 129.151 107.218C127.792 110.034 125.131 124.545 136.229 133.024C144.06 139.007 154.851 139.099 163.105 133.728C177.109 124.57 171.457 107.549 171.355 107.179Z" fill="#FF624E"/>
<path d="M170.683 103.047L153.718 77.5189C153.337 76.9431 152.819 76.4707 152.211 76.1439C151.603 75.8171 150.924 75.646 150.234 75.646C149.543 75.646 148.864 75.8171 148.256 76.1439C147.648 76.4707 147.13 76.9431 146.749 77.5189L130.805 101.1C127.92 105.171 126.381 110.042 126.406 115.031C126.406 128.251 137.07 139 150.163 139C163.256 139 173.921 128.251 173.921 115.031C173.879 110.826 172.764 106.701 170.683 103.047ZM150.093 136.131C138.548 136.131 129.151 126.657 129.151 114.992C129.144 110.862 130.343 106.819 132.6 103.36L149.002 79.0745C149.131 78.8846 149.304 78.7281 149.506 78.618C149.708 78.5078 149.933 78.4472 150.163 78.441C150.395 78.4389 150.623 78.496 150.826 78.6068C151.029 78.7177 151.201 78.8787 151.325 79.0745L168.078 104.247C169.98 107.509 170.977 111.22 170.964 114.996C171.035 126.66 161.637 136.135 150.093 136.135V136.131Z" fill="#CF422F"/>
<path d="M82.4103 61.4952C77.2998 59.5665 79.0807 50.7498 79.0807 50.7498C79.0807 50.7498 80.6012 48.5747 84.5256 45.1888C88.7175 41.4368 91.3466 40.1416 91.3466 40.1416C93.0361 42.4329 95.8025 45.5126 90.5336 50.6231C88.2423 52.9038 93.2508 55.8497 91.5895 58.3417C89.4777 61.4952 85.4231 62.6251 82.4103 61.4952Z" fill="#FFE0BF"/>
<path d="M85.046 63.327C84.0268 63.3268 83.0154 63.1481 82.0579 62.799C75.8527 60.4726 77.7322 50.9519 77.8026 50.5648C77.8378 50.3244 77.9502 50.1021 78.1229 49.9312C78.2672 49.7905 81.2483 46.299 83.7543 44.1485C86.38 41.9276 89.4209 39.5729 90.8288 38.869C91.5574 38.4607 92.5886 38.7036 93.1271 39.756C93.3876 40.3297 93.7079 40.8717 94.007 41.5158C95.1791 43.8423 96.5341 46.7952 91.7087 51.596C91.3884 51.9128 91.4236 52.2648 92.3106 53.8521C93.1271 55.26 94.2288 57.1993 92.9511 59.1034C92.0812 60.402 90.9051 61.4666 89.5264 62.2032C88.1478 62.9398 86.6091 63.3257 85.046 63.327ZM83.0926 60.1593C85.3663 61.004 88.8085 60.2649 90.6563 57.5125C90.9414 57.0902 90.6563 56.4919 89.9102 55.1861C89.0584 53.7043 87.7808 51.4834 89.7694 49.5546C93.1412 46.2039 92.4654 44.8278 91.4377 42.7829C91.3321 42.6069 91.2582 42.4309 91.1526 42.2549C89.2487 43.5048 87.4124 44.8547 85.6514 46.299C83.8445 47.9105 82.1478 49.6413 80.5726 51.4799C80.3262 52.9617 79.6856 58.8852 83.0926 60.1593Z" fill="#F2D0AC"/>
<path d="M110.768 45.8126C124.365 43.3278 130.629 35.6655 130.629 35.6655C135.124 37.1115 139.38 39.2156 143.258 41.9094C147.303 44.8021 150.968 48.191 154.169 51.9967C154.169 51.9967 154.239 58.874 148.376 61.0773C146.968 61.6088 136.12 60.6514 134.603 66.223C133.72 69.3907 134.638 72.8259 136.331 74.4238C139.759 77.69 136.155 82.0544 130.929 83.9268C127.926 85.0249 128.032 80.0552 123.865 81.0161C119.064 82.1142 123.689 65.3959 115.601 64.4034C109.705 63.6819 106.421 57.1001 107.657 51.2786C108.223 48.7586 108.259 46.2385 110.768 45.8126Z" fill="#FFE0BF"/>
<path d="M130.408 85.5023C128.895 85.5023 127.944 84.4042 127.24 83.6264C126.325 82.5986 125.832 82.1024 124.495 82.3875C124.094 82.4869 123.676 82.5003 123.269 82.4269C122.862 82.3535 122.475 82.1949 122.133 81.9616C120.585 80.8283 120.338 78.3152 120.022 75.1265C119.529 70.1004 118.895 66.2394 115.763 65.8487C114.356 65.6535 113.005 65.1651 111.799 64.4152C110.592 63.6652 109.557 62.6703 108.759 61.4949C107.721 59.979 107 58.2697 106.637 56.4689C106.274 54.6682 106.277 52.8128 106.647 51.0134C106.717 50.6614 106.788 50.3412 106.858 49.9857C107.28 47.7929 107.773 45.03 110.87 44.4634C123.65 42.1263 129.282 34.7597 129.352 34.6893C129.518 34.4639 129.747 34.2929 130.01 34.1983C130.274 34.1036 130.559 34.0895 130.83 34.1579C131.077 34.2283 136.779 35.6819 143.747 40.3911C148.192 43.392 152.116 47.1003 155.362 51.3689C155.522 51.5992 155.619 51.8673 155.644 52.1467C155.644 52.467 155.82 59.8899 149.097 62.4522C148.605 62.6282 147.936 62.6986 146.56 62.769C143.498 62.945 137.162 63.3005 136.247 66.6406C135.508 69.3648 136.353 72.2333 137.585 73.4018C139.028 74.785 139.626 76.5202 139.274 78.2906C138.711 81.0852 135.79 83.7425 131.742 85.2313C131.319 85.4076 130.866 85.4997 130.408 85.5023ZM125.234 79.4838C127.381 79.4838 128.543 80.8283 129.352 81.7504C130.232 82.7746 130.338 82.7394 130.725 82.5634C133.752 81.4653 136.11 79.4486 136.462 77.6782C136.638 76.8616 136.356 76.119 135.617 75.4115C133.435 73.3209 132.555 69.2839 133.505 65.8135C134.948 60.534 142.375 60.1152 146.387 59.8653C146.976 59.8538 147.564 59.8068 148.147 59.7245C152.195 58.1653 152.758 53.9875 152.828 52.6078C149.791 48.7974 146.208 45.4564 142.195 42.693C138.718 40.3455 134.948 38.4641 130.982 37.0968C129.081 39.2085 122.957 45.1004 111.409 47.1911C110.353 47.3671 110.107 48.0393 109.649 50.4468C109.579 50.7987 109.508 51.1894 109.438 51.5449C109.133 52.9616 109.121 54.4258 109.404 55.8472C109.687 57.2686 110.258 58.6169 111.082 59.809C111.661 60.6591 112.411 61.3796 113.283 61.9249C114.156 62.4702 115.132 62.8283 116.15 62.9767C121.781 63.6806 122.415 70.0934 122.876 74.8026C123.017 76.1014 123.2 78.0759 123.52 79.0544C123.569 79.2089 123.671 79.3417 123.807 79.4302C123.943 79.5187 124.105 79.5575 124.266 79.5401C124.59 79.519 124.998 79.4838 125.234 79.4838Z" fill="#F2D0AC"/>
</g>
<defs>
<clipPath id="clip0_2497_19535">
<rect x="10.5068" y="8.8916" width="219.583" height="219.583" rx="25.5515" fill="white"/>
</clipPath>
</defs>
</svg>
