<svg width="238" height="238" viewBox="0 0 238 238" fill="none" xmlns="http://www.w3.org/2000/svg">
<rect x="18.2002" y="0.17041" width="219.583" height="219.583" rx="25.5515" transform="rotate(4.7545 18.2002 0.17041)" fill="#9E80DC"/>
<g clip-path="url(#clip0_2497_19520)">
<rect x="8.72266" y="8.8916" width="219.583" height="219.583" rx="25.5515" fill="#C2A4FF"/>
<path d="M152.656 151.452C123.439 136.515 85.2002 103.727 99.6208 50.5364C112.817 1.86242 157.047 -13.7452 196.238 -7.84058C239.756 -0.369094 276.901 38.6594 262.811 90.6311C248.178 140.224 196.631 173.934 152.656 151.452Z" fill="#D6C1FF"/>
<g clip-path="url(#clip1_2497_19520)">
<path d="M131.572 86.1626H105.372V99.5667C105.372 104.985 111.236 108.126 118.472 108.126C125.708 108.126 131.501 102.798 131.572 99.5667V86.1626Z" fill="#FFE0BF"/>
<path d="M99.6271 60.1197L99.6458 48.0068C109.805 53.3033 123.02 50.7491 132.125 48.0319C133.996 49.2072 134.732 49.4641 135.612 53.0902C136.404 56.3589 136.142 59.0259 137.483 60.3673C138.544 61.4172 142.786 60.3516 142.786 60.8468C142.786 62.1505 143.148 62.373 143.999 62.8807C148.678 65.6731 146.99 73.646 140.169 72.1824C139.233 85.9719 128.432 93.2302 118.457 92.8667C107.578 92.4938 103.813 87.7332 100.719 83.9286C98.0956 80.7037 96.717 74.3166 96.4612 72.0852C89.5524 73.4266 87.9305 64.2754 93.0084 62.9215C93.6322 62.7522 93.3702 61.8873 93.3889 60.8844C93.3889 60.8844 98.735 61.5582 99.6271 60.1197Z" fill="#FFE0BF"/>
<path d="M112.858 58.2686H106.932C106.601 58.2686 106.284 58.4006 106.05 58.6357C105.816 58.8708 105.685 59.1897 105.685 59.5221C105.685 59.8546 105.816 60.1735 106.05 60.4086C106.284 60.6437 106.601 60.7757 106.932 60.7757H112.858C113.189 60.7757 113.507 60.6437 113.741 60.4086C113.975 60.1735 114.106 59.8546 114.106 59.5221C114.106 59.1897 113.975 58.8708 113.741 58.6357C113.507 58.4006 113.189 58.2686 112.858 58.2686Z" fill="#D89B61"/>
<path d="M129.701 58.2686H123.775C123.444 58.2686 123.127 58.4006 122.893 58.6357C122.659 58.8708 122.527 59.1897 122.527 59.5221C122.527 59.8546 122.659 60.1735 122.893 60.4086C123.127 60.6437 123.444 60.7757 123.775 60.7757H129.701C130.032 60.7757 130.349 60.6437 130.583 60.4086C130.817 60.1735 130.949 59.8546 130.949 59.5221C130.949 59.1897 130.817 58.8708 130.583 58.6357C130.349 58.4006 130.032 58.2686 129.701 58.2686Z" fill="#D89B61"/>
<path d="M142.462 61.7169C142.284 61.6899 142.103 61.7017 141.93 61.7516C141.758 61.8015 141.598 61.8883 141.462 62.0059C141.326 62.1236 141.216 62.2695 141.141 62.4335C141.066 62.5975 141.028 62.7759 141.028 62.9564C141.028 63.1368 141.066 63.3152 141.141 63.4792C141.216 63.6432 141.326 63.7891 141.462 63.9068C141.598 64.0245 141.758 64.1112 141.93 64.1611C142.103 64.211 142.284 64.2228 142.462 64.1958C142.83 64.1913 143.196 64.2601 143.537 64.3983C143.879 64.5364 144.19 64.7412 144.453 65.0009C144.715 65.2605 144.924 65.5698 145.067 65.9109C145.209 66.252 145.284 66.6182 145.285 66.9882V67.615C145.276 68.5266 144.908 69.3975 144.261 70.0371C143.615 70.6767 142.742 71.033 141.835 71.0279H141.211V69.4609C141.211 69.1285 141.08 68.8096 140.846 68.5745C140.612 68.3394 140.294 68.2073 139.964 68.2073C139.633 68.2073 139.315 68.3394 139.081 68.5745C138.847 68.8096 138.716 69.1285 138.716 69.4609V71.3194C138.716 82.42 129.558 91.4709 118.333 91.4709C107.107 91.4709 97.9495 82.42 97.9495 71.3194V69.4609C97.9495 69.1285 97.8181 68.8096 97.5841 68.5745C97.3501 68.3394 97.0328 68.2073 96.7019 68.2073C96.371 68.2073 96.0537 68.3394 95.8197 68.5745C95.5857 68.8096 95.4543 69.1285 95.4543 69.4609V71.0279H94.8304C94.3767 71.0362 93.9259 70.954 93.5041 70.7861C93.0822 70.6181 92.6977 70.3677 92.3728 70.0494C92.0479 69.7312 91.7891 69.3513 91.6113 68.9318C91.4335 68.5123 91.3403 68.0615 91.3371 67.6056V66.9788C91.3383 66.6088 91.4124 66.2426 91.5553 65.9015C91.6981 65.5604 91.9067 65.2511 92.1692 64.9915C92.4317 64.7318 92.7427 64.527 93.0844 64.3889C93.426 64.2507 93.7916 64.1819 94.1598 64.1864C94.3374 64.2134 94.5187 64.2016 94.6914 64.1517C94.864 64.1018 95.0238 64.0151 95.16 63.8974C95.2962 63.7797 95.4055 63.6338 95.4804 63.4698C95.5553 63.3058 95.5941 63.1274 95.5941 62.947C95.5941 62.7665 95.5553 62.5881 95.4804 62.4241C95.4055 62.2601 95.2962 62.1142 95.16 61.9965C95.0238 61.8789 94.864 61.7921 94.6914 61.7422C94.5187 61.6923 94.3374 61.6805 94.1598 61.7075C93.4654 61.7029 92.777 61.836 92.1338 62.099C91.4906 62.362 90.9053 62.7498 90.4114 63.2402C89.9175 63.7307 89.5246 64.3141 89.2553 64.9573C88.986 65.6004 88.8455 66.2905 88.8418 66.9882V67.615C88.8583 69.1888 89.4942 70.6921 90.6105 71.7961C91.7269 72.9002 93.2329 73.5153 94.7992 73.5069H95.5198C95.8213 76.5525 96.7404 79.5038 98.2204 82.1788C99.7004 84.8538 101.71 87.196 104.125 89.0609V102.772H106.621V90.7658C110.168 92.8549 114.205 93.9561 118.317 93.9561C122.429 93.9561 126.466 92.8549 130.014 90.7658V101.421H132.509V89.0609C134.913 87.1843 136.914 84.8378 138.391 82.163C139.868 79.4881 140.79 76.5403 141.102 73.4975H141.823C143.389 73.5059 144.895 72.8908 146.011 71.7867C147.128 70.6827 147.764 69.1794 147.78 67.6056V66.9788C147.768 65.573 147.201 64.2294 146.204 63.243C145.207 62.2565 143.861 61.7077 142.462 61.7169Z" fill="#F2D0AC"/>
<path d="M126.739 64.5352C127.078 64.5352 127.41 64.6362 127.692 64.8257C127.974 65.0151 128.194 65.2843 128.324 65.5992C128.454 65.9142 128.488 66.2608 128.421 66.5951C128.355 66.9295 128.192 67.2366 127.952 67.4777C127.712 67.7187 127.406 67.8829 127.074 67.9494C126.741 68.0159 126.396 67.9818 126.082 67.8513C125.769 67.7209 125.501 67.4999 125.313 67.2165C125.124 66.933 125.023 66.5998 125.023 66.2588C125.028 65.803 125.21 65.3669 125.53 65.0445C125.851 64.7222 126.285 64.5392 126.739 64.5352Z" fill="#B69169"/>
<path d="M109.895 64.5352C110.234 64.5352 110.566 64.6362 110.848 64.8257C111.13 65.0151 111.35 65.2843 111.48 65.5992C111.61 65.9142 111.644 66.2608 111.578 66.5951C111.512 66.9295 111.348 67.2366 111.108 67.4777C110.868 67.7187 110.563 67.8829 110.23 67.9494C109.897 68.0159 109.552 67.9818 109.239 67.8513C108.925 67.7209 108.657 67.4999 108.469 67.2165C108.28 66.933 108.18 66.5998 108.18 66.2588C108.184 65.803 108.366 65.3669 108.687 65.0445C109.007 64.7222 109.441 64.5392 109.895 64.5352Z" fill="#B69169"/>
<path d="M118.16 82.4023C116.501 82.4098 114.869 81.9835 113.425 81.1653C111.98 80.3471 110.772 79.1652 109.919 77.7358C109.759 77.4532 109.714 77.119 109.794 76.8037C109.874 76.4884 110.073 76.2168 110.349 76.0463C110.625 75.8757 110.956 75.8197 111.272 75.8899C111.588 75.9601 111.865 76.1512 112.043 76.4226C112.685 77.4741 113.584 78.3426 114.655 78.9452C115.726 79.5478 116.932 79.8642 118.16 79.8642C119.387 79.8642 120.594 79.5478 121.665 78.9452C122.736 78.3426 123.635 77.4741 124.276 76.4226C124.459 76.1599 124.734 75.9772 125.046 75.9121C125.358 75.8469 125.683 75.9042 125.954 76.0722C126.226 76.2402 126.423 76.5061 126.505 76.8155C126.587 77.1248 126.549 77.4541 126.397 77.7358C125.545 79.1649 124.338 80.3467 122.893 81.1649C121.449 81.9831 119.818 82.4095 118.16 82.4023Z" fill="#DCBC99"/>
<path d="M115.144 132.858L104.58 102.26L110.01 106.532C118.042 110.277 123.66 107.764 126.542 105.611L131.183 102.182L121.514 132.867C121.108 134.105 120.578 136.195 117.983 136.195C115.69 135.879 115.453 133.848 115.144 132.858Z" fill="#FF624E"/>
<path d="M117.787 109.664C111.218 109.664 105.242 105.882 102.254 99.8298L104.493 98.6953C107.079 103.895 112.185 107.157 117.818 107.157C120.526 107.139 123.177 106.378 125.486 104.956C127.795 103.534 129.673 101.506 130.918 99.0902L133.133 100.262C130.051 106.038 124.169 109.664 117.787 109.664Z" fill="#CF422F"/>
<path d="M99.0967 97.5005L103.189 96.9426L116.074 134.55C116.358 135.39 117.178 136.45 118.338 136.334C119.274 136.365 120.21 135.525 120.503 134.626L133.132 96.8486C133.132 96.8486 137.29 97.2216 137.321 97.2529C138.99 97.6227 139.417 99.1834 139.192 99.804L137.976 101.506C137.976 101.506 149.757 103.615 153.344 108.764C155.485 111.864 156.625 115.552 156.609 119.326V135.76C156.609 139.596 154.51 140.123 152.414 140.104L83.0209 140.323C80.8937 140.323 79.7178 139.718 79.1221 137.7V119.62C79.1221 115.643 80.4945 111.857 82.6716 108.535C86.034 103.417 98.5103 101.067 98.5103 101.067L97.7742 99.3464C97.3968 98.6632 98.345 97.6854 99.0967 97.5005Z" fill="white"/>
<path d="M149.663 123.143H146.232V119.695C146.232 119.363 146.101 119.044 145.867 118.809C145.633 118.574 145.316 118.442 144.985 118.442C144.654 118.442 144.337 118.574 144.103 118.809C143.869 119.044 143.737 119.363 143.737 119.695V123.143H140.306C139.975 123.143 139.658 123.275 139.424 123.51C139.19 123.745 139.059 124.064 139.059 124.396C139.059 124.729 139.19 125.048 139.424 125.283C139.658 125.518 139.975 125.65 140.306 125.65H143.737V129.097C143.737 129.43 143.869 129.749 144.103 129.984C144.337 130.219 144.654 130.351 144.985 130.351C145.316 130.351 145.633 130.219 145.867 129.984C146.101 129.749 146.232 129.43 146.232 129.097V125.65H149.663C149.994 125.65 150.312 125.518 150.546 125.283C150.78 125.048 150.911 124.729 150.911 124.396C150.911 124.064 150.78 123.745 150.546 123.51C150.312 123.275 149.994 123.143 149.663 123.143Z" fill="#CFD1E2"/>
<path d="M94.7681 127.216C94.4372 127.216 94.1199 127.084 93.8859 126.848C93.652 126.613 93.5205 126.295 93.5205 125.962V120.008C93.5205 119.675 93.652 119.356 93.8859 119.121C94.1199 118.886 94.4372 118.754 94.7681 118.754C95.099 118.754 95.4164 118.886 95.6504 119.121C95.8843 119.356 96.0158 119.675 96.0158 120.008V125.962C96.0158 126.295 95.8843 126.613 95.6504 126.848C95.4164 127.084 95.099 127.216 94.7681 127.216Z" fill="#CFD1E2"/>
<path d="M87.2818 123.143H101.942C102.272 123.143 102.59 123.275 102.824 123.51C103.058 123.745 103.189 124.064 103.189 124.396V132.858C103.189 133.19 103.058 133.509 102.824 133.744C102.59 133.979 102.272 134.112 101.942 134.112H87.2818C86.9509 134.112 86.6336 133.979 86.3996 133.744C86.1656 133.509 86.0342 133.19 86.0342 132.858V124.396C86.0342 124.064 86.1656 123.745 86.3996 123.51C86.6336 123.275 86.9509 123.143 87.2818 123.143Z" fill="#E2E4F1"/>
<path d="M101.942 135.365H87.2824C86.6206 135.365 85.9859 135.101 85.518 134.63C85.05 134.16 84.7871 133.523 84.7871 132.858V124.396C84.7871 123.731 85.05 123.093 85.518 122.623C85.9859 122.153 86.6206 121.889 87.2824 121.889H101.942C102.604 121.889 103.239 122.153 103.706 122.623C104.174 123.093 104.437 123.731 104.437 124.396V132.858C104.437 133.523 104.174 134.16 103.706 134.63C103.239 135.101 102.604 135.365 101.942 135.365ZM87.2824 124.396V132.858H101.942V124.396H87.2824Z" fill="#CFD1E2"/>
<path d="M145.185 101.968L140.113 100.579C140.217 99.9544 140.163 99.3134 139.957 98.7146C139.723 98.0252 139.293 97.42 138.719 96.9742C138.146 96.5285 137.455 96.2618 136.732 96.2074L133.161 95.894V95.9254C132.86 95.8624 132.546 95.9133 132.28 96.0683C132.014 96.2233 131.815 96.4715 131.72 96.7653L119.508 133.991C119.427 134.243 119.268 134.463 119.055 134.619C118.841 134.775 118.584 134.859 118.32 134.859C118.058 134.869 117.8 134.793 117.584 134.642C117.369 134.491 117.209 134.273 117.129 134.022L104.322 96.7496C104.216 96.4514 104.003 96.2034 103.725 96.0539C103.447 95.9045 103.124 95.8643 102.818 95.9411L99.9081 96.2827C99.2194 96.3577 98.5649 96.6233 98.0175 97.0499C97.4702 97.4765 97.0513 98.0474 96.8077 98.699C96.6108 99.2235 96.535 99.7861 96.5863 100.344L90.5446 101.99C86.936 102.967 83.7467 105.107 81.4667 108.083C79.1867 111.058 77.9423 114.704 77.9248 118.459V137.469C77.9339 138.464 78.3343 139.414 79.0387 140.112C79.743 140.81 80.6938 141.2 81.6833 141.196H154.03C155.017 141.196 155.964 140.804 156.665 140.107C157.366 139.409 157.764 138.461 157.773 137.469V118.443C157.755 114.692 156.515 111.05 154.241 108.075C151.968 105.099 148.787 102.954 145.185 101.968ZM99.1564 99.5451C99.2389 99.3287 99.3786 99.1389 99.5606 98.9964C99.7425 98.8539 99.9598 98.7641 100.189 98.7366L102.257 98.489L114.73 134.799C114.981 135.545 115.462 136.191 116.104 136.642C116.746 137.093 117.515 137.326 118.298 137.307H118.333C119.116 137.314 119.882 137.069 120.516 136.607C121.151 136.145 121.621 135.49 121.857 134.74L133.756 98.3856L136.479 98.6018C136.721 98.618 136.951 98.7068 137.141 98.8566C137.332 99.0064 137.473 99.2103 137.546 99.4417C137.627 99.6686 137.638 99.915 137.576 100.148C137.514 100.381 137.383 100.589 137.2 100.745L134.851 102.889C134.48 103.229 134.181 103.641 133.971 104.1C133.762 104.558 133.646 105.055 133.632 105.559C133.618 106.062 133.708 106.561 133.897 107.027C134.085 107.493 134.368 107.914 134.726 108.264L136.286 109.815C136.47 109.998 136.593 110.234 136.637 110.49C136.682 110.746 136.646 111.01 136.535 111.244L122.914 138.61H113.747L99.5619 111.41C99.4397 111.175 99.3951 110.907 99.4343 110.644C99.4735 110.382 99.5947 110.139 99.7802 109.95L101.471 108.273C102.16 107.6 102.557 106.68 102.575 105.714C102.593 104.748 102.231 103.814 101.567 103.115L99.3841 100.755C99.2379 100.594 99.1391 100.396 99.0989 100.183C99.0587 99.9688 99.0786 99.7481 99.1564 99.5451ZM80.4419 137.466V118.459C80.4615 115.249 81.5292 112.134 83.4811 109.592C85.4329 107.051 88.161 105.223 91.2464 104.39L97.6967 102.62L99.7927 104.885C99.9028 104.999 99.9894 105.134 100.047 105.282C100.106 105.429 100.134 105.587 100.131 105.746C100.128 105.905 100.094 106.061 100.031 106.207C99.9671 106.352 99.8757 106.484 99.7615 106.593L98.071 108.273C97.5064 108.827 97.1345 109.549 97.0103 110.332C96.8861 111.115 97.0164 111.917 97.3816 112.62L110.971 138.711H81.6833C81.5192 138.713 81.3563 138.682 81.2039 138.621C81.0516 138.56 80.9127 138.469 80.7954 138.353C80.6781 138.238 80.5845 138.101 80.5201 137.949C80.4557 137.797 80.4217 137.634 80.4201 137.469L80.4419 137.466ZM155.281 137.466C155.281 137.799 155.15 138.118 154.916 138.353C154.682 138.588 154.364 138.72 154.034 138.72H125.772L138.872 112.445C139.225 111.747 139.346 110.953 139.216 110.181C139.086 109.41 138.713 108.7 138.151 108.157L136.592 106.59C136.471 106.474 136.375 106.335 136.31 106.18C136.245 106.025 136.212 105.859 136.214 105.691C136.219 105.521 136.257 105.353 136.327 105.198C136.397 105.043 136.498 104.903 136.623 104.788L138.806 102.801L144.536 104.387C147.613 105.231 150.331 107.062 152.276 109.602C154.22 112.142 155.286 115.251 155.309 118.456L155.281 137.466Z" fill="#F0F0F0"/>
<path d="M93.0641 60.4649C95.5001 60.396 98.4446 61.3613 99.6797 58.5845V51.0066C99.6797 49.8909 99.7234 47.5247 103.167 49.38C104.202 49.9379 111.679 51.9311 116.504 51.2761C126.027 49.9818 125.512 50.1573 132.124 48.0293C132.748 49.0134 135.755 51.6428 136.123 53.94C136.404 55.6668 136.616 58.4874 136.616 58.4874C136.513 59.4276 137.633 60.6592 138.419 60.6592H143.072C143.072 60.8536 143.11 43.9081 143.016 43.5665C142.47 41.5169 140.284 38.5772 138.484 37.2264C137.168 36.0794 133.856 35.4965 132.196 34.9386C130.834 34.4823 129.544 33.8344 128.363 33.0144C128.363 33.0144 124.239 31.1935 116.972 32.1243C112.627 32.679 105.703 35.1235 105.703 35.1235C105.703 35.1235 99.8045 37.3518 96.2924 38.9345C94.5363 39.7085 91.4297 39.2729 91.1147 40.257C90.6406 41.7237 95.3317 44.6728 95.3317 44.6728L94.0685 46.4153C93.416 47.4551 93.068 48.6585 93.0641 49.8877V60.4649Z" fill="#F2B983"/>
<path d="M132.362 34.1363C130.893 32.8295 129.19 32.2058 127.527 31.8423C125.86 31.3672 124.139 31.104 122.406 31.0588C119.957 30.9021 118.513 31.0901 116.19 31.3722C110.706 32.0742 107.506 33.4092 102.528 35.4996C100.675 36.305 98.757 37.1136 96.9136 37.7937C95.4097 38.3544 93.8347 38.6994 92.235 38.8185C91.3554 38.9125 90.7285 38.9752 90.3199 39.5957C90.2102 39.763 90.139 39.9528 90.1115 40.1512C90.0839 40.3496 90.1008 40.5517 90.1608 40.7428C90.3823 41.426 91.5769 43.1622 93.8694 45.0238C92.8716 46.1286 92.316 47.5654 92.3099 49.0572V60.5715C92.3095 60.7255 92.3393 60.8781 92.3978 61.0205C92.4563 61.1629 92.5422 61.2923 92.6506 61.4012C92.759 61.5102 92.8878 61.5965 93.0295 61.6552C93.1712 61.714 93.3231 61.744 93.4764 61.7436H97.6279C98.6184 61.7503 99.5712 61.3622 100.277 60.6643C100.984 59.9664 101.386 59.0157 101.396 58.0204V49.706C101.555 49.8 101.742 49.8627 101.929 49.988C106.215 52.1818 110.182 52.4701 114.777 52.5297C119.817 52.6613 127.643 50.5333 131.797 49.3675C132.552 50.2356 133.934 51.9405 134.717 53.9275C135.153 55.1178 135.387 56.3731 135.409 57.6412C135.428 58.7181 135.86 59.746 136.616 60.5096C137.372 61.2732 138.393 61.7132 139.464 61.7373H143.207C143.513 61.7332 143.806 61.6085 144.022 61.3899C144.238 61.1713 144.36 60.8763 144.361 60.5684V46.8227C144.455 40.0564 139.084 34.5343 132.362 34.1363ZM98.9161 58.0518C98.9161 58.3842 98.7846 58.7031 98.5507 58.9382C98.3167 59.1733 97.9993 59.3054 97.6684 59.3054H94.8332V49.0854C94.8336 48.6118 94.9282 48.1429 95.1114 47.7065C95.2946 47.27 95.5627 46.8747 95.8999 46.5438C96.059 46.6347 96.1838 46.7287 96.3397 46.8227C96.9947 47.227 98.4108 48.1264 98.9161 48.4336V58.0518ZM139.555 59.3054C138.675 59.3054 138.048 58.4373 138.017 57.6005C137.994 56.0402 137.696 54.4963 137.137 53.0405C136.249 51.0006 135.028 49.1237 133.525 47.4871C132.88 46.8227 132.39 46.6629 131.76 46.8603C131.698 46.8917 126.208 48.4586 122.219 49.2359C118.638 49.9504 116.221 50.2293 112.169 49.9818C108.495 49.7624 106.414 49.38 103.061 47.788C101.651 47.1334 100.277 46.4011 98.9473 45.5942C98.0552 44.9987 95.9311 43.5383 95.9311 43.5383C95.0085 42.8388 94.157 42.0494 93.3891 41.1815C98.0459 40.6644 103.994 37.2578 108.401 35.7817C112.587 34.2899 117.515 33.309 122.188 33.5158C124.009 33.5942 125.07 33.6318 126.766 34.1175C129.386 34.7004 130.93 35.8914 132.424 38.1384L133.029 39.0974C133.397 39.7175 133.7 40.3738 133.934 41.0562C134.508 42.5856 136.807 41.8428 136.32 40.2507C135.925 39.1379 135.402 38.0755 134.761 37.0854C136.818 37.7411 138.615 39.0342 139.896 40.7794C141.177 42.5246 141.875 44.6324 141.891 46.8008V59.2615L139.555 59.3054Z" fill="#D89B61"/>
</g>
</g>
<defs>
<clipPath id="clip0_2497_19520">
<rect x="8.72266" y="8.8916" width="219.583" height="219.583" rx="25.5515" fill="white"/>
</clipPath>
<clipPath id="clip1_2497_19520">
<rect width="111" height="111" fill="white" transform="translate(62.9238 30)"/>
</clipPath>
</defs>
</svg>
