<svg width="16" height="16" viewBox="0 0 16 16" fill="none" xmlns="http://www.w3.org/2000/svg">
<path d="M15.7567 14.5734L11.8125 10.613C12.8266 9.44904 13.3822 7.98455 13.3822 6.45999C13.3822 2.89801 10.3806 0 6.69113 0C3.0017 0 0 2.89801 0 6.45999C0 10.022 3.0017 12.92 6.69113 12.92C8.07616 12.92 9.39608 12.5166 10.5246 11.751L14.4988 15.7416C14.6649 15.9082 14.8883 16 15.1278 16C15.3544 16 15.5694 15.9166 15.7326 15.7649C16.0794 15.4427 16.0904 14.9086 15.7567 14.5734ZM6.69113 1.68522C9.41817 1.68522 11.6367 3.82713 11.6367 6.45999C11.6367 9.09288 9.41817 11.2348 6.69113 11.2348C3.96406 11.2348 1.74551 9.09288 1.74551 6.45999C1.74551 3.82713 3.96406 1.68522 6.69113 1.68522Z" fill="#102A83"/>
</svg>
