<svg width="1142" height="510" viewBox="0 0 1142 510" fill="none" xmlns="http://www.w3.org/2000/svg">
<path d="M530.29 456.325C529.929 458.927 529.744 461.781 530.019 464.463C530.292 467.14 531.027 469.69 532.539 471.642C535.499 475.462 540.887 478.042 545.449 479.663C545.601 479.717 545.752 479.768 545.901 479.819C545.811 479.816 545.721 479.811 545.631 479.809C541.061 479.674 535.564 480.453 532.539 484.358C529.616 488.131 527.111 494.414 525.344 499.698C525.274 499.908 525.205 500.116 525.137 500.322C525.151 500.183 525.167 500.042 525.18 499.901C525.423 497.238 525.488 494.324 525.125 491.6C524.763 488.88 523.969 486.305 522.461 484.358C519.484 480.516 513.818 478.318 509.009 477.074C508.85 477.033 508.692 476.994 508.535 476.955C508.659 476.95 508.784 476.948 508.909 476.941C511.336 476.819 513.964 476.463 516.359 475.659C518.754 474.856 520.948 473.595 522.461 471.642C525.375 467.88 528.114 461.734 530.115 456.574C530.193 456.374 530.266 456.174 530.342 455.977C530.325 456.092 530.306 456.208 530.29 456.325Z" stroke="#557BD1"/>
<path d="M542.5 467.5H548" stroke="#557BD1"/>
<path d="M545.255 464.756L545.255 470.256" stroke="#557BD1"/>
<path d="M534 493.244H539.5" stroke="#557BD1"/>
<path d="M536.755 490.5L536.755 496" stroke="#557BD1"/>
<path d="M63.369 26.8595C61.5738 29.7002 59.8525 32.9277 58.7555 36.1969C57.6604 39.4605 57.1701 42.8183 57.9007 45.8904C59.3311 51.9041 64.2446 57.7557 68.7038 62.0534C68.8514 62.1956 69.0006 62.3342 69.1472 62.4732C69.045 62.4221 68.9431 62.3693 68.8398 62.3188C63.5866 59.749 56.7718 57.7534 51.185 60.7049C45.7878 63.5565 39.551 69.5532 34.7019 74.7758C34.5092 74.9833 34.3189 75.19 34.1306 75.395C34.2206 75.2394 34.3134 75.0843 34.403 74.9266C36.0931 71.9523 37.7079 68.5923 38.7242 65.2262C39.7384 61.867 40.1734 58.4474 39.4444 55.3827C38.0057 49.3352 32.5657 43.7823 27.6198 39.7935C27.4567 39.6619 27.2923 39.5336 27.13 39.4052C27.2773 39.4648 27.4244 39.5271 27.5735 39.5859C30.4648 40.7252 33.7147 41.698 36.9296 42.0269C40.1433 42.3557 43.3659 42.0444 46.1601 40.5682C51.542 37.7246 57.979 32.0117 63.0347 27.0575C63.2272 26.8689 63.4161 26.6798 63.6046 26.4934C63.5266 26.615 63.4467 26.7365 63.369 26.8595Z" stroke="#557BD1" stroke-width="1.27909"/>
<path d="M71.6924 46.3269L78.0998 49.2315" stroke="#557BD1" stroke-width="1.27909"/>
<path d="M76.3506 44.5833L73.446 50.9906" stroke="#557BD1" stroke-width="1.27909"/>
<path d="M48.1943 71.8286L54.6017 74.7332" stroke="#557BD1" stroke-width="1.27909"/>
<path d="M52.8525 70.085L49.948 76.4923" stroke="#557BD1" stroke-width="1.27909"/>
<path d="M1093.85 40.0608C1094.75 42.6729 1095.94 45.4362 1097.48 47.8197C1099.01 50.1991 1100.92 52.2383 1103.27 53.3463C1107.87 55.515 1114.15 55.3621 1119.2 54.7038C1119.37 54.6819 1119.53 54.6576 1119.7 54.6346C1119.61 54.6743 1119.53 54.7125 1119.44 54.7531C1115.09 56.8089 1110.31 60.1633 1109.34 65.2687C1108.4 70.2007 1109.05 77.2867 1109.92 83.084C1109.95 83.3142 1109.99 83.5424 1110.02 83.7685C1109.97 83.6311 1109.91 83.4922 1109.86 83.3539C1108.82 80.7407 1107.49 77.978 1105.84 75.5965C1104.21 73.22 1102.23 71.1848 1099.89 70.0795C1095.27 67.8983 1088.9 68.5416 1083.8 69.6713C1083.63 69.7086 1083.47 69.7479 1083.3 69.7863C1083.41 69.7222 1083.53 69.66 1083.65 69.5942C1085.86 68.3215 1088.16 66.7328 1090.02 64.836C1091.88 62.9401 1093.33 60.7103 1093.82 58.1571C1094.76 53.2389 1094.39 46.1696 1093.8 40.3774C1093.78 40.1535 1093.75 39.9319 1093.73 39.7119C1093.77 39.8276 1093.81 39.9445 1093.85 40.0608Z" stroke="#557BD1" stroke-width="1.05204"/>
<path d="M1110.63 44.7087L1115.79 42.0833" stroke="#557BD1" stroke-width="1.05204"/>
<path d="M1111.9 40.8208L1114.53 45.9771" stroke="#557BD1" stroke-width="1.05204"/>
<path d="M1114.95 72.9006L1120.11 70.2752" stroke="#557BD1" stroke-width="1.05204"/>
<path d="M1116.22 69.0127L1118.85 74.169" stroke="#557BD1" stroke-width="1.05204"/>
</svg>
