<svg width="234" height="235" viewBox="0 0 234 235" fill="none" xmlns="http://www.w3.org/2000/svg">
<rect x="0.0283203" y="15.4536" width="219.583" height="219.583" rx="25.5515" transform="rotate(-3.8212 0.0283203 15.4536)" fill="#54C095"/>
<g clip-path="url(#clip0_2497_19527)">
<rect x="7.10156" y="7.89307" width="219.583" height="219.583" rx="25.5515" fill="#94E0C2"/>
<path d="M55.2176 102.545C26.0004 87.6076 -12.2383 54.8195 2.1823 1.62867C15.3783 -47.0453 59.609 -62.6529 98.7996 -56.7483C142.318 -49.2768 179.462 -10.2483 165.372 41.7234C150.739 91.3165 99.1926 125.026 55.2176 102.545Z" fill="#E0EFE9"/>
<path d="M176.587 321.33C147.37 306.393 109.131 273.605 123.551 220.414C136.747 171.74 180.978 156.132 220.169 162.037C263.687 169.508 300.832 208.537 286.742 260.509C272.108 310.102 220.562 343.812 176.587 321.33Z" fill="#E0EFE9"/>
<path d="M98.3726 98.5322C94.3079 98.5322 87.1837 100.902 85.3682 101.638C85.3312 102.307 85.2909 124.51 85.2976 125.176C88.152 125.541 99.1156 127.455 109.841 132.857C114.141 135.026 121.89 134.065 127.266 132.73C132.339 131.465 160.836 121.157 163.993 119.925C167.143 118.251 167.574 114.061 166.397 111.494C164.951 108.325 161.656 106.923 159.397 107.518C159.263 107.485 138.966 114.855 138.966 114.855C138.159 115.156 136.992 115.239 138.663 114.048C143.458 110.915 140.24 104.49 137.678 103.626C135.093 102.327 133.059 102.809 130.171 102.809C130.171 102.809 120.085 102.94 119.308 102.742C115.411 102.063 103.715 98.5322 98.3726 98.5322Z" fill="#FFE0BF"/>
<path d="M167.647 111.45C166.911 109.453 165.408 107.828 163.469 106.933C161.53 106.037 159.314 105.944 157.306 106.674L141.622 112.387C142.002 111.442 142.194 110.433 142.19 109.415C142.19 107.285 141.34 105.242 139.827 103.735C138.314 102.229 136.261 101.383 134.121 101.383C134.121 101.383 120.283 101.383 120.182 101.349C119.11 101.152 109.572 99.4483 105.137 98.0761C96.0023 95.2381 85.3009 100.449 84.8202 100.65C84.6617 100.729 84.5203 100.838 84.4042 100.971C84.2881 101.104 84.1995 101.259 84.1435 101.427C84.0874 101.594 84.0651 101.771 84.0776 101.947C84.0902 102.122 84.1374 102.294 84.2167 102.452C84.2959 102.61 84.4056 102.751 84.5395 102.866C84.6734 102.982 84.8288 103.07 84.9969 103.126C85.165 103.181 85.3426 103.204 85.5193 103.191C85.6961 103.179 85.8686 103.132 86.0271 103.053C86.128 103.019 96.204 98.1096 104.333 100.616C108.832 102.019 117.933 103.655 119.715 103.963C119.95 103.997 134.121 104.03 134.121 104.03C134.856 103.982 135.593 104.084 136.286 104.33C136.98 104.577 137.615 104.963 138.153 105.464C138.69 105.965 139.119 106.57 139.412 107.242C139.705 107.915 139.856 108.64 139.856 109.373C139.856 110.106 139.705 110.831 139.412 111.504C139.119 112.176 138.69 112.782 138.153 113.283C137.615 113.784 136.98 114.169 136.286 114.416C135.593 114.663 134.856 114.765 134.121 114.716H112.302C111.945 114.716 111.603 114.857 111.351 115.108C111.098 115.36 110.957 115.7 110.957 116.055C110.957 116.41 111.098 116.751 111.351 117.002C111.603 117.253 111.945 117.394 112.302 117.394H134.131C135.144 117.396 136.148 117.203 137.086 116.825L158.21 109.127C158.87 108.88 159.572 108.768 160.276 108.796C160.981 108.825 161.672 108.995 162.309 109.295C163.272 109.737 164.081 110.454 164.634 111.355C165.188 112.256 165.46 113.3 165.417 114.355C165.374 115.41 165.017 116.429 164.392 117.282C163.767 118.135 162.901 118.784 161.905 119.147L132.854 129.767C132.252 130.001 117.54 135.681 108.573 130.771C98.6987 125.359 86.3835 123.957 85.8691 123.923C85.6811 123.878 85.4854 123.874 85.2954 123.91C85.1055 123.947 84.9257 124.024 84.7685 124.137C84.6112 124.249 84.4802 124.393 84.3843 124.561C84.2883 124.728 84.2298 124.914 84.2127 125.106C84.1956 125.298 84.2202 125.491 84.285 125.673C84.3498 125.854 84.4532 126.02 84.5881 126.158C84.723 126.296 84.8863 126.403 85.0668 126.473C85.2472 126.542 85.4406 126.572 85.6338 126.561C85.7346 126.561 97.8952 127.929 107.265 133.073C110.086 134.61 113.579 135.416 117.64 135.416C119.813 135.397 121.98 135.206 124.122 134.847C127.438 134.287 130.692 133.409 133.839 132.227L162.857 121.638C163.846 121.286 164.757 120.743 165.534 120.04C166.312 119.336 166.942 118.486 167.388 117.539C167.833 116.591 168.086 115.565 168.13 114.52C168.175 113.475 168.011 112.432 167.647 111.45Z" fill="#F2D0AC"/>
<path d="M66.7328 100.847C66.7219 100.191 66.9722 99.5575 67.4288 99.0847C67.8855 98.6119 68.5115 98.3382 69.1702 98.3232H82.8706C83.5287 98.3391 84.1538 98.6132 84.6098 99.0859C85.0657 99.5585 85.3155 100.191 85.3047 100.847V126.409C85.3164 127.065 85.067 127.699 84.611 128.172C84.1549 128.646 83.5293 128.92 82.8706 128.936H69.1702C68.5112 128.92 67.8852 128.646 67.4286 128.173C66.9721 127.699 66.7219 127.066 66.7328 126.409V100.847Z" fill="#E2E4F1"/>
<path d="M83.7446 130.045H68.6154C67.9021 130.045 67.218 129.763 66.7136 129.261C66.2092 128.759 65.9258 128.078 65.9258 127.367V100.258C65.9258 99.5484 66.2092 98.8674 66.7136 98.3653C67.218 97.8631 67.9021 97.5811 68.6154 97.5811H83.7446C84.4579 97.5811 85.1421 97.8631 85.6465 98.3653C86.1509 98.8674 86.4342 99.5484 86.4342 100.258V127.367C86.4342 128.078 86.1509 128.759 85.6465 129.261C85.1421 129.763 84.4579 130.045 83.7446 130.045ZM68.6154 100.258V127.367H83.7446V100.258H68.6154Z" fill="#CFD1E2"/>
<path d="M116.777 84.0237C130.467 84.0237 141.566 73.0462 141.566 59.5118C141.566 45.9774 130.477 34.9966 116.777 34.9966C103.077 34.9966 91.9922 45.974 91.9922 59.5118C91.9922 73.0495 103.087 84.0237 116.777 84.0237Z" fill="white"/>
<path d="M116.861 84.8633C102.673 84.8633 91.1416 73.4575 91.1416 59.4278C91.1416 45.398 102.673 33.9922 116.861 33.9922C131.049 33.9922 142.581 45.398 142.581 59.4278C142.581 73.4575 131.049 84.8633 116.861 84.8633ZM116.861 36.6696C104.153 36.6696 93.8312 46.8606 93.8312 59.4278C93.8312 71.9949 104.153 82.2026 116.861 82.2026C129.57 82.2026 139.891 71.9949 139.891 59.4278C139.891 46.8606 129.57 36.6696 116.861 36.6696Z" fill="#F0F0F0"/>
<path fill-rule="evenodd" clip-rule="evenodd" d="M116.861 46.0415C115.941 46.0415 115.058 46.4054 114.408 47.0531C113.757 47.7009 113.391 48.5794 113.391 49.4954V55.8074H107.051C106.13 55.8074 105.248 56.1713 104.597 56.819C103.947 57.4668 103.581 58.3453 103.581 59.2613C103.581 60.1773 103.947 61.0558 104.597 61.7036C105.248 62.3513 106.13 62.7152 107.051 62.7152H113.391V69.0272C113.391 69.9433 113.757 70.8218 114.408 71.4695C115.058 72.1172 115.941 72.4811 116.861 72.4811C117.781 72.4811 118.664 72.1172 119.315 71.4695C119.965 70.8218 120.331 69.9433 120.331 69.0272V62.7152H126.672C127.592 62.7152 128.474 62.3513 129.125 61.7036C129.776 61.0558 130.141 60.1773 130.141 59.2613C130.141 58.3453 129.776 57.4668 129.125 56.819C128.474 56.1713 127.592 55.8074 126.672 55.8074H120.331V49.4954C120.331 48.5794 119.965 47.7009 119.315 47.0531C118.664 46.4054 117.781 46.0415 116.861 46.0415Z" fill="#FF624E"/>
<path d="M126.641 53.5918H122.556V49.5255C122.556 47.9801 121.94 46.4981 120.842 45.4053C119.744 44.3126 118.255 43.6987 116.703 43.6987C115.151 43.6987 113.662 44.3126 112.564 45.4053C111.466 46.4981 110.85 47.9801 110.85 49.5255V53.5918H107.081C105.528 53.5918 104.04 54.2057 102.942 55.2984C101.844 56.3912 101.228 57.8732 101.228 59.4186C101.228 60.9639 101.844 62.446 102.942 63.5387C104.04 64.6314 105.528 65.2453 107.081 65.2453H110.85V68.9971C110.85 70.5424 111.466 72.0245 112.564 73.1172C113.662 74.2099 115.151 74.8238 116.703 74.8238C118.255 74.8238 119.744 74.2099 120.842 73.1172C121.94 72.0245 122.556 70.5424 122.556 68.9971V65.2453H126.641C128.194 65.2453 129.682 64.6314 130.78 63.5387C131.878 62.446 132.495 60.9639 132.495 59.4186C132.495 57.8732 131.878 56.3912 130.78 55.2984C129.682 54.2057 128.194 53.5918 126.641 53.5918ZM126.641 61.6241H120.727C120.246 61.6259 119.786 61.8169 119.446 62.1554C119.105 62.4939 118.914 62.9526 118.912 63.4314V68.987C118.89 69.5593 118.645 70.1007 118.231 70.4977C117.816 70.8948 117.263 71.1165 116.688 71.1165C116.113 71.1165 115.56 70.8948 115.145 70.4977C114.73 70.1007 114.486 69.5593 114.464 68.987V63.3946C114.462 62.9158 114.27 62.4571 113.93 62.1186C113.59 61.78 113.129 61.5891 112.648 61.5873H107.067C106.493 61.565 105.949 61.3221 105.55 60.9093C105.151 60.4966 104.928 59.9461 104.928 59.3734C104.928 58.8007 105.151 58.2502 105.55 57.8375C105.949 57.4247 106.493 57.1818 107.067 57.1595H112.658C113.139 57.1577 113.6 56.9668 113.94 56.6282C114.28 56.2897 114.472 55.831 114.474 55.3522V49.482C114.462 49.184 114.511 48.8868 114.618 48.608C114.724 48.3293 114.886 48.0749 115.094 47.86C115.302 47.6451 115.551 47.4741 115.826 47.3573C116.102 47.2405 116.398 47.1803 116.698 47.1803C116.998 47.1803 117.294 47.2405 117.57 47.3573C117.845 47.4741 118.094 47.6451 118.302 47.86C118.51 48.0749 118.672 48.3293 118.778 48.608C118.885 48.8868 118.934 49.184 118.922 49.482V55.3522C118.924 55.831 119.116 56.2897 119.456 56.6282C119.796 56.9668 120.257 57.1577 120.737 57.1595H126.638C127.219 57.1819 127.769 57.4274 128.172 57.8445C128.575 58.2617 128.8 58.818 128.8 59.3968C128.8 59.9757 128.575 60.532 128.172 60.9491C127.769 61.3663 127.219 61.6118 126.638 61.6342L126.641 61.6241Z" fill="#CF422F"/>
</g>
<defs>
<clipPath id="clip0_2497_19527">
<rect x="7.10156" y="7.89307" width="219.583" height="219.583" rx="25.5515" fill="white"/>
</clipPath>
</defs>
</svg>
