<svg width="240" height="240" viewBox="0 0 240 240" fill="none" xmlns="http://www.w3.org/2000/svg">
<rect x="0.121094" y="20.7671" width="219.583" height="219.583" rx="25.5515" transform="rotate(-5.42691 0.121094 20.7671)" fill="#5092E0"/>
<g clip-path="url(#clip0_2497_19544)">
<rect x="9.92285" y="9.89062" width="219.583" height="219.583" rx="25.5515" fill="#84B9F7"/>
<path d="M170.624 222.718C141.407 207.781 103.168 174.993 117.589 121.802C130.785 73.1285 175.015 57.5209 214.206 63.4255C257.724 70.897 294.869 109.926 280.779 161.897C266.145 211.49 214.599 245.2 170.624 222.718Z" fill="#AEDDFF"/>
<path d="M83.6741 46.3365C83.6627 45.4441 84.0046 44.5833 84.6253 43.9419C85.2459 43.3005 86.095 42.9305 86.9874 42.9126H151.069C151.962 42.9298 152.811 43.2995 153.432 43.9411C154.053 44.5826 154.394 45.4438 154.382 46.3365V78.0199H83.6741V46.3365Z" fill="white"/>
<path d="M151.949 41.9922H86.1375C85.2347 41.9922 84.3688 42.3508 83.7304 42.9892C83.092 43.6276 82.7334 44.4934 82.7334 45.3963V78.0186H85.0028V45.3963C85.0028 45.0953 85.1223 44.8067 85.3351 44.5939C85.5479 44.3811 85.8365 44.2616 86.1375 44.2616H151.949C152.25 44.2616 152.539 44.3811 152.752 44.5939C152.965 44.8067 153.084 45.0953 153.084 45.3963V78.0186H155.354V45.3963C155.354 44.4934 154.995 43.6276 154.356 42.9892C153.718 42.3508 152.852 41.9922 151.949 41.9922Z" fill="#F0F0F0"/>
<path d="M144.29 51.9204H93.5126C93.2117 51.9204 92.9231 52.04 92.7103 52.2528C92.4975 52.4655 92.3779 52.7542 92.3779 53.0551C92.3779 53.356 92.4975 53.6447 92.7103 53.8574C92.9231 54.0702 93.2117 54.1898 93.5126 54.1898H144.29C144.591 54.1898 144.88 54.0702 145.092 53.8574C145.305 53.6447 145.425 53.356 145.425 53.0551C145.425 52.7542 145.305 52.4655 145.092 52.2528C144.88 52.04 144.591 51.9204 144.29 51.9204Z" fill="#F0F0F0"/>
<path d="M144.29 59.8647H93.5126C93.2117 59.8647 92.9231 59.9843 92.7103 60.1971C92.4975 60.4099 92.3779 60.6985 92.3779 60.9994C92.3779 61.3004 92.4975 61.589 92.7103 61.8018C92.9231 62.0146 93.2117 62.1341 93.5126 62.1341H144.29C144.591 62.1341 144.88 62.0146 145.092 61.8018C145.305 61.589 145.425 61.3004 145.425 60.9994C145.425 60.6985 145.305 60.4099 145.092 60.1971C144.88 59.9843 144.591 59.8647 144.29 59.8647Z" fill="#F0F0F0"/>
<path d="M144.29 67.8057H117.625C117.324 67.8057 117.035 67.9252 116.823 68.138C116.61 68.3508 116.49 68.6394 116.49 68.9404C116.49 69.2413 116.61 69.5299 116.823 69.7427C117.035 69.9555 117.324 70.075 117.625 70.075H144.29C144.591 70.075 144.88 69.9555 145.092 69.7427C145.305 69.5299 145.425 69.2413 145.425 68.9404C145.425 68.6394 145.305 68.3508 145.092 68.138C144.88 67.9252 144.591 67.8057 144.29 67.8057Z" fill="#F0F0F0"/>
<path d="M77.0596 124.859L77.2014 72.0623C77.2014 71.4605 77.4405 70.8832 77.8661 70.4577C78.2917 70.0321 78.8689 69.793 79.4708 69.793H105.994C106.441 69.7937 106.878 69.9256 107.25 70.1721C107.623 70.4187 107.915 70.7692 108.09 71.1801L110.045 76.4735C110.211 76.8855 110.496 77.2382 110.865 77.4856C111.234 77.7329 111.669 77.8636 112.113 77.8606L159.038 78.1159C159.64 78.1159 160.217 78.355 160.643 78.7806C161.068 79.2062 161.307 79.7834 161.307 80.3853L161.055 125.109C161.055 125.711 160.816 126.288 160.39 126.714C159.965 127.139 159.387 127.378 158.786 127.378L79.3289 127.123C78.7281 127.123 78.1517 126.885 77.7263 126.46C77.3008 126.036 77.0611 125.46 77.0596 124.859Z" fill="#E2E4F1"/>
<path d="M158.473 76.8837H112.178C111.952 76.8833 111.732 76.8156 111.545 76.6892C111.358 76.5629 111.213 76.3837 111.129 76.1745L108.888 70.7564C108.629 70.1342 108.192 69.6026 107.632 69.2289C107.071 68.8553 106.412 68.6563 105.739 68.6572H79.3289C78.4261 68.6572 77.5602 69.0159 76.9218 69.6543C76.2834 70.2926 75.9248 71.1585 75.9248 72.0613V124.824C75.9248 125.727 76.2834 126.593 76.9218 127.231C77.5602 127.87 78.4261 128.228 79.3289 128.228H158.757C159.66 128.228 160.526 127.87 161.164 127.231C161.803 126.593 162.161 125.727 162.161 124.824V80.5715C162.161 79.5934 161.773 78.6554 161.081 77.9638C160.389 77.2723 159.451 76.8837 158.473 76.8837ZM159.892 124.824C159.892 125.125 159.772 125.414 159.559 125.627C159.347 125.84 159.058 125.959 158.757 125.959H79.3289C79.0279 125.959 78.7393 125.84 78.5265 125.627C78.3137 125.414 78.1942 125.125 78.1942 124.824V72.0613C78.1942 71.7604 78.3137 71.4717 78.5265 71.259C78.7393 71.0462 79.0279 70.9266 79.3289 70.9266H105.767C105.993 70.9271 106.213 70.9948 106.4 71.1211C106.587 71.2474 106.732 71.4266 106.817 71.6358L109.058 77.0539C109.316 77.6761 109.753 78.2077 110.314 78.5814C110.874 78.9551 111.533 79.154 112.206 79.1531H158.473C158.85 79.1531 159.21 79.3025 159.476 79.5685C159.742 79.8345 159.892 80.1953 159.892 80.5715V124.824Z" fill="#CFD1E2"/>
<path d="M118.935 121.04C122.598 121.04 126.178 119.954 129.223 117.919C132.269 115.884 134.642 112.992 136.044 109.608C137.445 106.224 137.812 102.501 137.097 98.9088C136.383 95.3167 134.619 92.0171 132.029 89.4273C129.44 86.8375 126.14 85.0738 122.548 84.3592C118.956 83.6447 115.232 84.0114 111.849 85.413C108.465 86.8146 105.573 89.1881 103.538 92.2334C101.503 95.2787 100.417 98.859 100.417 102.522C100.417 107.433 102.368 112.143 105.841 115.616C109.314 119.089 114.024 121.04 118.935 121.04Z" fill="white"/>
<path d="M118.935 121.952C115.092 121.952 111.335 120.813 108.14 118.678C104.944 116.542 102.454 113.508 100.983 109.957C99.5123 106.406 99.1275 102.499 99.8773 98.73C100.627 94.9607 102.478 91.4983 105.195 88.7807C107.913 86.0632 111.375 84.2125 115.145 83.4627C118.914 82.713 122.821 83.0978 126.372 84.5685C129.922 86.0392 132.957 88.5298 135.092 91.7253C137.227 94.9208 138.367 98.6777 138.367 102.521C138.364 107.674 136.316 112.614 132.672 116.258C129.029 119.901 124.088 121.949 118.935 121.952ZM118.935 85.3587C115.541 85.3587 112.223 86.3653 109.401 88.2511C106.578 90.1369 104.379 92.8173 103.08 95.9532C101.781 99.0892 101.441 102.54 102.103 105.869C102.765 109.198 104.4 112.256 106.8 114.656C109.2 117.057 112.258 118.691 115.587 119.353C118.916 120.016 122.367 119.676 125.503 118.377C128.639 117.078 131.319 114.878 133.205 112.056C135.091 109.233 136.098 105.915 136.098 102.521C136.096 97.9697 134.288 93.6053 131.069 90.3871C127.851 87.1689 123.487 85.3602 118.935 85.3587Z" fill="#F0F0F0"/>
<path fill-rule="evenodd" clip-rule="evenodd" d="M115.354 94.7561V99.2949H111.099C110.197 99.2949 109.331 99.6535 108.692 100.292C108.054 100.93 107.695 101.796 107.695 102.699C107.695 103.602 108.054 104.468 108.692 105.106C109.331 105.744 110.197 106.103 111.099 106.103H115.354V110.642C115.354 111.545 115.713 112.41 116.351 113.049C116.99 113.687 117.856 114.046 118.759 114.046C119.661 114.046 120.527 113.687 121.166 113.049C121.804 112.41 122.163 111.545 122.163 110.642V106.103H126.701C127.604 106.103 128.47 105.744 129.108 105.106C129.747 104.468 130.105 103.602 130.105 102.699C130.105 101.796 129.747 100.93 129.108 100.292C128.47 99.6535 127.604 99.2949 126.701 99.2949H122.163V94.7561C122.163 93.8533 121.804 92.9875 121.166 92.3491C120.527 91.7107 119.661 91.3521 118.759 91.3521C117.856 91.3521 116.99 91.7107 116.351 92.3491C115.713 92.9875 115.354 93.8533 115.354 94.7561Z" fill="#FF624E"/>
<path d="M126.841 98.2832H123.174V94.6153C123.195 94.0246 123.097 93.4357 122.885 92.8837C122.674 92.3318 122.354 91.828 121.943 91.4026C121.533 90.9772 121.041 90.6389 120.497 90.4078C119.953 90.1767 119.368 90.0576 118.777 90.0576C118.186 90.0576 117.601 90.1767 117.057 90.4078C116.513 90.6389 116.021 90.9772 115.61 91.4026C115.2 91.828 114.879 92.3318 114.668 92.8837C114.457 93.4357 114.359 94.0246 114.38 94.6153V98.2832H110.976C110.385 98.262 109.796 98.36 109.244 98.5714C108.692 98.7828 108.188 99.1033 107.763 99.5137C107.338 99.9241 106.999 100.416 106.768 100.96C106.537 101.504 106.418 102.089 106.418 102.68C106.418 103.271 106.537 103.856 106.768 104.4C106.999 104.944 107.338 105.436 107.763 105.847C108.188 106.257 108.692 106.577 109.244 106.789C109.796 107 110.385 107.098 110.976 107.077H114.38V110.481C114.359 111.072 114.457 111.661 114.668 112.213C114.879 112.765 115.2 113.268 115.61 113.694C116.021 114.119 116.513 114.458 117.057 114.689C117.601 114.92 118.186 115.039 118.777 115.039C119.368 115.039 119.953 114.92 120.497 114.689C121.041 114.458 121.533 114.119 121.943 113.694C122.354 113.268 122.674 112.765 122.885 112.213C123.097 111.661 123.195 111.072 123.174 110.481V107.077H126.841C127.98 107.036 129.059 106.555 129.85 105.735C130.641 104.915 131.083 103.82 131.083 102.68C131.083 101.541 130.641 100.446 129.85 99.6254C129.059 98.8053 127.98 98.3241 126.841 98.2832ZM126.841 104.825H122.047C121.746 104.825 121.458 104.944 121.245 105.157C121.032 105.37 120.913 105.658 120.913 105.959V110.498C120.923 110.786 120.876 111.073 120.773 111.342C120.67 111.612 120.513 111.857 120.313 112.065C120.113 112.272 119.874 112.437 119.608 112.55C119.343 112.663 119.058 112.721 118.77 112.721C118.481 112.721 118.196 112.663 117.931 112.55C117.666 112.437 117.426 112.272 117.226 112.065C117.026 111.857 116.87 111.612 116.767 111.342C116.664 111.073 116.616 110.786 116.626 110.498V105.982C116.626 105.681 116.507 105.393 116.294 105.18C116.081 104.967 115.793 104.847 115.492 104.847H110.953C110.665 104.858 110.378 104.81 110.109 104.707C109.84 104.604 109.594 104.448 109.386 104.248C109.179 104.048 109.014 103.808 108.901 103.543C108.789 103.278 108.73 102.992 108.73 102.704C108.73 102.416 108.789 102.131 108.901 101.866C109.014 101.6 109.179 101.361 109.386 101.161C109.594 100.96 109.84 100.804 110.109 100.701C110.378 100.598 110.665 100.551 110.953 100.561H115.492C115.793 100.561 116.081 100.442 116.294 100.229C116.507 100.016 116.626 99.7274 116.626 99.4264V94.6324C116.616 94.3444 116.664 94.0572 116.767 93.788C116.87 93.5189 117.026 93.2732 117.226 93.0658C117.426 92.8583 117.666 92.6933 117.931 92.5806C118.196 92.4679 118.481 92.4098 118.77 92.4098C119.058 92.4098 119.343 92.4679 119.608 92.5806C119.874 92.6933 120.113 92.8583 120.313 93.0658C120.513 93.2732 120.67 93.5189 120.773 93.788C120.876 94.0572 120.923 94.3444 120.913 94.6324V99.4264C120.913 99.7274 121.032 100.016 121.245 100.229C121.458 100.442 121.746 100.561 122.047 100.561H126.841C127.123 100.561 127.402 100.616 127.663 100.724C127.923 100.831 128.16 100.989 128.359 101.188C128.558 101.388 128.716 101.624 128.824 101.885C128.931 102.145 128.986 102.424 128.986 102.706C128.986 102.986 128.93 103.264 128.822 103.523C128.714 103.781 128.556 104.016 128.356 104.213C128.157 104.41 127.92 104.566 127.66 104.671C127.4 104.776 127.122 104.828 126.841 104.825Z" fill="#CF422F"/>
</g>
<defs>
<clipPath id="clip0_2497_19544">
<rect x="9.92285" y="9.89062" width="219.583" height="219.583" rx="25.5515" fill="white"/>
</clipPath>
</defs>
</svg>
