<svg width="100" height="84" viewBox="0 0 100 84" fill="none" xmlns="http://www.w3.org/2000/svg">
<path d="M17.51 53.1105L5.79292 22.2141L21.8678 17.5999L28.2503 50.0277L17.51 53.1105ZM28.3057 70.3366C25.9347 71.0172 23.7796 70.8402 21.8403 69.8058C19.9009 68.7714 18.6386 67.2347 18.0534 65.1957C17.4545 63.1093 17.7164 61.1607 18.839 59.35C19.9481 57.4919 21.6881 56.2226 24.059 55.542C26.43 54.8615 28.5546 55.0215 30.4329 56.0221C32.345 56.9617 33.6005 58.4747 34.1994 60.5612C34.7846 62.6001 34.5296 64.5724 33.4341 66.4779C32.3861 68.3699 30.6766 69.6561 28.3057 70.3366Z" fill="#102A83"/>
<path d="M40.6669 53.0302L38.0574 20.0898L54.7812 20.155L51.8409 53.0738L40.6669 53.0302ZM46.2147 72.588C43.7481 72.5784 41.7284 71.8058 40.1557 70.2703C38.583 68.7349 37.8008 66.9065 37.8091 64.7852C37.8176 62.6145 38.6139 60.8169 40.1981 59.3924C41.7826 57.9186 43.8081 57.1865 46.2747 57.1961C48.7414 57.2057 50.7365 57.9535 52.26 59.4395C53.8331 60.8763 54.6154 62.68 54.607 64.8507C54.5987 66.972 53.8022 68.7942 52.2176 70.3174C50.6823 71.8407 48.6814 72.5976 46.2147 72.588Z" fill="#88B059"/>
<path d="M66.7098 43.7027L76.9694 12.2922L92.3819 18.7842L77.0075 48.0403L66.7098 43.7027ZM64.3091 63.8899C62.0359 62.9324 60.4687 61.4425 59.6075 59.4203C58.7463 57.3981 58.7274 55.4095 59.5509 53.4545C60.3935 51.454 61.8199 50.101 63.8302 49.3953C65.8595 48.6442 68.0109 48.7474 70.2841 49.7049C72.5573 50.6624 74.1114 52.12 74.9463 54.0776C75.8458 56.0089 75.8742 57.9748 75.0316 59.9752C74.2081 61.9302 72.7721 63.306 70.7236 64.1026C68.7205 64.9183 66.5824 64.8474 64.3091 63.8899Z" fill="#102A83"/>
</svg>
