<svg width="32" height="32" viewBox="0 0 32 32" fill="none" xmlns="http://www.w3.org/2000/svg">
<rect width="32" height="32" rx="16" fill="#E78EA0"/>
<path d="M15.4321 22.5428C14.9241 22.5428 14.5074 22.3791 14.1818 22.0517C13.8301 21.7243 13.6543 21.3249 13.6543 20.8534C13.6543 20.3688 13.8236 19.9629 14.1622 19.6355C14.5139 19.3081 14.9372 19.1444 15.4321 19.1444C15.927 19.1444 16.3438 19.3081 16.6824 19.6355C17.034 19.9629 17.2099 20.3688 17.2099 20.8534C17.2099 21.3118 17.0405 21.7112 16.7019 22.0517C16.3503 22.3791 15.927 22.5428 15.4321 22.5428ZM13.8692 8.32056H17.034L16.6042 17.9854H14.299L13.8692 8.32056Z" fill="white"/>
</svg>
