<svg width="25" height="24" viewBox="0 0 25 24" fill="none" xmlns="http://www.w3.org/2000/svg">
<path d="M19.8347 15.6641H19.1014C18.9367 15.6639 18.792 15.7737 18.748 15.9325L16.9148 22.532C16.8886 22.626 16.901 22.7263 16.9493 22.8111C16.9974 22.8959 17.0773 22.9579 17.1714 22.9836C17.2029 22.9921 17.2354 22.9967 17.2682 22.9969C17.4328 22.9969 17.5772 22.887 17.6212 22.7284L19.38 16.3975H19.8347C20.6123 16.3983 21.3579 16.7077 21.9077 17.2576C22.4577 17.8074 22.767 18.553 22.7678 19.3306V22.6304C22.7678 22.8328 22.932 22.997 23.1344 22.997C23.3369 22.997 23.5011 22.8328 23.5011 22.6304V19.3306C23.4999 18.3585 23.1133 17.4266 22.4261 16.7393C21.7388 16.0519 20.8068 15.6654 19.8347 15.6642L19.8347 15.6641Z" fill="currentColor"/>
<path d="M18.0019 16.0324V15.0087C19.0445 14.3289 19.7148 13.206 19.8182 11.9656C20.2358 11.8841 20.6119 11.66 20.8824 11.3317C21.153 11.0035 21.3011 10.5915 21.3016 10.1661V9.28799C21.3016 8.39398 21.0473 7.51832 20.5683 6.76342V3.92768L21.7782 3.54974C21.931 3.50179 22.0349 3.36004 22.0349 3.19996C22.0349 3.03988 21.931 2.89814 21.7782 2.85018L18.9404 1.9632C18.7472 1.90248 18.5415 2.00985 18.4806 2.20299C18.4199 2.3963 18.5272 2.60204 18.7204 2.66278L20.4389 3.19996L15.802 4.64884L11.1652 3.19996L15.802 1.75108L17.3203 2.22558V2.22541C17.5134 2.28614 17.7193 2.17877 17.7801 1.98562C17.8408 1.79248 17.7334 1.58658 17.5403 1.52584L15.912 1.01694C15.8405 0.994353 15.7636 0.994353 15.692 1.01694L9.82579 2.85014C9.67308 2.8981 9.56914 3.03984 9.56914 3.19992C9.56914 3.36 9.67308 3.50174 9.82579 3.54971L11.0357 3.92764V6.76338C10.5568 7.51828 10.3024 8.39394 10.3024 9.28796V10.1661C10.3036 10.591 10.452 11.0023 10.7226 11.3298C10.993 11.6575 11.3688 11.8811 11.7858 11.9626C11.8885 13.204 12.5589 14.3283 13.6022 15.0087V15.6657H11.769C10.4946 15.6616 9.31069 16.3242 8.64781 17.4128C8.55582 17.5837 8.61311 17.7968 8.77842 17.8986C8.94374 18.0002 9.1598 17.9555 9.2711 17.7966C9.80175 16.9257 10.7491 16.3955 11.769 16.399H12.2237L13.9836 22.7299C14.0274 22.8882 14.1713 22.9979 14.3355 22.9983C14.3689 22.9983 14.4019 22.9938 14.4342 22.9851C14.5281 22.9594 14.608 22.8974 14.6563 22.8126C14.7044 22.7278 14.7169 22.6274 14.6908 22.5335L12.9848 16.3987H13.8171L15.5429 18.1245H15.5428C15.686 18.2676 15.9181 18.2676 16.0613 18.1245L17.8945 16.2913C17.9633 16.2226 18.0019 16.1293 18.0019 16.032L18.0019 16.0324ZM18.5016 10.1117C18.297 9.78872 17.9739 9.55893 17.6017 9.47169C17.2293 9.38461 16.8378 9.44681 16.5111 9.64535C16.1842 9.84373 15.9483 10.1624 15.8541 10.533H15.75C15.6557 10.1624 15.4198 9.84376 15.0929 9.64535C14.7662 9.44681 14.3747 9.38461 14.0024 9.47169C13.6302 9.55893 13.3071 9.78873 13.1024 10.1117L12.5022 9.31096V9.2882C12.5009 8.65737 12.7838 8.05965 13.2722 7.66041C13.9466 7.98351 14.6454 8.25323 15.362 8.46701C15.5544 8.52004 15.7537 8.40956 15.8108 8.21839C15.868 8.02721 15.7617 7.82556 15.5717 7.76451C15.0758 7.61556 14.5888 7.43813 14.1133 7.23319H19.9972C20.3427 7.80838 20.5371 8.46158 20.5625 9.13201C20.4468 9.08995 20.3248 9.06768 20.2017 9.06638H19.8351V8.69974C19.8256 8.49334 19.6546 8.33129 19.448 8.3331C18.6145 8.33162 17.7831 8.25339 16.964 8.0992C16.8683 8.08136 16.7696 8.10215 16.6892 8.15714C16.609 8.2123 16.5539 8.29692 16.536 8.39251C16.4989 8.59171 16.6303 8.78321 16.8293 8.82037C17.5795 8.96114 18.3396 9.04183 19.1025 9.06163V9.31091L18.5016 10.1117ZM18.0019 10.8996C18.0019 11.0941 17.9246 11.2807 17.7871 11.4181C17.6496 11.5556 17.463 11.6329 17.2686 11.6329C17.0741 11.6329 16.8875 11.5556 16.75 11.4181C16.6126 11.2807 16.5353 11.0941 16.5353 10.8996C16.5353 10.7052 16.6126 10.5186 16.75 10.3811C16.8875 10.2436 17.0741 10.1663 17.2686 10.1663C17.463 10.1663 17.6496 10.2436 17.7871 10.3811C17.9246 10.5186 18.0019 10.7052 18.0019 10.8996ZM15.0687 10.8996C15.0687 11.0941 14.9915 11.2807 14.854 11.4181C14.7165 11.5556 14.5299 11.6329 14.3355 11.6329C14.141 11.6329 13.9544 11.5556 13.8169 11.4181C13.6794 11.2807 13.6022 11.0941 13.6022 10.8996C13.6022 10.7052 13.6794 10.5186 13.8169 10.3811C13.9544 10.2436 14.141 10.1663 14.3355 10.1663C14.5299 10.1663 14.7165 10.2436 14.854 10.3811C14.9915 10.5186 15.0687 10.7052 15.0687 10.8996ZM11.4023 9.06642C11.2793 9.06773 11.1573 9.08999 11.0416 9.13205C11.067 8.46162 11.2614 7.80838 11.6069 7.23323H12.6574C12.1484 7.7146 11.8366 8.36802 11.7825 9.06643L11.4023 9.06642ZM19.8351 11.2036V9.7997H20.2017C20.2989 9.7997 20.3922 9.83832 20.461 9.90707C20.5297 9.97581 20.5683 10.0691 20.5683 10.1663C20.568 10.3937 20.4975 10.6155 20.3662 10.8012C20.2349 10.9868 20.0493 11.1274 19.8351 11.2036L19.8351 11.2036ZM15.692 5.38301C15.7636 5.40576 15.8405 5.40576 15.912 5.38301L19.8351 4.15688V6.49977H11.769V4.15688L15.692 5.38301ZM11.0359 10.1661C11.0359 9.96362 11.2001 9.79944 11.4026 9.79944H11.7692V11.2033C11.5549 11.1272 11.3693 10.9866 11.238 10.801C11.1068 10.6152 11.0362 10.3934 11.0359 10.1661L11.0359 10.1661ZM12.5025 11.6326V10.5327L12.8833 11.0409C12.9257 11.5014 13.184 11.9147 13.5795 12.1544C13.9749 12.3944 14.4607 12.4325 14.8887 12.2572C15.3167 12.0821 15.6364 11.7143 15.7502 11.266H15.8543C15.968 11.7143 16.2877 12.0821 16.7159 12.2572C17.1439 12.4324 17.6297 12.3942 18.0251 12.1543C18.4206 11.9143 18.6787 11.501 18.7211 11.0405L19.1019 10.5327V11.6326C19.1019 12.8115 18.4731 13.9009 17.4521 14.4903C16.431 15.0797 15.1733 15.0797 14.1523 14.4903C13.1313 13.9009 12.5024 12.8115 12.5024 11.6326L12.5025 11.6326ZM15.8022 17.3472L14.3357 15.8806V15.3857C15.2776 15.759 16.3268 15.759 17.2688 15.3857V15.8806L15.8022 17.3472Z" fill="currentColor"/>
<path d="M20.5683 20.0625C20.3658 20.0625 20.2017 20.2267 20.2017 20.4291V22.629C20.2017 22.8314 20.3658 22.9956 20.5683 22.9956C20.7708 22.9956 20.9349 22.8314 20.9349 22.629V20.4291C20.9349 20.3319 20.8963 20.2386 20.8276 20.1699C20.7588 20.1011 20.6655 20.0625 20.5683 20.0625Z" fill="currentColor"/>
<path d="M17.1055 13.4062C17.2739 13.2937 17.3194 13.0661 17.2071 12.8976C17.0947 12.7292 16.867 12.6837 16.6986 12.796C16.4332 12.9734 16.1213 13.068 15.8021 13.068C15.4829 13.068 15.171 12.9734 14.9056 12.796C14.8247 12.7421 14.7257 12.7225 14.6303 12.7415C14.535 12.7605 14.4511 12.8168 14.397 12.8976C14.2848 13.066 14.3303 13.2937 14.4987 13.4062C14.8843 13.6643 15.338 13.8021 15.802 13.8021C16.2661 13.8021 16.7198 13.6643 17.1054 13.4062H17.1055Z" fill="currentColor"/>
<path d="M4.80268 16.4013H5.53595V17.1346C5.53595 17.2318 5.57458 17.3251 5.64333 17.3939C5.71207 17.4626 5.80537 17.5012 5.90259 17.5012H7.36915C7.46638 17.5012 7.55968 17.4626 7.62842 17.3939C7.69716 17.3251 7.73579 17.2318 7.73579 17.1346V16.4013H8.46907C8.5663 16.4013 8.6596 16.3627 8.72834 16.2939C8.79708 16.2252 8.83571 16.1319 8.83571 16.0347V14.5681C8.83571 14.4709 8.79708 14.3776 8.72834 14.3089C8.6596 14.2401 8.5663 14.2015 8.46907 14.2015H7.73579V13.4682C7.73579 13.371 7.69717 13.2777 7.62842 13.2089C7.55968 13.1402 7.46638 13.1016 7.36915 13.1016H5.90259C5.70013 13.1016 5.53595 13.2657 5.53595 13.4682V14.2015H4.80268C4.60021 14.2015 4.43604 14.3657 4.43604 14.5681V16.0347C4.43604 16.1319 4.47466 16.2252 4.54341 16.2939C4.61215 16.3627 4.70545 16.4013 4.80268 16.4013ZM5.16931 14.9348H5.90259C5.99982 14.9348 6.09312 14.8961 6.16186 14.8274C6.23061 14.7586 6.26923 14.6653 6.26923 14.5681V13.8348H7.00251V14.5681C7.00251 14.6653 7.04114 14.7586 7.10989 14.8274C7.17863 14.8961 7.27193 14.9348 7.36915 14.9348H8.10243V15.668H7.36915C7.16668 15.668 7.00251 15.8322 7.00251 16.0347V16.768H6.26923V16.0347C6.26923 15.9375 6.23061 15.8442 6.16186 15.7754C6.09312 15.7067 5.99982 15.668 5.90259 15.668H5.16931V14.9348Z" fill="currentColor"/>
<path d="M12.2359 20.8128L12.1354 20.7842V20.7821C12.1369 20.3897 12.0119 20.0072 11.7788 19.6917C11.5457 19.3761 11.2171 19.144 10.8416 19.0299L9.00838 18.466C8.45251 18.2917 7.84674 18.395 7.38012 18.7436C7.23706 18.8487 7.10989 18.9741 7.00251 19.1157C6.89514 18.9741 6.76796 18.8487 6.62491 18.7436C6.15825 18.3948 5.55247 18.2916 4.99665 18.466L3.16345 19.0299C2.78797 19.144 2.45929 19.3761 2.22623 19.6917C1.99318 20.0072 1.8681 20.3897 1.86958 20.7821V20.7842L1.76908 20.8128C1.57431 20.8683 1.46137 21.0713 1.51686 21.2661C1.57234 21.4608 1.77531 21.5738 1.97006 21.5183L5.70095 20.4524C5.88067 20.4016 6.07299 20.4218 6.2383 20.5087C6.40361 20.5954 6.52948 20.7424 6.58971 20.9192C6.64078 21.0665 6.77975 21.1654 6.93573 21.1655H7.06929C7.22528 21.1654 7.36424 21.0665 7.41531 20.9192C7.47554 20.7423 7.60125 20.5953 7.76656 20.5084C7.93188 20.4216 8.12436 20.4015 8.30408 20.4524L11.7688 21.4423V22.1463L9.23903 21.4222C8.89186 21.3235 8.52062 21.3546 8.19475 21.5099C7.86887 21.6651 7.61073 21.9337 7.46851 22.2655H6.53654C6.3943 21.9337 6.13618 21.6651 5.8103 21.5099C5.48441 21.3546 5.11318 21.3235 4.76602 21.4222L1.77055 22.2783C1.5928 22.3267 1.47839 22.4994 1.50343 22.682C1.52864 22.8646 1.68528 23.0002 1.86958 22.9988C1.90363 22.9986 1.93751 22.994 1.9704 22.9849L4.96621 22.1288V22.1286C5.16819 22.0712 5.38522 22.1008 5.56444 22.2103C5.74366 22.32 5.86888 22.4994 5.90996 22.7054C5.94483 22.8761 6.09492 22.9987 6.26924 22.9987H7.7358C7.91012 22.9987 8.06021 22.8761 8.09507 22.7054C8.13648 22.4995 8.26202 22.3205 8.44125 22.2111C8.62048 22.1019 8.83735 22.0725 9.03919 22.1301L12.035 22.9861V22.9863C12.146 23.0179 12.2651 22.9955 12.3569 22.9257C12.4489 22.8562 12.5026 22.7473 12.5021 22.6321V21.1655C12.5021 21.0017 12.3934 20.8577 12.236 20.8128L12.2359 20.8128ZM5.49941 19.7469L2.6257 20.568C2.66351 20.3732 2.75354 20.1923 2.88628 20.0449C3.01903 19.8974 3.18942 19.7889 3.37913 19.7309L5.21233 19.1671C5.48371 19.0815 5.778 19.1057 6.03172 19.2348C6.28542 19.3638 6.47822 19.5872 6.5689 19.857C6.23974 19.6845 5.8569 19.6452 5.49944 19.747L5.49941 19.7469ZM7.4364 19.8569C7.52691 19.587 7.71972 19.3635 7.97341 19.2343C8.22711 19.1053 8.5214 19.081 8.79296 19.1667L10.6262 19.7306C10.8159 19.7884 10.9863 19.8971 11.119 20.0445C11.2516 20.192 11.3416 20.3729 11.3793 20.5676L8.50589 19.7469C8.14858 19.6451 7.76574 19.6846 7.43673 19.8574L7.4364 19.8569Z" fill="currentColor"/>
</svg>
