<svg width="25" height="24" viewBox="0 0 25 24" fill="none" xmlns="http://www.w3.org/2000/svg">
<path d="M23.1346 3H1.86541C1.6635 3 1.5 3.19886 1.5 3.44444V20.5556C1.5 20.8011 1.6635 21 1.86541 21H23.1346C23.3363 21 23.5 20.8011 23.5 20.5556V3.44444C23.5 3.19907 23.3365 3 23.1346 3ZM22.7692 16.8809H8.01685C7.81494 16.8809 7.65144 17.0797 7.65144 17.3253C7.65144 17.5707 7.81494 17.7698 8.01685 17.7698H22.7692V20.1108L2.23096 20.111V17.77H5.58389C5.7858 17.77 5.9493 17.5709 5.9493 17.3255C5.9493 17.08 5.7858 16.8811 5.58389 16.8811L2.23096 16.8809V3.88905H22.7692V16.8809ZM14.2696 11.4989H20.2848C20.4867 11.4989 20.6502 11.3001 20.6502 11.0545C20.6502 10.8089 20.4867 10.61 20.2848 10.61H14.2696C14.0679 10.61 13.9042 10.8089 13.9042 11.0545C13.904 11.3001 14.0679 11.4989 14.2696 11.4989ZM14.2696 9.49189H20.2848C20.4867 9.49189 20.6502 9.29303 20.6502 9.04745C20.6502 8.80187 20.4867 8.60301 20.2848 8.60301L14.2696 8.6028C14.0679 8.6028 13.9042 8.80166 13.9042 9.04724C13.904 9.29303 14.0679 9.49189 14.2696 9.49189V9.49189ZM14.2696 13.5066H17.277C17.4789 13.5066 17.6424 13.3077 17.6424 13.0621C17.6424 12.8167 17.4789 12.6177 17.277 12.6177L14.2696 12.6175C14.0679 12.6175 13.9042 12.8165 13.9042 13.0619C13.904 13.3077 14.0679 13.5066 14.2696 13.5066V13.5066ZM4.71622 12.166H6.55163V14.4002C6.55163 14.6456 6.71513 14.8447 6.91704 14.8447H9.11683C9.31874 14.8447 9.48224 14.6456 9.48224 14.4002V12.166H11.3176C11.5196 12.166 11.6831 11.9671 11.6831 11.7215V9.04724C11.6831 8.80166 11.5196 8.6028 11.3176 8.6028H9.48224V6.37042C9.48224 6.12485 9.31874 5.92598 9.11683 5.92598H6.91704C6.71513 5.92598 6.55163 6.12485 6.55163 6.37042V8.6028H4.71622C4.51431 8.6028 4.35081 8.80166 4.35081 9.04724V11.7215C4.35064 11.9671 4.51414 12.166 4.71622 12.166ZM5.08163 9.49189H6.91704C7.11895 9.49189 7.28245 9.29303 7.28245 9.04745V6.81508H8.75124V9.04745C8.75124 9.29303 8.91474 9.49189 9.11665 9.49189H10.9521V11.2771H9.11665C8.91474 11.2771 8.75124 11.476 8.75124 11.7215V13.9558H7.28245V11.7215C7.28245 11.476 7.11895 11.2771 6.91704 11.2771H5.08163V9.49189Z" fill="currentColor" stroke="currentColor" stroke-width="0.2"/>
</svg>
